G04 #@! TF.GenerationSoftware,KiCad,Pcbnew,8.0.5*
G04 #@! TF.CreationDate,2024-11-13T11:33:32+00:00*
G04 #@! TF.ProjectId,PSU Adapter 2,50535520-4164-4617-9074-657220322e6b,0.2*
G04 #@! TF.SameCoordinates,Original*
G04 #@! TF.FileFunction,Legend,Top*
G04 #@! TF.FilePolarity,Positive*
%FSLAX46Y46*%
G04 Gerber Fmt 4.6, Leading zero omitted, Abs format (unit mm)*
G04 Created by KiCad (PCBNEW 8.0.5) date 2024-11-13 11:33:32*
%MOMM*%
%LPD*%
G01*
G04 APERTURE LIST*
G04 Aperture macros list*
%AMRoundRect*
0 Rectangle with rounded corners*
0 $1 Rounding radius*
0 $2 $3 $4 $5 $6 $7 $8 $9 X,Y pos of 4 corners*
0 Add a 4 corners polygon primitive as box body*
4,1,4,$2,$3,$4,$5,$6,$7,$8,$9,$2,$3,0*
0 Add four circle primitives for the rounded corners*
1,1,$1+$1,$2,$3*
1,1,$1+$1,$4,$5*
1,1,$1+$1,$6,$7*
1,1,$1+$1,$8,$9*
0 Add four rect primitives between the rounded corners*
20,1,$1+$1,$2,$3,$4,$5,0*
20,1,$1+$1,$4,$5,$6,$7,0*
20,1,$1+$1,$6,$7,$8,$9,0*
20,1,$1+$1,$8,$9,$2,$3,0*%
G04 Aperture macros list end*
%ADD10C,0.300000*%
%ADD11C,0.100000*%
%ADD12C,0.150000*%
%ADD13C,0.120000*%
%ADD14C,0.010000*%
%ADD15RoundRect,0.250001X1.399999X-1.099999X1.399999X1.099999X-1.399999X1.099999X-1.399999X-1.099999X0*%
%ADD16O,3.300000X2.700000*%
%ADD17R,1.800000X1.800000*%
%ADD18C,1.800000*%
%ADD19R,1.600000X1.600000*%
%ADD20O,1.600000X1.600000*%
%ADD21RoundRect,0.250002X-1.699998X-1.699998X1.699998X-1.699998X1.699998X1.699998X-1.699998X1.699998X0*%
%ADD22C,3.900000*%
%ADD23C,1.400000*%
%ADD24O,1.400000X1.400000*%
%ADD25RoundRect,0.250002X-1.699998X1.699998X-1.699998X-1.699998X1.699998X-1.699998X1.699998X1.699998X0*%
%ADD26C,7.400000*%
%ADD27C,3.000000*%
%ADD28C,2.500000*%
%ADD29C,1.600000*%
%ADD30RoundRect,0.250001X1.099999X1.099999X-1.099999X1.099999X-1.099999X-1.099999X1.099999X-1.099999X0*%
%ADD31C,2.700000*%
%ADD32RoundRect,0.250000X-0.625000X0.350000X-0.625000X-0.350000X0.625000X-0.350000X0.625000X0.350000X0*%
%ADD33O,1.750000X1.200000*%
G04 APERTURE END LIST*
D10*
X145229400Y-123445489D02*
X145229400Y-122302632D01*
X145229400Y-115874061D02*
X145229400Y-114731204D01*
X145800828Y-115302632D02*
X144657971Y-115302632D01*
X129268796Y-103800828D02*
X128554510Y-103800828D01*
X128554510Y-103800828D02*
X128554510Y-102300828D01*
D11*
X102366816Y-167743734D02*
X102366816Y-167267544D01*
X102652531Y-167838972D02*
X101652531Y-167505639D01*
X101652531Y-167505639D02*
X102652531Y-167172306D01*
X101985864Y-166838972D02*
X102985864Y-166838972D01*
X102033483Y-166838972D02*
X101985864Y-166743734D01*
X101985864Y-166743734D02*
X101985864Y-166553258D01*
X101985864Y-166553258D02*
X102033483Y-166458020D01*
X102033483Y-166458020D02*
X102081102Y-166410401D01*
X102081102Y-166410401D02*
X102176340Y-166362782D01*
X102176340Y-166362782D02*
X102462054Y-166362782D01*
X102462054Y-166362782D02*
X102557292Y-166410401D01*
X102557292Y-166410401D02*
X102604912Y-166458020D01*
X102604912Y-166458020D02*
X102652531Y-166553258D01*
X102652531Y-166553258D02*
X102652531Y-166743734D01*
X102652531Y-166743734D02*
X102604912Y-166838972D01*
X101985864Y-165934210D02*
X102985864Y-165934210D01*
X102033483Y-165934210D02*
X101985864Y-165838972D01*
X101985864Y-165838972D02*
X101985864Y-165648496D01*
X101985864Y-165648496D02*
X102033483Y-165553258D01*
X102033483Y-165553258D02*
X102081102Y-165505639D01*
X102081102Y-165505639D02*
X102176340Y-165458020D01*
X102176340Y-165458020D02*
X102462054Y-165458020D01*
X102462054Y-165458020D02*
X102557292Y-165505639D01*
X102557292Y-165505639D02*
X102604912Y-165553258D01*
X102604912Y-165553258D02*
X102652531Y-165648496D01*
X102652531Y-165648496D02*
X102652531Y-165838972D01*
X102652531Y-165838972D02*
X102604912Y-165934210D01*
X102652531Y-164886591D02*
X102604912Y-164981829D01*
X102604912Y-164981829D02*
X102509673Y-165029448D01*
X102509673Y-165029448D02*
X101652531Y-165029448D01*
X102604912Y-164124686D02*
X102652531Y-164219924D01*
X102652531Y-164219924D02*
X102652531Y-164410400D01*
X102652531Y-164410400D02*
X102604912Y-164505638D01*
X102604912Y-164505638D02*
X102509673Y-164553257D01*
X102509673Y-164553257D02*
X102128721Y-164553257D01*
X102128721Y-164553257D02*
X102033483Y-164505638D01*
X102033483Y-164505638D02*
X101985864Y-164410400D01*
X101985864Y-164410400D02*
X101985864Y-164219924D01*
X101985864Y-164219924D02*
X102033483Y-164124686D01*
X102033483Y-164124686D02*
X102128721Y-164077067D01*
X102128721Y-164077067D02*
X102223959Y-164077067D01*
X102223959Y-164077067D02*
X102319197Y-164553257D01*
X102652531Y-162886590D02*
X101652531Y-162886590D01*
X101652531Y-162886590D02*
X102366816Y-162553257D01*
X102366816Y-162553257D02*
X101652531Y-162219924D01*
X101652531Y-162219924D02*
X102652531Y-162219924D01*
X102652531Y-161315162D02*
X102128721Y-161315162D01*
X102128721Y-161315162D02*
X102033483Y-161362781D01*
X102033483Y-161362781D02*
X101985864Y-161458019D01*
X101985864Y-161458019D02*
X101985864Y-161648495D01*
X101985864Y-161648495D02*
X102033483Y-161743733D01*
X102604912Y-161315162D02*
X102652531Y-161410400D01*
X102652531Y-161410400D02*
X102652531Y-161648495D01*
X102652531Y-161648495D02*
X102604912Y-161743733D01*
X102604912Y-161743733D02*
X102509673Y-161791352D01*
X102509673Y-161791352D02*
X102414435Y-161791352D01*
X102414435Y-161791352D02*
X102319197Y-161743733D01*
X102319197Y-161743733D02*
X102271578Y-161648495D01*
X102271578Y-161648495D02*
X102271578Y-161410400D01*
X102271578Y-161410400D02*
X102223959Y-161315162D01*
X102604912Y-160410400D02*
X102652531Y-160505638D01*
X102652531Y-160505638D02*
X102652531Y-160696114D01*
X102652531Y-160696114D02*
X102604912Y-160791352D01*
X102604912Y-160791352D02*
X102557292Y-160838971D01*
X102557292Y-160838971D02*
X102462054Y-160886590D01*
X102462054Y-160886590D02*
X102176340Y-160886590D01*
X102176340Y-160886590D02*
X102081102Y-160838971D01*
X102081102Y-160838971D02*
X102033483Y-160791352D01*
X102033483Y-160791352D02*
X101985864Y-160696114D01*
X101985864Y-160696114D02*
X101985864Y-160505638D01*
X101985864Y-160505638D02*
X102033483Y-160410400D01*
X102652531Y-159219923D02*
X101652531Y-159219923D01*
X102652531Y-158743733D02*
X101652531Y-158743733D01*
X102604912Y-157838972D02*
X102652531Y-157934210D01*
X102652531Y-157934210D02*
X102652531Y-158124686D01*
X102652531Y-158124686D02*
X102604912Y-158219924D01*
X102604912Y-158219924D02*
X102557292Y-158267543D01*
X102557292Y-158267543D02*
X102462054Y-158315162D01*
X102462054Y-158315162D02*
X102176340Y-158315162D01*
X102176340Y-158315162D02*
X102081102Y-158267543D01*
X102081102Y-158267543D02*
X102033483Y-158219924D01*
X102033483Y-158219924D02*
X101985864Y-158124686D01*
X101985864Y-158124686D02*
X101985864Y-157934210D01*
X101985864Y-157934210D02*
X102033483Y-157838972D01*
X102652531Y-157505638D02*
X101985864Y-156981829D01*
X101985864Y-157505638D02*
X102652531Y-156981829D01*
X102652531Y-155838971D02*
X101652531Y-155838971D01*
X101652531Y-155838971D02*
X101652531Y-155458019D01*
X101652531Y-155458019D02*
X101700150Y-155362781D01*
X101700150Y-155362781D02*
X101747769Y-155315162D01*
X101747769Y-155315162D02*
X101843007Y-155267543D01*
X101843007Y-155267543D02*
X101985864Y-155267543D01*
X101985864Y-155267543D02*
X102081102Y-155315162D01*
X102081102Y-155315162D02*
X102128721Y-155362781D01*
X102128721Y-155362781D02*
X102176340Y-155458019D01*
X102176340Y-155458019D02*
X102176340Y-155838971D01*
X102604912Y-154886590D02*
X102652531Y-154743733D01*
X102652531Y-154743733D02*
X102652531Y-154505638D01*
X102652531Y-154505638D02*
X102604912Y-154410400D01*
X102604912Y-154410400D02*
X102557292Y-154362781D01*
X102557292Y-154362781D02*
X102462054Y-154315162D01*
X102462054Y-154315162D02*
X102366816Y-154315162D01*
X102366816Y-154315162D02*
X102271578Y-154362781D01*
X102271578Y-154362781D02*
X102223959Y-154410400D01*
X102223959Y-154410400D02*
X102176340Y-154505638D01*
X102176340Y-154505638D02*
X102128721Y-154696114D01*
X102128721Y-154696114D02*
X102081102Y-154791352D01*
X102081102Y-154791352D02*
X102033483Y-154838971D01*
X102033483Y-154838971D02*
X101938245Y-154886590D01*
X101938245Y-154886590D02*
X101843007Y-154886590D01*
X101843007Y-154886590D02*
X101747769Y-154838971D01*
X101747769Y-154838971D02*
X101700150Y-154791352D01*
X101700150Y-154791352D02*
X101652531Y-154696114D01*
X101652531Y-154696114D02*
X101652531Y-154458019D01*
X101652531Y-154458019D02*
X101700150Y-154315162D01*
X101652531Y-153886590D02*
X102462054Y-153886590D01*
X102462054Y-153886590D02*
X102557292Y-153838971D01*
X102557292Y-153838971D02*
X102604912Y-153791352D01*
X102604912Y-153791352D02*
X102652531Y-153696114D01*
X102652531Y-153696114D02*
X102652531Y-153505638D01*
X102652531Y-153505638D02*
X102604912Y-153410400D01*
X102604912Y-153410400D02*
X102557292Y-153362781D01*
X102557292Y-153362781D02*
X102462054Y-153315162D01*
X102462054Y-153315162D02*
X101652531Y-153315162D01*
X102366816Y-152124685D02*
X102366816Y-151648495D01*
X102652531Y-152219923D02*
X101652531Y-151886590D01*
X101652531Y-151886590D02*
X102652531Y-151553257D01*
X101652531Y-151362780D02*
X101652531Y-150791352D01*
X102652531Y-151077066D02*
X101652531Y-151077066D01*
X101652531Y-150553256D02*
X102652531Y-149886590D01*
X101652531Y-149886590D02*
X102652531Y-150553256D01*
X102366816Y-148791351D02*
X102366816Y-148315161D01*
X102652531Y-148886589D02*
X101652531Y-148553256D01*
X101652531Y-148553256D02*
X102652531Y-148219923D01*
X102652531Y-147458018D02*
X101652531Y-147458018D01*
X102604912Y-147458018D02*
X102652531Y-147553256D01*
X102652531Y-147553256D02*
X102652531Y-147743732D01*
X102652531Y-147743732D02*
X102604912Y-147838970D01*
X102604912Y-147838970D02*
X102557292Y-147886589D01*
X102557292Y-147886589D02*
X102462054Y-147934208D01*
X102462054Y-147934208D02*
X102176340Y-147934208D01*
X102176340Y-147934208D02*
X102081102Y-147886589D01*
X102081102Y-147886589D02*
X102033483Y-147838970D01*
X102033483Y-147838970D02*
X101985864Y-147743732D01*
X101985864Y-147743732D02*
X101985864Y-147553256D01*
X101985864Y-147553256D02*
X102033483Y-147458018D01*
X102652531Y-146553256D02*
X102128721Y-146553256D01*
X102128721Y-146553256D02*
X102033483Y-146600875D01*
X102033483Y-146600875D02*
X101985864Y-146696113D01*
X101985864Y-146696113D02*
X101985864Y-146886589D01*
X101985864Y-146886589D02*
X102033483Y-146981827D01*
X102604912Y-146553256D02*
X102652531Y-146648494D01*
X102652531Y-146648494D02*
X102652531Y-146886589D01*
X102652531Y-146886589D02*
X102604912Y-146981827D01*
X102604912Y-146981827D02*
X102509673Y-147029446D01*
X102509673Y-147029446D02*
X102414435Y-147029446D01*
X102414435Y-147029446D02*
X102319197Y-146981827D01*
X102319197Y-146981827D02*
X102271578Y-146886589D01*
X102271578Y-146886589D02*
X102271578Y-146648494D01*
X102271578Y-146648494D02*
X102223959Y-146553256D01*
X101985864Y-146077065D02*
X102985864Y-146077065D01*
X102033483Y-146077065D02*
X101985864Y-145981827D01*
X101985864Y-145981827D02*
X101985864Y-145791351D01*
X101985864Y-145791351D02*
X102033483Y-145696113D01*
X102033483Y-145696113D02*
X102081102Y-145648494D01*
X102081102Y-145648494D02*
X102176340Y-145600875D01*
X102176340Y-145600875D02*
X102462054Y-145600875D01*
X102462054Y-145600875D02*
X102557292Y-145648494D01*
X102557292Y-145648494D02*
X102604912Y-145696113D01*
X102604912Y-145696113D02*
X102652531Y-145791351D01*
X102652531Y-145791351D02*
X102652531Y-145981827D01*
X102652531Y-145981827D02*
X102604912Y-146077065D01*
X101985864Y-145315160D02*
X101985864Y-144934208D01*
X101652531Y-145172303D02*
X102509673Y-145172303D01*
X102509673Y-145172303D02*
X102604912Y-145124684D01*
X102604912Y-145124684D02*
X102652531Y-145029446D01*
X102652531Y-145029446D02*
X102652531Y-144934208D01*
X102604912Y-144219922D02*
X102652531Y-144315160D01*
X102652531Y-144315160D02*
X102652531Y-144505636D01*
X102652531Y-144505636D02*
X102604912Y-144600874D01*
X102604912Y-144600874D02*
X102509673Y-144648493D01*
X102509673Y-144648493D02*
X102128721Y-144648493D01*
X102128721Y-144648493D02*
X102033483Y-144600874D01*
X102033483Y-144600874D02*
X101985864Y-144505636D01*
X101985864Y-144505636D02*
X101985864Y-144315160D01*
X101985864Y-144315160D02*
X102033483Y-144219922D01*
X102033483Y-144219922D02*
X102128721Y-144172303D01*
X102128721Y-144172303D02*
X102223959Y-144172303D01*
X102223959Y-144172303D02*
X102319197Y-144648493D01*
X102652531Y-143743731D02*
X101985864Y-143743731D01*
X102176340Y-143743731D02*
X102081102Y-143696112D01*
X102081102Y-143696112D02*
X102033483Y-143648493D01*
X102033483Y-143648493D02*
X101985864Y-143553255D01*
X101985864Y-143553255D02*
X101985864Y-143458017D01*
X102652531Y-141791350D02*
X102176340Y-142124683D01*
X102652531Y-142362778D02*
X101652531Y-142362778D01*
X101652531Y-142362778D02*
X101652531Y-141981826D01*
X101652531Y-141981826D02*
X101700150Y-141886588D01*
X101700150Y-141886588D02*
X101747769Y-141838969D01*
X101747769Y-141838969D02*
X101843007Y-141791350D01*
X101843007Y-141791350D02*
X101985864Y-141791350D01*
X101985864Y-141791350D02*
X102081102Y-141838969D01*
X102081102Y-141838969D02*
X102128721Y-141886588D01*
X102128721Y-141886588D02*
X102176340Y-141981826D01*
X102176340Y-141981826D02*
X102176340Y-142362778D01*
X102604912Y-140981826D02*
X102652531Y-141077064D01*
X102652531Y-141077064D02*
X102652531Y-141267540D01*
X102652531Y-141267540D02*
X102604912Y-141362778D01*
X102604912Y-141362778D02*
X102509673Y-141410397D01*
X102509673Y-141410397D02*
X102128721Y-141410397D01*
X102128721Y-141410397D02*
X102033483Y-141362778D01*
X102033483Y-141362778D02*
X101985864Y-141267540D01*
X101985864Y-141267540D02*
X101985864Y-141077064D01*
X101985864Y-141077064D02*
X102033483Y-140981826D01*
X102033483Y-140981826D02*
X102128721Y-140934207D01*
X102128721Y-140934207D02*
X102223959Y-140934207D01*
X102223959Y-140934207D02*
X102319197Y-141410397D01*
X101985864Y-140600873D02*
X102652531Y-140362778D01*
X102652531Y-140362778D02*
X101985864Y-140124683D01*
X102557292Y-139743730D02*
X102604912Y-139696111D01*
X102604912Y-139696111D02*
X102652531Y-139743730D01*
X102652531Y-139743730D02*
X102604912Y-139791349D01*
X102604912Y-139791349D02*
X102557292Y-139743730D01*
X102557292Y-139743730D02*
X102652531Y-139743730D01*
X101652531Y-138315159D02*
X101652531Y-138219921D01*
X101652531Y-138219921D02*
X101700150Y-138124683D01*
X101700150Y-138124683D02*
X101747769Y-138077064D01*
X101747769Y-138077064D02*
X101843007Y-138029445D01*
X101843007Y-138029445D02*
X102033483Y-137981826D01*
X102033483Y-137981826D02*
X102271578Y-137981826D01*
X102271578Y-137981826D02*
X102462054Y-138029445D01*
X102462054Y-138029445D02*
X102557292Y-138077064D01*
X102557292Y-138077064D02*
X102604912Y-138124683D01*
X102604912Y-138124683D02*
X102652531Y-138219921D01*
X102652531Y-138219921D02*
X102652531Y-138315159D01*
X102652531Y-138315159D02*
X102604912Y-138410397D01*
X102604912Y-138410397D02*
X102557292Y-138458016D01*
X102557292Y-138458016D02*
X102462054Y-138505635D01*
X102462054Y-138505635D02*
X102271578Y-138553254D01*
X102271578Y-138553254D02*
X102033483Y-138553254D01*
X102033483Y-138553254D02*
X101843007Y-138505635D01*
X101843007Y-138505635D02*
X101747769Y-138458016D01*
X101747769Y-138458016D02*
X101700150Y-138410397D01*
X101700150Y-138410397D02*
X101652531Y-138315159D01*
X102557292Y-137553254D02*
X102604912Y-137505635D01*
X102604912Y-137505635D02*
X102652531Y-137553254D01*
X102652531Y-137553254D02*
X102604912Y-137600873D01*
X102604912Y-137600873D02*
X102557292Y-137553254D01*
X102557292Y-137553254D02*
X102652531Y-137553254D01*
X101747769Y-137124683D02*
X101700150Y-137077064D01*
X101700150Y-137077064D02*
X101652531Y-136981826D01*
X101652531Y-136981826D02*
X101652531Y-136743731D01*
X101652531Y-136743731D02*
X101700150Y-136648493D01*
X101700150Y-136648493D02*
X101747769Y-136600874D01*
X101747769Y-136600874D02*
X101843007Y-136553255D01*
X101843007Y-136553255D02*
X101938245Y-136553255D01*
X101938245Y-136553255D02*
X102081102Y-136600874D01*
X102081102Y-136600874D02*
X102652531Y-137172302D01*
X102652531Y-137172302D02*
X102652531Y-136553255D01*
X104262475Y-167124687D02*
X103786284Y-167458020D01*
X104262475Y-167696115D02*
X103262475Y-167696115D01*
X103262475Y-167696115D02*
X103262475Y-167315163D01*
X103262475Y-167315163D02*
X103310094Y-167219925D01*
X103310094Y-167219925D02*
X103357713Y-167172306D01*
X103357713Y-167172306D02*
X103452951Y-167124687D01*
X103452951Y-167124687D02*
X103595808Y-167124687D01*
X103595808Y-167124687D02*
X103691046Y-167172306D01*
X103691046Y-167172306D02*
X103738665Y-167219925D01*
X103738665Y-167219925D02*
X103786284Y-167315163D01*
X103786284Y-167315163D02*
X103786284Y-167696115D01*
X104262475Y-166553258D02*
X104214856Y-166648496D01*
X104214856Y-166648496D02*
X104167236Y-166696115D01*
X104167236Y-166696115D02*
X104071998Y-166743734D01*
X104071998Y-166743734D02*
X103786284Y-166743734D01*
X103786284Y-166743734D02*
X103691046Y-166696115D01*
X103691046Y-166696115D02*
X103643427Y-166648496D01*
X103643427Y-166648496D02*
X103595808Y-166553258D01*
X103595808Y-166553258D02*
X103595808Y-166410401D01*
X103595808Y-166410401D02*
X103643427Y-166315163D01*
X103643427Y-166315163D02*
X103691046Y-166267544D01*
X103691046Y-166267544D02*
X103786284Y-166219925D01*
X103786284Y-166219925D02*
X104071998Y-166219925D01*
X104071998Y-166219925D02*
X104167236Y-166267544D01*
X104167236Y-166267544D02*
X104214856Y-166315163D01*
X104214856Y-166315163D02*
X104262475Y-166410401D01*
X104262475Y-166410401D02*
X104262475Y-166553258D01*
X104262475Y-165362782D02*
X103262475Y-165362782D01*
X104214856Y-165362782D02*
X104262475Y-165458020D01*
X104262475Y-165458020D02*
X104262475Y-165648496D01*
X104262475Y-165648496D02*
X104214856Y-165743734D01*
X104214856Y-165743734D02*
X104167236Y-165791353D01*
X104167236Y-165791353D02*
X104071998Y-165838972D01*
X104071998Y-165838972D02*
X103786284Y-165838972D01*
X103786284Y-165838972D02*
X103691046Y-165791353D01*
X103691046Y-165791353D02*
X103643427Y-165743734D01*
X103643427Y-165743734D02*
X103595808Y-165648496D01*
X103595808Y-165648496D02*
X103595808Y-165458020D01*
X103595808Y-165458020D02*
X103643427Y-165362782D01*
X103262475Y-164267543D02*
X103262475Y-163696115D01*
X104262475Y-163981829D02*
X103262475Y-163981829D01*
X104262475Y-163362781D02*
X103262475Y-163362781D01*
X104262475Y-162934210D02*
X103738665Y-162934210D01*
X103738665Y-162934210D02*
X103643427Y-162981829D01*
X103643427Y-162981829D02*
X103595808Y-163077067D01*
X103595808Y-163077067D02*
X103595808Y-163219924D01*
X103595808Y-163219924D02*
X103643427Y-163315162D01*
X103643427Y-163315162D02*
X103691046Y-163362781D01*
X104262475Y-162315162D02*
X104214856Y-162410400D01*
X104214856Y-162410400D02*
X104167236Y-162458019D01*
X104167236Y-162458019D02*
X104071998Y-162505638D01*
X104071998Y-162505638D02*
X103786284Y-162505638D01*
X103786284Y-162505638D02*
X103691046Y-162458019D01*
X103691046Y-162458019D02*
X103643427Y-162410400D01*
X103643427Y-162410400D02*
X103595808Y-162315162D01*
X103595808Y-162315162D02*
X103595808Y-162172305D01*
X103595808Y-162172305D02*
X103643427Y-162077067D01*
X103643427Y-162077067D02*
X103691046Y-162029448D01*
X103691046Y-162029448D02*
X103786284Y-161981829D01*
X103786284Y-161981829D02*
X104071998Y-161981829D01*
X104071998Y-161981829D02*
X104167236Y-162029448D01*
X104167236Y-162029448D02*
X104214856Y-162077067D01*
X104214856Y-162077067D02*
X104262475Y-162172305D01*
X104262475Y-162172305D02*
X104262475Y-162315162D01*
X104262475Y-161553257D02*
X103595808Y-161553257D01*
X103691046Y-161553257D02*
X103643427Y-161505638D01*
X103643427Y-161505638D02*
X103595808Y-161410400D01*
X103595808Y-161410400D02*
X103595808Y-161267543D01*
X103595808Y-161267543D02*
X103643427Y-161172305D01*
X103643427Y-161172305D02*
X103738665Y-161124686D01*
X103738665Y-161124686D02*
X104262475Y-161124686D01*
X103738665Y-161124686D02*
X103643427Y-161077067D01*
X103643427Y-161077067D02*
X103595808Y-160981829D01*
X103595808Y-160981829D02*
X103595808Y-160838972D01*
X103595808Y-160838972D02*
X103643427Y-160743733D01*
X103643427Y-160743733D02*
X103738665Y-160696114D01*
X103738665Y-160696114D02*
X104262475Y-160696114D01*
X104262475Y-159791353D02*
X103738665Y-159791353D01*
X103738665Y-159791353D02*
X103643427Y-159838972D01*
X103643427Y-159838972D02*
X103595808Y-159934210D01*
X103595808Y-159934210D02*
X103595808Y-160124686D01*
X103595808Y-160124686D02*
X103643427Y-160219924D01*
X104214856Y-159791353D02*
X104262475Y-159886591D01*
X104262475Y-159886591D02*
X104262475Y-160124686D01*
X104262475Y-160124686D02*
X104214856Y-160219924D01*
X104214856Y-160219924D02*
X104119617Y-160267543D01*
X104119617Y-160267543D02*
X104024379Y-160267543D01*
X104024379Y-160267543D02*
X103929141Y-160219924D01*
X103929141Y-160219924D02*
X103881522Y-160124686D01*
X103881522Y-160124686D02*
X103881522Y-159886591D01*
X103881522Y-159886591D02*
X103833903Y-159791353D01*
X104214856Y-159362781D02*
X104262475Y-159267543D01*
X104262475Y-159267543D02*
X104262475Y-159077067D01*
X104262475Y-159077067D02*
X104214856Y-158981829D01*
X104214856Y-158981829D02*
X104119617Y-158934210D01*
X104119617Y-158934210D02*
X104071998Y-158934210D01*
X104071998Y-158934210D02*
X103976760Y-158981829D01*
X103976760Y-158981829D02*
X103929141Y-159077067D01*
X103929141Y-159077067D02*
X103929141Y-159219924D01*
X103929141Y-159219924D02*
X103881522Y-159315162D01*
X103881522Y-159315162D02*
X103786284Y-159362781D01*
X103786284Y-159362781D02*
X103738665Y-159362781D01*
X103738665Y-159362781D02*
X103643427Y-159315162D01*
X103643427Y-159315162D02*
X103595808Y-159219924D01*
X103595808Y-159219924D02*
X103595808Y-159077067D01*
X103595808Y-159077067D02*
X103643427Y-158981829D01*
X103881522Y-157743733D02*
X103881522Y-156981829D01*
X104262475Y-155743733D02*
X103262475Y-155743733D01*
X103262475Y-155743733D02*
X103262475Y-155362781D01*
X103262475Y-155362781D02*
X103310094Y-155267543D01*
X103310094Y-155267543D02*
X103357713Y-155219924D01*
X103357713Y-155219924D02*
X103452951Y-155172305D01*
X103452951Y-155172305D02*
X103595808Y-155172305D01*
X103595808Y-155172305D02*
X103691046Y-155219924D01*
X103691046Y-155219924D02*
X103738665Y-155267543D01*
X103738665Y-155267543D02*
X103786284Y-155362781D01*
X103786284Y-155362781D02*
X103786284Y-155743733D01*
X104262475Y-154315162D02*
X103738665Y-154315162D01*
X103738665Y-154315162D02*
X103643427Y-154362781D01*
X103643427Y-154362781D02*
X103595808Y-154458019D01*
X103595808Y-154458019D02*
X103595808Y-154648495D01*
X103595808Y-154648495D02*
X103643427Y-154743733D01*
X104214856Y-154315162D02*
X104262475Y-154410400D01*
X104262475Y-154410400D02*
X104262475Y-154648495D01*
X104262475Y-154648495D02*
X104214856Y-154743733D01*
X104214856Y-154743733D02*
X104119617Y-154791352D01*
X104119617Y-154791352D02*
X104024379Y-154791352D01*
X104024379Y-154791352D02*
X103929141Y-154743733D01*
X103929141Y-154743733D02*
X103881522Y-154648495D01*
X103881522Y-154648495D02*
X103881522Y-154410400D01*
X103881522Y-154410400D02*
X103833903Y-154315162D01*
X104262475Y-153838971D02*
X103595808Y-153838971D01*
X103786284Y-153838971D02*
X103691046Y-153791352D01*
X103691046Y-153791352D02*
X103643427Y-153743733D01*
X103643427Y-153743733D02*
X103595808Y-153648495D01*
X103595808Y-153648495D02*
X103595808Y-153553257D01*
X104262475Y-153219923D02*
X103262475Y-153219923D01*
X103881522Y-153124685D02*
X104262475Y-152838971D01*
X103595808Y-152838971D02*
X103976760Y-153219923D01*
X104214856Y-152458018D02*
X104262475Y-152362780D01*
X104262475Y-152362780D02*
X104262475Y-152172304D01*
X104262475Y-152172304D02*
X104214856Y-152077066D01*
X104214856Y-152077066D02*
X104119617Y-152029447D01*
X104119617Y-152029447D02*
X104071998Y-152029447D01*
X104071998Y-152029447D02*
X103976760Y-152077066D01*
X103976760Y-152077066D02*
X103929141Y-152172304D01*
X103929141Y-152172304D02*
X103929141Y-152315161D01*
X103929141Y-152315161D02*
X103881522Y-152410399D01*
X103881522Y-152410399D02*
X103786284Y-152458018D01*
X103786284Y-152458018D02*
X103738665Y-152458018D01*
X103738665Y-152458018D02*
X103643427Y-152410399D01*
X103643427Y-152410399D02*
X103595808Y-152315161D01*
X103595808Y-152315161D02*
X103595808Y-152172304D01*
X103595808Y-152172304D02*
X103643427Y-152077066D01*
X103595808Y-151696113D02*
X104262475Y-151458018D01*
X103595808Y-151219923D02*
X104262475Y-151458018D01*
X104262475Y-151458018D02*
X104500570Y-151553256D01*
X104500570Y-151553256D02*
X104548189Y-151600875D01*
X104548189Y-151600875D02*
X104595808Y-151696113D01*
X104262475Y-150410399D02*
X103262475Y-150410399D01*
X104214856Y-150410399D02*
X104262475Y-150505637D01*
X104262475Y-150505637D02*
X104262475Y-150696113D01*
X104262475Y-150696113D02*
X104214856Y-150791351D01*
X104214856Y-150791351D02*
X104167236Y-150838970D01*
X104167236Y-150838970D02*
X104071998Y-150886589D01*
X104071998Y-150886589D02*
X103786284Y-150886589D01*
X103786284Y-150886589D02*
X103691046Y-150838970D01*
X103691046Y-150838970D02*
X103643427Y-150791351D01*
X103643427Y-150791351D02*
X103595808Y-150696113D01*
X103595808Y-150696113D02*
X103595808Y-150505637D01*
X103595808Y-150505637D02*
X103643427Y-150410399D01*
X104214856Y-149553256D02*
X104262475Y-149648494D01*
X104262475Y-149648494D02*
X104262475Y-149838970D01*
X104262475Y-149838970D02*
X104214856Y-149934208D01*
X104214856Y-149934208D02*
X104119617Y-149981827D01*
X104119617Y-149981827D02*
X103738665Y-149981827D01*
X103738665Y-149981827D02*
X103643427Y-149934208D01*
X103643427Y-149934208D02*
X103595808Y-149838970D01*
X103595808Y-149838970D02*
X103595808Y-149648494D01*
X103595808Y-149648494D02*
X103643427Y-149553256D01*
X103643427Y-149553256D02*
X103738665Y-149505637D01*
X103738665Y-149505637D02*
X103833903Y-149505637D01*
X103833903Y-149505637D02*
X103929141Y-149981827D01*
X104262475Y-147743732D02*
X103786284Y-148077065D01*
X104262475Y-148315160D02*
X103262475Y-148315160D01*
X103262475Y-148315160D02*
X103262475Y-147934208D01*
X103262475Y-147934208D02*
X103310094Y-147838970D01*
X103310094Y-147838970D02*
X103357713Y-147791351D01*
X103357713Y-147791351D02*
X103452951Y-147743732D01*
X103452951Y-147743732D02*
X103595808Y-147743732D01*
X103595808Y-147743732D02*
X103691046Y-147791351D01*
X103691046Y-147791351D02*
X103738665Y-147838970D01*
X103738665Y-147838970D02*
X103786284Y-147934208D01*
X103786284Y-147934208D02*
X103786284Y-148315160D01*
X104214856Y-146934208D02*
X104262475Y-147029446D01*
X104262475Y-147029446D02*
X104262475Y-147219922D01*
X104262475Y-147219922D02*
X104214856Y-147315160D01*
X104214856Y-147315160D02*
X104119617Y-147362779D01*
X104119617Y-147362779D02*
X103738665Y-147362779D01*
X103738665Y-147362779D02*
X103643427Y-147315160D01*
X103643427Y-147315160D02*
X103595808Y-147219922D01*
X103595808Y-147219922D02*
X103595808Y-147029446D01*
X103595808Y-147029446D02*
X103643427Y-146934208D01*
X103643427Y-146934208D02*
X103738665Y-146886589D01*
X103738665Y-146886589D02*
X103833903Y-146886589D01*
X103833903Y-146886589D02*
X103929141Y-147362779D01*
X103595808Y-146600874D02*
X103595808Y-146219922D01*
X103262475Y-146458017D02*
X104119617Y-146458017D01*
X104119617Y-146458017D02*
X104214856Y-146410398D01*
X104214856Y-146410398D02*
X104262475Y-146315160D01*
X104262475Y-146315160D02*
X104262475Y-146219922D01*
X104262475Y-145886588D02*
X103595808Y-145886588D01*
X103786284Y-145886588D02*
X103691046Y-145838969D01*
X103691046Y-145838969D02*
X103643427Y-145791350D01*
X103643427Y-145791350D02*
X103595808Y-145696112D01*
X103595808Y-145696112D02*
X103595808Y-145600874D01*
X104262475Y-145124683D02*
X104214856Y-145219921D01*
X104214856Y-145219921D02*
X104167236Y-145267540D01*
X104167236Y-145267540D02*
X104071998Y-145315159D01*
X104071998Y-145315159D02*
X103786284Y-145315159D01*
X103786284Y-145315159D02*
X103691046Y-145267540D01*
X103691046Y-145267540D02*
X103643427Y-145219921D01*
X103643427Y-145219921D02*
X103595808Y-145124683D01*
X103595808Y-145124683D02*
X103595808Y-144981826D01*
X103595808Y-144981826D02*
X103643427Y-144886588D01*
X103643427Y-144886588D02*
X103691046Y-144838969D01*
X103691046Y-144838969D02*
X103786284Y-144791350D01*
X103786284Y-144791350D02*
X104071998Y-144791350D01*
X104071998Y-144791350D02*
X104167236Y-144838969D01*
X104167236Y-144838969D02*
X104214856Y-144886588D01*
X104214856Y-144886588D02*
X104262475Y-144981826D01*
X104262475Y-144981826D02*
X104262475Y-145124683D01*
X105872419Y-167696115D02*
X104872419Y-167696115D01*
X105872419Y-167267544D02*
X105348609Y-167267544D01*
X105348609Y-167267544D02*
X105253371Y-167315163D01*
X105253371Y-167315163D02*
X105205752Y-167410401D01*
X105205752Y-167410401D02*
X105205752Y-167553258D01*
X105205752Y-167553258D02*
X105253371Y-167648496D01*
X105253371Y-167648496D02*
X105300990Y-167696115D01*
X105205752Y-166934210D02*
X105205752Y-166553258D01*
X104872419Y-166791353D02*
X105729561Y-166791353D01*
X105729561Y-166791353D02*
X105824800Y-166743734D01*
X105824800Y-166743734D02*
X105872419Y-166648496D01*
X105872419Y-166648496D02*
X105872419Y-166553258D01*
X105205752Y-166362781D02*
X105205752Y-165981829D01*
X104872419Y-166219924D02*
X105729561Y-166219924D01*
X105729561Y-166219924D02*
X105824800Y-166172305D01*
X105824800Y-166172305D02*
X105872419Y-166077067D01*
X105872419Y-166077067D02*
X105872419Y-165981829D01*
X105205752Y-165648495D02*
X106205752Y-165648495D01*
X105253371Y-165648495D02*
X105205752Y-165553257D01*
X105205752Y-165553257D02*
X105205752Y-165362781D01*
X105205752Y-165362781D02*
X105253371Y-165267543D01*
X105253371Y-165267543D02*
X105300990Y-165219924D01*
X105300990Y-165219924D02*
X105396228Y-165172305D01*
X105396228Y-165172305D02*
X105681942Y-165172305D01*
X105681942Y-165172305D02*
X105777180Y-165219924D01*
X105777180Y-165219924D02*
X105824800Y-165267543D01*
X105824800Y-165267543D02*
X105872419Y-165362781D01*
X105872419Y-165362781D02*
X105872419Y-165553257D01*
X105872419Y-165553257D02*
X105824800Y-165648495D01*
X105824800Y-164791352D02*
X105872419Y-164696114D01*
X105872419Y-164696114D02*
X105872419Y-164505638D01*
X105872419Y-164505638D02*
X105824800Y-164410400D01*
X105824800Y-164410400D02*
X105729561Y-164362781D01*
X105729561Y-164362781D02*
X105681942Y-164362781D01*
X105681942Y-164362781D02*
X105586704Y-164410400D01*
X105586704Y-164410400D02*
X105539085Y-164505638D01*
X105539085Y-164505638D02*
X105539085Y-164648495D01*
X105539085Y-164648495D02*
X105491466Y-164743733D01*
X105491466Y-164743733D02*
X105396228Y-164791352D01*
X105396228Y-164791352D02*
X105348609Y-164791352D01*
X105348609Y-164791352D02*
X105253371Y-164743733D01*
X105253371Y-164743733D02*
X105205752Y-164648495D01*
X105205752Y-164648495D02*
X105205752Y-164505638D01*
X105205752Y-164505638D02*
X105253371Y-164410400D01*
X105777180Y-163934209D02*
X105824800Y-163886590D01*
X105824800Y-163886590D02*
X105872419Y-163934209D01*
X105872419Y-163934209D02*
X105824800Y-163981828D01*
X105824800Y-163981828D02*
X105777180Y-163934209D01*
X105777180Y-163934209D02*
X105872419Y-163934209D01*
X105253371Y-163934209D02*
X105300990Y-163886590D01*
X105300990Y-163886590D02*
X105348609Y-163934209D01*
X105348609Y-163934209D02*
X105300990Y-163981828D01*
X105300990Y-163981828D02*
X105253371Y-163934209D01*
X105253371Y-163934209D02*
X105348609Y-163934209D01*
X104824800Y-162743734D02*
X106110514Y-163600876D01*
X104824800Y-161696115D02*
X106110514Y-162553257D01*
X105205752Y-160934210D02*
X106015276Y-160934210D01*
X106015276Y-160934210D02*
X106110514Y-160981829D01*
X106110514Y-160981829D02*
X106158133Y-161029448D01*
X106158133Y-161029448D02*
X106205752Y-161124686D01*
X106205752Y-161124686D02*
X106205752Y-161267543D01*
X106205752Y-161267543D02*
X106158133Y-161362781D01*
X105824800Y-160934210D02*
X105872419Y-161029448D01*
X105872419Y-161029448D02*
X105872419Y-161219924D01*
X105872419Y-161219924D02*
X105824800Y-161315162D01*
X105824800Y-161315162D02*
X105777180Y-161362781D01*
X105777180Y-161362781D02*
X105681942Y-161410400D01*
X105681942Y-161410400D02*
X105396228Y-161410400D01*
X105396228Y-161410400D02*
X105300990Y-161362781D01*
X105300990Y-161362781D02*
X105253371Y-161315162D01*
X105253371Y-161315162D02*
X105205752Y-161219924D01*
X105205752Y-161219924D02*
X105205752Y-161029448D01*
X105205752Y-161029448D02*
X105253371Y-160934210D01*
X105872419Y-160458019D02*
X105205752Y-160458019D01*
X104872419Y-160458019D02*
X104920038Y-160505638D01*
X104920038Y-160505638D02*
X104967657Y-160458019D01*
X104967657Y-160458019D02*
X104920038Y-160410400D01*
X104920038Y-160410400D02*
X104872419Y-160458019D01*
X104872419Y-160458019D02*
X104967657Y-160458019D01*
X105205752Y-160124686D02*
X105205752Y-159743734D01*
X104872419Y-159981829D02*
X105729561Y-159981829D01*
X105729561Y-159981829D02*
X105824800Y-159934210D01*
X105824800Y-159934210D02*
X105872419Y-159838972D01*
X105872419Y-159838972D02*
X105872419Y-159743734D01*
X105872419Y-159410400D02*
X104872419Y-159410400D01*
X105872419Y-158981829D02*
X105348609Y-158981829D01*
X105348609Y-158981829D02*
X105253371Y-159029448D01*
X105253371Y-159029448D02*
X105205752Y-159124686D01*
X105205752Y-159124686D02*
X105205752Y-159267543D01*
X105205752Y-159267543D02*
X105253371Y-159362781D01*
X105253371Y-159362781D02*
X105300990Y-159410400D01*
X105205752Y-158077067D02*
X105872419Y-158077067D01*
X105205752Y-158505638D02*
X105729561Y-158505638D01*
X105729561Y-158505638D02*
X105824800Y-158458019D01*
X105824800Y-158458019D02*
X105872419Y-158362781D01*
X105872419Y-158362781D02*
X105872419Y-158219924D01*
X105872419Y-158219924D02*
X105824800Y-158124686D01*
X105824800Y-158124686D02*
X105777180Y-158077067D01*
X105872419Y-157600876D02*
X104872419Y-157600876D01*
X105253371Y-157600876D02*
X105205752Y-157505638D01*
X105205752Y-157505638D02*
X105205752Y-157315162D01*
X105205752Y-157315162D02*
X105253371Y-157219924D01*
X105253371Y-157219924D02*
X105300990Y-157172305D01*
X105300990Y-157172305D02*
X105396228Y-157124686D01*
X105396228Y-157124686D02*
X105681942Y-157124686D01*
X105681942Y-157124686D02*
X105777180Y-157172305D01*
X105777180Y-157172305D02*
X105824800Y-157219924D01*
X105824800Y-157219924D02*
X105872419Y-157315162D01*
X105872419Y-157315162D02*
X105872419Y-157505638D01*
X105872419Y-157505638D02*
X105824800Y-157600876D01*
X105777180Y-156696114D02*
X105824800Y-156648495D01*
X105824800Y-156648495D02*
X105872419Y-156696114D01*
X105872419Y-156696114D02*
X105824800Y-156743733D01*
X105824800Y-156743733D02*
X105777180Y-156696114D01*
X105777180Y-156696114D02*
X105872419Y-156696114D01*
X105824800Y-155791353D02*
X105872419Y-155886591D01*
X105872419Y-155886591D02*
X105872419Y-156077067D01*
X105872419Y-156077067D02*
X105824800Y-156172305D01*
X105824800Y-156172305D02*
X105777180Y-156219924D01*
X105777180Y-156219924D02*
X105681942Y-156267543D01*
X105681942Y-156267543D02*
X105396228Y-156267543D01*
X105396228Y-156267543D02*
X105300990Y-156219924D01*
X105300990Y-156219924D02*
X105253371Y-156172305D01*
X105253371Y-156172305D02*
X105205752Y-156077067D01*
X105205752Y-156077067D02*
X105205752Y-155886591D01*
X105205752Y-155886591D02*
X105253371Y-155791353D01*
X105872419Y-155219924D02*
X105824800Y-155315162D01*
X105824800Y-155315162D02*
X105777180Y-155362781D01*
X105777180Y-155362781D02*
X105681942Y-155410400D01*
X105681942Y-155410400D02*
X105396228Y-155410400D01*
X105396228Y-155410400D02*
X105300990Y-155362781D01*
X105300990Y-155362781D02*
X105253371Y-155315162D01*
X105253371Y-155315162D02*
X105205752Y-155219924D01*
X105205752Y-155219924D02*
X105205752Y-155077067D01*
X105205752Y-155077067D02*
X105253371Y-154981829D01*
X105253371Y-154981829D02*
X105300990Y-154934210D01*
X105300990Y-154934210D02*
X105396228Y-154886591D01*
X105396228Y-154886591D02*
X105681942Y-154886591D01*
X105681942Y-154886591D02*
X105777180Y-154934210D01*
X105777180Y-154934210D02*
X105824800Y-154981829D01*
X105824800Y-154981829D02*
X105872419Y-155077067D01*
X105872419Y-155077067D02*
X105872419Y-155219924D01*
X105872419Y-154458019D02*
X105205752Y-154458019D01*
X105300990Y-154458019D02*
X105253371Y-154410400D01*
X105253371Y-154410400D02*
X105205752Y-154315162D01*
X105205752Y-154315162D02*
X105205752Y-154172305D01*
X105205752Y-154172305D02*
X105253371Y-154077067D01*
X105253371Y-154077067D02*
X105348609Y-154029448D01*
X105348609Y-154029448D02*
X105872419Y-154029448D01*
X105348609Y-154029448D02*
X105253371Y-153981829D01*
X105253371Y-153981829D02*
X105205752Y-153886591D01*
X105205752Y-153886591D02*
X105205752Y-153743734D01*
X105205752Y-153743734D02*
X105253371Y-153648495D01*
X105253371Y-153648495D02*
X105348609Y-153600876D01*
X105348609Y-153600876D02*
X105872419Y-153600876D01*
X104824800Y-152410401D02*
X106110514Y-153267543D01*
X105872419Y-152077067D02*
X105205752Y-152077067D01*
X105396228Y-152077067D02*
X105300990Y-152029448D01*
X105300990Y-152029448D02*
X105253371Y-151981829D01*
X105253371Y-151981829D02*
X105205752Y-151886591D01*
X105205752Y-151886591D02*
X105205752Y-151791353D01*
X105872419Y-151315162D02*
X105824800Y-151410400D01*
X105824800Y-151410400D02*
X105777180Y-151458019D01*
X105777180Y-151458019D02*
X105681942Y-151505638D01*
X105681942Y-151505638D02*
X105396228Y-151505638D01*
X105396228Y-151505638D02*
X105300990Y-151458019D01*
X105300990Y-151458019D02*
X105253371Y-151410400D01*
X105253371Y-151410400D02*
X105205752Y-151315162D01*
X105205752Y-151315162D02*
X105205752Y-151172305D01*
X105205752Y-151172305D02*
X105253371Y-151077067D01*
X105253371Y-151077067D02*
X105300990Y-151029448D01*
X105300990Y-151029448D02*
X105396228Y-150981829D01*
X105396228Y-150981829D02*
X105681942Y-150981829D01*
X105681942Y-150981829D02*
X105777180Y-151029448D01*
X105777180Y-151029448D02*
X105824800Y-151077067D01*
X105824800Y-151077067D02*
X105872419Y-151172305D01*
X105872419Y-151172305D02*
X105872419Y-151315162D01*
X105872419Y-150124686D02*
X104872419Y-150124686D01*
X105824800Y-150124686D02*
X105872419Y-150219924D01*
X105872419Y-150219924D02*
X105872419Y-150410400D01*
X105872419Y-150410400D02*
X105824800Y-150505638D01*
X105824800Y-150505638D02*
X105777180Y-150553257D01*
X105777180Y-150553257D02*
X105681942Y-150600876D01*
X105681942Y-150600876D02*
X105396228Y-150600876D01*
X105396228Y-150600876D02*
X105300990Y-150553257D01*
X105300990Y-150553257D02*
X105253371Y-150505638D01*
X105253371Y-150505638D02*
X105205752Y-150410400D01*
X105205752Y-150410400D02*
X105205752Y-150219924D01*
X105205752Y-150219924D02*
X105253371Y-150124686D01*
X105872419Y-149219924D02*
X104872419Y-149219924D01*
X105824800Y-149219924D02*
X105872419Y-149315162D01*
X105872419Y-149315162D02*
X105872419Y-149505638D01*
X105872419Y-149505638D02*
X105824800Y-149600876D01*
X105824800Y-149600876D02*
X105777180Y-149648495D01*
X105777180Y-149648495D02*
X105681942Y-149696114D01*
X105681942Y-149696114D02*
X105396228Y-149696114D01*
X105396228Y-149696114D02*
X105300990Y-149648495D01*
X105300990Y-149648495D02*
X105253371Y-149600876D01*
X105253371Y-149600876D02*
X105205752Y-149505638D01*
X105205752Y-149505638D02*
X105205752Y-149315162D01*
X105205752Y-149315162D02*
X105253371Y-149219924D01*
X105824800Y-148362781D02*
X105872419Y-148458019D01*
X105872419Y-148458019D02*
X105872419Y-148648495D01*
X105872419Y-148648495D02*
X105824800Y-148743733D01*
X105824800Y-148743733D02*
X105729561Y-148791352D01*
X105729561Y-148791352D02*
X105348609Y-148791352D01*
X105348609Y-148791352D02*
X105253371Y-148743733D01*
X105253371Y-148743733D02*
X105205752Y-148648495D01*
X105205752Y-148648495D02*
X105205752Y-148458019D01*
X105205752Y-148458019D02*
X105253371Y-148362781D01*
X105253371Y-148362781D02*
X105348609Y-148315162D01*
X105348609Y-148315162D02*
X105443847Y-148315162D01*
X105443847Y-148315162D02*
X105539085Y-148791352D01*
X105872419Y-147886590D02*
X105205752Y-147886590D01*
X105396228Y-147886590D02*
X105300990Y-147838971D01*
X105300990Y-147838971D02*
X105253371Y-147791352D01*
X105253371Y-147791352D02*
X105205752Y-147696114D01*
X105205752Y-147696114D02*
X105205752Y-147600876D01*
X105824800Y-147315161D02*
X105872419Y-147219923D01*
X105872419Y-147219923D02*
X105872419Y-147029447D01*
X105872419Y-147029447D02*
X105824800Y-146934209D01*
X105824800Y-146934209D02*
X105729561Y-146886590D01*
X105729561Y-146886590D02*
X105681942Y-146886590D01*
X105681942Y-146886590D02*
X105586704Y-146934209D01*
X105586704Y-146934209D02*
X105539085Y-147029447D01*
X105539085Y-147029447D02*
X105539085Y-147172304D01*
X105539085Y-147172304D02*
X105491466Y-147267542D01*
X105491466Y-147267542D02*
X105396228Y-147315161D01*
X105396228Y-147315161D02*
X105348609Y-147315161D01*
X105348609Y-147315161D02*
X105253371Y-147267542D01*
X105253371Y-147267542D02*
X105205752Y-147172304D01*
X105205752Y-147172304D02*
X105205752Y-147029447D01*
X105205752Y-147029447D02*
X105253371Y-146934209D01*
X105205752Y-146029447D02*
X105872419Y-146029447D01*
X105205752Y-146458018D02*
X105729561Y-146458018D01*
X105729561Y-146458018D02*
X105824800Y-146410399D01*
X105824800Y-146410399D02*
X105872419Y-146315161D01*
X105872419Y-146315161D02*
X105872419Y-146172304D01*
X105872419Y-146172304D02*
X105824800Y-146077066D01*
X105824800Y-146077066D02*
X105777180Y-146029447D01*
X105872419Y-145553256D02*
X104872419Y-145553256D01*
X105491466Y-145458018D02*
X105872419Y-145172304D01*
X105205752Y-145172304D02*
X105586704Y-145553256D01*
X104824800Y-144029447D02*
X106110514Y-144886589D01*
X105586704Y-143743732D02*
X105586704Y-143267542D01*
X105872419Y-143838970D02*
X104872419Y-143505637D01*
X104872419Y-143505637D02*
X105872419Y-143172304D01*
X105205752Y-142838970D02*
X106205752Y-142838970D01*
X105253371Y-142838970D02*
X105205752Y-142743732D01*
X105205752Y-142743732D02*
X105205752Y-142553256D01*
X105205752Y-142553256D02*
X105253371Y-142458018D01*
X105253371Y-142458018D02*
X105300990Y-142410399D01*
X105300990Y-142410399D02*
X105396228Y-142362780D01*
X105396228Y-142362780D02*
X105681942Y-142362780D01*
X105681942Y-142362780D02*
X105777180Y-142410399D01*
X105777180Y-142410399D02*
X105824800Y-142458018D01*
X105824800Y-142458018D02*
X105872419Y-142553256D01*
X105872419Y-142553256D02*
X105872419Y-142743732D01*
X105872419Y-142743732D02*
X105824800Y-142838970D01*
X105205752Y-141934208D02*
X106205752Y-141934208D01*
X105253371Y-141934208D02*
X105205752Y-141838970D01*
X105205752Y-141838970D02*
X105205752Y-141648494D01*
X105205752Y-141648494D02*
X105253371Y-141553256D01*
X105253371Y-141553256D02*
X105300990Y-141505637D01*
X105300990Y-141505637D02*
X105396228Y-141458018D01*
X105396228Y-141458018D02*
X105681942Y-141458018D01*
X105681942Y-141458018D02*
X105777180Y-141505637D01*
X105777180Y-141505637D02*
X105824800Y-141553256D01*
X105824800Y-141553256D02*
X105872419Y-141648494D01*
X105872419Y-141648494D02*
X105872419Y-141838970D01*
X105872419Y-141838970D02*
X105824800Y-141934208D01*
X105872419Y-140886589D02*
X105824800Y-140981827D01*
X105824800Y-140981827D02*
X105729561Y-141029446D01*
X105729561Y-141029446D02*
X104872419Y-141029446D01*
X105824800Y-140124684D02*
X105872419Y-140219922D01*
X105872419Y-140219922D02*
X105872419Y-140410398D01*
X105872419Y-140410398D02*
X105824800Y-140505636D01*
X105824800Y-140505636D02*
X105729561Y-140553255D01*
X105729561Y-140553255D02*
X105348609Y-140553255D01*
X105348609Y-140553255D02*
X105253371Y-140505636D01*
X105253371Y-140505636D02*
X105205752Y-140410398D01*
X105205752Y-140410398D02*
X105205752Y-140219922D01*
X105205752Y-140219922D02*
X105253371Y-140124684D01*
X105253371Y-140124684D02*
X105348609Y-140077065D01*
X105348609Y-140077065D02*
X105443847Y-140077065D01*
X105443847Y-140077065D02*
X105539085Y-140553255D01*
X105491466Y-139648493D02*
X105491466Y-138886589D01*
X105872419Y-138410398D02*
X104872419Y-138410398D01*
X105872419Y-137934208D02*
X104872419Y-137934208D01*
X105824800Y-137029447D02*
X105872419Y-137124685D01*
X105872419Y-137124685D02*
X105872419Y-137315161D01*
X105872419Y-137315161D02*
X105824800Y-137410399D01*
X105824800Y-137410399D02*
X105777180Y-137458018D01*
X105777180Y-137458018D02*
X105681942Y-137505637D01*
X105681942Y-137505637D02*
X105396228Y-137505637D01*
X105396228Y-137505637D02*
X105300990Y-137458018D01*
X105300990Y-137458018D02*
X105253371Y-137410399D01*
X105253371Y-137410399D02*
X105205752Y-137315161D01*
X105205752Y-137315161D02*
X105205752Y-137124685D01*
X105205752Y-137124685D02*
X105253371Y-137029447D01*
X105872419Y-136696113D02*
X105205752Y-136172304D01*
X105205752Y-136696113D02*
X105872419Y-136172304D01*
X105491466Y-135791351D02*
X105491466Y-135029447D01*
X105872419Y-134553256D02*
X104872419Y-134553256D01*
X104872419Y-134553256D02*
X104872419Y-134172304D01*
X104872419Y-134172304D02*
X104920038Y-134077066D01*
X104920038Y-134077066D02*
X104967657Y-134029447D01*
X104967657Y-134029447D02*
X105062895Y-133981828D01*
X105062895Y-133981828D02*
X105205752Y-133981828D01*
X105205752Y-133981828D02*
X105300990Y-134029447D01*
X105300990Y-134029447D02*
X105348609Y-134077066D01*
X105348609Y-134077066D02*
X105396228Y-134172304D01*
X105396228Y-134172304D02*
X105396228Y-134553256D01*
X105824800Y-133600875D02*
X105872419Y-133458018D01*
X105872419Y-133458018D02*
X105872419Y-133219923D01*
X105872419Y-133219923D02*
X105824800Y-133124685D01*
X105824800Y-133124685D02*
X105777180Y-133077066D01*
X105777180Y-133077066D02*
X105681942Y-133029447D01*
X105681942Y-133029447D02*
X105586704Y-133029447D01*
X105586704Y-133029447D02*
X105491466Y-133077066D01*
X105491466Y-133077066D02*
X105443847Y-133124685D01*
X105443847Y-133124685D02*
X105396228Y-133219923D01*
X105396228Y-133219923D02*
X105348609Y-133410399D01*
X105348609Y-133410399D02*
X105300990Y-133505637D01*
X105300990Y-133505637D02*
X105253371Y-133553256D01*
X105253371Y-133553256D02*
X105158133Y-133600875D01*
X105158133Y-133600875D02*
X105062895Y-133600875D01*
X105062895Y-133600875D02*
X104967657Y-133553256D01*
X104967657Y-133553256D02*
X104920038Y-133505637D01*
X104920038Y-133505637D02*
X104872419Y-133410399D01*
X104872419Y-133410399D02*
X104872419Y-133172304D01*
X104872419Y-133172304D02*
X104920038Y-133029447D01*
X104872419Y-132600875D02*
X105681942Y-132600875D01*
X105681942Y-132600875D02*
X105777180Y-132553256D01*
X105777180Y-132553256D02*
X105824800Y-132505637D01*
X105824800Y-132505637D02*
X105872419Y-132410399D01*
X105872419Y-132410399D02*
X105872419Y-132219923D01*
X105872419Y-132219923D02*
X105824800Y-132124685D01*
X105824800Y-132124685D02*
X105777180Y-132077066D01*
X105777180Y-132077066D02*
X105681942Y-132029447D01*
X105681942Y-132029447D02*
X104872419Y-132029447D01*
X105491466Y-131553256D02*
X105491466Y-130791352D01*
X105586704Y-130362780D02*
X105586704Y-129886590D01*
X105872419Y-130458018D02*
X104872419Y-130124685D01*
X104872419Y-130124685D02*
X105872419Y-129791352D01*
X104872419Y-129600875D02*
X104872419Y-129029447D01*
X105872419Y-129315161D02*
X104872419Y-129315161D01*
X104872419Y-128791351D02*
X105872419Y-128124685D01*
X104872419Y-128124685D02*
X105872419Y-128791351D01*
X105491466Y-127743732D02*
X105491466Y-126981828D01*
X105586704Y-126553256D02*
X105586704Y-126077066D01*
X105872419Y-126648494D02*
X104872419Y-126315161D01*
X104872419Y-126315161D02*
X105872419Y-125981828D01*
X105872419Y-125219923D02*
X104872419Y-125219923D01*
X105824800Y-125219923D02*
X105872419Y-125315161D01*
X105872419Y-125315161D02*
X105872419Y-125505637D01*
X105872419Y-125505637D02*
X105824800Y-125600875D01*
X105824800Y-125600875D02*
X105777180Y-125648494D01*
X105777180Y-125648494D02*
X105681942Y-125696113D01*
X105681942Y-125696113D02*
X105396228Y-125696113D01*
X105396228Y-125696113D02*
X105300990Y-125648494D01*
X105300990Y-125648494D02*
X105253371Y-125600875D01*
X105253371Y-125600875D02*
X105205752Y-125505637D01*
X105205752Y-125505637D02*
X105205752Y-125315161D01*
X105205752Y-125315161D02*
X105253371Y-125219923D01*
X105872419Y-124315161D02*
X105348609Y-124315161D01*
X105348609Y-124315161D02*
X105253371Y-124362780D01*
X105253371Y-124362780D02*
X105205752Y-124458018D01*
X105205752Y-124458018D02*
X105205752Y-124648494D01*
X105205752Y-124648494D02*
X105253371Y-124743732D01*
X105824800Y-124315161D02*
X105872419Y-124410399D01*
X105872419Y-124410399D02*
X105872419Y-124648494D01*
X105872419Y-124648494D02*
X105824800Y-124743732D01*
X105824800Y-124743732D02*
X105729561Y-124791351D01*
X105729561Y-124791351D02*
X105634323Y-124791351D01*
X105634323Y-124791351D02*
X105539085Y-124743732D01*
X105539085Y-124743732D02*
X105491466Y-124648494D01*
X105491466Y-124648494D02*
X105491466Y-124410399D01*
X105491466Y-124410399D02*
X105443847Y-124315161D01*
X105205752Y-123838970D02*
X106205752Y-123838970D01*
X105253371Y-123838970D02*
X105205752Y-123743732D01*
X105205752Y-123743732D02*
X105205752Y-123553256D01*
X105205752Y-123553256D02*
X105253371Y-123458018D01*
X105253371Y-123458018D02*
X105300990Y-123410399D01*
X105300990Y-123410399D02*
X105396228Y-123362780D01*
X105396228Y-123362780D02*
X105681942Y-123362780D01*
X105681942Y-123362780D02*
X105777180Y-123410399D01*
X105777180Y-123410399D02*
X105824800Y-123458018D01*
X105824800Y-123458018D02*
X105872419Y-123553256D01*
X105872419Y-123553256D02*
X105872419Y-123743732D01*
X105872419Y-123743732D02*
X105824800Y-123838970D01*
X105205752Y-123077065D02*
X105205752Y-122696113D01*
X104872419Y-122934208D02*
X105729561Y-122934208D01*
X105729561Y-122934208D02*
X105824800Y-122886589D01*
X105824800Y-122886589D02*
X105872419Y-122791351D01*
X105872419Y-122791351D02*
X105872419Y-122696113D01*
X105824800Y-121981827D02*
X105872419Y-122077065D01*
X105872419Y-122077065D02*
X105872419Y-122267541D01*
X105872419Y-122267541D02*
X105824800Y-122362779D01*
X105824800Y-122362779D02*
X105729561Y-122410398D01*
X105729561Y-122410398D02*
X105348609Y-122410398D01*
X105348609Y-122410398D02*
X105253371Y-122362779D01*
X105253371Y-122362779D02*
X105205752Y-122267541D01*
X105205752Y-122267541D02*
X105205752Y-122077065D01*
X105205752Y-122077065D02*
X105253371Y-121981827D01*
X105253371Y-121981827D02*
X105348609Y-121934208D01*
X105348609Y-121934208D02*
X105443847Y-121934208D01*
X105443847Y-121934208D02*
X105539085Y-122410398D01*
X105872419Y-121505636D02*
X105205752Y-121505636D01*
X105396228Y-121505636D02*
X105300990Y-121458017D01*
X105300990Y-121458017D02*
X105253371Y-121410398D01*
X105253371Y-121410398D02*
X105205752Y-121315160D01*
X105205752Y-121315160D02*
X105205752Y-121219922D01*
D10*
X112197368Y-177300828D02*
X111911653Y-177300828D01*
X111911653Y-177300828D02*
X111768796Y-177372257D01*
X111768796Y-177372257D02*
X111697368Y-177443685D01*
X111697368Y-177443685D02*
X111554510Y-177657971D01*
X111554510Y-177657971D02*
X111483082Y-177943685D01*
X111483082Y-177943685D02*
X111483082Y-178515114D01*
X111483082Y-178515114D02*
X111554510Y-178657971D01*
X111554510Y-178657971D02*
X111625939Y-178729400D01*
X111625939Y-178729400D02*
X111768796Y-178800828D01*
X111768796Y-178800828D02*
X112054510Y-178800828D01*
X112054510Y-178800828D02*
X112197368Y-178729400D01*
X112197368Y-178729400D02*
X112268796Y-178657971D01*
X112268796Y-178657971D02*
X112340225Y-178515114D01*
X112340225Y-178515114D02*
X112340225Y-178157971D01*
X112340225Y-178157971D02*
X112268796Y-178015114D01*
X112268796Y-178015114D02*
X112197368Y-177943685D01*
X112197368Y-177943685D02*
X112054510Y-177872257D01*
X112054510Y-177872257D02*
X111768796Y-177872257D01*
X111768796Y-177872257D02*
X111625939Y-177943685D01*
X111625939Y-177943685D02*
X111554510Y-178015114D01*
X111554510Y-178015114D02*
X111483082Y-178157971D01*
X143268796Y-164300828D02*
X142554510Y-164300828D01*
X142554510Y-164300828D02*
X142483082Y-165015114D01*
X142483082Y-165015114D02*
X142554510Y-164943685D01*
X142554510Y-164943685D02*
X142697368Y-164872257D01*
X142697368Y-164872257D02*
X143054510Y-164872257D01*
X143054510Y-164872257D02*
X143197368Y-164943685D01*
X143197368Y-164943685D02*
X143268796Y-165015114D01*
X143268796Y-165015114D02*
X143340225Y-165157971D01*
X143340225Y-165157971D02*
X143340225Y-165515114D01*
X143340225Y-165515114D02*
X143268796Y-165657971D01*
X143268796Y-165657971D02*
X143197368Y-165729400D01*
X143197368Y-165729400D02*
X143054510Y-165800828D01*
X143054510Y-165800828D02*
X142697368Y-165800828D01*
X142697368Y-165800828D02*
X142554510Y-165729400D01*
X142554510Y-165729400D02*
X142483082Y-165657971D01*
X112340225Y-165800828D02*
X111483082Y-165800828D01*
X111911653Y-165800828D02*
X111911653Y-164300828D01*
X111911653Y-164300828D02*
X111768796Y-164515114D01*
X111768796Y-164515114D02*
X111625939Y-164657971D01*
X111625939Y-164657971D02*
X111483082Y-164729400D01*
X143340225Y-178800828D02*
X142483082Y-178800828D01*
X142911653Y-178800828D02*
X142911653Y-177300828D01*
X142911653Y-177300828D02*
X142768796Y-177515114D01*
X142768796Y-177515114D02*
X142625939Y-177657971D01*
X142625939Y-177657971D02*
X142483082Y-177729400D01*
X144268796Y-177300828D02*
X144411653Y-177300828D01*
X144411653Y-177300828D02*
X144554510Y-177372257D01*
X144554510Y-177372257D02*
X144625939Y-177443685D01*
X144625939Y-177443685D02*
X144697367Y-177586542D01*
X144697367Y-177586542D02*
X144768796Y-177872257D01*
X144768796Y-177872257D02*
X144768796Y-178229400D01*
X144768796Y-178229400D02*
X144697367Y-178515114D01*
X144697367Y-178515114D02*
X144625939Y-178657971D01*
X144625939Y-178657971D02*
X144554510Y-178729400D01*
X144554510Y-178729400D02*
X144411653Y-178800828D01*
X144411653Y-178800828D02*
X144268796Y-178800828D01*
X144268796Y-178800828D02*
X144125939Y-178729400D01*
X144125939Y-178729400D02*
X144054510Y-178657971D01*
X144054510Y-178657971D02*
X143983081Y-178515114D01*
X143983081Y-178515114D02*
X143911653Y-178229400D01*
X143911653Y-178229400D02*
X143911653Y-177872257D01*
X143911653Y-177872257D02*
X143983081Y-177586542D01*
X143983081Y-177586542D02*
X144054510Y-177443685D01*
X144054510Y-177443685D02*
X144125939Y-177372257D01*
X144125939Y-177372257D02*
X144268796Y-177300828D01*
X116554510Y-103800828D02*
X116554510Y-102300828D01*
X116554510Y-102300828D02*
X117411653Y-103800828D01*
X117411653Y-103800828D02*
X117411653Y-102300828D01*
D12*
X131004819Y-138233333D02*
X131719104Y-138233333D01*
X131719104Y-138233333D02*
X131861961Y-138280952D01*
X131861961Y-138280952D02*
X131957200Y-138376190D01*
X131957200Y-138376190D02*
X132004819Y-138519047D01*
X132004819Y-138519047D02*
X132004819Y-138614285D01*
X131004819Y-137852380D02*
X131004819Y-137185714D01*
X131004819Y-137185714D02*
X132004819Y-137614285D01*
X122531905Y-157494819D02*
X122531905Y-156494819D01*
X122531905Y-156494819D02*
X122770000Y-156494819D01*
X122770000Y-156494819D02*
X122912857Y-156542438D01*
X122912857Y-156542438D02*
X123008095Y-156637676D01*
X123008095Y-156637676D02*
X123055714Y-156732914D01*
X123055714Y-156732914D02*
X123103333Y-156923390D01*
X123103333Y-156923390D02*
X123103333Y-157066247D01*
X123103333Y-157066247D02*
X123055714Y-157256723D01*
X123055714Y-157256723D02*
X123008095Y-157351961D01*
X123008095Y-157351961D02*
X122912857Y-157447200D01*
X122912857Y-157447200D02*
X122770000Y-157494819D01*
X122770000Y-157494819D02*
X122531905Y-157494819D01*
X124055714Y-157494819D02*
X123484286Y-157494819D01*
X123770000Y-157494819D02*
X123770000Y-156494819D01*
X123770000Y-156494819D02*
X123674762Y-156637676D01*
X123674762Y-156637676D02*
X123579524Y-156732914D01*
X123579524Y-156732914D02*
X123484286Y-156780533D01*
X119055714Y-165414819D02*
X119055714Y-164414819D01*
X119055714Y-164414819D02*
X119436666Y-164414819D01*
X119436666Y-164414819D02*
X119531904Y-164462438D01*
X119531904Y-164462438D02*
X119579523Y-164510057D01*
X119579523Y-164510057D02*
X119627142Y-164605295D01*
X119627142Y-164605295D02*
X119627142Y-164748152D01*
X119627142Y-164748152D02*
X119579523Y-164843390D01*
X119579523Y-164843390D02*
X119531904Y-164891009D01*
X119531904Y-164891009D02*
X119436666Y-164938628D01*
X119436666Y-164938628D02*
X119055714Y-164938628D01*
X120198571Y-165414819D02*
X120103333Y-165367200D01*
X120103333Y-165367200D02*
X120055714Y-165319580D01*
X120055714Y-165319580D02*
X120008095Y-165224342D01*
X120008095Y-165224342D02*
X120008095Y-164938628D01*
X120008095Y-164938628D02*
X120055714Y-164843390D01*
X120055714Y-164843390D02*
X120103333Y-164795771D01*
X120103333Y-164795771D02*
X120198571Y-164748152D01*
X120198571Y-164748152D02*
X120341428Y-164748152D01*
X120341428Y-164748152D02*
X120436666Y-164795771D01*
X120436666Y-164795771D02*
X120484285Y-164843390D01*
X120484285Y-164843390D02*
X120531904Y-164938628D01*
X120531904Y-164938628D02*
X120531904Y-165224342D01*
X120531904Y-165224342D02*
X120484285Y-165319580D01*
X120484285Y-165319580D02*
X120436666Y-165367200D01*
X120436666Y-165367200D02*
X120341428Y-165414819D01*
X120341428Y-165414819D02*
X120198571Y-165414819D01*
X120865238Y-164748152D02*
X121055714Y-165414819D01*
X121055714Y-165414819D02*
X121246190Y-164938628D01*
X121246190Y-164938628D02*
X121436666Y-165414819D01*
X121436666Y-165414819D02*
X121627142Y-164748152D01*
X122389047Y-165367200D02*
X122293809Y-165414819D01*
X122293809Y-165414819D02*
X122103333Y-165414819D01*
X122103333Y-165414819D02*
X122008095Y-165367200D01*
X122008095Y-165367200D02*
X121960476Y-165271961D01*
X121960476Y-165271961D02*
X121960476Y-164891009D01*
X121960476Y-164891009D02*
X122008095Y-164795771D01*
X122008095Y-164795771D02*
X122103333Y-164748152D01*
X122103333Y-164748152D02*
X122293809Y-164748152D01*
X122293809Y-164748152D02*
X122389047Y-164795771D01*
X122389047Y-164795771D02*
X122436666Y-164891009D01*
X122436666Y-164891009D02*
X122436666Y-164986247D01*
X122436666Y-164986247D02*
X121960476Y-165081485D01*
X122865238Y-165414819D02*
X122865238Y-164748152D01*
X122865238Y-164938628D02*
X122912857Y-164843390D01*
X122912857Y-164843390D02*
X122960476Y-164795771D01*
X122960476Y-164795771D02*
X123055714Y-164748152D01*
X123055714Y-164748152D02*
X123150952Y-164748152D01*
X124770000Y-164462438D02*
X124674762Y-164414819D01*
X124674762Y-164414819D02*
X124531905Y-164414819D01*
X124531905Y-164414819D02*
X124389048Y-164462438D01*
X124389048Y-164462438D02*
X124293810Y-164557676D01*
X124293810Y-164557676D02*
X124246191Y-164652914D01*
X124246191Y-164652914D02*
X124198572Y-164843390D01*
X124198572Y-164843390D02*
X124198572Y-164986247D01*
X124198572Y-164986247D02*
X124246191Y-165176723D01*
X124246191Y-165176723D02*
X124293810Y-165271961D01*
X124293810Y-165271961D02*
X124389048Y-165367200D01*
X124389048Y-165367200D02*
X124531905Y-165414819D01*
X124531905Y-165414819D02*
X124627143Y-165414819D01*
X124627143Y-165414819D02*
X124770000Y-165367200D01*
X124770000Y-165367200D02*
X124817619Y-165319580D01*
X124817619Y-165319580D02*
X124817619Y-164986247D01*
X124817619Y-164986247D02*
X124627143Y-164986247D01*
X125389048Y-165414819D02*
X125293810Y-165367200D01*
X125293810Y-165367200D02*
X125246191Y-165319580D01*
X125246191Y-165319580D02*
X125198572Y-165224342D01*
X125198572Y-165224342D02*
X125198572Y-164938628D01*
X125198572Y-164938628D02*
X125246191Y-164843390D01*
X125246191Y-164843390D02*
X125293810Y-164795771D01*
X125293810Y-164795771D02*
X125389048Y-164748152D01*
X125389048Y-164748152D02*
X125531905Y-164748152D01*
X125531905Y-164748152D02*
X125627143Y-164795771D01*
X125627143Y-164795771D02*
X125674762Y-164843390D01*
X125674762Y-164843390D02*
X125722381Y-164938628D01*
X125722381Y-164938628D02*
X125722381Y-165224342D01*
X125722381Y-165224342D02*
X125674762Y-165319580D01*
X125674762Y-165319580D02*
X125627143Y-165367200D01*
X125627143Y-165367200D02*
X125531905Y-165414819D01*
X125531905Y-165414819D02*
X125389048Y-165414819D01*
X126293810Y-165414819D02*
X126198572Y-165367200D01*
X126198572Y-165367200D02*
X126150953Y-165319580D01*
X126150953Y-165319580D02*
X126103334Y-165224342D01*
X126103334Y-165224342D02*
X126103334Y-164938628D01*
X126103334Y-164938628D02*
X126150953Y-164843390D01*
X126150953Y-164843390D02*
X126198572Y-164795771D01*
X126198572Y-164795771D02*
X126293810Y-164748152D01*
X126293810Y-164748152D02*
X126436667Y-164748152D01*
X126436667Y-164748152D02*
X126531905Y-164795771D01*
X126531905Y-164795771D02*
X126579524Y-164843390D01*
X126579524Y-164843390D02*
X126627143Y-164938628D01*
X126627143Y-164938628D02*
X126627143Y-165224342D01*
X126627143Y-165224342D02*
X126579524Y-165319580D01*
X126579524Y-165319580D02*
X126531905Y-165367200D01*
X126531905Y-165367200D02*
X126436667Y-165414819D01*
X126436667Y-165414819D02*
X126293810Y-165414819D01*
X127484286Y-165414819D02*
X127484286Y-164414819D01*
X127484286Y-165367200D02*
X127389048Y-165414819D01*
X127389048Y-165414819D02*
X127198572Y-165414819D01*
X127198572Y-165414819D02*
X127103334Y-165367200D01*
X127103334Y-165367200D02*
X127055715Y-165319580D01*
X127055715Y-165319580D02*
X127008096Y-165224342D01*
X127008096Y-165224342D02*
X127008096Y-164938628D01*
X127008096Y-164938628D02*
X127055715Y-164843390D01*
X127055715Y-164843390D02*
X127103334Y-164795771D01*
X127103334Y-164795771D02*
X127198572Y-164748152D01*
X127198572Y-164748152D02*
X127389048Y-164748152D01*
X127389048Y-164748152D02*
X127484286Y-164795771D01*
X121071905Y-134334819D02*
X121071905Y-133334819D01*
X121071905Y-133334819D02*
X121310000Y-133334819D01*
X121310000Y-133334819D02*
X121452857Y-133382438D01*
X121452857Y-133382438D02*
X121548095Y-133477676D01*
X121548095Y-133477676D02*
X121595714Y-133572914D01*
X121595714Y-133572914D02*
X121643333Y-133763390D01*
X121643333Y-133763390D02*
X121643333Y-133906247D01*
X121643333Y-133906247D02*
X121595714Y-134096723D01*
X121595714Y-134096723D02*
X121548095Y-134191961D01*
X121548095Y-134191961D02*
X121452857Y-134287200D01*
X121452857Y-134287200D02*
X121310000Y-134334819D01*
X121310000Y-134334819D02*
X121071905Y-134334819D01*
X122024286Y-133430057D02*
X122071905Y-133382438D01*
X122071905Y-133382438D02*
X122167143Y-133334819D01*
X122167143Y-133334819D02*
X122405238Y-133334819D01*
X122405238Y-133334819D02*
X122500476Y-133382438D01*
X122500476Y-133382438D02*
X122548095Y-133430057D01*
X122548095Y-133430057D02*
X122595714Y-133525295D01*
X122595714Y-133525295D02*
X122595714Y-133620533D01*
X122595714Y-133620533D02*
X122548095Y-133763390D01*
X122548095Y-133763390D02*
X121976667Y-134334819D01*
X121976667Y-134334819D02*
X122595714Y-134334819D01*
X123324819Y-150951904D02*
X124134342Y-150951904D01*
X124134342Y-150951904D02*
X124229580Y-150904285D01*
X124229580Y-150904285D02*
X124277200Y-150856666D01*
X124277200Y-150856666D02*
X124324819Y-150761428D01*
X124324819Y-150761428D02*
X124324819Y-150570952D01*
X124324819Y-150570952D02*
X124277200Y-150475714D01*
X124277200Y-150475714D02*
X124229580Y-150428095D01*
X124229580Y-150428095D02*
X124134342Y-150380476D01*
X124134342Y-150380476D02*
X123324819Y-150380476D01*
X124324819Y-149380476D02*
X124324819Y-149951904D01*
X124324819Y-149666190D02*
X123324819Y-149666190D01*
X123324819Y-149666190D02*
X123467676Y-149761428D01*
X123467676Y-149761428D02*
X123562914Y-149856666D01*
X123562914Y-149856666D02*
X123610533Y-149951904D01*
X116124819Y-153904285D02*
X116124819Y-153332857D01*
X117124819Y-153618571D02*
X116124819Y-153618571D01*
X117124819Y-152523333D02*
X117124819Y-152999523D01*
X117124819Y-152999523D02*
X116124819Y-152999523D01*
X117124819Y-152189999D02*
X116124819Y-152189999D01*
X116124819Y-152189999D02*
X116124819Y-151809047D01*
X116124819Y-151809047D02*
X116172438Y-151713809D01*
X116172438Y-151713809D02*
X116220057Y-151666190D01*
X116220057Y-151666190D02*
X116315295Y-151618571D01*
X116315295Y-151618571D02*
X116458152Y-151618571D01*
X116458152Y-151618571D02*
X116553390Y-151666190D01*
X116553390Y-151666190D02*
X116601009Y-151713809D01*
X116601009Y-151713809D02*
X116648628Y-151809047D01*
X116648628Y-151809047D02*
X116648628Y-152189999D01*
X116124819Y-150713809D02*
X116124819Y-151189999D01*
X116124819Y-151189999D02*
X116601009Y-151237618D01*
X116601009Y-151237618D02*
X116553390Y-151189999D01*
X116553390Y-151189999D02*
X116505771Y-151094761D01*
X116505771Y-151094761D02*
X116505771Y-150856666D01*
X116505771Y-150856666D02*
X116553390Y-150761428D01*
X116553390Y-150761428D02*
X116601009Y-150713809D01*
X116601009Y-150713809D02*
X116696247Y-150666190D01*
X116696247Y-150666190D02*
X116934342Y-150666190D01*
X116934342Y-150666190D02*
X117029580Y-150713809D01*
X117029580Y-150713809D02*
X117077200Y-150761428D01*
X117077200Y-150761428D02*
X117124819Y-150856666D01*
X117124819Y-150856666D02*
X117124819Y-151094761D01*
X117124819Y-151094761D02*
X117077200Y-151189999D01*
X117077200Y-151189999D02*
X117029580Y-151237618D01*
X116220057Y-150285237D02*
X116172438Y-150237618D01*
X116172438Y-150237618D02*
X116124819Y-150142380D01*
X116124819Y-150142380D02*
X116124819Y-149904285D01*
X116124819Y-149904285D02*
X116172438Y-149809047D01*
X116172438Y-149809047D02*
X116220057Y-149761428D01*
X116220057Y-149761428D02*
X116315295Y-149713809D01*
X116315295Y-149713809D02*
X116410533Y-149713809D01*
X116410533Y-149713809D02*
X116553390Y-149761428D01*
X116553390Y-149761428D02*
X117124819Y-150332856D01*
X117124819Y-150332856D02*
X117124819Y-149713809D01*
X117124819Y-148761428D02*
X117124819Y-149332856D01*
X117124819Y-149047142D02*
X116124819Y-149047142D01*
X116124819Y-149047142D02*
X116267676Y-149142380D01*
X116267676Y-149142380D02*
X116362914Y-149237618D01*
X116362914Y-149237618D02*
X116410533Y-149332856D01*
X116743866Y-148332856D02*
X116743866Y-147570952D01*
X117124819Y-146570952D02*
X117124819Y-147142380D01*
X117124819Y-146856666D02*
X116124819Y-146856666D01*
X116124819Y-146856666D02*
X116267676Y-146951904D01*
X116267676Y-146951904D02*
X116362914Y-147047142D01*
X116362914Y-147047142D02*
X116410533Y-147142380D01*
X114833333Y-163374819D02*
X114500000Y-162898628D01*
X114261905Y-163374819D02*
X114261905Y-162374819D01*
X114261905Y-162374819D02*
X114642857Y-162374819D01*
X114642857Y-162374819D02*
X114738095Y-162422438D01*
X114738095Y-162422438D02*
X114785714Y-162470057D01*
X114785714Y-162470057D02*
X114833333Y-162565295D01*
X114833333Y-162565295D02*
X114833333Y-162708152D01*
X114833333Y-162708152D02*
X114785714Y-162803390D01*
X114785714Y-162803390D02*
X114738095Y-162851009D01*
X114738095Y-162851009D02*
X114642857Y-162898628D01*
X114642857Y-162898628D02*
X114261905Y-162898628D01*
X115214286Y-162470057D02*
X115261905Y-162422438D01*
X115261905Y-162422438D02*
X115357143Y-162374819D01*
X115357143Y-162374819D02*
X115595238Y-162374819D01*
X115595238Y-162374819D02*
X115690476Y-162422438D01*
X115690476Y-162422438D02*
X115738095Y-162470057D01*
X115738095Y-162470057D02*
X115785714Y-162565295D01*
X115785714Y-162565295D02*
X115785714Y-162660533D01*
X115785714Y-162660533D02*
X115738095Y-162803390D01*
X115738095Y-162803390D02*
X115166667Y-163374819D01*
X115166667Y-163374819D02*
X115785714Y-163374819D01*
X127154819Y-150356666D02*
X126678628Y-150689999D01*
X127154819Y-150928094D02*
X126154819Y-150928094D01*
X126154819Y-150928094D02*
X126154819Y-150547142D01*
X126154819Y-150547142D02*
X126202438Y-150451904D01*
X126202438Y-150451904D02*
X126250057Y-150404285D01*
X126250057Y-150404285D02*
X126345295Y-150356666D01*
X126345295Y-150356666D02*
X126488152Y-150356666D01*
X126488152Y-150356666D02*
X126583390Y-150404285D01*
X126583390Y-150404285D02*
X126631009Y-150451904D01*
X126631009Y-150451904D02*
X126678628Y-150547142D01*
X126678628Y-150547142D02*
X126678628Y-150928094D01*
X127154819Y-149404285D02*
X127154819Y-149975713D01*
X127154819Y-149689999D02*
X126154819Y-149689999D01*
X126154819Y-149689999D02*
X126297676Y-149785237D01*
X126297676Y-149785237D02*
X126392914Y-149880475D01*
X126392914Y-149880475D02*
X126440533Y-149975713D01*
X152604819Y-119433333D02*
X153319104Y-119433333D01*
X153319104Y-119433333D02*
X153461961Y-119480952D01*
X153461961Y-119480952D02*
X153557200Y-119576190D01*
X153557200Y-119576190D02*
X153604819Y-119719047D01*
X153604819Y-119719047D02*
X153604819Y-119814285D01*
X152604819Y-118480952D02*
X152604819Y-118957142D01*
X152604819Y-118957142D02*
X153081009Y-119004761D01*
X153081009Y-119004761D02*
X153033390Y-118957142D01*
X153033390Y-118957142D02*
X152985771Y-118861904D01*
X152985771Y-118861904D02*
X152985771Y-118623809D01*
X152985771Y-118623809D02*
X153033390Y-118528571D01*
X153033390Y-118528571D02*
X153081009Y-118480952D01*
X153081009Y-118480952D02*
X153176247Y-118433333D01*
X153176247Y-118433333D02*
X153414342Y-118433333D01*
X153414342Y-118433333D02*
X153509580Y-118480952D01*
X153509580Y-118480952D02*
X153557200Y-118528571D01*
X153557200Y-118528571D02*
X153604819Y-118623809D01*
X153604819Y-118623809D02*
X153604819Y-118861904D01*
X153604819Y-118861904D02*
X153557200Y-118957142D01*
X153557200Y-118957142D02*
X153509580Y-119004761D01*
X147304819Y-124076190D02*
X146304819Y-124076190D01*
X146304819Y-124076190D02*
X146304819Y-123695238D01*
X146304819Y-123695238D02*
X146352438Y-123600000D01*
X146352438Y-123600000D02*
X146400057Y-123552381D01*
X146400057Y-123552381D02*
X146495295Y-123504762D01*
X146495295Y-123504762D02*
X146638152Y-123504762D01*
X146638152Y-123504762D02*
X146733390Y-123552381D01*
X146733390Y-123552381D02*
X146781009Y-123600000D01*
X146781009Y-123600000D02*
X146828628Y-123695238D01*
X146828628Y-123695238D02*
X146828628Y-124076190D01*
X147304819Y-122933333D02*
X147257200Y-123028571D01*
X147257200Y-123028571D02*
X147209580Y-123076190D01*
X147209580Y-123076190D02*
X147114342Y-123123809D01*
X147114342Y-123123809D02*
X146828628Y-123123809D01*
X146828628Y-123123809D02*
X146733390Y-123076190D01*
X146733390Y-123076190D02*
X146685771Y-123028571D01*
X146685771Y-123028571D02*
X146638152Y-122933333D01*
X146638152Y-122933333D02*
X146638152Y-122790476D01*
X146638152Y-122790476D02*
X146685771Y-122695238D01*
X146685771Y-122695238D02*
X146733390Y-122647619D01*
X146733390Y-122647619D02*
X146828628Y-122600000D01*
X146828628Y-122600000D02*
X147114342Y-122600000D01*
X147114342Y-122600000D02*
X147209580Y-122647619D01*
X147209580Y-122647619D02*
X147257200Y-122695238D01*
X147257200Y-122695238D02*
X147304819Y-122790476D01*
X147304819Y-122790476D02*
X147304819Y-122933333D01*
X146638152Y-122266666D02*
X147304819Y-122076190D01*
X147304819Y-122076190D02*
X146828628Y-121885714D01*
X146828628Y-121885714D02*
X147304819Y-121695238D01*
X147304819Y-121695238D02*
X146638152Y-121504762D01*
X147257200Y-120742857D02*
X147304819Y-120838095D01*
X147304819Y-120838095D02*
X147304819Y-121028571D01*
X147304819Y-121028571D02*
X147257200Y-121123809D01*
X147257200Y-121123809D02*
X147161961Y-121171428D01*
X147161961Y-121171428D02*
X146781009Y-121171428D01*
X146781009Y-121171428D02*
X146685771Y-121123809D01*
X146685771Y-121123809D02*
X146638152Y-121028571D01*
X146638152Y-121028571D02*
X146638152Y-120838095D01*
X146638152Y-120838095D02*
X146685771Y-120742857D01*
X146685771Y-120742857D02*
X146781009Y-120695238D01*
X146781009Y-120695238D02*
X146876247Y-120695238D01*
X146876247Y-120695238D02*
X146971485Y-121171428D01*
X147304819Y-120266666D02*
X146638152Y-120266666D01*
X146828628Y-120266666D02*
X146733390Y-120219047D01*
X146733390Y-120219047D02*
X146685771Y-120171428D01*
X146685771Y-120171428D02*
X146638152Y-120076190D01*
X146638152Y-120076190D02*
X146638152Y-119980952D01*
X146638152Y-119028570D02*
X146638152Y-118647618D01*
X146304819Y-118885713D02*
X147161961Y-118885713D01*
X147161961Y-118885713D02*
X147257200Y-118838094D01*
X147257200Y-118838094D02*
X147304819Y-118742856D01*
X147304819Y-118742856D02*
X147304819Y-118647618D01*
X147304819Y-118171427D02*
X147257200Y-118266665D01*
X147257200Y-118266665D02*
X147209580Y-118314284D01*
X147209580Y-118314284D02*
X147114342Y-118361903D01*
X147114342Y-118361903D02*
X146828628Y-118361903D01*
X146828628Y-118361903D02*
X146733390Y-118314284D01*
X146733390Y-118314284D02*
X146685771Y-118266665D01*
X146685771Y-118266665D02*
X146638152Y-118171427D01*
X146638152Y-118171427D02*
X146638152Y-118028570D01*
X146638152Y-118028570D02*
X146685771Y-117933332D01*
X146685771Y-117933332D02*
X146733390Y-117885713D01*
X146733390Y-117885713D02*
X146828628Y-117838094D01*
X146828628Y-117838094D02*
X147114342Y-117838094D01*
X147114342Y-117838094D02*
X147209580Y-117885713D01*
X147209580Y-117885713D02*
X147257200Y-117933332D01*
X147257200Y-117933332D02*
X147304819Y-118028570D01*
X147304819Y-118028570D02*
X147304819Y-118171427D01*
X147304819Y-116647617D02*
X146304819Y-116647617D01*
X146304819Y-116647617D02*
X146304819Y-116266665D01*
X146304819Y-116266665D02*
X146352438Y-116171427D01*
X146352438Y-116171427D02*
X146400057Y-116123808D01*
X146400057Y-116123808D02*
X146495295Y-116076189D01*
X146495295Y-116076189D02*
X146638152Y-116076189D01*
X146638152Y-116076189D02*
X146733390Y-116123808D01*
X146733390Y-116123808D02*
X146781009Y-116171427D01*
X146781009Y-116171427D02*
X146828628Y-116266665D01*
X146828628Y-116266665D02*
X146828628Y-116647617D01*
X147257200Y-115695236D02*
X147304819Y-115552379D01*
X147304819Y-115552379D02*
X147304819Y-115314284D01*
X147304819Y-115314284D02*
X147257200Y-115219046D01*
X147257200Y-115219046D02*
X147209580Y-115171427D01*
X147209580Y-115171427D02*
X147114342Y-115123808D01*
X147114342Y-115123808D02*
X147019104Y-115123808D01*
X147019104Y-115123808D02*
X146923866Y-115171427D01*
X146923866Y-115171427D02*
X146876247Y-115219046D01*
X146876247Y-115219046D02*
X146828628Y-115314284D01*
X146828628Y-115314284D02*
X146781009Y-115504760D01*
X146781009Y-115504760D02*
X146733390Y-115599998D01*
X146733390Y-115599998D02*
X146685771Y-115647617D01*
X146685771Y-115647617D02*
X146590533Y-115695236D01*
X146590533Y-115695236D02*
X146495295Y-115695236D01*
X146495295Y-115695236D02*
X146400057Y-115647617D01*
X146400057Y-115647617D02*
X146352438Y-115599998D01*
X146352438Y-115599998D02*
X146304819Y-115504760D01*
X146304819Y-115504760D02*
X146304819Y-115266665D01*
X146304819Y-115266665D02*
X146352438Y-115123808D01*
X146304819Y-114695236D02*
X147114342Y-114695236D01*
X147114342Y-114695236D02*
X147209580Y-114647617D01*
X147209580Y-114647617D02*
X147257200Y-114599998D01*
X147257200Y-114599998D02*
X147304819Y-114504760D01*
X147304819Y-114504760D02*
X147304819Y-114314284D01*
X147304819Y-114314284D02*
X147257200Y-114219046D01*
X147257200Y-114219046D02*
X147209580Y-114171427D01*
X147209580Y-114171427D02*
X147114342Y-114123808D01*
X147114342Y-114123808D02*
X146304819Y-114123808D01*
X111104819Y-130938094D02*
X110104819Y-130938094D01*
X111104819Y-130366666D02*
X110533390Y-130795237D01*
X110104819Y-130366666D02*
X110676247Y-130938094D01*
X111104819Y-129414285D02*
X111104819Y-129985713D01*
X111104819Y-129699999D02*
X110104819Y-129699999D01*
X110104819Y-129699999D02*
X110247676Y-129795237D01*
X110247676Y-129795237D02*
X110342914Y-129890475D01*
X110342914Y-129890475D02*
X110390533Y-129985713D01*
X129819104Y-131342858D02*
X129819104Y-130866668D01*
X130104819Y-131438096D02*
X129104819Y-131104763D01*
X129104819Y-131104763D02*
X130104819Y-130771430D01*
X130009580Y-129866668D02*
X130057200Y-129914287D01*
X130057200Y-129914287D02*
X130104819Y-130057144D01*
X130104819Y-130057144D02*
X130104819Y-130152382D01*
X130104819Y-130152382D02*
X130057200Y-130295239D01*
X130057200Y-130295239D02*
X129961961Y-130390477D01*
X129961961Y-130390477D02*
X129866723Y-130438096D01*
X129866723Y-130438096D02*
X129676247Y-130485715D01*
X129676247Y-130485715D02*
X129533390Y-130485715D01*
X129533390Y-130485715D02*
X129342914Y-130438096D01*
X129342914Y-130438096D02*
X129247676Y-130390477D01*
X129247676Y-130390477D02*
X129152438Y-130295239D01*
X129152438Y-130295239D02*
X129104819Y-130152382D01*
X129104819Y-130152382D02*
X129104819Y-130057144D01*
X129104819Y-130057144D02*
X129152438Y-129914287D01*
X129152438Y-129914287D02*
X129200057Y-129866668D01*
X130104819Y-128676191D02*
X129104819Y-128676191D01*
X129104819Y-128676191D02*
X129104819Y-128295239D01*
X129104819Y-128295239D02*
X129152438Y-128200001D01*
X129152438Y-128200001D02*
X129200057Y-128152382D01*
X129200057Y-128152382D02*
X129295295Y-128104763D01*
X129295295Y-128104763D02*
X129438152Y-128104763D01*
X129438152Y-128104763D02*
X129533390Y-128152382D01*
X129533390Y-128152382D02*
X129581009Y-128200001D01*
X129581009Y-128200001D02*
X129628628Y-128295239D01*
X129628628Y-128295239D02*
X129628628Y-128676191D01*
X130104819Y-127247620D02*
X129581009Y-127247620D01*
X129581009Y-127247620D02*
X129485771Y-127295239D01*
X129485771Y-127295239D02*
X129438152Y-127390477D01*
X129438152Y-127390477D02*
X129438152Y-127580953D01*
X129438152Y-127580953D02*
X129485771Y-127676191D01*
X130057200Y-127247620D02*
X130104819Y-127342858D01*
X130104819Y-127342858D02*
X130104819Y-127580953D01*
X130104819Y-127580953D02*
X130057200Y-127676191D01*
X130057200Y-127676191D02*
X129961961Y-127723810D01*
X129961961Y-127723810D02*
X129866723Y-127723810D01*
X129866723Y-127723810D02*
X129771485Y-127676191D01*
X129771485Y-127676191D02*
X129723866Y-127580953D01*
X129723866Y-127580953D02*
X129723866Y-127342858D01*
X129723866Y-127342858D02*
X129676247Y-127247620D01*
X130057200Y-126819048D02*
X130104819Y-126723810D01*
X130104819Y-126723810D02*
X130104819Y-126533334D01*
X130104819Y-126533334D02*
X130057200Y-126438096D01*
X130057200Y-126438096D02*
X129961961Y-126390477D01*
X129961961Y-126390477D02*
X129914342Y-126390477D01*
X129914342Y-126390477D02*
X129819104Y-126438096D01*
X129819104Y-126438096D02*
X129771485Y-126533334D01*
X129771485Y-126533334D02*
X129771485Y-126676191D01*
X129771485Y-126676191D02*
X129723866Y-126771429D01*
X129723866Y-126771429D02*
X129628628Y-126819048D01*
X129628628Y-126819048D02*
X129581009Y-126819048D01*
X129581009Y-126819048D02*
X129485771Y-126771429D01*
X129485771Y-126771429D02*
X129438152Y-126676191D01*
X129438152Y-126676191D02*
X129438152Y-126533334D01*
X129438152Y-126533334D02*
X129485771Y-126438096D01*
X130057200Y-126009524D02*
X130104819Y-125914286D01*
X130104819Y-125914286D02*
X130104819Y-125723810D01*
X130104819Y-125723810D02*
X130057200Y-125628572D01*
X130057200Y-125628572D02*
X129961961Y-125580953D01*
X129961961Y-125580953D02*
X129914342Y-125580953D01*
X129914342Y-125580953D02*
X129819104Y-125628572D01*
X129819104Y-125628572D02*
X129771485Y-125723810D01*
X129771485Y-125723810D02*
X129771485Y-125866667D01*
X129771485Y-125866667D02*
X129723866Y-125961905D01*
X129723866Y-125961905D02*
X129628628Y-126009524D01*
X129628628Y-126009524D02*
X129581009Y-126009524D01*
X129581009Y-126009524D02*
X129485771Y-125961905D01*
X129485771Y-125961905D02*
X129438152Y-125866667D01*
X129438152Y-125866667D02*
X129438152Y-125723810D01*
X129438152Y-125723810D02*
X129485771Y-125628572D01*
X129438152Y-125295238D02*
X129438152Y-124914286D01*
X129104819Y-125152381D02*
X129961961Y-125152381D01*
X129961961Y-125152381D02*
X130057200Y-125104762D01*
X130057200Y-125104762D02*
X130104819Y-125009524D01*
X130104819Y-125009524D02*
X130104819Y-124914286D01*
X130104819Y-124580952D02*
X129104819Y-124580952D01*
X130104819Y-124152381D02*
X129581009Y-124152381D01*
X129581009Y-124152381D02*
X129485771Y-124200000D01*
X129485771Y-124200000D02*
X129438152Y-124295238D01*
X129438152Y-124295238D02*
X129438152Y-124438095D01*
X129438152Y-124438095D02*
X129485771Y-124533333D01*
X129485771Y-124533333D02*
X129533390Y-124580952D01*
X130104819Y-123676190D02*
X129438152Y-123676190D01*
X129628628Y-123676190D02*
X129533390Y-123628571D01*
X129533390Y-123628571D02*
X129485771Y-123580952D01*
X129485771Y-123580952D02*
X129438152Y-123485714D01*
X129438152Y-123485714D02*
X129438152Y-123390476D01*
X130104819Y-122914285D02*
X130057200Y-123009523D01*
X130057200Y-123009523D02*
X130009580Y-123057142D01*
X130009580Y-123057142D02*
X129914342Y-123104761D01*
X129914342Y-123104761D02*
X129628628Y-123104761D01*
X129628628Y-123104761D02*
X129533390Y-123057142D01*
X129533390Y-123057142D02*
X129485771Y-123009523D01*
X129485771Y-123009523D02*
X129438152Y-122914285D01*
X129438152Y-122914285D02*
X129438152Y-122771428D01*
X129438152Y-122771428D02*
X129485771Y-122676190D01*
X129485771Y-122676190D02*
X129533390Y-122628571D01*
X129533390Y-122628571D02*
X129628628Y-122580952D01*
X129628628Y-122580952D02*
X129914342Y-122580952D01*
X129914342Y-122580952D02*
X130009580Y-122628571D01*
X130009580Y-122628571D02*
X130057200Y-122676190D01*
X130057200Y-122676190D02*
X130104819Y-122771428D01*
X130104819Y-122771428D02*
X130104819Y-122914285D01*
X129438152Y-121723809D02*
X130104819Y-121723809D01*
X129438152Y-122152380D02*
X129961961Y-122152380D01*
X129961961Y-122152380D02*
X130057200Y-122104761D01*
X130057200Y-122104761D02*
X130104819Y-122009523D01*
X130104819Y-122009523D02*
X130104819Y-121866666D01*
X130104819Y-121866666D02*
X130057200Y-121771428D01*
X130057200Y-121771428D02*
X130009580Y-121723809D01*
X129438152Y-120819047D02*
X130247676Y-120819047D01*
X130247676Y-120819047D02*
X130342914Y-120866666D01*
X130342914Y-120866666D02*
X130390533Y-120914285D01*
X130390533Y-120914285D02*
X130438152Y-121009523D01*
X130438152Y-121009523D02*
X130438152Y-121152380D01*
X130438152Y-121152380D02*
X130390533Y-121247618D01*
X130057200Y-120819047D02*
X130104819Y-120914285D01*
X130104819Y-120914285D02*
X130104819Y-121104761D01*
X130104819Y-121104761D02*
X130057200Y-121199999D01*
X130057200Y-121199999D02*
X130009580Y-121247618D01*
X130009580Y-121247618D02*
X129914342Y-121295237D01*
X129914342Y-121295237D02*
X129628628Y-121295237D01*
X129628628Y-121295237D02*
X129533390Y-121247618D01*
X129533390Y-121247618D02*
X129485771Y-121199999D01*
X129485771Y-121199999D02*
X129438152Y-121104761D01*
X129438152Y-121104761D02*
X129438152Y-120914285D01*
X129438152Y-120914285D02*
X129485771Y-120819047D01*
X130104819Y-120342856D02*
X129104819Y-120342856D01*
X130104819Y-119914285D02*
X129581009Y-119914285D01*
X129581009Y-119914285D02*
X129485771Y-119961904D01*
X129485771Y-119961904D02*
X129438152Y-120057142D01*
X129438152Y-120057142D02*
X129438152Y-120199999D01*
X129438152Y-120199999D02*
X129485771Y-120295237D01*
X129485771Y-120295237D02*
X129533390Y-120342856D01*
X130104819Y-118104761D02*
X129628628Y-118438094D01*
X130104819Y-118676189D02*
X129104819Y-118676189D01*
X129104819Y-118676189D02*
X129104819Y-118295237D01*
X129104819Y-118295237D02*
X129152438Y-118199999D01*
X129152438Y-118199999D02*
X129200057Y-118152380D01*
X129200057Y-118152380D02*
X129295295Y-118104761D01*
X129295295Y-118104761D02*
X129438152Y-118104761D01*
X129438152Y-118104761D02*
X129533390Y-118152380D01*
X129533390Y-118152380D02*
X129581009Y-118199999D01*
X129581009Y-118199999D02*
X129628628Y-118295237D01*
X129628628Y-118295237D02*
X129628628Y-118676189D01*
X130057200Y-117295237D02*
X130104819Y-117390475D01*
X130104819Y-117390475D02*
X130104819Y-117580951D01*
X130104819Y-117580951D02*
X130057200Y-117676189D01*
X130057200Y-117676189D02*
X129961961Y-117723808D01*
X129961961Y-117723808D02*
X129581009Y-117723808D01*
X129581009Y-117723808D02*
X129485771Y-117676189D01*
X129485771Y-117676189D02*
X129438152Y-117580951D01*
X129438152Y-117580951D02*
X129438152Y-117390475D01*
X129438152Y-117390475D02*
X129485771Y-117295237D01*
X129485771Y-117295237D02*
X129581009Y-117247618D01*
X129581009Y-117247618D02*
X129676247Y-117247618D01*
X129676247Y-117247618D02*
X129771485Y-117723808D01*
X130104819Y-116676189D02*
X130057200Y-116771427D01*
X130057200Y-116771427D02*
X129961961Y-116819046D01*
X129961961Y-116819046D02*
X129104819Y-116819046D01*
X130104819Y-115866665D02*
X129581009Y-115866665D01*
X129581009Y-115866665D02*
X129485771Y-115914284D01*
X129485771Y-115914284D02*
X129438152Y-116009522D01*
X129438152Y-116009522D02*
X129438152Y-116199998D01*
X129438152Y-116199998D02*
X129485771Y-116295236D01*
X130057200Y-115866665D02*
X130104819Y-115961903D01*
X130104819Y-115961903D02*
X130104819Y-116199998D01*
X130104819Y-116199998D02*
X130057200Y-116295236D01*
X130057200Y-116295236D02*
X129961961Y-116342855D01*
X129961961Y-116342855D02*
X129866723Y-116342855D01*
X129866723Y-116342855D02*
X129771485Y-116295236D01*
X129771485Y-116295236D02*
X129723866Y-116199998D01*
X129723866Y-116199998D02*
X129723866Y-115961903D01*
X129723866Y-115961903D02*
X129676247Y-115866665D01*
X129438152Y-115485712D02*
X130104819Y-115247617D01*
X129438152Y-115009522D02*
X130104819Y-115247617D01*
X130104819Y-115247617D02*
X130342914Y-115342855D01*
X130342914Y-115342855D02*
X130390533Y-115390474D01*
X130390533Y-115390474D02*
X130438152Y-115485712D01*
X120333333Y-144559580D02*
X120285714Y-144607200D01*
X120285714Y-144607200D02*
X120142857Y-144654819D01*
X120142857Y-144654819D02*
X120047619Y-144654819D01*
X120047619Y-144654819D02*
X119904762Y-144607200D01*
X119904762Y-144607200D02*
X119809524Y-144511961D01*
X119809524Y-144511961D02*
X119761905Y-144416723D01*
X119761905Y-144416723D02*
X119714286Y-144226247D01*
X119714286Y-144226247D02*
X119714286Y-144083390D01*
X119714286Y-144083390D02*
X119761905Y-143892914D01*
X119761905Y-143892914D02*
X119809524Y-143797676D01*
X119809524Y-143797676D02*
X119904762Y-143702438D01*
X119904762Y-143702438D02*
X120047619Y-143654819D01*
X120047619Y-143654819D02*
X120142857Y-143654819D01*
X120142857Y-143654819D02*
X120285714Y-143702438D01*
X120285714Y-143702438D02*
X120333333Y-143750057D01*
X121285714Y-144654819D02*
X120714286Y-144654819D01*
X121000000Y-144654819D02*
X121000000Y-143654819D01*
X121000000Y-143654819D02*
X120904762Y-143797676D01*
X120904762Y-143797676D02*
X120809524Y-143892914D01*
X120809524Y-143892914D02*
X120714286Y-143940533D01*
X128666666Y-165304819D02*
X128666666Y-166019104D01*
X128666666Y-166019104D02*
X128619047Y-166161961D01*
X128619047Y-166161961D02*
X128523809Y-166257200D01*
X128523809Y-166257200D02*
X128380952Y-166304819D01*
X128380952Y-166304819D02*
X128285714Y-166304819D01*
X129047619Y-165304819D02*
X129666666Y-165304819D01*
X129666666Y-165304819D02*
X129333333Y-165685771D01*
X129333333Y-165685771D02*
X129476190Y-165685771D01*
X129476190Y-165685771D02*
X129571428Y-165733390D01*
X129571428Y-165733390D02*
X129619047Y-165781009D01*
X129619047Y-165781009D02*
X129666666Y-165876247D01*
X129666666Y-165876247D02*
X129666666Y-166114342D01*
X129666666Y-166114342D02*
X129619047Y-166209580D01*
X129619047Y-166209580D02*
X129571428Y-166257200D01*
X129571428Y-166257200D02*
X129476190Y-166304819D01*
X129476190Y-166304819D02*
X129190476Y-166304819D01*
X129190476Y-166304819D02*
X129095238Y-166257200D01*
X129095238Y-166257200D02*
X129047619Y-166209580D01*
X119399999Y-172604819D02*
X119399999Y-171604819D01*
X119399999Y-171604819D02*
X119780951Y-171604819D01*
X119780951Y-171604819D02*
X119876189Y-171652438D01*
X119876189Y-171652438D02*
X119923808Y-171700057D01*
X119923808Y-171700057D02*
X119971427Y-171795295D01*
X119971427Y-171795295D02*
X119971427Y-171938152D01*
X119971427Y-171938152D02*
X119923808Y-172033390D01*
X119923808Y-172033390D02*
X119876189Y-172081009D01*
X119876189Y-172081009D02*
X119780951Y-172128628D01*
X119780951Y-172128628D02*
X119399999Y-172128628D01*
X120542856Y-172604819D02*
X120447618Y-172557200D01*
X120447618Y-172557200D02*
X120399999Y-172509580D01*
X120399999Y-172509580D02*
X120352380Y-172414342D01*
X120352380Y-172414342D02*
X120352380Y-172128628D01*
X120352380Y-172128628D02*
X120399999Y-172033390D01*
X120399999Y-172033390D02*
X120447618Y-171985771D01*
X120447618Y-171985771D02*
X120542856Y-171938152D01*
X120542856Y-171938152D02*
X120685713Y-171938152D01*
X120685713Y-171938152D02*
X120780951Y-171985771D01*
X120780951Y-171985771D02*
X120828570Y-172033390D01*
X120828570Y-172033390D02*
X120876189Y-172128628D01*
X120876189Y-172128628D02*
X120876189Y-172414342D01*
X120876189Y-172414342D02*
X120828570Y-172509580D01*
X120828570Y-172509580D02*
X120780951Y-172557200D01*
X120780951Y-172557200D02*
X120685713Y-172604819D01*
X120685713Y-172604819D02*
X120542856Y-172604819D01*
X121209523Y-171938152D02*
X121399999Y-172604819D01*
X121399999Y-172604819D02*
X121590475Y-172128628D01*
X121590475Y-172128628D02*
X121780951Y-172604819D01*
X121780951Y-172604819D02*
X121971427Y-171938152D01*
X122733332Y-172557200D02*
X122638094Y-172604819D01*
X122638094Y-172604819D02*
X122447618Y-172604819D01*
X122447618Y-172604819D02*
X122352380Y-172557200D01*
X122352380Y-172557200D02*
X122304761Y-172461961D01*
X122304761Y-172461961D02*
X122304761Y-172081009D01*
X122304761Y-172081009D02*
X122352380Y-171985771D01*
X122352380Y-171985771D02*
X122447618Y-171938152D01*
X122447618Y-171938152D02*
X122638094Y-171938152D01*
X122638094Y-171938152D02*
X122733332Y-171985771D01*
X122733332Y-171985771D02*
X122780951Y-172081009D01*
X122780951Y-172081009D02*
X122780951Y-172176247D01*
X122780951Y-172176247D02*
X122304761Y-172271485D01*
X123209523Y-172604819D02*
X123209523Y-171938152D01*
X123209523Y-172128628D02*
X123257142Y-172033390D01*
X123257142Y-172033390D02*
X123304761Y-171985771D01*
X123304761Y-171985771D02*
X123399999Y-171938152D01*
X123399999Y-171938152D02*
X123495237Y-171938152D01*
X124447619Y-171938152D02*
X124828571Y-171938152D01*
X124590476Y-171604819D02*
X124590476Y-172461961D01*
X124590476Y-172461961D02*
X124638095Y-172557200D01*
X124638095Y-172557200D02*
X124733333Y-172604819D01*
X124733333Y-172604819D02*
X124828571Y-172604819D01*
X125304762Y-172604819D02*
X125209524Y-172557200D01*
X125209524Y-172557200D02*
X125161905Y-172509580D01*
X125161905Y-172509580D02*
X125114286Y-172414342D01*
X125114286Y-172414342D02*
X125114286Y-172128628D01*
X125114286Y-172128628D02*
X125161905Y-172033390D01*
X125161905Y-172033390D02*
X125209524Y-171985771D01*
X125209524Y-171985771D02*
X125304762Y-171938152D01*
X125304762Y-171938152D02*
X125447619Y-171938152D01*
X125447619Y-171938152D02*
X125542857Y-171985771D01*
X125542857Y-171985771D02*
X125590476Y-172033390D01*
X125590476Y-172033390D02*
X125638095Y-172128628D01*
X125638095Y-172128628D02*
X125638095Y-172414342D01*
X125638095Y-172414342D02*
X125590476Y-172509580D01*
X125590476Y-172509580D02*
X125542857Y-172557200D01*
X125542857Y-172557200D02*
X125447619Y-172604819D01*
X125447619Y-172604819D02*
X125304762Y-172604819D01*
X127304762Y-172604819D02*
X126828572Y-172604819D01*
X126828572Y-172604819D02*
X126828572Y-171604819D01*
X127780953Y-172604819D02*
X127685715Y-172557200D01*
X127685715Y-172557200D02*
X127638096Y-172509580D01*
X127638096Y-172509580D02*
X127590477Y-172414342D01*
X127590477Y-172414342D02*
X127590477Y-172128628D01*
X127590477Y-172128628D02*
X127638096Y-172033390D01*
X127638096Y-172033390D02*
X127685715Y-171985771D01*
X127685715Y-171985771D02*
X127780953Y-171938152D01*
X127780953Y-171938152D02*
X127923810Y-171938152D01*
X127923810Y-171938152D02*
X128019048Y-171985771D01*
X128019048Y-171985771D02*
X128066667Y-172033390D01*
X128066667Y-172033390D02*
X128114286Y-172128628D01*
X128114286Y-172128628D02*
X128114286Y-172414342D01*
X128114286Y-172414342D02*
X128066667Y-172509580D01*
X128066667Y-172509580D02*
X128019048Y-172557200D01*
X128019048Y-172557200D02*
X127923810Y-172604819D01*
X127923810Y-172604819D02*
X127780953Y-172604819D01*
X128971429Y-171938152D02*
X128971429Y-172747676D01*
X128971429Y-172747676D02*
X128923810Y-172842914D01*
X128923810Y-172842914D02*
X128876191Y-172890533D01*
X128876191Y-172890533D02*
X128780953Y-172938152D01*
X128780953Y-172938152D02*
X128638096Y-172938152D01*
X128638096Y-172938152D02*
X128542858Y-172890533D01*
X128971429Y-172557200D02*
X128876191Y-172604819D01*
X128876191Y-172604819D02*
X128685715Y-172604819D01*
X128685715Y-172604819D02*
X128590477Y-172557200D01*
X128590477Y-172557200D02*
X128542858Y-172509580D01*
X128542858Y-172509580D02*
X128495239Y-172414342D01*
X128495239Y-172414342D02*
X128495239Y-172128628D01*
X128495239Y-172128628D02*
X128542858Y-172033390D01*
X128542858Y-172033390D02*
X128590477Y-171985771D01*
X128590477Y-171985771D02*
X128685715Y-171938152D01*
X128685715Y-171938152D02*
X128876191Y-171938152D01*
X128876191Y-171938152D02*
X128971429Y-171985771D01*
X129447620Y-172604819D02*
X129447620Y-171938152D01*
X129447620Y-171604819D02*
X129400001Y-171652438D01*
X129400001Y-171652438D02*
X129447620Y-171700057D01*
X129447620Y-171700057D02*
X129495239Y-171652438D01*
X129495239Y-171652438D02*
X129447620Y-171604819D01*
X129447620Y-171604819D02*
X129447620Y-171700057D01*
X130352381Y-172557200D02*
X130257143Y-172604819D01*
X130257143Y-172604819D02*
X130066667Y-172604819D01*
X130066667Y-172604819D02*
X129971429Y-172557200D01*
X129971429Y-172557200D02*
X129923810Y-172509580D01*
X129923810Y-172509580D02*
X129876191Y-172414342D01*
X129876191Y-172414342D02*
X129876191Y-172128628D01*
X129876191Y-172128628D02*
X129923810Y-172033390D01*
X129923810Y-172033390D02*
X129971429Y-171985771D01*
X129971429Y-171985771D02*
X130066667Y-171938152D01*
X130066667Y-171938152D02*
X130257143Y-171938152D01*
X130257143Y-171938152D02*
X130352381Y-171985771D01*
X131876191Y-172081009D02*
X132019048Y-172128628D01*
X132019048Y-172128628D02*
X132066667Y-172176247D01*
X132066667Y-172176247D02*
X132114286Y-172271485D01*
X132114286Y-172271485D02*
X132114286Y-172414342D01*
X132114286Y-172414342D02*
X132066667Y-172509580D01*
X132066667Y-172509580D02*
X132019048Y-172557200D01*
X132019048Y-172557200D02*
X131923810Y-172604819D01*
X131923810Y-172604819D02*
X131542858Y-172604819D01*
X131542858Y-172604819D02*
X131542858Y-171604819D01*
X131542858Y-171604819D02*
X131876191Y-171604819D01*
X131876191Y-171604819D02*
X131971429Y-171652438D01*
X131971429Y-171652438D02*
X132019048Y-171700057D01*
X132019048Y-171700057D02*
X132066667Y-171795295D01*
X132066667Y-171795295D02*
X132066667Y-171890533D01*
X132066667Y-171890533D02*
X132019048Y-171985771D01*
X132019048Y-171985771D02*
X131971429Y-172033390D01*
X131971429Y-172033390D02*
X131876191Y-172081009D01*
X131876191Y-172081009D02*
X131542858Y-172081009D01*
X132685715Y-172604819D02*
X132590477Y-172557200D01*
X132590477Y-172557200D02*
X132542858Y-172509580D01*
X132542858Y-172509580D02*
X132495239Y-172414342D01*
X132495239Y-172414342D02*
X132495239Y-172128628D01*
X132495239Y-172128628D02*
X132542858Y-172033390D01*
X132542858Y-172033390D02*
X132590477Y-171985771D01*
X132590477Y-171985771D02*
X132685715Y-171938152D01*
X132685715Y-171938152D02*
X132828572Y-171938152D01*
X132828572Y-171938152D02*
X132923810Y-171985771D01*
X132923810Y-171985771D02*
X132971429Y-172033390D01*
X132971429Y-172033390D02*
X133019048Y-172128628D01*
X133019048Y-172128628D02*
X133019048Y-172414342D01*
X133019048Y-172414342D02*
X132971429Y-172509580D01*
X132971429Y-172509580D02*
X132923810Y-172557200D01*
X132923810Y-172557200D02*
X132828572Y-172604819D01*
X132828572Y-172604819D02*
X132685715Y-172604819D01*
X133876191Y-172604819D02*
X133876191Y-172081009D01*
X133876191Y-172081009D02*
X133828572Y-171985771D01*
X133828572Y-171985771D02*
X133733334Y-171938152D01*
X133733334Y-171938152D02*
X133542858Y-171938152D01*
X133542858Y-171938152D02*
X133447620Y-171985771D01*
X133876191Y-172557200D02*
X133780953Y-172604819D01*
X133780953Y-172604819D02*
X133542858Y-172604819D01*
X133542858Y-172604819D02*
X133447620Y-172557200D01*
X133447620Y-172557200D02*
X133400001Y-172461961D01*
X133400001Y-172461961D02*
X133400001Y-172366723D01*
X133400001Y-172366723D02*
X133447620Y-172271485D01*
X133447620Y-172271485D02*
X133542858Y-172223866D01*
X133542858Y-172223866D02*
X133780953Y-172223866D01*
X133780953Y-172223866D02*
X133876191Y-172176247D01*
X134352382Y-172604819D02*
X134352382Y-171938152D01*
X134352382Y-172128628D02*
X134400001Y-172033390D01*
X134400001Y-172033390D02*
X134447620Y-171985771D01*
X134447620Y-171985771D02*
X134542858Y-171938152D01*
X134542858Y-171938152D02*
X134638096Y-171938152D01*
X135400001Y-172604819D02*
X135400001Y-171604819D01*
X135400001Y-172557200D02*
X135304763Y-172604819D01*
X135304763Y-172604819D02*
X135114287Y-172604819D01*
X135114287Y-172604819D02*
X135019049Y-172557200D01*
X135019049Y-172557200D02*
X134971430Y-172509580D01*
X134971430Y-172509580D02*
X134923811Y-172414342D01*
X134923811Y-172414342D02*
X134923811Y-172128628D01*
X134923811Y-172128628D02*
X134971430Y-172033390D01*
X134971430Y-172033390D02*
X135019049Y-171985771D01*
X135019049Y-171985771D02*
X135114287Y-171938152D01*
X135114287Y-171938152D02*
X135304763Y-171938152D01*
X135304763Y-171938152D02*
X135400001Y-171985771D01*
X122746666Y-111354819D02*
X122746666Y-112069104D01*
X122746666Y-112069104D02*
X122699047Y-112211961D01*
X122699047Y-112211961D02*
X122603809Y-112307200D01*
X122603809Y-112307200D02*
X122460952Y-112354819D01*
X122460952Y-112354819D02*
X122365714Y-112354819D01*
X123746666Y-112354819D02*
X123175238Y-112354819D01*
X123460952Y-112354819D02*
X123460952Y-111354819D01*
X123460952Y-111354819D02*
X123365714Y-111497676D01*
X123365714Y-111497676D02*
X123270476Y-111592914D01*
X123270476Y-111592914D02*
X123175238Y-111640533D01*
X118199047Y-101169104D02*
X118675237Y-101169104D01*
X118103809Y-101454819D02*
X118437142Y-100454819D01*
X118437142Y-100454819D02*
X118770475Y-101454819D01*
X119675237Y-101359580D02*
X119627618Y-101407200D01*
X119627618Y-101407200D02*
X119484761Y-101454819D01*
X119484761Y-101454819D02*
X119389523Y-101454819D01*
X119389523Y-101454819D02*
X119246666Y-101407200D01*
X119246666Y-101407200D02*
X119151428Y-101311961D01*
X119151428Y-101311961D02*
X119103809Y-101216723D01*
X119103809Y-101216723D02*
X119056190Y-101026247D01*
X119056190Y-101026247D02*
X119056190Y-100883390D01*
X119056190Y-100883390D02*
X119103809Y-100692914D01*
X119103809Y-100692914D02*
X119151428Y-100597676D01*
X119151428Y-100597676D02*
X119246666Y-100502438D01*
X119246666Y-100502438D02*
X119389523Y-100454819D01*
X119389523Y-100454819D02*
X119484761Y-100454819D01*
X119484761Y-100454819D02*
X119627618Y-100502438D01*
X119627618Y-100502438D02*
X119675237Y-100550057D01*
X121437142Y-101359580D02*
X121389523Y-101407200D01*
X121389523Y-101407200D02*
X121246666Y-101454819D01*
X121246666Y-101454819D02*
X121151428Y-101454819D01*
X121151428Y-101454819D02*
X121008571Y-101407200D01*
X121008571Y-101407200D02*
X120913333Y-101311961D01*
X120913333Y-101311961D02*
X120865714Y-101216723D01*
X120865714Y-101216723D02*
X120818095Y-101026247D01*
X120818095Y-101026247D02*
X120818095Y-100883390D01*
X120818095Y-100883390D02*
X120865714Y-100692914D01*
X120865714Y-100692914D02*
X120913333Y-100597676D01*
X120913333Y-100597676D02*
X121008571Y-100502438D01*
X121008571Y-100502438D02*
X121151428Y-100454819D01*
X121151428Y-100454819D02*
X121246666Y-100454819D01*
X121246666Y-100454819D02*
X121389523Y-100502438D01*
X121389523Y-100502438D02*
X121437142Y-100550057D01*
X122008571Y-101454819D02*
X121913333Y-101407200D01*
X121913333Y-101407200D02*
X121865714Y-101359580D01*
X121865714Y-101359580D02*
X121818095Y-101264342D01*
X121818095Y-101264342D02*
X121818095Y-100978628D01*
X121818095Y-100978628D02*
X121865714Y-100883390D01*
X121865714Y-100883390D02*
X121913333Y-100835771D01*
X121913333Y-100835771D02*
X122008571Y-100788152D01*
X122008571Y-100788152D02*
X122151428Y-100788152D01*
X122151428Y-100788152D02*
X122246666Y-100835771D01*
X122246666Y-100835771D02*
X122294285Y-100883390D01*
X122294285Y-100883390D02*
X122341904Y-100978628D01*
X122341904Y-100978628D02*
X122341904Y-101264342D01*
X122341904Y-101264342D02*
X122294285Y-101359580D01*
X122294285Y-101359580D02*
X122246666Y-101407200D01*
X122246666Y-101407200D02*
X122151428Y-101454819D01*
X122151428Y-101454819D02*
X122008571Y-101454819D01*
X122770476Y-100788152D02*
X122770476Y-101454819D01*
X122770476Y-100883390D02*
X122818095Y-100835771D01*
X122818095Y-100835771D02*
X122913333Y-100788152D01*
X122913333Y-100788152D02*
X123056190Y-100788152D01*
X123056190Y-100788152D02*
X123151428Y-100835771D01*
X123151428Y-100835771D02*
X123199047Y-100931009D01*
X123199047Y-100931009D02*
X123199047Y-101454819D01*
X123675238Y-100788152D02*
X123675238Y-101454819D01*
X123675238Y-100883390D02*
X123722857Y-100835771D01*
X123722857Y-100835771D02*
X123818095Y-100788152D01*
X123818095Y-100788152D02*
X123960952Y-100788152D01*
X123960952Y-100788152D02*
X124056190Y-100835771D01*
X124056190Y-100835771D02*
X124103809Y-100931009D01*
X124103809Y-100931009D02*
X124103809Y-101454819D01*
X124960952Y-101407200D02*
X124865714Y-101454819D01*
X124865714Y-101454819D02*
X124675238Y-101454819D01*
X124675238Y-101454819D02*
X124580000Y-101407200D01*
X124580000Y-101407200D02*
X124532381Y-101311961D01*
X124532381Y-101311961D02*
X124532381Y-100931009D01*
X124532381Y-100931009D02*
X124580000Y-100835771D01*
X124580000Y-100835771D02*
X124675238Y-100788152D01*
X124675238Y-100788152D02*
X124865714Y-100788152D01*
X124865714Y-100788152D02*
X124960952Y-100835771D01*
X124960952Y-100835771D02*
X125008571Y-100931009D01*
X125008571Y-100931009D02*
X125008571Y-101026247D01*
X125008571Y-101026247D02*
X124532381Y-101121485D01*
X125865714Y-101407200D02*
X125770476Y-101454819D01*
X125770476Y-101454819D02*
X125580000Y-101454819D01*
X125580000Y-101454819D02*
X125484762Y-101407200D01*
X125484762Y-101407200D02*
X125437143Y-101359580D01*
X125437143Y-101359580D02*
X125389524Y-101264342D01*
X125389524Y-101264342D02*
X125389524Y-100978628D01*
X125389524Y-100978628D02*
X125437143Y-100883390D01*
X125437143Y-100883390D02*
X125484762Y-100835771D01*
X125484762Y-100835771D02*
X125580000Y-100788152D01*
X125580000Y-100788152D02*
X125770476Y-100788152D01*
X125770476Y-100788152D02*
X125865714Y-100835771D01*
X126151429Y-100788152D02*
X126532381Y-100788152D01*
X126294286Y-100454819D02*
X126294286Y-101311961D01*
X126294286Y-101311961D02*
X126341905Y-101407200D01*
X126341905Y-101407200D02*
X126437143Y-101454819D01*
X126437143Y-101454819D02*
X126532381Y-101454819D01*
X127008572Y-101454819D02*
X126913334Y-101407200D01*
X126913334Y-101407200D02*
X126865715Y-101359580D01*
X126865715Y-101359580D02*
X126818096Y-101264342D01*
X126818096Y-101264342D02*
X126818096Y-100978628D01*
X126818096Y-100978628D02*
X126865715Y-100883390D01*
X126865715Y-100883390D02*
X126913334Y-100835771D01*
X126913334Y-100835771D02*
X127008572Y-100788152D01*
X127008572Y-100788152D02*
X127151429Y-100788152D01*
X127151429Y-100788152D02*
X127246667Y-100835771D01*
X127246667Y-100835771D02*
X127294286Y-100883390D01*
X127294286Y-100883390D02*
X127341905Y-100978628D01*
X127341905Y-100978628D02*
X127341905Y-101264342D01*
X127341905Y-101264342D02*
X127294286Y-101359580D01*
X127294286Y-101359580D02*
X127246667Y-101407200D01*
X127246667Y-101407200D02*
X127151429Y-101454819D01*
X127151429Y-101454819D02*
X127008572Y-101454819D01*
X127770477Y-101454819D02*
X127770477Y-100788152D01*
X127770477Y-100978628D02*
X127818096Y-100883390D01*
X127818096Y-100883390D02*
X127865715Y-100835771D01*
X127865715Y-100835771D02*
X127960953Y-100788152D01*
X127960953Y-100788152D02*
X128056191Y-100788152D01*
X153354819Y-133333333D02*
X154069104Y-133333333D01*
X154069104Y-133333333D02*
X154211961Y-133380952D01*
X154211961Y-133380952D02*
X154307200Y-133476190D01*
X154307200Y-133476190D02*
X154354819Y-133619047D01*
X154354819Y-133619047D02*
X154354819Y-133714285D01*
X153688152Y-132428571D02*
X154354819Y-132428571D01*
X153307200Y-132666666D02*
X154021485Y-132904761D01*
X154021485Y-132904761D02*
X154021485Y-132285714D01*
X146931009Y-133761904D02*
X146931009Y-134095237D01*
X147454819Y-134095237D02*
X146454819Y-134095237D01*
X146454819Y-134095237D02*
X146454819Y-133619047D01*
X147454819Y-132809523D02*
X146931009Y-132809523D01*
X146931009Y-132809523D02*
X146835771Y-132857142D01*
X146835771Y-132857142D02*
X146788152Y-132952380D01*
X146788152Y-132952380D02*
X146788152Y-133142856D01*
X146788152Y-133142856D02*
X146835771Y-133238094D01*
X147407200Y-132809523D02*
X147454819Y-132904761D01*
X147454819Y-132904761D02*
X147454819Y-133142856D01*
X147454819Y-133142856D02*
X147407200Y-133238094D01*
X147407200Y-133238094D02*
X147311961Y-133285713D01*
X147311961Y-133285713D02*
X147216723Y-133285713D01*
X147216723Y-133285713D02*
X147121485Y-133238094D01*
X147121485Y-133238094D02*
X147073866Y-133142856D01*
X147073866Y-133142856D02*
X147073866Y-132904761D01*
X147073866Y-132904761D02*
X147026247Y-132809523D01*
X146788152Y-132333332D02*
X147454819Y-132333332D01*
X146883390Y-132333332D02*
X146835771Y-132285713D01*
X146835771Y-132285713D02*
X146788152Y-132190475D01*
X146788152Y-132190475D02*
X146788152Y-132047618D01*
X146788152Y-132047618D02*
X146835771Y-131952380D01*
X146835771Y-131952380D02*
X146931009Y-131904761D01*
X146931009Y-131904761D02*
X147454819Y-131904761D01*
D13*
X132400000Y-164050000D02*
X135250000Y-164050000D01*
X132640000Y-163810000D02*
X142460000Y-163810000D01*
X142460000Y-163810000D02*
X142460000Y-139710000D01*
X132400000Y-161200000D02*
X132400000Y-164050000D01*
X142460000Y-139710000D02*
X143860000Y-139710000D01*
X143860000Y-139710000D02*
X143860000Y-137900000D01*
X132640000Y-137900000D02*
X132640000Y-163810000D01*
X132640000Y-137900000D02*
X132640000Y-111990000D01*
X142460000Y-136090000D02*
X143860000Y-136090000D01*
X143860000Y-136090000D02*
X143860000Y-137900000D01*
X132640000Y-111990000D02*
X142460000Y-111990000D01*
X142460000Y-111990000D02*
X142460000Y-136090000D01*
X120710000Y-159455000D02*
X120710000Y-162545000D01*
X120710000Y-159455170D02*
G75*
G02*
X126260000Y-161000462I2560000J-1544830D01*
G01*
X126260000Y-160999538D02*
G75*
G02*
X120710000Y-162544830I-2990000J-462D01*
G01*
X125770000Y-161000000D02*
G75*
G02*
X120770000Y-161000000I-2500000J0D01*
G01*
X120770000Y-161000000D02*
G75*
G02*
X125770000Y-161000000I2500000J0D01*
G01*
X119040000Y-136000000D02*
X119690000Y-136000000D01*
X119690000Y-134880000D02*
X119690000Y-137120000D01*
X119690000Y-137120000D02*
X123930000Y-137120000D01*
X120290000Y-134880000D02*
X120290000Y-137120000D01*
X120410000Y-134880000D02*
X120410000Y-137120000D01*
X120530000Y-134880000D02*
X120530000Y-137120000D01*
X123930000Y-134880000D02*
X119690000Y-134880000D01*
X123930000Y-137120000D02*
X123930000Y-134880000D01*
X124580000Y-136000000D02*
X123930000Y-136000000D01*
X117670000Y-147540000D02*
X117670000Y-152840000D01*
X117670000Y-152840000D02*
X122870000Y-152840000D01*
X122870000Y-147540000D02*
X117670000Y-147540000D01*
X122870000Y-149190000D02*
X122870000Y-147540000D01*
X122870000Y-152840000D02*
X122870000Y-151190000D01*
X122870000Y-151190000D02*
G75*
G02*
X122870000Y-149190000I0J1000000D01*
G01*
X112130000Y-161000000D02*
X113080000Y-161000000D01*
X113080000Y-160080000D02*
X113080000Y-161920000D01*
X113080000Y-161920000D02*
X116920000Y-161920000D01*
X116920000Y-160080000D02*
X113080000Y-160080000D01*
X116920000Y-161920000D02*
X116920000Y-160080000D01*
X117870000Y-161000000D02*
X116920000Y-161000000D01*
X127700000Y-148270000D02*
X127700000Y-152110000D01*
X127700000Y-152110000D02*
X129540000Y-152110000D01*
X128620000Y-147320000D02*
X128620000Y-148270000D01*
X128620000Y-153060000D02*
X128620000Y-152110000D01*
X129540000Y-148270000D02*
X127700000Y-148270000D01*
X129540000Y-152110000D02*
X129540000Y-148270000D01*
X112200000Y-112750000D02*
X127800000Y-112750000D01*
X112200000Y-132550000D02*
X112200000Y-112750000D01*
X112200000Y-132550000D02*
X118800000Y-132550000D01*
X114050000Y-125100000D02*
X114050000Y-127600000D01*
X114050000Y-125100000D02*
X118250000Y-125100000D01*
X118250000Y-123100000D02*
X121850000Y-123100000D01*
X118250000Y-127100000D02*
X118250000Y-123100000D01*
X120050000Y-120200000D02*
X117550000Y-115600000D01*
X120050000Y-121700000D02*
X120050000Y-120200000D01*
X120050000Y-121700000D02*
X123650000Y-121700000D01*
X120050000Y-128500000D02*
X120050000Y-129300000D01*
X120050000Y-128500000D02*
X123650000Y-128500000D01*
X121200000Y-132550000D02*
X127800000Y-132550000D01*
X121500000Y-117000000D02*
X124000000Y-117000000D01*
X121850000Y-123100000D02*
X118250000Y-127100000D01*
X121850000Y-123100000D02*
X121850000Y-127100000D01*
X121850000Y-125100000D02*
X126050000Y-125100000D01*
X121850000Y-127100000D02*
X118250000Y-127100000D01*
X123650000Y-121700000D02*
X123650000Y-128500000D01*
X126050000Y-127600000D02*
X126050000Y-125100000D01*
X127800000Y-112750000D02*
X127800000Y-132550000D01*
X118230000Y-140945000D02*
X118230000Y-140930000D01*
X118230000Y-143070000D02*
X118230000Y-143055000D01*
X122770000Y-140930000D02*
X118230000Y-140930000D01*
X122770000Y-140945000D02*
X122770000Y-140930000D01*
X122770000Y-143070000D02*
X118230000Y-143070000D01*
X122770000Y-143070000D02*
X122770000Y-143055000D01*
D14*
X142015742Y-103505391D02*
X142048419Y-103526921D01*
X142071562Y-103545126D01*
X142113402Y-103582656D01*
X142131005Y-103610852D01*
X142129856Y-103634889D01*
X142111710Y-103706192D01*
X142112534Y-103758558D01*
X142133098Y-103801082D01*
X142145134Y-103815358D01*
X142187483Y-103861053D01*
X142740526Y-103861053D01*
X142740526Y-104044869D01*
X141938421Y-104044869D01*
X141938421Y-103952961D01*
X141940603Y-103897781D01*
X141948351Y-103869312D01*
X141963468Y-103861057D01*
X141963916Y-103861053D01*
X141979749Y-103857155D01*
X141977684Y-103839526D01*
X141966261Y-103815099D01*
X141945005Y-103764650D01*
X141932216Y-103723684D01*
X141928938Y-103670972D01*
X141937645Y-103608612D01*
X141955206Y-103551135D01*
X141977395Y-103514128D01*
X141994942Y-103502073D01*
X142015742Y-103505391D01*
G36*
X142015742Y-103505391D02*
G01*
X142048419Y-103526921D01*
X142071562Y-103545126D01*
X142113402Y-103582656D01*
X142131005Y-103610852D01*
X142129856Y-103634889D01*
X142111710Y-103706192D01*
X142112534Y-103758558D01*
X142133098Y-103801082D01*
X142145134Y-103815358D01*
X142187483Y-103861053D01*
X142740526Y-103861053D01*
X142740526Y-104044869D01*
X141938421Y-104044869D01*
X141938421Y-103952961D01*
X141940603Y-103897781D01*
X141948351Y-103869312D01*
X141963468Y-103861057D01*
X141963916Y-103861053D01*
X141979749Y-103857155D01*
X141977684Y-103839526D01*
X141966261Y-103815099D01*
X141945005Y-103764650D01*
X141932216Y-103723684D01*
X141928938Y-103670972D01*
X141937645Y-103608612D01*
X141955206Y-103551135D01*
X141977395Y-103514128D01*
X141994942Y-103502073D01*
X142015742Y-103505391D01*
G37*
X143323127Y-103742283D02*
X143364979Y-103776031D01*
X143385398Y-103798947D01*
X143388517Y-103821721D01*
X143378472Y-103855044D01*
X143372789Y-103870686D01*
X143364404Y-103934458D01*
X143382378Y-103992860D01*
X143422982Y-104035736D01*
X143435929Y-104042701D01*
X143470224Y-104050287D01*
X143533427Y-104056141D01*
X143621060Y-104059989D01*
X143728640Y-104061557D01*
X143743944Y-104061579D01*
X144010526Y-104061579D01*
X144010526Y-104245395D01*
X143191710Y-104245395D01*
X143191710Y-104153487D01*
X143193094Y-104100493D01*
X143199252Y-104072885D01*
X143213194Y-104062676D01*
X143226344Y-104061579D01*
X143260978Y-104061579D01*
X143226344Y-104017550D01*
X143202716Y-103967063D01*
X143191033Y-103899240D01*
X143191447Y-103826833D01*
X143204112Y-103762592D01*
X143222864Y-103726020D01*
X143254017Y-103687547D01*
X143323127Y-103742283D01*
G36*
X143323127Y-103742283D02*
G01*
X143364979Y-103776031D01*
X143385398Y-103798947D01*
X143388517Y-103821721D01*
X143378472Y-103855044D01*
X143372789Y-103870686D01*
X143364404Y-103934458D01*
X143382378Y-103992860D01*
X143422982Y-104035736D01*
X143435929Y-104042701D01*
X143470224Y-104050287D01*
X143533427Y-104056141D01*
X143621060Y-104059989D01*
X143728640Y-104061557D01*
X143743944Y-104061579D01*
X144010526Y-104061579D01*
X144010526Y-104245395D01*
X143191710Y-104245395D01*
X143191710Y-104153487D01*
X143193094Y-104100493D01*
X143199252Y-104072885D01*
X143213194Y-104062676D01*
X143226344Y-104061579D01*
X143260978Y-104061579D01*
X143226344Y-104017550D01*
X143202716Y-103967063D01*
X143191033Y-103899240D01*
X143191447Y-103826833D01*
X143204112Y-103762592D01*
X143222864Y-103726020D01*
X143254017Y-103687547D01*
X143323127Y-103742283D01*
G37*
X143271660Y-106917361D02*
X143301937Y-106939594D01*
X143339175Y-106974070D01*
X143345195Y-106980306D01*
X143372875Y-107013167D01*
X143381818Y-107041520D01*
X143375576Y-107081173D01*
X143371429Y-107097058D01*
X143361467Y-107146491D01*
X143365947Y-107181248D01*
X143381746Y-107210600D01*
X143402949Y-107237487D01*
X143429614Y-107257290D01*
X143466827Y-107271052D01*
X143519673Y-107279816D01*
X143593237Y-107284626D01*
X143692605Y-107286526D01*
X143752601Y-107286711D01*
X144010526Y-107286711D01*
X144010526Y-107453816D01*
X143191710Y-107453816D01*
X143191710Y-107370264D01*
X143193486Y-107320119D01*
X143200982Y-107295112D01*
X143217451Y-107287050D01*
X143224886Y-107286711D01*
X143245594Y-107285264D01*
X143248845Y-107275302D01*
X143234648Y-107248388D01*
X143224948Y-107232402D01*
X143204175Y-107181967D01*
X143193904Y-107121728D01*
X143193114Y-107058566D01*
X143200786Y-106999363D01*
X143215898Y-106950998D01*
X143237432Y-106920354D01*
X143264366Y-106914311D01*
X143271660Y-106917361D01*
G36*
X143271660Y-106917361D02*
G01*
X143301937Y-106939594D01*
X143339175Y-106974070D01*
X143345195Y-106980306D01*
X143372875Y-107013167D01*
X143381818Y-107041520D01*
X143375576Y-107081173D01*
X143371429Y-107097058D01*
X143361467Y-107146491D01*
X143365947Y-107181248D01*
X143381746Y-107210600D01*
X143402949Y-107237487D01*
X143429614Y-107257290D01*
X143466827Y-107271052D01*
X143519673Y-107279816D01*
X143593237Y-107284626D01*
X143692605Y-107286526D01*
X143752601Y-107286711D01*
X144010526Y-107286711D01*
X144010526Y-107453816D01*
X143191710Y-107453816D01*
X143191710Y-107370264D01*
X143193486Y-107320119D01*
X143200982Y-107295112D01*
X143217451Y-107287050D01*
X143224886Y-107286711D01*
X143245594Y-107285264D01*
X143248845Y-107275302D01*
X143234648Y-107248388D01*
X143224948Y-107232402D01*
X143204175Y-107181967D01*
X143193904Y-107121728D01*
X143193114Y-107058566D01*
X143200786Y-106999363D01*
X143215898Y-106950998D01*
X143237432Y-106920354D01*
X143264366Y-106914311D01*
X143271660Y-106917361D01*
G37*
X142740526Y-104287172D02*
X142738281Y-104342578D01*
X142730396Y-104371109D01*
X142715428Y-104379079D01*
X142702097Y-104383880D01*
X142704917Y-104402986D01*
X142723783Y-104441496D01*
X142752887Y-104529761D01*
X142750825Y-104623377D01*
X142719221Y-104713079D01*
X142694257Y-104755796D01*
X142667226Y-104788379D01*
X142633405Y-104812183D01*
X142588068Y-104828561D01*
X142526489Y-104838869D01*
X142443943Y-104844459D01*
X142335705Y-104846688D01*
X142252004Y-104846974D01*
X141938421Y-104846974D01*
X141938421Y-104679869D01*
X142198533Y-104679869D01*
X142321089Y-104678290D01*
X142414179Y-104672519D01*
X142481651Y-104661009D01*
X142527355Y-104642210D01*
X142555139Y-104614574D01*
X142568854Y-104576552D01*
X142572358Y-104529474D01*
X142568432Y-104480168D01*
X142554089Y-104442717D01*
X142525478Y-104415572D01*
X142478751Y-104397185D01*
X142410058Y-104386007D01*
X142315550Y-104380489D01*
X142198533Y-104379079D01*
X141938421Y-104379079D01*
X141938421Y-104195264D01*
X142740526Y-104195264D01*
X142740526Y-104287172D01*
G36*
X142740526Y-104287172D02*
G01*
X142738281Y-104342578D01*
X142730396Y-104371109D01*
X142715428Y-104379079D01*
X142702097Y-104383880D01*
X142704917Y-104402986D01*
X142723783Y-104441496D01*
X142752887Y-104529761D01*
X142750825Y-104623377D01*
X142719221Y-104713079D01*
X142694257Y-104755796D01*
X142667226Y-104788379D01*
X142633405Y-104812183D01*
X142588068Y-104828561D01*
X142526489Y-104838869D01*
X142443943Y-104844459D01*
X142335705Y-104846688D01*
X142252004Y-104846974D01*
X141938421Y-104846974D01*
X141938421Y-104679869D01*
X142198533Y-104679869D01*
X142321089Y-104678290D01*
X142414179Y-104672519D01*
X142481651Y-104661009D01*
X142527355Y-104642210D01*
X142555139Y-104614574D01*
X142568854Y-104576552D01*
X142572358Y-104529474D01*
X142568432Y-104480168D01*
X142554089Y-104442717D01*
X142525478Y-104415572D01*
X142478751Y-104397185D01*
X142410058Y-104386007D01*
X142315550Y-104380489D01*
X142198533Y-104379079D01*
X141938421Y-104379079D01*
X141938421Y-104195264D01*
X142740526Y-104195264D01*
X142740526Y-104287172D01*
G37*
X142740526Y-107019343D02*
X142467081Y-107019343D01*
X142365777Y-107019473D01*
X142292353Y-107020379D01*
X142241271Y-107022827D01*
X142206990Y-107027586D01*
X142183971Y-107035426D01*
X142166673Y-107047115D01*
X142149581Y-107063398D01*
X142112857Y-107120366D01*
X142106042Y-107182555D01*
X142129261Y-107241801D01*
X142146543Y-107262405D01*
X142162791Y-107277530D01*
X142180191Y-107288390D01*
X142204212Y-107295690D01*
X142240322Y-107300137D01*
X142293988Y-107302436D01*
X142370680Y-107303296D01*
X142464043Y-107303422D01*
X142740526Y-107303422D01*
X142740526Y-107487237D01*
X141938421Y-107487237D01*
X141938421Y-107395329D01*
X141940603Y-107340149D01*
X141948351Y-107311680D01*
X141963468Y-107303425D01*
X141963916Y-107303422D01*
X141978720Y-107299592D01*
X141977040Y-107282699D01*
X141960773Y-107249112D01*
X141936840Y-107172937D01*
X141934178Y-107085800D01*
X141952226Y-107002043D01*
X141972090Y-106960454D01*
X142000784Y-106920175D01*
X142033809Y-106889490D01*
X142075931Y-106867139D01*
X142131915Y-106851864D01*
X142206528Y-106842408D01*
X142304535Y-106837513D01*
X142430702Y-106835919D01*
X142443914Y-106835894D01*
X142740526Y-106835527D01*
X142740526Y-107019343D01*
G36*
X142740526Y-107019343D02*
G01*
X142467081Y-107019343D01*
X142365777Y-107019473D01*
X142292353Y-107020379D01*
X142241271Y-107022827D01*
X142206990Y-107027586D01*
X142183971Y-107035426D01*
X142166673Y-107047115D01*
X142149581Y-107063398D01*
X142112857Y-107120366D01*
X142106042Y-107182555D01*
X142129261Y-107241801D01*
X142146543Y-107262405D01*
X142162791Y-107277530D01*
X142180191Y-107288390D01*
X142204212Y-107295690D01*
X142240322Y-107300137D01*
X142293988Y-107302436D01*
X142370680Y-107303296D01*
X142464043Y-107303422D01*
X142740526Y-107303422D01*
X142740526Y-107487237D01*
X141938421Y-107487237D01*
X141938421Y-107395329D01*
X141940603Y-107340149D01*
X141948351Y-107311680D01*
X141963468Y-107303425D01*
X141963916Y-107303422D01*
X141978720Y-107299592D01*
X141977040Y-107282699D01*
X141960773Y-107249112D01*
X141936840Y-107172937D01*
X141934178Y-107085800D01*
X141952226Y-107002043D01*
X141972090Y-106960454D01*
X142000784Y-106920175D01*
X142033809Y-106889490D01*
X142075931Y-106867139D01*
X142131915Y-106851864D01*
X142206528Y-106842408D01*
X142304535Y-106837513D01*
X142430702Y-106835919D01*
X142443914Y-106835894D01*
X142740526Y-106835527D01*
X142740526Y-107019343D01*
G37*
X142669142Y-102916682D02*
X142725513Y-103010302D01*
X142753293Y-103115875D01*
X142751282Y-103226202D01*
X142732862Y-103298657D01*
X142687310Y-103383344D01*
X142615650Y-103451073D01*
X142565066Y-103481843D01*
X142492488Y-103506764D01*
X142400569Y-103519234D01*
X142300948Y-103519330D01*
X142205267Y-103507130D01*
X142125169Y-103482710D01*
X142116956Y-103478864D01*
X142036413Y-103421907D01*
X141977771Y-103344791D01*
X141942247Y-103253610D01*
X141931057Y-103154457D01*
X141945419Y-103053424D01*
X141986549Y-102956605D01*
X142006571Y-102926110D01*
X142037340Y-102887135D01*
X142061533Y-102862669D01*
X142069413Y-102858422D01*
X142086899Y-102870416D01*
X142116570Y-102901113D01*
X142137279Y-102925688D01*
X142191336Y-102992954D01*
X142146642Y-103046070D01*
X142117789Y-103087116D01*
X142107829Y-103127137D01*
X142110261Y-103172941D01*
X142128345Y-103245676D01*
X142165881Y-103295744D01*
X142226562Y-103326171D01*
X142314081Y-103339983D01*
X142314136Y-103339987D01*
X142411958Y-103338792D01*
X142483730Y-103320228D01*
X142532595Y-103283196D01*
X142549143Y-103257950D01*
X142569749Y-103190903D01*
X142569762Y-103119291D01*
X142549768Y-103056985D01*
X142540000Y-103042237D01*
X142515047Y-103005250D01*
X142510958Y-102976332D01*
X142529530Y-102945144D01*
X142562887Y-102910664D01*
X142619196Y-102856088D01*
X142669142Y-102916682D01*
G36*
X142669142Y-102916682D02*
G01*
X142725513Y-103010302D01*
X142753293Y-103115875D01*
X142751282Y-103226202D01*
X142732862Y-103298657D01*
X142687310Y-103383344D01*
X142615650Y-103451073D01*
X142565066Y-103481843D01*
X142492488Y-103506764D01*
X142400569Y-103519234D01*
X142300948Y-103519330D01*
X142205267Y-103507130D01*
X142125169Y-103482710D01*
X142116956Y-103478864D01*
X142036413Y-103421907D01*
X141977771Y-103344791D01*
X141942247Y-103253610D01*
X141931057Y-103154457D01*
X141945419Y-103053424D01*
X141986549Y-102956605D01*
X142006571Y-102926110D01*
X142037340Y-102887135D01*
X142061533Y-102862669D01*
X142069413Y-102858422D01*
X142086899Y-102870416D01*
X142116570Y-102901113D01*
X142137279Y-102925688D01*
X142191336Y-102992954D01*
X142146642Y-103046070D01*
X142117789Y-103087116D01*
X142107829Y-103127137D01*
X142110261Y-103172941D01*
X142128345Y-103245676D01*
X142165881Y-103295744D01*
X142226562Y-103326171D01*
X142314081Y-103339983D01*
X142314136Y-103339987D01*
X142411958Y-103338792D01*
X142483730Y-103320228D01*
X142532595Y-103283196D01*
X142549143Y-103257950D01*
X142569749Y-103190903D01*
X142569762Y-103119291D01*
X142549768Y-103056985D01*
X142540000Y-103042237D01*
X142515047Y-103005250D01*
X142510958Y-102976332D01*
X142529530Y-102945144D01*
X142562887Y-102910664D01*
X142619196Y-102856088D01*
X142669142Y-102916682D01*
G37*
X142424569Y-104982246D02*
X142500193Y-104989169D01*
X142540584Y-104997255D01*
X142595840Y-105024535D01*
X142654530Y-105071780D01*
X142705852Y-105128718D01*
X142739005Y-105185076D01*
X142739531Y-105186450D01*
X142754018Y-105256384D01*
X142754377Y-105339263D01*
X142741188Y-105418023D01*
X142730617Y-105448434D01*
X142686201Y-105526761D01*
X142628007Y-105582857D01*
X142550965Y-105619714D01*
X142450001Y-105640320D01*
X142397116Y-105644982D01*
X142330663Y-105644387D01*
X142255994Y-105643718D01*
X142140271Y-105620735D01*
X142049941Y-105576028D01*
X141985000Y-105509595D01*
X141945445Y-105421435D01*
X141940858Y-105402505D01*
X141931787Y-105306663D01*
X142107143Y-105306663D01*
X142120849Y-105368736D01*
X142154372Y-105416418D01*
X142182031Y-105441475D01*
X142209294Y-105456100D01*
X142246190Y-105463071D01*
X142302750Y-105465167D01*
X142330663Y-105465264D01*
X142427630Y-105459230D01*
X142501523Y-105441862D01*
X142548736Y-105414260D01*
X142562237Y-105394596D01*
X142571651Y-105344213D01*
X142568864Y-105284327D01*
X142555316Y-105232551D01*
X142547862Y-105218973D01*
X142504451Y-105183151D01*
X142438014Y-105159507D01*
X142357161Y-105149442D01*
X142270502Y-105154358D01*
X142218349Y-105165345D01*
X142157951Y-105196891D01*
X142120197Y-105246689D01*
X142107143Y-105306663D01*
X141931787Y-105306663D01*
X141930090Y-105288734D01*
X141948310Y-105188331D01*
X141994340Y-105103808D01*
X142067006Y-105037679D01*
X142126106Y-105006522D01*
X142178305Y-104993145D01*
X142252719Y-104984478D01*
X142338442Y-104980763D01*
X142424569Y-104982246D01*
G36*
X142424569Y-104982246D02*
G01*
X142500193Y-104989169D01*
X142540584Y-104997255D01*
X142595840Y-105024535D01*
X142654530Y-105071780D01*
X142705852Y-105128718D01*
X142739005Y-105185076D01*
X142739531Y-105186450D01*
X142754018Y-105256384D01*
X142754377Y-105339263D01*
X142741188Y-105418023D01*
X142730617Y-105448434D01*
X142686201Y-105526761D01*
X142628007Y-105582857D01*
X142550965Y-105619714D01*
X142450001Y-105640320D01*
X142397116Y-105644982D01*
X142330663Y-105644387D01*
X142255994Y-105643718D01*
X142140271Y-105620735D01*
X142049941Y-105576028D01*
X141985000Y-105509595D01*
X141945445Y-105421435D01*
X141940858Y-105402505D01*
X141931787Y-105306663D01*
X142107143Y-105306663D01*
X142120849Y-105368736D01*
X142154372Y-105416418D01*
X142182031Y-105441475D01*
X142209294Y-105456100D01*
X142246190Y-105463071D01*
X142302750Y-105465167D01*
X142330663Y-105465264D01*
X142427630Y-105459230D01*
X142501523Y-105441862D01*
X142548736Y-105414260D01*
X142562237Y-105394596D01*
X142571651Y-105344213D01*
X142568864Y-105284327D01*
X142555316Y-105232551D01*
X142547862Y-105218973D01*
X142504451Y-105183151D01*
X142438014Y-105159507D01*
X142357161Y-105149442D01*
X142270502Y-105154358D01*
X142218349Y-105165345D01*
X142157951Y-105196891D01*
X142120197Y-105246689D01*
X142107143Y-105306663D01*
X141931787Y-105306663D01*
X141930090Y-105288734D01*
X141948310Y-105188331D01*
X141994340Y-105103808D01*
X142067006Y-105037679D01*
X142126106Y-105006522D01*
X142178305Y-104993145D01*
X142252719Y-104984478D01*
X142338442Y-104980763D01*
X142424569Y-104982246D01*
G37*
X143371349Y-105107418D02*
X143459704Y-105135393D01*
X143566281Y-105169187D01*
X143677454Y-105204480D01*
X143776579Y-105235987D01*
X144002171Y-105307750D01*
X144012253Y-105462714D01*
X143873528Y-105504730D01*
X143787351Y-105530641D01*
X143692347Y-105558917D01*
X143608441Y-105583631D01*
X143605102Y-105584606D01*
X143548248Y-105603065D01*
X143509456Y-105619351D01*
X143494787Y-105630758D01*
X143496483Y-105633102D01*
X143519225Y-105641329D01*
X143567940Y-105656962D01*
X143636502Y-105678096D01*
X143718785Y-105702830D01*
X143764046Y-105716213D01*
X144010526Y-105788689D01*
X144010526Y-105942505D01*
X143622006Y-106065469D01*
X143513022Y-106100012D01*
X143414048Y-106131479D01*
X143329736Y-106158384D01*
X143264734Y-106179241D01*
X143223692Y-106192562D01*
X143211701Y-106196612D01*
X143199423Y-106193406D01*
X143194046Y-106168235D01*
X143194584Y-106115854D01*
X143194990Y-106107655D01*
X143200066Y-106010518D01*
X143434013Y-105946900D01*
X143519333Y-105923516D01*
X143594335Y-105902619D01*
X143652507Y-105886049D01*
X143687337Y-105875646D01*
X143693016Y-105873724D01*
X143686486Y-105865759D01*
X143652654Y-105849696D01*
X143596127Y-105827379D01*
X143521510Y-105800655D01*
X143454107Y-105778063D01*
X143190143Y-105691959D01*
X143195104Y-105625870D01*
X143200066Y-105559780D01*
X143459079Y-105473374D01*
X143718092Y-105386969D01*
X143626184Y-105359876D01*
X143569384Y-105343572D01*
X143492625Y-105322125D01*
X143408251Y-105298965D01*
X143362993Y-105286720D01*
X143191710Y-105240656D01*
X143191710Y-105050613D01*
X143371349Y-105107418D01*
G36*
X143371349Y-105107418D02*
G01*
X143459704Y-105135393D01*
X143566281Y-105169187D01*
X143677454Y-105204480D01*
X143776579Y-105235987D01*
X144002171Y-105307750D01*
X144012253Y-105462714D01*
X143873528Y-105504730D01*
X143787351Y-105530641D01*
X143692347Y-105558917D01*
X143608441Y-105583631D01*
X143605102Y-105584606D01*
X143548248Y-105603065D01*
X143509456Y-105619351D01*
X143494787Y-105630758D01*
X143496483Y-105633102D01*
X143519225Y-105641329D01*
X143567940Y-105656962D01*
X143636502Y-105678096D01*
X143718785Y-105702830D01*
X143764046Y-105716213D01*
X144010526Y-105788689D01*
X144010526Y-105942505D01*
X143622006Y-106065469D01*
X143513022Y-106100012D01*
X143414048Y-106131479D01*
X143329736Y-106158384D01*
X143264734Y-106179241D01*
X143223692Y-106192562D01*
X143211701Y-106196612D01*
X143199423Y-106193406D01*
X143194046Y-106168235D01*
X143194584Y-106115854D01*
X143194990Y-106107655D01*
X143200066Y-106010518D01*
X143434013Y-105946900D01*
X143519333Y-105923516D01*
X143594335Y-105902619D01*
X143652507Y-105886049D01*
X143687337Y-105875646D01*
X143693016Y-105873724D01*
X143686486Y-105865759D01*
X143652654Y-105849696D01*
X143596127Y-105827379D01*
X143521510Y-105800655D01*
X143454107Y-105778063D01*
X143190143Y-105691959D01*
X143195104Y-105625870D01*
X143200066Y-105559780D01*
X143459079Y-105473374D01*
X143718092Y-105386969D01*
X143626184Y-105359876D01*
X143569384Y-105343572D01*
X143492625Y-105322125D01*
X143408251Y-105298965D01*
X143362993Y-105286720D01*
X143191710Y-105240656D01*
X143191710Y-105050613D01*
X143371349Y-105107418D01*
G37*
X142516496Y-109164216D02*
X142607688Y-109200250D01*
X142637022Y-109219545D01*
X142699106Y-109286755D01*
X142739316Y-109372350D01*
X142756003Y-109468110D01*
X142747517Y-109565813D01*
X142721380Y-109640083D01*
X142677335Y-109703953D01*
X142619587Y-109756154D01*
X142618236Y-109757057D01*
X142582593Y-109778256D01*
X142546752Y-109792033D01*
X142501519Y-109800376D01*
X142437701Y-109805273D01*
X142385368Y-109807431D01*
X142337910Y-109808329D01*
X142281299Y-109809401D01*
X142203468Y-109806036D01*
X142144930Y-109795955D01*
X142098737Y-109777774D01*
X142057942Y-109750110D01*
X142045828Y-109739854D01*
X141985474Y-109675722D01*
X141950220Y-109606934D01*
X141935450Y-109522811D01*
X141934919Y-109504766D01*
X142110165Y-109504766D01*
X142130301Y-109558781D01*
X142172352Y-109604860D01*
X142241428Y-109632311D01*
X142337910Y-109641257D01*
X142385154Y-109639624D01*
X142448046Y-109633696D01*
X142488407Y-109623239D01*
X142517122Y-109604381D01*
X142533896Y-109586719D01*
X142569016Y-109524106D01*
X142573710Y-109458592D01*
X142548440Y-109397579D01*
X142520124Y-109367072D01*
X142491589Y-109345089D01*
X142464284Y-109332231D01*
X142428750Y-109326588D01*
X142375524Y-109326249D01*
X142326506Y-109327988D01*
X142256482Y-109331729D01*
X142211064Y-109337659D01*
X142181440Y-109348347D01*
X142158797Y-109366361D01*
X142145855Y-109380637D01*
X142111860Y-109440349D01*
X142110165Y-109504766D01*
X141934919Y-109504766D01*
X141934243Y-109481791D01*
X141947104Y-109373216D01*
X141985754Y-109285795D01*
X142050290Y-109219430D01*
X142140812Y-109174024D01*
X142257418Y-109149482D01*
X142275624Y-109147723D01*
X142403984Y-109146344D01*
X142516496Y-109164216D01*
G36*
X142516496Y-109164216D02*
G01*
X142607688Y-109200250D01*
X142637022Y-109219545D01*
X142699106Y-109286755D01*
X142739316Y-109372350D01*
X142756003Y-109468110D01*
X142747517Y-109565813D01*
X142721380Y-109640083D01*
X142677335Y-109703953D01*
X142619587Y-109756154D01*
X142618236Y-109757057D01*
X142582593Y-109778256D01*
X142546752Y-109792033D01*
X142501519Y-109800376D01*
X142437701Y-109805273D01*
X142385368Y-109807431D01*
X142337910Y-109808329D01*
X142281299Y-109809401D01*
X142203468Y-109806036D01*
X142144930Y-109795955D01*
X142098737Y-109777774D01*
X142057942Y-109750110D01*
X142045828Y-109739854D01*
X141985474Y-109675722D01*
X141950220Y-109606934D01*
X141935450Y-109522811D01*
X141934919Y-109504766D01*
X142110165Y-109504766D01*
X142130301Y-109558781D01*
X142172352Y-109604860D01*
X142241428Y-109632311D01*
X142337910Y-109641257D01*
X142385154Y-109639624D01*
X142448046Y-109633696D01*
X142488407Y-109623239D01*
X142517122Y-109604381D01*
X142533896Y-109586719D01*
X142569016Y-109524106D01*
X142573710Y-109458592D01*
X142548440Y-109397579D01*
X142520124Y-109367072D01*
X142491589Y-109345089D01*
X142464284Y-109332231D01*
X142428750Y-109326588D01*
X142375524Y-109326249D01*
X142326506Y-109327988D01*
X142256482Y-109331729D01*
X142211064Y-109337659D01*
X142181440Y-109348347D01*
X142158797Y-109366361D01*
X142145855Y-109380637D01*
X142111860Y-109440349D01*
X142110165Y-109504766D01*
X141934919Y-109504766D01*
X141934243Y-109481791D01*
X141947104Y-109373216D01*
X141985754Y-109285795D01*
X142050290Y-109219430D01*
X142140812Y-109174024D01*
X142257418Y-109149482D01*
X142275624Y-109147723D01*
X142403984Y-109146344D01*
X142516496Y-109164216D01*
G37*
X144010526Y-106359277D02*
X144008962Y-106412623D01*
X144002485Y-106440407D01*
X143988418Y-106450410D01*
X143978906Y-106451185D01*
X143959832Y-106452872D01*
X143956174Y-106463510D01*
X143967932Y-106491465D01*
X143978906Y-106513205D01*
X144004911Y-106596668D01*
X144006416Y-106687396D01*
X143987021Y-106761158D01*
X143940165Y-106829846D01*
X143871004Y-106882206D01*
X143789427Y-106910878D01*
X143784866Y-106911608D01*
X143735101Y-106915868D01*
X143663659Y-106917986D01*
X143609626Y-106917816D01*
X143582230Y-106917729D01*
X143538405Y-106916528D01*
X143429988Y-106908355D01*
X143348588Y-106891370D01*
X143288412Y-106863113D01*
X143243666Y-106821128D01*
X143217400Y-106780368D01*
X143198935Y-106723419D01*
X143192602Y-106652589D01*
X143195224Y-106615722D01*
X143365301Y-106615722D01*
X143381738Y-106669840D01*
X143418840Y-106709774D01*
X143426222Y-106713917D01*
X143471239Y-106726884D01*
X143535967Y-106733948D01*
X143609626Y-106735280D01*
X143681441Y-106731051D01*
X143740634Y-106721432D01*
X143774060Y-106708410D01*
X143819740Y-106659144D01*
X143836115Y-106600650D01*
X143822873Y-106540329D01*
X143783373Y-106488783D01*
X143756807Y-106469262D01*
X143725106Y-106457848D01*
X143678832Y-106452502D01*
X143609328Y-106451185D01*
X143540499Y-106453542D01*
X143480026Y-106459767D01*
X143439556Y-106468592D01*
X143435929Y-106470063D01*
X143392802Y-106505653D01*
X143369124Y-106557600D01*
X143365301Y-106615722D01*
X143195224Y-106615722D01*
X143197760Y-106580059D01*
X143213769Y-106518014D01*
X143232920Y-106485232D01*
X143263732Y-106451185D01*
X142874210Y-106451185D01*
X142874210Y-106267369D01*
X144010526Y-106267369D01*
X144010526Y-106359277D01*
G36*
X144010526Y-106359277D02*
G01*
X144008962Y-106412623D01*
X144002485Y-106440407D01*
X143988418Y-106450410D01*
X143978906Y-106451185D01*
X143959832Y-106452872D01*
X143956174Y-106463510D01*
X143967932Y-106491465D01*
X143978906Y-106513205D01*
X144004911Y-106596668D01*
X144006416Y-106687396D01*
X143987021Y-106761158D01*
X143940165Y-106829846D01*
X143871004Y-106882206D01*
X143789427Y-106910878D01*
X143784866Y-106911608D01*
X143735101Y-106915868D01*
X143663659Y-106917986D01*
X143609626Y-106917816D01*
X143582230Y-106917729D01*
X143538405Y-106916528D01*
X143429988Y-106908355D01*
X143348588Y-106891370D01*
X143288412Y-106863113D01*
X143243666Y-106821128D01*
X143217400Y-106780368D01*
X143198935Y-106723419D01*
X143192602Y-106652589D01*
X143195224Y-106615722D01*
X143365301Y-106615722D01*
X143381738Y-106669840D01*
X143418840Y-106709774D01*
X143426222Y-106713917D01*
X143471239Y-106726884D01*
X143535967Y-106733948D01*
X143609626Y-106735280D01*
X143681441Y-106731051D01*
X143740634Y-106721432D01*
X143774060Y-106708410D01*
X143819740Y-106659144D01*
X143836115Y-106600650D01*
X143822873Y-106540329D01*
X143783373Y-106488783D01*
X143756807Y-106469262D01*
X143725106Y-106457848D01*
X143678832Y-106452502D01*
X143609328Y-106451185D01*
X143540499Y-106453542D01*
X143480026Y-106459767D01*
X143439556Y-106468592D01*
X143435929Y-106470063D01*
X143392802Y-106505653D01*
X143369124Y-106557600D01*
X143365301Y-106615722D01*
X143195224Y-106615722D01*
X143197760Y-106580059D01*
X143213769Y-106518014D01*
X143232920Y-106485232D01*
X143263732Y-106451185D01*
X142874210Y-106451185D01*
X142874210Y-106267369D01*
X144010526Y-106267369D01*
X144010526Y-106359277D01*
G37*
X142668285Y-102229649D02*
X142718445Y-102306359D01*
X142748688Y-102400698D01*
X142757151Y-102502173D01*
X142741974Y-102600289D01*
X142736824Y-102616119D01*
X142691791Y-102702353D01*
X142624652Y-102766499D01*
X142533405Y-102809909D01*
X142416044Y-102833936D01*
X142413529Y-102834216D01*
X142285627Y-102836367D01*
X142239997Y-102827671D01*
X142173133Y-102814926D01*
X142078727Y-102772389D01*
X142005088Y-102711253D01*
X141954893Y-102634015D01*
X141930822Y-102543170D01*
X141934313Y-102467951D01*
X142098105Y-102467951D01*
X142099295Y-102523074D01*
X142123875Y-102578932D01*
X142164570Y-102625788D01*
X142214108Y-102653906D01*
X142239997Y-102657895D01*
X142247013Y-102642303D01*
X142252388Y-102599971D01*
X142255457Y-102537566D01*
X142255921Y-102498019D01*
X142255630Y-102424272D01*
X142253783Y-102378160D01*
X142248912Y-102353900D01*
X142239555Y-102345706D01*
X142224245Y-102347794D01*
X142218322Y-102349545D01*
X142162668Y-102379440D01*
X142117815Y-102426458D01*
X142098105Y-102467951D01*
X141934313Y-102467951D01*
X141935554Y-102441216D01*
X141945949Y-102398426D01*
X141984013Y-102316391D01*
X142042149Y-102246243D01*
X142111852Y-102197695D01*
X142127502Y-102191025D01*
X142168496Y-102181876D01*
X142229138Y-102175471D01*
X142290430Y-102173290D01*
X142406316Y-102173290D01*
X142406316Y-102415593D01*
X142406693Y-102515529D01*
X142408987Y-102585931D01*
X142414938Y-102630687D01*
X142426285Y-102653685D01*
X142444771Y-102658811D01*
X142472136Y-102649952D01*
X142504155Y-102634083D01*
X142557592Y-102589816D01*
X142584215Y-102528301D01*
X142583347Y-102453115D01*
X142554371Y-102367947D01*
X142518611Y-102294341D01*
X142566904Y-102233266D01*
X142615197Y-102172190D01*
X142668285Y-102229649D01*
G36*
X142668285Y-102229649D02*
G01*
X142718445Y-102306359D01*
X142748688Y-102400698D01*
X142757151Y-102502173D01*
X142741974Y-102600289D01*
X142736824Y-102616119D01*
X142691791Y-102702353D01*
X142624652Y-102766499D01*
X142533405Y-102809909D01*
X142416044Y-102833936D01*
X142413529Y-102834216D01*
X142285627Y-102836367D01*
X142239997Y-102827671D01*
X142173133Y-102814926D01*
X142078727Y-102772389D01*
X142005088Y-102711253D01*
X141954893Y-102634015D01*
X141930822Y-102543170D01*
X141934313Y-102467951D01*
X142098105Y-102467951D01*
X142099295Y-102523074D01*
X142123875Y-102578932D01*
X142164570Y-102625788D01*
X142214108Y-102653906D01*
X142239997Y-102657895D01*
X142247013Y-102642303D01*
X142252388Y-102599971D01*
X142255457Y-102537566D01*
X142255921Y-102498019D01*
X142255630Y-102424272D01*
X142253783Y-102378160D01*
X142248912Y-102353900D01*
X142239555Y-102345706D01*
X142224245Y-102347794D01*
X142218322Y-102349545D01*
X142162668Y-102379440D01*
X142117815Y-102426458D01*
X142098105Y-102467951D01*
X141934313Y-102467951D01*
X141935554Y-102441216D01*
X141945949Y-102398426D01*
X141984013Y-102316391D01*
X142042149Y-102246243D01*
X142111852Y-102197695D01*
X142127502Y-102191025D01*
X142168496Y-102181876D01*
X142229138Y-102175471D01*
X142290430Y-102173290D01*
X142406316Y-102173290D01*
X142406316Y-102415593D01*
X142406693Y-102515529D01*
X142408987Y-102585931D01*
X142414938Y-102630687D01*
X142426285Y-102653685D01*
X142444771Y-102658811D01*
X142472136Y-102649952D01*
X142504155Y-102634083D01*
X142557592Y-102589816D01*
X142584215Y-102528301D01*
X142583347Y-102453115D01*
X142554371Y-102367947D01*
X142518611Y-102294341D01*
X142566904Y-102233266D01*
X142615197Y-102172190D01*
X142668285Y-102229649D01*
G37*
X142585065Y-105738760D02*
X142655486Y-105777849D01*
X142706777Y-105844145D01*
X142739067Y-105937806D01*
X142751807Y-106041777D01*
X142751654Y-106126562D01*
X142740083Y-106195335D01*
X142724109Y-106242303D01*
X142696275Y-106301650D01*
X142663973Y-106356494D01*
X142649755Y-106375987D01*
X142608835Y-106426119D01*
X142486477Y-106305197D01*
X142531967Y-106236457D01*
X142566133Y-106167512D01*
X142584004Y-106093889D01*
X142585889Y-106023117D01*
X142572101Y-105962726D01*
X142542949Y-105920243D01*
X142518352Y-105906526D01*
X142478904Y-105908583D01*
X142448737Y-105942670D01*
X142427906Y-106008692D01*
X142418279Y-106081026D01*
X142399910Y-106192348D01*
X142365254Y-106275048D01*
X142313297Y-106330235D01*
X142243023Y-106359012D01*
X142159707Y-106362999D01*
X142072681Y-106343307D01*
X142006902Y-106298411D01*
X141962068Y-106227909D01*
X141937879Y-106131399D01*
X141933137Y-106059900D01*
X141935547Y-105981372D01*
X141947548Y-105918092D01*
X141972648Y-105852443D01*
X141975848Y-105845428D01*
X142002026Y-105795644D01*
X142026353Y-105761166D01*
X142041937Y-105750022D01*
X142067353Y-105760634D01*
X142104853Y-105786412D01*
X142118852Y-105797854D01*
X142173954Y-105845008D01*
X142138086Y-105905799D01*
X142114192Y-105963653D01*
X142101420Y-106030500D01*
X142100613Y-106094606D01*
X142112615Y-106144236D01*
X142120105Y-106156146D01*
X142154450Y-106178828D01*
X142194013Y-106181584D01*
X142224920Y-106164612D01*
X142230913Y-106154573D01*
X142238357Y-106124490D01*
X142247106Y-106071611D01*
X142255467Y-106006425D01*
X142256778Y-105994400D01*
X142274888Y-105889703D01*
X142305651Y-105813768D01*
X142351907Y-105763408D01*
X142416497Y-105735436D01*
X142495387Y-105726722D01*
X142585065Y-105738760D01*
G36*
X142585065Y-105738760D02*
G01*
X142655486Y-105777849D01*
X142706777Y-105844145D01*
X142739067Y-105937806D01*
X142751807Y-106041777D01*
X142751654Y-106126562D01*
X142740083Y-106195335D01*
X142724109Y-106242303D01*
X142696275Y-106301650D01*
X142663973Y-106356494D01*
X142649755Y-106375987D01*
X142608835Y-106426119D01*
X142486477Y-106305197D01*
X142531967Y-106236457D01*
X142566133Y-106167512D01*
X142584004Y-106093889D01*
X142585889Y-106023117D01*
X142572101Y-105962726D01*
X142542949Y-105920243D01*
X142518352Y-105906526D01*
X142478904Y-105908583D01*
X142448737Y-105942670D01*
X142427906Y-106008692D01*
X142418279Y-106081026D01*
X142399910Y-106192348D01*
X142365254Y-106275048D01*
X142313297Y-106330235D01*
X142243023Y-106359012D01*
X142159707Y-106362999D01*
X142072681Y-106343307D01*
X142006902Y-106298411D01*
X141962068Y-106227909D01*
X141937879Y-106131399D01*
X141933137Y-106059900D01*
X141935547Y-105981372D01*
X141947548Y-105918092D01*
X141972648Y-105852443D01*
X141975848Y-105845428D01*
X142002026Y-105795644D01*
X142026353Y-105761166D01*
X142041937Y-105750022D01*
X142067353Y-105760634D01*
X142104853Y-105786412D01*
X142118852Y-105797854D01*
X142173954Y-105845008D01*
X142138086Y-105905799D01*
X142114192Y-105963653D01*
X142101420Y-106030500D01*
X142100613Y-106094606D01*
X142112615Y-106144236D01*
X142120105Y-106156146D01*
X142154450Y-106178828D01*
X142194013Y-106181584D01*
X142224920Y-106164612D01*
X142230913Y-106154573D01*
X142238357Y-106124490D01*
X142247106Y-106071611D01*
X142255467Y-106006425D01*
X142256778Y-105994400D01*
X142274888Y-105889703D01*
X142305651Y-105813768D01*
X142351907Y-105763408D01*
X142416497Y-105735436D01*
X142495387Y-105726722D01*
X142585065Y-105738760D01*
G37*
X143659605Y-103530466D02*
X143705559Y-103519702D01*
X143747178Y-103500268D01*
X143790544Y-103466255D01*
X143797467Y-103459140D01*
X143834935Y-103397997D01*
X143841289Y-103328271D01*
X143816638Y-103248013D01*
X143810000Y-103234408D01*
X143789819Y-103192681D01*
X143778321Y-103164732D01*
X143777258Y-103159855D01*
X143787583Y-103142832D01*
X143812845Y-103110367D01*
X143826650Y-103093886D01*
X143858361Y-103059736D01*
X143879299Y-103048522D01*
X143898560Y-103056305D01*
X143903827Y-103060465D01*
X143926878Y-103088643D01*
X143954892Y-103135138D01*
X143971246Y-103167566D01*
X144000059Y-103259615D01*
X144009395Y-103361524D01*
X143998332Y-103458037D01*
X143990412Y-103485066D01*
X143945581Y-103568724D01*
X143876598Y-103630734D01*
X143782794Y-103671455D01*
X143663498Y-103691245D01*
X143601118Y-103693418D01*
X143510298Y-103687074D01*
X143468866Y-103684179D01*
X143363498Y-103655664D01*
X143284178Y-103607271D01*
X143230071Y-103538396D01*
X143200343Y-103448435D01*
X143194618Y-103399700D01*
X143195270Y-103354651D01*
X143355288Y-103354651D01*
X143367666Y-103419121D01*
X143403452Y-103474930D01*
X143455033Y-103513626D01*
X143510298Y-103526843D01*
X143517012Y-103511345D01*
X143522280Y-103469688D01*
X143525389Y-103409124D01*
X143525921Y-103368093D01*
X143525408Y-103294289D01*
X143523006Y-103247707D01*
X143517422Y-103222152D01*
X143507361Y-103211431D01*
X143492763Y-103209343D01*
X143447796Y-103223669D01*
X143403353Y-103259738D01*
X143369242Y-103307185D01*
X143355288Y-103354651D01*
X143195270Y-103354651D01*
X143196078Y-103298807D01*
X143216845Y-103218932D01*
X143259705Y-103152038D01*
X143291723Y-103119649D01*
X143367413Y-103066555D01*
X143455216Y-103036127D01*
X143563150Y-103025673D01*
X143571875Y-103025620D01*
X143659605Y-103025527D01*
X143659605Y-103530466D01*
G36*
X143659605Y-103530466D02*
G01*
X143705559Y-103519702D01*
X143747178Y-103500268D01*
X143790544Y-103466255D01*
X143797467Y-103459140D01*
X143834935Y-103397997D01*
X143841289Y-103328271D01*
X143816638Y-103248013D01*
X143810000Y-103234408D01*
X143789819Y-103192681D01*
X143778321Y-103164732D01*
X143777258Y-103159855D01*
X143787583Y-103142832D01*
X143812845Y-103110367D01*
X143826650Y-103093886D01*
X143858361Y-103059736D01*
X143879299Y-103048522D01*
X143898560Y-103056305D01*
X143903827Y-103060465D01*
X143926878Y-103088643D01*
X143954892Y-103135138D01*
X143971246Y-103167566D01*
X144000059Y-103259615D01*
X144009395Y-103361524D01*
X143998332Y-103458037D01*
X143990412Y-103485066D01*
X143945581Y-103568724D01*
X143876598Y-103630734D01*
X143782794Y-103671455D01*
X143663498Y-103691245D01*
X143601118Y-103693418D01*
X143510298Y-103687074D01*
X143468866Y-103684179D01*
X143363498Y-103655664D01*
X143284178Y-103607271D01*
X143230071Y-103538396D01*
X143200343Y-103448435D01*
X143194618Y-103399700D01*
X143195270Y-103354651D01*
X143355288Y-103354651D01*
X143367666Y-103419121D01*
X143403452Y-103474930D01*
X143455033Y-103513626D01*
X143510298Y-103526843D01*
X143517012Y-103511345D01*
X143522280Y-103469688D01*
X143525389Y-103409124D01*
X143525921Y-103368093D01*
X143525408Y-103294289D01*
X143523006Y-103247707D01*
X143517422Y-103222152D01*
X143507361Y-103211431D01*
X143492763Y-103209343D01*
X143447796Y-103223669D01*
X143403353Y-103259738D01*
X143369242Y-103307185D01*
X143355288Y-103354651D01*
X143195270Y-103354651D01*
X143196078Y-103298807D01*
X143216845Y-103218932D01*
X143259705Y-103152038D01*
X143291723Y-103119649D01*
X143367413Y-103066555D01*
X143455216Y-103036127D01*
X143563150Y-103025673D01*
X143571875Y-103025620D01*
X143659605Y-103025527D01*
X143659605Y-103530466D01*
G37*
X142406316Y-108109150D02*
X142452270Y-108098387D01*
X142506620Y-108071967D01*
X142553591Y-108025778D01*
X142583848Y-107970828D01*
X142590131Y-107935811D01*
X142582506Y-107888323D01*
X142563383Y-107831665D01*
X142554584Y-107812418D01*
X142519036Y-107741241D01*
X142565367Y-107680498D01*
X142596703Y-107645448D01*
X142622567Y-107626798D01*
X142630158Y-107625853D01*
X142648556Y-107642515D01*
X142676515Y-107679030D01*
X142698327Y-107712172D01*
X142737537Y-107801607D01*
X142755285Y-107901871D01*
X142750670Y-108001246D01*
X142726551Y-108080461D01*
X142674884Y-108162120D01*
X142606856Y-108220151D01*
X142518843Y-108256454D01*
X142407216Y-108272928D01*
X142356138Y-108274389D01*
X142239091Y-108268543D01*
X142235686Y-108267825D01*
X142146928Y-108249101D01*
X142073190Y-108214078D01*
X142020848Y-108171244D01*
X141964092Y-108092052D01*
X141933762Y-107998960D01*
X141932271Y-107945115D01*
X142098842Y-107945115D01*
X142114329Y-108008757D01*
X142155930Y-108062127D01*
X142216353Y-108095981D01*
X142218322Y-108096581D01*
X142235686Y-108100511D01*
X142246662Y-108095903D01*
X142252715Y-108076964D01*
X142255310Y-108037902D01*
X142255910Y-107972923D01*
X142255921Y-107947903D01*
X142255014Y-107871779D01*
X142251720Y-107823504D01*
X142245181Y-107797540D01*
X142234537Y-107788352D01*
X142231119Y-107788027D01*
X142203956Y-107798513D01*
X142165903Y-107824758D01*
X142152579Y-107836041D01*
X142114896Y-107877928D01*
X142100080Y-107921591D01*
X142098842Y-107945115D01*
X141932271Y-107945115D01*
X141931021Y-107899945D01*
X141957027Y-107802982D01*
X141964866Y-107786330D01*
X142007086Y-107728695D01*
X142068700Y-107674195D01*
X142136543Y-107633501D01*
X142167734Y-107621926D01*
X142223449Y-107611366D01*
X142290781Y-107605069D01*
X142318585Y-107604304D01*
X142406316Y-107604211D01*
X142406316Y-108109150D01*
G36*
X142406316Y-108109150D02*
G01*
X142452270Y-108098387D01*
X142506620Y-108071967D01*
X142553591Y-108025778D01*
X142583848Y-107970828D01*
X142590131Y-107935811D01*
X142582506Y-107888323D01*
X142563383Y-107831665D01*
X142554584Y-107812418D01*
X142519036Y-107741241D01*
X142565367Y-107680498D01*
X142596703Y-107645448D01*
X142622567Y-107626798D01*
X142630158Y-107625853D01*
X142648556Y-107642515D01*
X142676515Y-107679030D01*
X142698327Y-107712172D01*
X142737537Y-107801607D01*
X142755285Y-107901871D01*
X142750670Y-108001246D01*
X142726551Y-108080461D01*
X142674884Y-108162120D01*
X142606856Y-108220151D01*
X142518843Y-108256454D01*
X142407216Y-108272928D01*
X142356138Y-108274389D01*
X142239091Y-108268543D01*
X142235686Y-108267825D01*
X142146928Y-108249101D01*
X142073190Y-108214078D01*
X142020848Y-108171244D01*
X141964092Y-108092052D01*
X141933762Y-107998960D01*
X141932271Y-107945115D01*
X142098842Y-107945115D01*
X142114329Y-108008757D01*
X142155930Y-108062127D01*
X142216353Y-108095981D01*
X142218322Y-108096581D01*
X142235686Y-108100511D01*
X142246662Y-108095903D01*
X142252715Y-108076964D01*
X142255310Y-108037902D01*
X142255910Y-107972923D01*
X142255921Y-107947903D01*
X142255014Y-107871779D01*
X142251720Y-107823504D01*
X142245181Y-107797540D01*
X142234537Y-107788352D01*
X142231119Y-107788027D01*
X142203956Y-107798513D01*
X142165903Y-107824758D01*
X142152579Y-107836041D01*
X142114896Y-107877928D01*
X142100080Y-107921591D01*
X142098842Y-107945115D01*
X141932271Y-107945115D01*
X141931021Y-107899945D01*
X141957027Y-107802982D01*
X141964866Y-107786330D01*
X142007086Y-107728695D01*
X142068700Y-107674195D01*
X142136543Y-107633501D01*
X142167734Y-107621926D01*
X142223449Y-107611366D01*
X142290781Y-107605069D01*
X142318585Y-107604304D01*
X142406316Y-107604211D01*
X142406316Y-108109150D01*
G37*
X144010526Y-104486420D02*
X144008156Y-104542953D01*
X144000055Y-104572078D01*
X143986451Y-104579606D01*
X143971741Y-104583580D01*
X143974554Y-104601348D01*
X143986348Y-104625560D01*
X144004427Y-104686172D01*
X144009299Y-104764071D01*
X144001330Y-104846005D01*
X143980889Y-104918719D01*
X143978051Y-104925241D01*
X143931365Y-104991698D01*
X143866464Y-105035509D01*
X143790600Y-105055668D01*
X143763344Y-105054128D01*
X143711026Y-105051171D01*
X143634995Y-105021015D01*
X143583612Y-104979869D01*
X143561397Y-104954948D01*
X143546798Y-104930552D01*
X143537897Y-104898809D01*
X143532775Y-104851848D01*
X143529515Y-104781796D01*
X143528577Y-104754010D01*
X143525541Y-104661070D01*
X143659605Y-104661070D01*
X143664432Y-104755766D01*
X143679613Y-104822187D01*
X143706200Y-104864154D01*
X143718052Y-104873551D01*
X143763344Y-104889655D01*
X143800024Y-104875163D01*
X143826309Y-104832195D01*
X143840417Y-104762871D01*
X143842290Y-104725823D01*
X143837494Y-104664081D01*
X143818858Y-104623040D01*
X143810000Y-104613027D01*
X143761806Y-104585900D01*
X143718092Y-104579606D01*
X143659605Y-104579606D01*
X143659605Y-104661070D01*
X143525541Y-104661070D01*
X143522879Y-104579606D01*
X143470091Y-104579862D01*
X143414603Y-104586616D01*
X143381052Y-104611036D01*
X143359618Y-104660370D01*
X143359236Y-104661694D01*
X143350808Y-104731640D01*
X143361816Y-104800086D01*
X143388585Y-104850953D01*
X143401803Y-104871363D01*
X143399974Y-104893346D01*
X143380824Y-104927174D01*
X143367308Y-104947039D01*
X143338432Y-104985894D01*
X143316786Y-105009962D01*
X143310589Y-105013824D01*
X143278519Y-104997921D01*
X143240219Y-104950935D01*
X143227297Y-104930527D01*
X143205041Y-104871857D01*
X143192432Y-104792788D01*
X143189600Y-104704959D01*
X143196673Y-104620008D01*
X143213780Y-104549573D01*
X143222844Y-104529213D01*
X143246583Y-104489747D01*
X143273321Y-104459459D01*
X143307699Y-104437048D01*
X143354360Y-104421214D01*
X143417946Y-104410657D01*
X143503099Y-104404076D01*
X143614462Y-104400172D01*
X143688849Y-104398690D01*
X144010526Y-104393235D01*
X144010526Y-104486420D01*
G36*
X144010526Y-104486420D02*
G01*
X144008156Y-104542953D01*
X144000055Y-104572078D01*
X143986451Y-104579606D01*
X143971741Y-104583580D01*
X143974554Y-104601348D01*
X143986348Y-104625560D01*
X144004427Y-104686172D01*
X144009299Y-104764071D01*
X144001330Y-104846005D01*
X143980889Y-104918719D01*
X143978051Y-104925241D01*
X143931365Y-104991698D01*
X143866464Y-105035509D01*
X143790600Y-105055668D01*
X143763344Y-105054128D01*
X143711026Y-105051171D01*
X143634995Y-105021015D01*
X143583612Y-104979869D01*
X143561397Y-104954948D01*
X143546798Y-104930552D01*
X143537897Y-104898809D01*
X143532775Y-104851848D01*
X143529515Y-104781796D01*
X143528577Y-104754010D01*
X143525541Y-104661070D01*
X143659605Y-104661070D01*
X143664432Y-104755766D01*
X143679613Y-104822187D01*
X143706200Y-104864154D01*
X143718052Y-104873551D01*
X143763344Y-104889655D01*
X143800024Y-104875163D01*
X143826309Y-104832195D01*
X143840417Y-104762871D01*
X143842290Y-104725823D01*
X143837494Y-104664081D01*
X143818858Y-104623040D01*
X143810000Y-104613027D01*
X143761806Y-104585900D01*
X143718092Y-104579606D01*
X143659605Y-104579606D01*
X143659605Y-104661070D01*
X143525541Y-104661070D01*
X143522879Y-104579606D01*
X143470091Y-104579862D01*
X143414603Y-104586616D01*
X143381052Y-104611036D01*
X143359618Y-104660370D01*
X143359236Y-104661694D01*
X143350808Y-104731640D01*
X143361816Y-104800086D01*
X143388585Y-104850953D01*
X143401803Y-104871363D01*
X143399974Y-104893346D01*
X143380824Y-104927174D01*
X143367308Y-104947039D01*
X143338432Y-104985894D01*
X143316786Y-105009962D01*
X143310589Y-105013824D01*
X143278519Y-104997921D01*
X143240219Y-104950935D01*
X143227297Y-104930527D01*
X143205041Y-104871857D01*
X143192432Y-104792788D01*
X143189600Y-104704959D01*
X143196673Y-104620008D01*
X143213780Y-104549573D01*
X143222844Y-104529213D01*
X143246583Y-104489747D01*
X143273321Y-104459459D01*
X143307699Y-104437048D01*
X143354360Y-104421214D01*
X143417946Y-104410657D01*
X143503099Y-104404076D01*
X143614462Y-104400172D01*
X143688849Y-104398690D01*
X144010526Y-104393235D01*
X144010526Y-104486420D01*
G37*
X144010526Y-107701132D02*
X144006943Y-107752294D01*
X143997866Y-107790123D01*
X143992268Y-107799601D01*
X143982606Y-107825512D01*
X143992268Y-107851976D01*
X144004330Y-107895548D01*
X144009185Y-107958840D01*
X144007078Y-108028990D01*
X143998256Y-108093140D01*
X143986937Y-108130593D01*
X143940412Y-108203067D01*
X143875846Y-108248360D01*
X143790000Y-108268722D01*
X143787796Y-108268912D01*
X143749713Y-108267125D01*
X143694004Y-108264510D01*
X143619847Y-108233576D01*
X143563767Y-108175419D01*
X143558665Y-108167380D01*
X143542055Y-108132837D01*
X143531996Y-108090082D01*
X143527107Y-108030314D01*
X143525983Y-107959310D01*
X143525958Y-107897182D01*
X143659605Y-107897182D01*
X143666366Y-107985005D01*
X143685520Y-108051582D01*
X143715376Y-108092998D01*
X143749713Y-108105527D01*
X143793030Y-108091399D01*
X143817408Y-108068388D01*
X143835845Y-108022196D01*
X143843205Y-107961225D01*
X143839583Y-107899051D01*
X143825074Y-107849249D01*
X143815765Y-107835297D01*
X143772753Y-107810915D01*
X143723857Y-107804737D01*
X143659605Y-107804737D01*
X143659605Y-107897182D01*
X143525958Y-107897182D01*
X143525921Y-107804737D01*
X143461125Y-107804737D01*
X143410850Y-107811294D01*
X143377169Y-107828025D01*
X143375376Y-107829984D01*
X143360642Y-107867217D01*
X143354931Y-107923420D01*
X143357737Y-107985533D01*
X143368556Y-108040490D01*
X143384782Y-108073101D01*
X143397780Y-108090772D01*
X143400262Y-108109431D01*
X143389613Y-108135181D01*
X143363218Y-108174127D01*
X143318465Y-108232370D01*
X143314273Y-108237716D01*
X143298760Y-108234977D01*
X143272960Y-108212124D01*
X143244289Y-108177391D01*
X143220166Y-108139010D01*
X143214470Y-108126952D01*
X143203103Y-108082966D01*
X143194995Y-108018513D01*
X143191743Y-107946503D01*
X143191736Y-107943136D01*
X143198184Y-107839543D01*
X143219160Y-107760930D01*
X143257180Y-107701084D01*
X143306978Y-107658853D01*
X143328230Y-107645725D01*
X143350492Y-107636032D01*
X143378970Y-107629256D01*
X143418871Y-107624877D01*
X143475401Y-107622376D01*
X143553767Y-107621232D01*
X143659176Y-107620928D01*
X143687142Y-107620922D01*
X144010526Y-107620922D01*
X144010526Y-107701132D01*
G36*
X144010526Y-107701132D02*
G01*
X144006943Y-107752294D01*
X143997866Y-107790123D01*
X143992268Y-107799601D01*
X143982606Y-107825512D01*
X143992268Y-107851976D01*
X144004330Y-107895548D01*
X144009185Y-107958840D01*
X144007078Y-108028990D01*
X143998256Y-108093140D01*
X143986937Y-108130593D01*
X143940412Y-108203067D01*
X143875846Y-108248360D01*
X143790000Y-108268722D01*
X143787796Y-108268912D01*
X143749713Y-108267125D01*
X143694004Y-108264510D01*
X143619847Y-108233576D01*
X143563767Y-108175419D01*
X143558665Y-108167380D01*
X143542055Y-108132837D01*
X143531996Y-108090082D01*
X143527107Y-108030314D01*
X143525983Y-107959310D01*
X143525958Y-107897182D01*
X143659605Y-107897182D01*
X143666366Y-107985005D01*
X143685520Y-108051582D01*
X143715376Y-108092998D01*
X143749713Y-108105527D01*
X143793030Y-108091399D01*
X143817408Y-108068388D01*
X143835845Y-108022196D01*
X143843205Y-107961225D01*
X143839583Y-107899051D01*
X143825074Y-107849249D01*
X143815765Y-107835297D01*
X143772753Y-107810915D01*
X143723857Y-107804737D01*
X143659605Y-107804737D01*
X143659605Y-107897182D01*
X143525958Y-107897182D01*
X143525921Y-107804737D01*
X143461125Y-107804737D01*
X143410850Y-107811294D01*
X143377169Y-107828025D01*
X143375376Y-107829984D01*
X143360642Y-107867217D01*
X143354931Y-107923420D01*
X143357737Y-107985533D01*
X143368556Y-108040490D01*
X143384782Y-108073101D01*
X143397780Y-108090772D01*
X143400262Y-108109431D01*
X143389613Y-108135181D01*
X143363218Y-108174127D01*
X143318465Y-108232370D01*
X143314273Y-108237716D01*
X143298760Y-108234977D01*
X143272960Y-108212124D01*
X143244289Y-108177391D01*
X143220166Y-108139010D01*
X143214470Y-108126952D01*
X143203103Y-108082966D01*
X143194995Y-108018513D01*
X143191743Y-107946503D01*
X143191736Y-107943136D01*
X143198184Y-107839543D01*
X143219160Y-107760930D01*
X143257180Y-107701084D01*
X143306978Y-107658853D01*
X143328230Y-107645725D01*
X143350492Y-107636032D01*
X143378970Y-107629256D01*
X143418871Y-107624877D01*
X143475401Y-107622376D01*
X143553767Y-107621232D01*
X143659176Y-107620928D01*
X143687142Y-107620922D01*
X144010526Y-107620922D01*
X144010526Y-107701132D01*
G37*
X144010526Y-108556711D02*
X143445339Y-108556711D01*
X143402077Y-108608125D01*
X143367472Y-108661534D01*
X143361180Y-108712112D01*
X143377372Y-108762970D01*
X143393227Y-108790075D01*
X143415810Y-108810249D01*
X143449940Y-108824597D01*
X143500434Y-108834224D01*
X143572111Y-108840237D01*
X143669788Y-108843740D01*
X143734802Y-108844974D01*
X144002171Y-108849145D01*
X144007222Y-108936875D01*
X144012273Y-109024606D01*
X142353101Y-109024606D01*
X141938421Y-109024606D01*
X141938421Y-108932698D01*
X141940603Y-108877517D01*
X141948351Y-108849048D01*
X141963468Y-108840794D01*
X141963916Y-108840790D01*
X141978720Y-108836960D01*
X141977039Y-108820067D01*
X141960772Y-108786481D01*
X141941791Y-108726789D01*
X142106822Y-108726789D01*
X142115906Y-108764844D01*
X142148196Y-108802523D01*
X142211006Y-108827481D01*
X142303894Y-108839578D01*
X142353101Y-108840790D01*
X142445600Y-108836104D01*
X142509809Y-108820312D01*
X142549759Y-108790817D01*
X142569480Y-108745020D01*
X142573421Y-108698750D01*
X142568892Y-108646372D01*
X142551069Y-108611610D01*
X142527519Y-108589872D01*
X142502189Y-108572760D01*
X142473969Y-108562573D01*
X142434431Y-108558040D01*
X142375142Y-108557891D01*
X142325498Y-108559416D01*
X142250710Y-108562919D01*
X142201611Y-108568133D01*
X142170467Y-108576913D01*
X142149545Y-108591114D01*
X142137452Y-108604516D01*
X142111081Y-108660513D01*
X142106822Y-108726789D01*
X141941791Y-108726789D01*
X141935887Y-108708222D01*
X141933271Y-108620173D01*
X141952468Y-108536640D01*
X141969874Y-108501408D01*
X142000206Y-108457960D01*
X142033283Y-108426294D01*
X142074817Y-108404606D01*
X142130522Y-108391097D01*
X142206111Y-108383962D01*
X142307296Y-108381400D01*
X142350797Y-108381250D01*
X142446135Y-108381688D01*
X142514271Y-108383504D01*
X142561418Y-108387455D01*
X142593790Y-108394298D01*
X142617600Y-108404789D01*
X142633843Y-108415704D01*
X142702952Y-108485381D01*
X142744521Y-108567434D01*
X142757023Y-108655950D01*
X142738934Y-108745019D01*
X142726142Y-108773237D01*
X142690931Y-108840790D01*
X143242700Y-108840790D01*
X143217205Y-108791488D01*
X143197480Y-108726527D01*
X143192427Y-108646680D01*
X143201756Y-108566948D01*
X143222714Y-108506735D01*
X143262627Y-108456792D01*
X143319741Y-108414119D01*
X143325605Y-108410910D01*
X143353227Y-108397378D01*
X143381068Y-108387495D01*
X143414794Y-108380691D01*
X143460071Y-108376399D01*
X143522562Y-108374049D01*
X143607935Y-108373072D01*
X143704010Y-108372895D01*
X144010526Y-108372895D01*
X144010526Y-108556711D01*
G36*
X144010526Y-108556711D02*
G01*
X143445339Y-108556711D01*
X143402077Y-108608125D01*
X143367472Y-108661534D01*
X143361180Y-108712112D01*
X143377372Y-108762970D01*
X143393227Y-108790075D01*
X143415810Y-108810249D01*
X143449940Y-108824597D01*
X143500434Y-108834224D01*
X143572111Y-108840237D01*
X143669788Y-108843740D01*
X143734802Y-108844974D01*
X144002171Y-108849145D01*
X144007222Y-108936875D01*
X144012273Y-109024606D01*
X142353101Y-109024606D01*
X141938421Y-109024606D01*
X141938421Y-108932698D01*
X141940603Y-108877517D01*
X141948351Y-108849048D01*
X141963468Y-108840794D01*
X141963916Y-108840790D01*
X141978720Y-108836960D01*
X141977039Y-108820067D01*
X141960772Y-108786481D01*
X141941791Y-108726789D01*
X142106822Y-108726789D01*
X142115906Y-108764844D01*
X142148196Y-108802523D01*
X142211006Y-108827481D01*
X142303894Y-108839578D01*
X142353101Y-108840790D01*
X142445600Y-108836104D01*
X142509809Y-108820312D01*
X142549759Y-108790817D01*
X142569480Y-108745020D01*
X142573421Y-108698750D01*
X142568892Y-108646372D01*
X142551069Y-108611610D01*
X142527519Y-108589872D01*
X142502189Y-108572760D01*
X142473969Y-108562573D01*
X142434431Y-108558040D01*
X142375142Y-108557891D01*
X142325498Y-108559416D01*
X142250710Y-108562919D01*
X142201611Y-108568133D01*
X142170467Y-108576913D01*
X142149545Y-108591114D01*
X142137452Y-108604516D01*
X142111081Y-108660513D01*
X142106822Y-108726789D01*
X141941791Y-108726789D01*
X141935887Y-108708222D01*
X141933271Y-108620173D01*
X141952468Y-108536640D01*
X141969874Y-108501408D01*
X142000206Y-108457960D01*
X142033283Y-108426294D01*
X142074817Y-108404606D01*
X142130522Y-108391097D01*
X142206111Y-108383962D01*
X142307296Y-108381400D01*
X142350797Y-108381250D01*
X142446135Y-108381688D01*
X142514271Y-108383504D01*
X142561418Y-108387455D01*
X142593790Y-108394298D01*
X142617600Y-108404789D01*
X142633843Y-108415704D01*
X142702952Y-108485381D01*
X142744521Y-108567434D01*
X142757023Y-108655950D01*
X142738934Y-108745019D01*
X142726142Y-108773237D01*
X142690931Y-108840790D01*
X143242700Y-108840790D01*
X143217205Y-108791488D01*
X143197480Y-108726527D01*
X143192427Y-108646680D01*
X143201756Y-108566948D01*
X143222714Y-108506735D01*
X143262627Y-108456792D01*
X143319741Y-108414119D01*
X143325605Y-108410910D01*
X143353227Y-108397378D01*
X143381068Y-108387495D01*
X143414794Y-108380691D01*
X143460071Y-108376399D01*
X143522562Y-108374049D01*
X143607935Y-108373072D01*
X143704010Y-108372895D01*
X144010526Y-108372895D01*
X144010526Y-108556711D01*
G37*
X139081075Y-103008239D02*
X139174572Y-103010706D01*
X139255125Y-103014544D01*
X139316942Y-103019750D01*
X139354230Y-103026319D01*
X139361993Y-103030259D01*
X139371298Y-103053812D01*
X139384600Y-103103718D01*
X139400337Y-103173377D01*
X139416946Y-103256187D01*
X139422319Y-103285095D01*
X139447848Y-103424469D01*
X139468408Y-103534564D01*
X139484815Y-103619018D01*
X139497887Y-103681470D01*
X139508441Y-103725556D01*
X139517294Y-103754915D01*
X139525263Y-103773185D01*
X139533165Y-103784002D01*
X139534727Y-103785515D01*
X139559886Y-103800623D01*
X139608850Y-103823671D01*
X139675621Y-103852356D01*
X139754205Y-103884378D01*
X139838607Y-103917435D01*
X139922830Y-103949227D01*
X140000879Y-103977451D01*
X140066759Y-103999807D01*
X140114473Y-104013993D01*
X140138027Y-104017707D01*
X140138852Y-104017398D01*
X140158104Y-104004811D01*
X140200463Y-103976256D01*
X140261521Y-103934733D01*
X140336868Y-103883244D01*
X140422096Y-103824789D01*
X140446315Y-103808142D01*
X140534123Y-103748785D01*
X140614238Y-103696553D01*
X140682062Y-103654292D01*
X140732993Y-103624847D01*
X140762431Y-103611063D01*
X140766048Y-103610395D01*
X140785057Y-103621976D01*
X140822714Y-103653976D01*
X140874973Y-103702282D01*
X140937786Y-103762780D01*
X141007106Y-103831356D01*
X141078885Y-103903896D01*
X141149077Y-103976288D01*
X141213635Y-104044416D01*
X141268510Y-104104168D01*
X141309656Y-104151429D01*
X141333026Y-104182087D01*
X141336842Y-104190568D01*
X141327855Y-104210309D01*
X141303616Y-104250726D01*
X141268209Y-104305237D01*
X141239711Y-104347177D01*
X141187418Y-104423171D01*
X141125845Y-104513166D01*
X141064370Y-104603436D01*
X141031469Y-104651968D01*
X140920359Y-104816238D01*
X140994916Y-104954131D01*
X141027578Y-105016951D01*
X141052966Y-105070371D01*
X141067446Y-105106516D01*
X141069460Y-105115716D01*
X141054584Y-105126779D01*
X141012547Y-105148606D01*
X140947227Y-105179566D01*
X140862500Y-105218030D01*
X140762245Y-105262368D01*
X140650339Y-105310953D01*
X140530659Y-105362154D01*
X140407084Y-105414341D01*
X140283491Y-105465887D01*
X140163757Y-105515160D01*
X140051759Y-105560533D01*
X139951377Y-105600375D01*
X139866486Y-105633058D01*
X139800965Y-105656951D01*
X139758690Y-105670426D01*
X139744172Y-105672594D01*
X139725653Y-105655417D01*
X139695590Y-105617810D01*
X139660232Y-105567634D01*
X139657434Y-105563422D01*
X139553625Y-105433736D01*
X139432515Y-105329166D01*
X139297976Y-105250619D01*
X139153882Y-105199001D01*
X139004105Y-105175218D01*
X138852517Y-105180177D01*
X138702992Y-105214783D01*
X138559400Y-105279943D01*
X138527984Y-105299114D01*
X138401125Y-105398826D01*
X138299255Y-105516623D01*
X138222904Y-105648429D01*
X138172602Y-105790167D01*
X138148879Y-105937758D01*
X138152265Y-106087127D01*
X138183288Y-106234197D01*
X138242480Y-106374889D01*
X138330369Y-106505127D01*
X138366042Y-106545414D01*
X138477706Y-106647945D01*
X138595257Y-106722659D01*
X138727020Y-106773910D01*
X138857507Y-106802454D01*
X139004216Y-106809500D01*
X139151653Y-106786004D01*
X139294834Y-106734351D01*
X139428777Y-106656929D01*
X139548498Y-106556125D01*
X139649014Y-106434324D01*
X139659609Y-106418316D01*
X139694306Y-106367602D01*
X139724370Y-106329050D01*
X139743565Y-106310619D01*
X139744172Y-106310351D01*
X139764936Y-106314308D01*
X139812062Y-106329993D01*
X139881673Y-106355778D01*
X139969893Y-106390031D01*
X140072844Y-106431123D01*
X140186650Y-106477424D01*
X140307435Y-106527304D01*
X140431321Y-106579133D01*
X140554432Y-106631281D01*
X140672891Y-106682118D01*
X140782823Y-106730013D01*
X140880349Y-106773338D01*
X140961593Y-106810462D01*
X141022679Y-106839756D01*
X141059730Y-106859588D01*
X141069460Y-106867574D01*
X141061883Y-106891979D01*
X141041560Y-106937642D01*
X141012125Y-106996690D01*
X140994916Y-107029160D01*
X140920359Y-107167053D01*
X141031469Y-107331323D01*
X141088390Y-107415179D01*
X141151030Y-107506987D01*
X141210011Y-107593020D01*
X141239711Y-107636113D01*
X141280410Y-107696723D01*
X141312663Y-107748045D01*
X141332384Y-107783385D01*
X141336554Y-107794863D01*
X141325307Y-107811570D01*
X141293911Y-107848546D01*
X141245624Y-107902205D01*
X141183708Y-107968962D01*
X141111421Y-108045234D01*
X141065008Y-108093473D01*
X140982087Y-108177867D01*
X140907920Y-108250803D01*
X140845680Y-108309331D01*
X140798541Y-108350503D01*
X140769673Y-108371372D01*
X140763815Y-108373374D01*
X140741532Y-108364083D01*
X140696477Y-108338409D01*
X140633211Y-108299200D01*
X140556295Y-108249303D01*
X140470292Y-108191567D01*
X140446315Y-108175149D01*
X140359170Y-108115323D01*
X140280710Y-108061650D01*
X140215345Y-108017130D01*
X140167484Y-107984765D01*
X140141535Y-107967555D01*
X140138852Y-107965893D01*
X140118172Y-107968379D01*
X140072704Y-107981577D01*
X140008444Y-108003186D01*
X139931387Y-108030904D01*
X139847529Y-108062430D01*
X139762866Y-108095463D01*
X139683392Y-108127701D01*
X139615104Y-108156843D01*
X139563997Y-108180588D01*
X139536067Y-108196635D01*
X139534727Y-108197775D01*
X139526745Y-108207588D01*
X139518851Y-108224161D01*
X139510229Y-108251132D01*
X139500062Y-108292139D01*
X139487531Y-108350820D01*
X139471821Y-108430813D01*
X139452113Y-108535755D01*
X139427592Y-108669285D01*
X139422319Y-108698196D01*
X139405764Y-108783882D01*
X139389569Y-108858582D01*
X139375296Y-108915694D01*
X139364508Y-108948617D01*
X139361993Y-108953031D01*
X139339696Y-108960306D01*
X139289869Y-108966219D01*
X139218304Y-108970766D01*
X139130793Y-108973945D01*
X139033128Y-108975749D01*
X138931101Y-108976177D01*
X138830503Y-108975223D01*
X138737127Y-108972884D01*
X138656765Y-108969156D01*
X138595209Y-108964034D01*
X138558250Y-108957516D01*
X138550686Y-108953586D01*
X138543056Y-108931708D01*
X138530642Y-108881891D01*
X138514522Y-108809097D01*
X138495773Y-108718289D01*
X138475471Y-108614431D01*
X138464830Y-108557846D01*
X138444760Y-108450486D01*
X138426580Y-108354746D01*
X138411199Y-108275306D01*
X138399531Y-108216846D01*
X138392488Y-108184045D01*
X138390926Y-108178646D01*
X138373322Y-108169522D01*
X138330918Y-108150235D01*
X138269772Y-108123355D01*
X138195943Y-108091454D01*
X138115489Y-108057102D01*
X138034468Y-108022871D01*
X137958937Y-107991331D01*
X137894955Y-107965054D01*
X137848580Y-107946611D01*
X137825869Y-107938571D01*
X137824876Y-107938422D01*
X137806961Y-107947535D01*
X137765733Y-107973086D01*
X137705291Y-108012388D01*
X137629731Y-108062757D01*
X137543152Y-108121506D01*
X137493421Y-108155658D01*
X137402236Y-108217890D01*
X137319449Y-108273164D01*
X137249249Y-108318782D01*
X137195824Y-108352048D01*
X137163361Y-108370264D01*
X137156083Y-108372895D01*
X137139145Y-108361586D01*
X137102978Y-108330319D01*
X137051635Y-108283090D01*
X136989167Y-108223892D01*
X136919626Y-108156719D01*
X136847065Y-108085566D01*
X136775535Y-108014426D01*
X136709087Y-107947293D01*
X136651774Y-107888161D01*
X136607647Y-107841025D01*
X136580759Y-107809877D01*
X136574342Y-107799457D01*
X136583365Y-107782491D01*
X136608715Y-107741911D01*
X136647810Y-107681663D01*
X136698071Y-107605693D01*
X136756917Y-107517946D01*
X136801748Y-107451756D01*
X137029154Y-107117332D01*
X136914238Y-106838567D01*
X136799322Y-106559803D01*
X136398576Y-106484254D01*
X135997829Y-106408706D01*
X135997829Y-105574585D01*
X136398576Y-105499036D01*
X136799322Y-105423487D01*
X137029154Y-104865959D01*
X136801748Y-104531535D01*
X136738431Y-104437878D01*
X136681896Y-104353218D01*
X136634727Y-104281505D01*
X136599502Y-104226689D01*
X136578805Y-104192720D01*
X136574342Y-104183470D01*
X136585820Y-104166805D01*
X136617551Y-104131194D01*
X136665483Y-104080629D01*
X136725562Y-104019100D01*
X136793733Y-103950601D01*
X136865945Y-103879121D01*
X136938142Y-103808653D01*
X137006273Y-103743189D01*
X137066283Y-103686720D01*
X137114119Y-103643237D01*
X137145727Y-103616732D01*
X137156305Y-103610395D01*
X137175806Y-103619514D01*
X137218531Y-103645080D01*
X137280298Y-103684403D01*
X137356931Y-103734797D01*
X137444248Y-103793573D01*
X137494052Y-103827632D01*
X137584993Y-103889711D01*
X137667059Y-103944874D01*
X137736163Y-103990446D01*
X137788222Y-104023750D01*
X137819150Y-104042110D01*
X137825650Y-104044869D01*
X137844121Y-104038615D01*
X137887172Y-104021566D01*
X137948749Y-103996297D01*
X138022799Y-103965378D01*
X138103270Y-103931382D01*
X138184107Y-103896882D01*
X138259258Y-103864449D01*
X138322671Y-103836657D01*
X138368293Y-103816077D01*
X138390069Y-103805281D01*
X138390926Y-103804644D01*
X138395084Y-103787693D01*
X138404361Y-103742549D01*
X138417844Y-103673890D01*
X138434621Y-103586398D01*
X138453781Y-103484750D01*
X138464830Y-103425444D01*
X138485510Y-103316828D01*
X138505189Y-103218723D01*
X138522789Y-103136091D01*
X138537233Y-103073896D01*
X138547446Y-103037101D01*
X138550686Y-103029704D01*
X138572617Y-103022460D01*
X138622147Y-103016615D01*
X138693485Y-103012165D01*
X138780839Y-103009107D01*
X138878417Y-103007435D01*
X138980426Y-103007147D01*
X139081075Y-103008239D01*
G36*
X139081075Y-103008239D02*
G01*
X139174572Y-103010706D01*
X139255125Y-103014544D01*
X139316942Y-103019750D01*
X139354230Y-103026319D01*
X139361993Y-103030259D01*
X139371298Y-103053812D01*
X139384600Y-103103718D01*
X139400337Y-103173377D01*
X139416946Y-103256187D01*
X139422319Y-103285095D01*
X139447848Y-103424469D01*
X139468408Y-103534564D01*
X139484815Y-103619018D01*
X139497887Y-103681470D01*
X139508441Y-103725556D01*
X139517294Y-103754915D01*
X139525263Y-103773185D01*
X139533165Y-103784002D01*
X139534727Y-103785515D01*
X139559886Y-103800623D01*
X139608850Y-103823671D01*
X139675621Y-103852356D01*
X139754205Y-103884378D01*
X139838607Y-103917435D01*
X139922830Y-103949227D01*
X140000879Y-103977451D01*
X140066759Y-103999807D01*
X140114473Y-104013993D01*
X140138027Y-104017707D01*
X140138852Y-104017398D01*
X140158104Y-104004811D01*
X140200463Y-103976256D01*
X140261521Y-103934733D01*
X140336868Y-103883244D01*
X140422096Y-103824789D01*
X140446315Y-103808142D01*
X140534123Y-103748785D01*
X140614238Y-103696553D01*
X140682062Y-103654292D01*
X140732993Y-103624847D01*
X140762431Y-103611063D01*
X140766048Y-103610395D01*
X140785057Y-103621976D01*
X140822714Y-103653976D01*
X140874973Y-103702282D01*
X140937786Y-103762780D01*
X141007106Y-103831356D01*
X141078885Y-103903896D01*
X141149077Y-103976288D01*
X141213635Y-104044416D01*
X141268510Y-104104168D01*
X141309656Y-104151429D01*
X141333026Y-104182087D01*
X141336842Y-104190568D01*
X141327855Y-104210309D01*
X141303616Y-104250726D01*
X141268209Y-104305237D01*
X141239711Y-104347177D01*
X141187418Y-104423171D01*
X141125845Y-104513166D01*
X141064370Y-104603436D01*
X141031469Y-104651968D01*
X140920359Y-104816238D01*
X140994916Y-104954131D01*
X141027578Y-105016951D01*
X141052966Y-105070371D01*
X141067446Y-105106516D01*
X141069460Y-105115716D01*
X141054584Y-105126779D01*
X141012547Y-105148606D01*
X140947227Y-105179566D01*
X140862500Y-105218030D01*
X140762245Y-105262368D01*
X140650339Y-105310953D01*
X140530659Y-105362154D01*
X140407084Y-105414341D01*
X140283491Y-105465887D01*
X140163757Y-105515160D01*
X140051759Y-105560533D01*
X139951377Y-105600375D01*
X139866486Y-105633058D01*
X139800965Y-105656951D01*
X139758690Y-105670426D01*
X139744172Y-105672594D01*
X139725653Y-105655417D01*
X139695590Y-105617810D01*
X139660232Y-105567634D01*
X139657434Y-105563422D01*
X139553625Y-105433736D01*
X139432515Y-105329166D01*
X139297976Y-105250619D01*
X139153882Y-105199001D01*
X139004105Y-105175218D01*
X138852517Y-105180177D01*
X138702992Y-105214783D01*
X138559400Y-105279943D01*
X138527984Y-105299114D01*
X138401125Y-105398826D01*
X138299255Y-105516623D01*
X138222904Y-105648429D01*
X138172602Y-105790167D01*
X138148879Y-105937758D01*
X138152265Y-106087127D01*
X138183288Y-106234197D01*
X138242480Y-106374889D01*
X138330369Y-106505127D01*
X138366042Y-106545414D01*
X138477706Y-106647945D01*
X138595257Y-106722659D01*
X138727020Y-106773910D01*
X138857507Y-106802454D01*
X139004216Y-106809500D01*
X139151653Y-106786004D01*
X139294834Y-106734351D01*
X139428777Y-106656929D01*
X139548498Y-106556125D01*
X139649014Y-106434324D01*
X139659609Y-106418316D01*
X139694306Y-106367602D01*
X139724370Y-106329050D01*
X139743565Y-106310619D01*
X139744172Y-106310351D01*
X139764936Y-106314308D01*
X139812062Y-106329993D01*
X139881673Y-106355778D01*
X139969893Y-106390031D01*
X140072844Y-106431123D01*
X140186650Y-106477424D01*
X140307435Y-106527304D01*
X140431321Y-106579133D01*
X140554432Y-106631281D01*
X140672891Y-106682118D01*
X140782823Y-106730013D01*
X140880349Y-106773338D01*
X140961593Y-106810462D01*
X141022679Y-106839756D01*
X141059730Y-106859588D01*
X141069460Y-106867574D01*
X141061883Y-106891979D01*
X141041560Y-106937642D01*
X141012125Y-106996690D01*
X140994916Y-107029160D01*
X140920359Y-107167053D01*
X141031469Y-107331323D01*
X141088390Y-107415179D01*
X141151030Y-107506987D01*
X141210011Y-107593020D01*
X141239711Y-107636113D01*
X141280410Y-107696723D01*
X141312663Y-107748045D01*
X141332384Y-107783385D01*
X141336554Y-107794863D01*
X141325307Y-107811570D01*
X141293911Y-107848546D01*
X141245624Y-107902205D01*
X141183708Y-107968962D01*
X141111421Y-108045234D01*
X141065008Y-108093473D01*
X140982087Y-108177867D01*
X140907920Y-108250803D01*
X140845680Y-108309331D01*
X140798541Y-108350503D01*
X140769673Y-108371372D01*
X140763815Y-108373374D01*
X140741532Y-108364083D01*
X140696477Y-108338409D01*
X140633211Y-108299200D01*
X140556295Y-108249303D01*
X140470292Y-108191567D01*
X140446315Y-108175149D01*
X140359170Y-108115323D01*
X140280710Y-108061650D01*
X140215345Y-108017130D01*
X140167484Y-107984765D01*
X140141535Y-107967555D01*
X140138852Y-107965893D01*
X140118172Y-107968379D01*
X140072704Y-107981577D01*
X140008444Y-108003186D01*
X139931387Y-108030904D01*
X139847529Y-108062430D01*
X139762866Y-108095463D01*
X139683392Y-108127701D01*
X139615104Y-108156843D01*
X139563997Y-108180588D01*
X139536067Y-108196635D01*
X139534727Y-108197775D01*
X139526745Y-108207588D01*
X139518851Y-108224161D01*
X139510229Y-108251132D01*
X139500062Y-108292139D01*
X139487531Y-108350820D01*
X139471821Y-108430813D01*
X139452113Y-108535755D01*
X139427592Y-108669285D01*
X139422319Y-108698196D01*
X139405764Y-108783882D01*
X139389569Y-108858582D01*
X139375296Y-108915694D01*
X139364508Y-108948617D01*
X139361993Y-108953031D01*
X139339696Y-108960306D01*
X139289869Y-108966219D01*
X139218304Y-108970766D01*
X139130793Y-108973945D01*
X139033128Y-108975749D01*
X138931101Y-108976177D01*
X138830503Y-108975223D01*
X138737127Y-108972884D01*
X138656765Y-108969156D01*
X138595209Y-108964034D01*
X138558250Y-108957516D01*
X138550686Y-108953586D01*
X138543056Y-108931708D01*
X138530642Y-108881891D01*
X138514522Y-108809097D01*
X138495773Y-108718289D01*
X138475471Y-108614431D01*
X138464830Y-108557846D01*
X138444760Y-108450486D01*
X138426580Y-108354746D01*
X138411199Y-108275306D01*
X138399531Y-108216846D01*
X138392488Y-108184045D01*
X138390926Y-108178646D01*
X138373322Y-108169522D01*
X138330918Y-108150235D01*
X138269772Y-108123355D01*
X138195943Y-108091454D01*
X138115489Y-108057102D01*
X138034468Y-108022871D01*
X137958937Y-107991331D01*
X137894955Y-107965054D01*
X137848580Y-107946611D01*
X137825869Y-107938571D01*
X137824876Y-107938422D01*
X137806961Y-107947535D01*
X137765733Y-107973086D01*
X137705291Y-108012388D01*
X137629731Y-108062757D01*
X137543152Y-108121506D01*
X137493421Y-108155658D01*
X137402236Y-108217890D01*
X137319449Y-108273164D01*
X137249249Y-108318782D01*
X137195824Y-108352048D01*
X137163361Y-108370264D01*
X137156083Y-108372895D01*
X137139145Y-108361586D01*
X137102978Y-108330319D01*
X137051635Y-108283090D01*
X136989167Y-108223892D01*
X136919626Y-108156719D01*
X136847065Y-108085566D01*
X136775535Y-108014426D01*
X136709087Y-107947293D01*
X136651774Y-107888161D01*
X136607647Y-107841025D01*
X136580759Y-107809877D01*
X136574342Y-107799457D01*
X136583365Y-107782491D01*
X136608715Y-107741911D01*
X136647810Y-107681663D01*
X136698071Y-107605693D01*
X136756917Y-107517946D01*
X136801748Y-107451756D01*
X137029154Y-107117332D01*
X136914238Y-106838567D01*
X136799322Y-106559803D01*
X136398576Y-106484254D01*
X135997829Y-106408706D01*
X135997829Y-105574585D01*
X136398576Y-105499036D01*
X136799322Y-105423487D01*
X137029154Y-104865959D01*
X136801748Y-104531535D01*
X136738431Y-104437878D01*
X136681896Y-104353218D01*
X136634727Y-104281505D01*
X136599502Y-104226689D01*
X136578805Y-104192720D01*
X136574342Y-104183470D01*
X136585820Y-104166805D01*
X136617551Y-104131194D01*
X136665483Y-104080629D01*
X136725562Y-104019100D01*
X136793733Y-103950601D01*
X136865945Y-103879121D01*
X136938142Y-103808653D01*
X137006273Y-103743189D01*
X137066283Y-103686720D01*
X137114119Y-103643237D01*
X137145727Y-103616732D01*
X137156305Y-103610395D01*
X137175806Y-103619514D01*
X137218531Y-103645080D01*
X137280298Y-103684403D01*
X137356931Y-103734797D01*
X137444248Y-103793573D01*
X137494052Y-103827632D01*
X137584993Y-103889711D01*
X137667059Y-103944874D01*
X137736163Y-103990446D01*
X137788222Y-104023750D01*
X137819150Y-104042110D01*
X137825650Y-104044869D01*
X137844121Y-104038615D01*
X137887172Y-104021566D01*
X137948749Y-103996297D01*
X138022799Y-103965378D01*
X138103270Y-103931382D01*
X138184107Y-103896882D01*
X138259258Y-103864449D01*
X138322671Y-103836657D01*
X138368293Y-103816077D01*
X138390069Y-103805281D01*
X138390926Y-103804644D01*
X138395084Y-103787693D01*
X138404361Y-103742549D01*
X138417844Y-103673890D01*
X138434621Y-103586398D01*
X138453781Y-103484750D01*
X138464830Y-103425444D01*
X138485510Y-103316828D01*
X138505189Y-103218723D01*
X138522789Y-103136091D01*
X138537233Y-103073896D01*
X138547446Y-103037101D01*
X138550686Y-103029704D01*
X138572617Y-103022460D01*
X138622147Y-103016615D01*
X138693485Y-103012165D01*
X138780839Y-103009107D01*
X138878417Y-103007435D01*
X138980426Y-103007147D01*
X139081075Y-103008239D01*
G37*
D13*
X113100000Y-102090000D02*
X133060000Y-102090000D01*
X113100000Y-109110000D02*
X113100000Y-102090000D01*
X114300000Y-109110000D02*
X113100000Y-109110000D01*
X114300000Y-110810000D02*
X114300000Y-109110000D01*
X131860000Y-109110000D02*
X131860000Y-110810000D01*
X131860000Y-110810000D02*
X114300000Y-110810000D01*
X133060000Y-102090000D02*
X133060000Y-109110000D01*
X133060000Y-109110000D02*
X131860000Y-109110000D01*
X133260000Y-107000000D02*
X133860000Y-106700000D01*
X133860000Y-106700000D02*
X133860000Y-107300000D01*
X133860000Y-107300000D02*
X133260000Y-107000000D01*
X148090000Y-129940000D02*
X148090000Y-136060000D01*
X148090000Y-136060000D02*
X152810000Y-136060000D01*
X148700000Y-130550000D02*
X148700000Y-135450000D01*
X148700000Y-132900000D02*
X149200000Y-132900000D01*
X148700000Y-133000000D02*
X149200000Y-133000000D01*
X148700000Y-135450000D02*
X152200000Y-135450000D01*
X149200000Y-132900000D02*
X149200000Y-133100000D01*
X149200000Y-133100000D02*
X148700000Y-133100000D01*
X150200000Y-129940000D02*
X150200000Y-130550000D01*
X150200000Y-136060000D02*
X150200000Y-135450000D01*
X151500000Y-129940000D02*
X151500000Y-130550000D01*
X151500000Y-136060000D02*
X151500000Y-135450000D01*
X152200000Y-130550000D02*
X148700000Y-130550000D01*
X152200000Y-132500000D02*
X152200000Y-130550000D01*
X152200000Y-133500000D02*
X152810000Y-133500000D01*
X152200000Y-135450000D02*
X152200000Y-133500000D01*
X152810000Y-129940000D02*
X148090000Y-129940000D01*
X152810000Y-131700000D02*
X153010000Y-131700000D01*
X152810000Y-132500000D02*
X152200000Y-132500000D01*
X152810000Y-136060000D02*
X152810000Y-129940000D01*
X152910000Y-131700000D02*
X152910000Y-131400000D01*
X153010000Y-131400000D02*
X152810000Y-131400000D01*
X153010000Y-131700000D02*
X153010000Y-131400000D01*
X153110000Y-129640000D02*
X151860000Y-129640000D01*
X153110000Y-130890000D02*
X153110000Y-129640000D01*
%LPC*%
D15*
X135000000Y-161000000D03*
D16*
X135000000Y-156800000D03*
X135000000Y-152600000D03*
X135000000Y-148400000D03*
X135000000Y-144200000D03*
X135000000Y-140000000D03*
X135000000Y-135800000D03*
X135000000Y-131600000D03*
X135000000Y-127400000D03*
X135000000Y-123200000D03*
X135000000Y-119000000D03*
X135000000Y-114800000D03*
X140500000Y-161000000D03*
X140500000Y-156800000D03*
X140500000Y-152600000D03*
X140500000Y-148400000D03*
X140500000Y-144200000D03*
X140500000Y-140000000D03*
X140500000Y-135800000D03*
X140500000Y-131600000D03*
X140500000Y-127400000D03*
X140500000Y-123200000D03*
X140500000Y-119000000D03*
X140500000Y-114800000D03*
D17*
X122000000Y-161000000D03*
D18*
X124540000Y-161000000D03*
D19*
X118000000Y-136000000D03*
D20*
X125620000Y-136000000D03*
D19*
X121540000Y-146380000D03*
D20*
X119000000Y-146380000D03*
X119000000Y-154000000D03*
X121540000Y-154000000D03*
D21*
X111800000Y-174950000D03*
D22*
X119600000Y-174950000D03*
X127400000Y-174950000D03*
X135200000Y-174950000D03*
X143000000Y-174950000D03*
D23*
X118810000Y-161000000D03*
D24*
X111190000Y-161000000D03*
D23*
X128620000Y-154000000D03*
D24*
X128620000Y-146380000D03*
D25*
X150000000Y-115200000D03*
D22*
X150000000Y-123000000D03*
D26*
X104500000Y-175000000D03*
D27*
X120000000Y-131150000D03*
D28*
X126050000Y-129200000D03*
D27*
X126050000Y-117000000D03*
D28*
X114050000Y-129200000D03*
D26*
X150500000Y-175000000D03*
X104500000Y-108000000D03*
D29*
X123000000Y-142000000D03*
X118000000Y-142000000D03*
D26*
X150500000Y-105000000D03*
D21*
X111800000Y-169000000D03*
D22*
X119600000Y-169000000D03*
X127400000Y-169000000D03*
X135200000Y-169000000D03*
X143000000Y-169000000D03*
D30*
X131000000Y-107000000D03*
D31*
X127040000Y-107000000D03*
X123080000Y-107000000D03*
X119120000Y-107000000D03*
X115160000Y-107000000D03*
D32*
X151000000Y-132000000D03*
D33*
X151000000Y-134000000D03*
%LPD*%
M02*
