M48
; DRILL file {KiCad 8.0.6} date 2024-12-17T06:09:17+0000
; FORMAT={-:-/ absolute / metric / decimal}
; #@! TF.CreationDate,2024-12-17T06:09:17+00:00
; #@! TF.GenerationSoftware,Kicad,Pcbnew,8.0.6
; #@! TF.FileFunction,Plated,1,2,PTH
FMAT,2
METRIC
; #@! TA.AperFunction,Plated,PTH,ComponentDrill
T1C0.700
; #@! TA.AperFunction,Plated,PTH,ComponentDrill
T2C0.800
; #@! TA.AperFunction,Plated,PTH,ComponentDrill
T3C0.900
; #@! TA.AperFunction,Plated,PTH,ComponentDrill
T4C0.950
; #@! TA.AperFunction,Plated,PTH,ComponentDrill
T5C1.000
; #@! TA.AperFunction,Plated,PTH,ComponentDrill
T6C1.300
; #@! TA.AperFunction,Plated,PTH,ComponentDrill
T7C1.600
; #@! TA.AperFunction,Plated,PTH,ComponentDrill
T8C1.700
; #@! TA.AperFunction,Plated,PTH,ComponentDrill
T9C2.500
; #@! TA.AperFunction,Plated,PTH,ComponentDrill
T10C3.700
%
G90
G05
T1
X133.165Y-136.975
X140.785Y-136.975
X150.595Y-122.355
X150.595Y-129.975
T2
X139.975Y-111.975
X139.975Y-117.975
X140.975Y-122.355
X140.975Y-129.975
X143.515Y-122.355
X143.515Y-129.975
X144.975Y-117.975
X147.595Y-111.975
T3
X143.975Y-136.975
X146.515Y-136.975
T4
X172.575Y-107.975
X172.575Y-110.475
T5
X135.975Y-105.175
X147.975Y-105.175
T6
X135.925Y-92.925
X141.925Y-107.125
X147.975Y-92.975
T7
X157.625Y-90.775
X157.625Y-94.975
X157.625Y-99.175
X157.625Y-103.375
X157.625Y-107.575
X157.625Y-111.775
X157.625Y-115.975
X157.625Y-120.175
X157.625Y-124.375
X157.625Y-128.575
X157.625Y-132.775
X157.625Y-136.975
X161.825Y-90.775
X161.825Y-94.975
X161.825Y-99.175
X161.825Y-103.375
X161.825Y-107.575
X161.825Y-111.775
X161.825Y-115.975
X161.825Y-120.175
X161.825Y-124.375
X161.825Y-128.575
X161.825Y-132.775
X161.825Y-136.975
T8
X137.135Y-82.975
X141.095Y-82.975
X145.055Y-82.975
X149.015Y-82.975
X152.975Y-82.975
T9
X133.775Y-144.975
X133.775Y-150.925
X141.575Y-144.975
X141.575Y-150.925
X149.375Y-144.975
X149.375Y-150.925
X157.175Y-144.975
X157.175Y-150.925
X164.975Y-144.975
X164.975Y-150.925
X171.975Y-91.175
X171.975Y-98.975
T10
X126.475Y-82.975
X126.475Y-150.975
X172.475Y-80.975
X172.475Y-150.975
M30
