%TF.GenerationSoftware,KiCad,Pcbnew,8.0.5*%
%TF.CreationDate,2024-11-13T07:16:51+00:00*%
%TF.ProjectId,PSU Adapter 2,50535520-4164-4617-9074-657220322e6b,0.2*%
%TF.SameCoordinates,Original*%
%TF.FileFunction,Drillmap*%
%TF.FilePolarity,Positive*%
%FSLAX45Y45*%
G04 Gerber Fmt 4.5, Leading zero omitted, Abs format (unit mm)*
G04 Created by KiCad (PCBNEW 8.0.5) date 2024-11-13 07:16:51*
%MOMM*%
%LPD*%
G01*
G04 APERTURE LIST*
%ADD10C,0.050000*%
%ADD11C,0.200000*%
G04 APERTURE END LIST*
D10*
X10000000Y-10000000D02*
X15500000Y-10000000D01*
X15500000Y-18000000D01*
X10000000Y-18000000D01*
X10000000Y-10000000D01*
D11*
X10258277Y-18313984D02*
X10258277Y-18113984D01*
X10258277Y-18113984D02*
X10305896Y-18113984D01*
X10305896Y-18113984D02*
X10334467Y-18123508D01*
X10334467Y-18123508D02*
X10353515Y-18142555D01*
X10353515Y-18142555D02*
X10363039Y-18161603D01*
X10363039Y-18161603D02*
X10372563Y-18199698D01*
X10372563Y-18199698D02*
X10372563Y-18228270D01*
X10372563Y-18228270D02*
X10363039Y-18266365D01*
X10363039Y-18266365D02*
X10353515Y-18285412D01*
X10353515Y-18285412D02*
X10334467Y-18304460D01*
X10334467Y-18304460D02*
X10305896Y-18313984D01*
X10305896Y-18313984D02*
X10258277Y-18313984D01*
X10458277Y-18313984D02*
X10458277Y-18180650D01*
X10458277Y-18218746D02*
X10467801Y-18199698D01*
X10467801Y-18199698D02*
X10477324Y-18190174D01*
X10477324Y-18190174D02*
X10496372Y-18180650D01*
X10496372Y-18180650D02*
X10515420Y-18180650D01*
X10582086Y-18313984D02*
X10582086Y-18180650D01*
X10582086Y-18113984D02*
X10572563Y-18123508D01*
X10572563Y-18123508D02*
X10582086Y-18133031D01*
X10582086Y-18133031D02*
X10591610Y-18123508D01*
X10591610Y-18123508D02*
X10582086Y-18113984D01*
X10582086Y-18113984D02*
X10582086Y-18133031D01*
X10705896Y-18313984D02*
X10686848Y-18304460D01*
X10686848Y-18304460D02*
X10677324Y-18285412D01*
X10677324Y-18285412D02*
X10677324Y-18113984D01*
X10810658Y-18313984D02*
X10791610Y-18304460D01*
X10791610Y-18304460D02*
X10782086Y-18285412D01*
X10782086Y-18285412D02*
X10782086Y-18113984D01*
X11039229Y-18313984D02*
X11039229Y-18113984D01*
X11039229Y-18113984D02*
X11105896Y-18256841D01*
X11105896Y-18256841D02*
X11172563Y-18113984D01*
X11172563Y-18113984D02*
X11172563Y-18313984D01*
X11353515Y-18313984D02*
X11353515Y-18209222D01*
X11353515Y-18209222D02*
X11343991Y-18190174D01*
X11343991Y-18190174D02*
X11324943Y-18180650D01*
X11324943Y-18180650D02*
X11286848Y-18180650D01*
X11286848Y-18180650D02*
X11267801Y-18190174D01*
X11353515Y-18304460D02*
X11334467Y-18313984D01*
X11334467Y-18313984D02*
X11286848Y-18313984D01*
X11286848Y-18313984D02*
X11267801Y-18304460D01*
X11267801Y-18304460D02*
X11258277Y-18285412D01*
X11258277Y-18285412D02*
X11258277Y-18266365D01*
X11258277Y-18266365D02*
X11267801Y-18247317D01*
X11267801Y-18247317D02*
X11286848Y-18237793D01*
X11286848Y-18237793D02*
X11334467Y-18237793D01*
X11334467Y-18237793D02*
X11353515Y-18228270D01*
X11448753Y-18180650D02*
X11448753Y-18380650D01*
X11448753Y-18190174D02*
X11467801Y-18180650D01*
X11467801Y-18180650D02*
X11505896Y-18180650D01*
X11505896Y-18180650D02*
X11524943Y-18190174D01*
X11524943Y-18190174D02*
X11534467Y-18199698D01*
X11534467Y-18199698D02*
X11543991Y-18218746D01*
X11543991Y-18218746D02*
X11543991Y-18275889D01*
X11543991Y-18275889D02*
X11534467Y-18294936D01*
X11534467Y-18294936D02*
X11524943Y-18304460D01*
X11524943Y-18304460D02*
X11505896Y-18313984D01*
X11505896Y-18313984D02*
X11467801Y-18313984D01*
X11467801Y-18313984D02*
X11448753Y-18304460D01*
X11629705Y-18294936D02*
X11639229Y-18304460D01*
X11639229Y-18304460D02*
X11629705Y-18313984D01*
X11629705Y-18313984D02*
X11620182Y-18304460D01*
X11620182Y-18304460D02*
X11629705Y-18294936D01*
X11629705Y-18294936D02*
X11629705Y-18313984D01*
X11629705Y-18190174D02*
X11639229Y-18199698D01*
X11639229Y-18199698D02*
X11629705Y-18209222D01*
X11629705Y-18209222D02*
X11620182Y-18199698D01*
X11620182Y-18199698D02*
X11629705Y-18190174D01*
X11629705Y-18190174D02*
X11629705Y-18209222D01*
M02*
