G04 #@! TF.GenerationSoftware,KiCad,Pcbnew,8.0.6*
G04 #@! TF.CreationDate,2024-12-18T16:50:49+00:00*
G04 #@! TF.ProjectId,PSU Adapter 2,50535520-4164-4617-9074-657220322e6b,0.4*
G04 #@! TF.SameCoordinates,Original*
G04 #@! TF.FileFunction,Legend,Bot*
G04 #@! TF.FilePolarity,Positive*
%FSLAX46Y46*%
G04 Gerber Fmt 4.6, Leading zero omitted, Abs format (unit mm)*
G04 Created by KiCad (PCBNEW 8.0.6) date 2024-12-18 16:50:49*
%MOMM*%
%LPD*%
G01*
G04 APERTURE LIST*
G04 Aperture macros list*
%AMRoundRect*
0 Rectangle with rounded corners*
0 $1 Rounding radius*
0 $2 $3 $4 $5 $6 $7 $8 $9 X,Y pos of 4 corners*
0 Add a 4 corners polygon primitive as box body*
4,1,4,$2,$3,$4,$5,$6,$7,$8,$9,$2,$3,0*
0 Add four circle primitives for the rounded corners*
1,1,$1+$1,$2,$3*
1,1,$1+$1,$4,$5*
1,1,$1+$1,$6,$7*
1,1,$1+$1,$8,$9*
0 Add four rect primitives between the rounded corners*
20,1,$1+$1,$2,$3,$4,$5,0*
20,1,$1+$1,$4,$5,$6,$7,0*
20,1,$1+$1,$6,$7,$8,$9,0*
20,1,$1+$1,$8,$9,$2,$3,0*%
G04 Aperture macros list end*
%ADD10C,0.100000*%
%ADD11R,1.800000X1.800000*%
%ADD12C,1.800000*%
%ADD13R,1.600000X1.600000*%
%ADD14O,1.600000X1.600000*%
%ADD15RoundRect,0.250002X-1.699998X-1.699998X1.699998X-1.699998X1.699998X1.699998X-1.699998X1.699998X0*%
%ADD16C,3.900000*%
%ADD17C,1.400000*%
%ADD18O,1.400000X1.400000*%
%ADD19RoundRect,0.250002X-1.699998X1.699998X-1.699998X-1.699998X1.699998X-1.699998X1.699998X1.699998X0*%
%ADD20C,7.400000*%
%ADD21RoundRect,0.250001X1.399999X-1.099999X1.399999X1.099999X-1.399999X1.099999X-1.399999X-1.099999X0*%
%ADD22O,3.300000X2.700000*%
%ADD23C,3.000000*%
%ADD24C,2.500000*%
%ADD25C,1.600000*%
%ADD26RoundRect,0.250001X1.099999X1.099999X-1.099999X1.099999X-1.099999X-1.099999X1.099999X-1.099999X0*%
%ADD27C,2.700000*%
%ADD28RoundRect,0.250000X-0.725000X0.600000X-0.725000X-0.600000X0.725000X-0.600000X0.725000X0.600000X0*%
%ADD29O,1.950000X1.700000*%
G04 APERTURE END LIST*
D10*
X135668642Y-147924595D02*
X134906738Y-147924595D01*
X135287690Y-148305548D02*
X135287690Y-147543643D01*
X133906738Y-148305548D02*
X134478166Y-148305548D01*
X134192452Y-148305548D02*
X134192452Y-147305548D01*
X134192452Y-147305548D02*
X134287690Y-147448405D01*
X134287690Y-147448405D02*
X134382928Y-147543643D01*
X134382928Y-147543643D02*
X134478166Y-147591262D01*
X133525785Y-147400786D02*
X133478166Y-147353167D01*
X133478166Y-147353167D02*
X133382928Y-147305548D01*
X133382928Y-147305548D02*
X133144833Y-147305548D01*
X133144833Y-147305548D02*
X133049595Y-147353167D01*
X133049595Y-147353167D02*
X133001976Y-147400786D01*
X133001976Y-147400786D02*
X132954357Y-147496024D01*
X132954357Y-147496024D02*
X132954357Y-147591262D01*
X132954357Y-147591262D02*
X133001976Y-147734119D01*
X133001976Y-147734119D02*
X133573404Y-148305548D01*
X133573404Y-148305548D02*
X132954357Y-148305548D01*
X132668642Y-147305548D02*
X132335309Y-148305548D01*
X132335309Y-148305548D02*
X132001976Y-147305548D01*
X151438972Y-153925694D02*
X150677068Y-153925694D01*
X149677068Y-154306647D02*
X150248496Y-154306647D01*
X149962782Y-154306647D02*
X149962782Y-153306647D01*
X149962782Y-153306647D02*
X150058020Y-153449504D01*
X150058020Y-153449504D02*
X150153258Y-153544742D01*
X150153258Y-153544742D02*
X150248496Y-153592361D01*
X149296115Y-153401885D02*
X149248496Y-153354266D01*
X149248496Y-153354266D02*
X149153258Y-153306647D01*
X149153258Y-153306647D02*
X148915163Y-153306647D01*
X148915163Y-153306647D02*
X148819925Y-153354266D01*
X148819925Y-153354266D02*
X148772306Y-153401885D01*
X148772306Y-153401885D02*
X148724687Y-153497123D01*
X148724687Y-153497123D02*
X148724687Y-153592361D01*
X148724687Y-153592361D02*
X148772306Y-153735218D01*
X148772306Y-153735218D02*
X149343734Y-154306647D01*
X149343734Y-154306647D02*
X148724687Y-154306647D01*
X148438972Y-153306647D02*
X148105639Y-154306647D01*
X148105639Y-154306647D02*
X147772306Y-153306647D01*
X142192635Y-153424046D02*
X142287873Y-153376427D01*
X142287873Y-153376427D02*
X142430730Y-153376427D01*
X142430730Y-153376427D02*
X142573587Y-153424046D01*
X142573587Y-153424046D02*
X142668825Y-153519284D01*
X142668825Y-153519284D02*
X142716444Y-153614522D01*
X142716444Y-153614522D02*
X142764063Y-153804998D01*
X142764063Y-153804998D02*
X142764063Y-153947855D01*
X142764063Y-153947855D02*
X142716444Y-154138331D01*
X142716444Y-154138331D02*
X142668825Y-154233569D01*
X142668825Y-154233569D02*
X142573587Y-154328808D01*
X142573587Y-154328808D02*
X142430730Y-154376427D01*
X142430730Y-154376427D02*
X142335492Y-154376427D01*
X142335492Y-154376427D02*
X142192635Y-154328808D01*
X142192635Y-154328808D02*
X142145016Y-154281188D01*
X142145016Y-154281188D02*
X142145016Y-153947855D01*
X142145016Y-153947855D02*
X142335492Y-153947855D01*
X141716444Y-154376427D02*
X141716444Y-153376427D01*
X141716444Y-153376427D02*
X141145016Y-154376427D01*
X141145016Y-154376427D02*
X141145016Y-153376427D01*
X140668825Y-154376427D02*
X140668825Y-153376427D01*
X140668825Y-153376427D02*
X140430730Y-153376427D01*
X140430730Y-153376427D02*
X140287873Y-153424046D01*
X140287873Y-153424046D02*
X140192635Y-153519284D01*
X140192635Y-153519284D02*
X140145016Y-153614522D01*
X140145016Y-153614522D02*
X140097397Y-153804998D01*
X140097397Y-153804998D02*
X140097397Y-153947855D01*
X140097397Y-153947855D02*
X140145016Y-154138331D01*
X140145016Y-154138331D02*
X140192635Y-154233569D01*
X140192635Y-154233569D02*
X140287873Y-154328808D01*
X140287873Y-154328808D02*
X140430730Y-154376427D01*
X140430730Y-154376427D02*
X140668825Y-154376427D01*
X158382104Y-154341537D02*
X158382104Y-153341537D01*
X158382104Y-153341537D02*
X158001152Y-153341537D01*
X158001152Y-153341537D02*
X157905914Y-153389156D01*
X157905914Y-153389156D02*
X157858295Y-153436775D01*
X157858295Y-153436775D02*
X157810676Y-153532013D01*
X157810676Y-153532013D02*
X157810676Y-153674870D01*
X157810676Y-153674870D02*
X157858295Y-153770108D01*
X157858295Y-153770108D02*
X157905914Y-153817727D01*
X157905914Y-153817727D02*
X158001152Y-153865346D01*
X158001152Y-153865346D02*
X158382104Y-153865346D01*
X157048771Y-153817727D02*
X157382104Y-153817727D01*
X157382104Y-154341537D02*
X157382104Y-153341537D01*
X157382104Y-153341537D02*
X156905914Y-153341537D01*
X156620199Y-153341537D02*
X156382104Y-154341537D01*
X156382104Y-154341537D02*
X156191628Y-153627251D01*
X156191628Y-153627251D02*
X156001152Y-154341537D01*
X156001152Y-154341537D02*
X155763057Y-153341537D01*
X143239796Y-147994375D02*
X142477892Y-147994375D01*
X142858844Y-148375328D02*
X142858844Y-147613423D01*
X141525511Y-147375328D02*
X142001701Y-147375328D01*
X142001701Y-147375328D02*
X142049320Y-147851518D01*
X142049320Y-147851518D02*
X142001701Y-147803899D01*
X142001701Y-147803899D02*
X141906463Y-147756280D01*
X141906463Y-147756280D02*
X141668368Y-147756280D01*
X141668368Y-147756280D02*
X141573130Y-147803899D01*
X141573130Y-147803899D02*
X141525511Y-147851518D01*
X141525511Y-147851518D02*
X141477892Y-147946756D01*
X141477892Y-147946756D02*
X141477892Y-148184851D01*
X141477892Y-148184851D02*
X141525511Y-148280089D01*
X141525511Y-148280089D02*
X141573130Y-148327709D01*
X141573130Y-148327709D02*
X141668368Y-148375328D01*
X141668368Y-148375328D02*
X141906463Y-148375328D01*
X141906463Y-148375328D02*
X142001701Y-148327709D01*
X142001701Y-148327709D02*
X142049320Y-148280089D01*
X141192177Y-147375328D02*
X140858844Y-148375328D01*
X140858844Y-148375328D02*
X140525511Y-147375328D01*
X158696114Y-147924595D02*
X157934210Y-147924595D01*
X158315162Y-148305548D02*
X158315162Y-147543643D01*
X156981829Y-147305548D02*
X157458019Y-147305548D01*
X157458019Y-147305548D02*
X157505638Y-147781738D01*
X157505638Y-147781738D02*
X157458019Y-147734119D01*
X157458019Y-147734119D02*
X157362781Y-147686500D01*
X157362781Y-147686500D02*
X157124686Y-147686500D01*
X157124686Y-147686500D02*
X157029448Y-147734119D01*
X157029448Y-147734119D02*
X156981829Y-147781738D01*
X156981829Y-147781738D02*
X156934210Y-147876976D01*
X156934210Y-147876976D02*
X156934210Y-148115071D01*
X156934210Y-148115071D02*
X156981829Y-148210309D01*
X156981829Y-148210309D02*
X157029448Y-148257929D01*
X157029448Y-148257929D02*
X157124686Y-148305548D01*
X157124686Y-148305548D02*
X157362781Y-148305548D01*
X157362781Y-148305548D02*
X157458019Y-148257929D01*
X157458019Y-148257929D02*
X157505638Y-148210309D01*
X156648495Y-147305548D02*
X156315162Y-148305548D01*
X156315162Y-148305548D02*
X155981829Y-147305548D01*
X126366816Y-93256265D02*
X126366816Y-93732455D01*
X126652531Y-93161027D02*
X125652531Y-93494360D01*
X125652531Y-93494360D02*
X126652531Y-93827693D01*
X125985864Y-94161027D02*
X126985864Y-94161027D01*
X126033483Y-94161027D02*
X125985864Y-94256265D01*
X125985864Y-94256265D02*
X125985864Y-94446741D01*
X125985864Y-94446741D02*
X126033483Y-94541979D01*
X126033483Y-94541979D02*
X126081102Y-94589598D01*
X126081102Y-94589598D02*
X126176340Y-94637217D01*
X126176340Y-94637217D02*
X126462054Y-94637217D01*
X126462054Y-94637217D02*
X126557292Y-94589598D01*
X126557292Y-94589598D02*
X126604912Y-94541979D01*
X126604912Y-94541979D02*
X126652531Y-94446741D01*
X126652531Y-94446741D02*
X126652531Y-94256265D01*
X126652531Y-94256265D02*
X126604912Y-94161027D01*
X125985864Y-95065789D02*
X126985864Y-95065789D01*
X126033483Y-95065789D02*
X125985864Y-95161027D01*
X125985864Y-95161027D02*
X125985864Y-95351503D01*
X125985864Y-95351503D02*
X126033483Y-95446741D01*
X126033483Y-95446741D02*
X126081102Y-95494360D01*
X126081102Y-95494360D02*
X126176340Y-95541979D01*
X126176340Y-95541979D02*
X126462054Y-95541979D01*
X126462054Y-95541979D02*
X126557292Y-95494360D01*
X126557292Y-95494360D02*
X126604912Y-95446741D01*
X126604912Y-95446741D02*
X126652531Y-95351503D01*
X126652531Y-95351503D02*
X126652531Y-95161027D01*
X126652531Y-95161027D02*
X126604912Y-95065789D01*
X126652531Y-96113408D02*
X126604912Y-96018170D01*
X126604912Y-96018170D02*
X126509673Y-95970551D01*
X126509673Y-95970551D02*
X125652531Y-95970551D01*
X126604912Y-96875313D02*
X126652531Y-96780075D01*
X126652531Y-96780075D02*
X126652531Y-96589599D01*
X126652531Y-96589599D02*
X126604912Y-96494361D01*
X126604912Y-96494361D02*
X126509673Y-96446742D01*
X126509673Y-96446742D02*
X126128721Y-96446742D01*
X126128721Y-96446742D02*
X126033483Y-96494361D01*
X126033483Y-96494361D02*
X125985864Y-96589599D01*
X125985864Y-96589599D02*
X125985864Y-96780075D01*
X125985864Y-96780075D02*
X126033483Y-96875313D01*
X126033483Y-96875313D02*
X126128721Y-96922932D01*
X126128721Y-96922932D02*
X126223959Y-96922932D01*
X126223959Y-96922932D02*
X126319197Y-96446742D01*
X126652531Y-98113409D02*
X125652531Y-98113409D01*
X125652531Y-98113409D02*
X126366816Y-98446742D01*
X126366816Y-98446742D02*
X125652531Y-98780075D01*
X125652531Y-98780075D02*
X126652531Y-98780075D01*
X126652531Y-99684837D02*
X126128721Y-99684837D01*
X126128721Y-99684837D02*
X126033483Y-99637218D01*
X126033483Y-99637218D02*
X125985864Y-99541980D01*
X125985864Y-99541980D02*
X125985864Y-99351504D01*
X125985864Y-99351504D02*
X126033483Y-99256266D01*
X126604912Y-99684837D02*
X126652531Y-99589599D01*
X126652531Y-99589599D02*
X126652531Y-99351504D01*
X126652531Y-99351504D02*
X126604912Y-99256266D01*
X126604912Y-99256266D02*
X126509673Y-99208647D01*
X126509673Y-99208647D02*
X126414435Y-99208647D01*
X126414435Y-99208647D02*
X126319197Y-99256266D01*
X126319197Y-99256266D02*
X126271578Y-99351504D01*
X126271578Y-99351504D02*
X126271578Y-99589599D01*
X126271578Y-99589599D02*
X126223959Y-99684837D01*
X126604912Y-100589599D02*
X126652531Y-100494361D01*
X126652531Y-100494361D02*
X126652531Y-100303885D01*
X126652531Y-100303885D02*
X126604912Y-100208647D01*
X126604912Y-100208647D02*
X126557292Y-100161028D01*
X126557292Y-100161028D02*
X126462054Y-100113409D01*
X126462054Y-100113409D02*
X126176340Y-100113409D01*
X126176340Y-100113409D02*
X126081102Y-100161028D01*
X126081102Y-100161028D02*
X126033483Y-100208647D01*
X126033483Y-100208647D02*
X125985864Y-100303885D01*
X125985864Y-100303885D02*
X125985864Y-100494361D01*
X125985864Y-100494361D02*
X126033483Y-100589599D01*
X126652531Y-101780076D02*
X125652531Y-101780076D01*
X126652531Y-102256266D02*
X125652531Y-102256266D01*
X126604912Y-103161027D02*
X126652531Y-103065789D01*
X126652531Y-103065789D02*
X126652531Y-102875313D01*
X126652531Y-102875313D02*
X126604912Y-102780075D01*
X126604912Y-102780075D02*
X126557292Y-102732456D01*
X126557292Y-102732456D02*
X126462054Y-102684837D01*
X126462054Y-102684837D02*
X126176340Y-102684837D01*
X126176340Y-102684837D02*
X126081102Y-102732456D01*
X126081102Y-102732456D02*
X126033483Y-102780075D01*
X126033483Y-102780075D02*
X125985864Y-102875313D01*
X125985864Y-102875313D02*
X125985864Y-103065789D01*
X125985864Y-103065789D02*
X126033483Y-103161027D01*
X126652531Y-103494361D02*
X125985864Y-104018170D01*
X125985864Y-103494361D02*
X126652531Y-104018170D01*
X126652531Y-105161028D02*
X125652531Y-105161028D01*
X125652531Y-105161028D02*
X125652531Y-105541980D01*
X125652531Y-105541980D02*
X125700150Y-105637218D01*
X125700150Y-105637218D02*
X125747769Y-105684837D01*
X125747769Y-105684837D02*
X125843007Y-105732456D01*
X125843007Y-105732456D02*
X125985864Y-105732456D01*
X125985864Y-105732456D02*
X126081102Y-105684837D01*
X126081102Y-105684837D02*
X126128721Y-105637218D01*
X126128721Y-105637218D02*
X126176340Y-105541980D01*
X126176340Y-105541980D02*
X126176340Y-105161028D01*
X126604912Y-106113409D02*
X126652531Y-106256266D01*
X126652531Y-106256266D02*
X126652531Y-106494361D01*
X126652531Y-106494361D02*
X126604912Y-106589599D01*
X126604912Y-106589599D02*
X126557292Y-106637218D01*
X126557292Y-106637218D02*
X126462054Y-106684837D01*
X126462054Y-106684837D02*
X126366816Y-106684837D01*
X126366816Y-106684837D02*
X126271578Y-106637218D01*
X126271578Y-106637218D02*
X126223959Y-106589599D01*
X126223959Y-106589599D02*
X126176340Y-106494361D01*
X126176340Y-106494361D02*
X126128721Y-106303885D01*
X126128721Y-106303885D02*
X126081102Y-106208647D01*
X126081102Y-106208647D02*
X126033483Y-106161028D01*
X126033483Y-106161028D02*
X125938245Y-106113409D01*
X125938245Y-106113409D02*
X125843007Y-106113409D01*
X125843007Y-106113409D02*
X125747769Y-106161028D01*
X125747769Y-106161028D02*
X125700150Y-106208647D01*
X125700150Y-106208647D02*
X125652531Y-106303885D01*
X125652531Y-106303885D02*
X125652531Y-106541980D01*
X125652531Y-106541980D02*
X125700150Y-106684837D01*
X125652531Y-107113409D02*
X126462054Y-107113409D01*
X126462054Y-107113409D02*
X126557292Y-107161028D01*
X126557292Y-107161028D02*
X126604912Y-107208647D01*
X126604912Y-107208647D02*
X126652531Y-107303885D01*
X126652531Y-107303885D02*
X126652531Y-107494361D01*
X126652531Y-107494361D02*
X126604912Y-107589599D01*
X126604912Y-107589599D02*
X126557292Y-107637218D01*
X126557292Y-107637218D02*
X126462054Y-107684837D01*
X126462054Y-107684837D02*
X125652531Y-107684837D01*
X126366816Y-108875314D02*
X126366816Y-109351504D01*
X126652531Y-108780076D02*
X125652531Y-109113409D01*
X125652531Y-109113409D02*
X126652531Y-109446742D01*
X125652531Y-109637219D02*
X125652531Y-110208647D01*
X126652531Y-109922933D02*
X125652531Y-109922933D01*
X125652531Y-110446743D02*
X126652531Y-111113409D01*
X125652531Y-111113409D02*
X126652531Y-110446743D01*
X126366816Y-112208648D02*
X126366816Y-112684838D01*
X126652531Y-112113410D02*
X125652531Y-112446743D01*
X125652531Y-112446743D02*
X126652531Y-112780076D01*
X126652531Y-113541981D02*
X125652531Y-113541981D01*
X126604912Y-113541981D02*
X126652531Y-113446743D01*
X126652531Y-113446743D02*
X126652531Y-113256267D01*
X126652531Y-113256267D02*
X126604912Y-113161029D01*
X126604912Y-113161029D02*
X126557292Y-113113410D01*
X126557292Y-113113410D02*
X126462054Y-113065791D01*
X126462054Y-113065791D02*
X126176340Y-113065791D01*
X126176340Y-113065791D02*
X126081102Y-113113410D01*
X126081102Y-113113410D02*
X126033483Y-113161029D01*
X126033483Y-113161029D02*
X125985864Y-113256267D01*
X125985864Y-113256267D02*
X125985864Y-113446743D01*
X125985864Y-113446743D02*
X126033483Y-113541981D01*
X126652531Y-114446743D02*
X126128721Y-114446743D01*
X126128721Y-114446743D02*
X126033483Y-114399124D01*
X126033483Y-114399124D02*
X125985864Y-114303886D01*
X125985864Y-114303886D02*
X125985864Y-114113410D01*
X125985864Y-114113410D02*
X126033483Y-114018172D01*
X126604912Y-114446743D02*
X126652531Y-114351505D01*
X126652531Y-114351505D02*
X126652531Y-114113410D01*
X126652531Y-114113410D02*
X126604912Y-114018172D01*
X126604912Y-114018172D02*
X126509673Y-113970553D01*
X126509673Y-113970553D02*
X126414435Y-113970553D01*
X126414435Y-113970553D02*
X126319197Y-114018172D01*
X126319197Y-114018172D02*
X126271578Y-114113410D01*
X126271578Y-114113410D02*
X126271578Y-114351505D01*
X126271578Y-114351505D02*
X126223959Y-114446743D01*
X125985864Y-114922934D02*
X126985864Y-114922934D01*
X126033483Y-114922934D02*
X125985864Y-115018172D01*
X125985864Y-115018172D02*
X125985864Y-115208648D01*
X125985864Y-115208648D02*
X126033483Y-115303886D01*
X126033483Y-115303886D02*
X126081102Y-115351505D01*
X126081102Y-115351505D02*
X126176340Y-115399124D01*
X126176340Y-115399124D02*
X126462054Y-115399124D01*
X126462054Y-115399124D02*
X126557292Y-115351505D01*
X126557292Y-115351505D02*
X126604912Y-115303886D01*
X126604912Y-115303886D02*
X126652531Y-115208648D01*
X126652531Y-115208648D02*
X126652531Y-115018172D01*
X126652531Y-115018172D02*
X126604912Y-114922934D01*
X125985864Y-115684839D02*
X125985864Y-116065791D01*
X125652531Y-115827696D02*
X126509673Y-115827696D01*
X126509673Y-115827696D02*
X126604912Y-115875315D01*
X126604912Y-115875315D02*
X126652531Y-115970553D01*
X126652531Y-115970553D02*
X126652531Y-116065791D01*
X126604912Y-116780077D02*
X126652531Y-116684839D01*
X126652531Y-116684839D02*
X126652531Y-116494363D01*
X126652531Y-116494363D02*
X126604912Y-116399125D01*
X126604912Y-116399125D02*
X126509673Y-116351506D01*
X126509673Y-116351506D02*
X126128721Y-116351506D01*
X126128721Y-116351506D02*
X126033483Y-116399125D01*
X126033483Y-116399125D02*
X125985864Y-116494363D01*
X125985864Y-116494363D02*
X125985864Y-116684839D01*
X125985864Y-116684839D02*
X126033483Y-116780077D01*
X126033483Y-116780077D02*
X126128721Y-116827696D01*
X126128721Y-116827696D02*
X126223959Y-116827696D01*
X126223959Y-116827696D02*
X126319197Y-116351506D01*
X126652531Y-117256268D02*
X125985864Y-117256268D01*
X126176340Y-117256268D02*
X126081102Y-117303887D01*
X126081102Y-117303887D02*
X126033483Y-117351506D01*
X126033483Y-117351506D02*
X125985864Y-117446744D01*
X125985864Y-117446744D02*
X125985864Y-117541982D01*
X126652531Y-119208649D02*
X126176340Y-118875316D01*
X126652531Y-118637221D02*
X125652531Y-118637221D01*
X125652531Y-118637221D02*
X125652531Y-119018173D01*
X125652531Y-119018173D02*
X125700150Y-119113411D01*
X125700150Y-119113411D02*
X125747769Y-119161030D01*
X125747769Y-119161030D02*
X125843007Y-119208649D01*
X125843007Y-119208649D02*
X125985864Y-119208649D01*
X125985864Y-119208649D02*
X126081102Y-119161030D01*
X126081102Y-119161030D02*
X126128721Y-119113411D01*
X126128721Y-119113411D02*
X126176340Y-119018173D01*
X126176340Y-119018173D02*
X126176340Y-118637221D01*
X126604912Y-120018173D02*
X126652531Y-119922935D01*
X126652531Y-119922935D02*
X126652531Y-119732459D01*
X126652531Y-119732459D02*
X126604912Y-119637221D01*
X126604912Y-119637221D02*
X126509673Y-119589602D01*
X126509673Y-119589602D02*
X126128721Y-119589602D01*
X126128721Y-119589602D02*
X126033483Y-119637221D01*
X126033483Y-119637221D02*
X125985864Y-119732459D01*
X125985864Y-119732459D02*
X125985864Y-119922935D01*
X125985864Y-119922935D02*
X126033483Y-120018173D01*
X126033483Y-120018173D02*
X126128721Y-120065792D01*
X126128721Y-120065792D02*
X126223959Y-120065792D01*
X126223959Y-120065792D02*
X126319197Y-119589602D01*
X125985864Y-120399126D02*
X126652531Y-120637221D01*
X126652531Y-120637221D02*
X125985864Y-120875316D01*
X126557292Y-121256269D02*
X126604912Y-121303888D01*
X126604912Y-121303888D02*
X126652531Y-121256269D01*
X126652531Y-121256269D02*
X126604912Y-121208650D01*
X126604912Y-121208650D02*
X126557292Y-121256269D01*
X126557292Y-121256269D02*
X126652531Y-121256269D01*
X125652531Y-122684840D02*
X125652531Y-122780078D01*
X125652531Y-122780078D02*
X125700150Y-122875316D01*
X125700150Y-122875316D02*
X125747769Y-122922935D01*
X125747769Y-122922935D02*
X125843007Y-122970554D01*
X125843007Y-122970554D02*
X126033483Y-123018173D01*
X126033483Y-123018173D02*
X126271578Y-123018173D01*
X126271578Y-123018173D02*
X126462054Y-122970554D01*
X126462054Y-122970554D02*
X126557292Y-122922935D01*
X126557292Y-122922935D02*
X126604912Y-122875316D01*
X126604912Y-122875316D02*
X126652531Y-122780078D01*
X126652531Y-122780078D02*
X126652531Y-122684840D01*
X126652531Y-122684840D02*
X126604912Y-122589602D01*
X126604912Y-122589602D02*
X126557292Y-122541983D01*
X126557292Y-122541983D02*
X126462054Y-122494364D01*
X126462054Y-122494364D02*
X126271578Y-122446745D01*
X126271578Y-122446745D02*
X126033483Y-122446745D01*
X126033483Y-122446745D02*
X125843007Y-122494364D01*
X125843007Y-122494364D02*
X125747769Y-122541983D01*
X125747769Y-122541983D02*
X125700150Y-122589602D01*
X125700150Y-122589602D02*
X125652531Y-122684840D01*
X126557292Y-123446745D02*
X126604912Y-123494364D01*
X126604912Y-123494364D02*
X126652531Y-123446745D01*
X126652531Y-123446745D02*
X126604912Y-123399126D01*
X126604912Y-123399126D02*
X126557292Y-123446745D01*
X126557292Y-123446745D02*
X126652531Y-123446745D01*
X125985864Y-124351506D02*
X126652531Y-124351506D01*
X125604912Y-124113411D02*
X126319197Y-123875316D01*
X126319197Y-123875316D02*
X126319197Y-124494363D01*
X128262475Y-93875312D02*
X127786284Y-93541979D01*
X128262475Y-93303884D02*
X127262475Y-93303884D01*
X127262475Y-93303884D02*
X127262475Y-93684836D01*
X127262475Y-93684836D02*
X127310094Y-93780074D01*
X127310094Y-93780074D02*
X127357713Y-93827693D01*
X127357713Y-93827693D02*
X127452951Y-93875312D01*
X127452951Y-93875312D02*
X127595808Y-93875312D01*
X127595808Y-93875312D02*
X127691046Y-93827693D01*
X127691046Y-93827693D02*
X127738665Y-93780074D01*
X127738665Y-93780074D02*
X127786284Y-93684836D01*
X127786284Y-93684836D02*
X127786284Y-93303884D01*
X128262475Y-94446741D02*
X128214856Y-94351503D01*
X128214856Y-94351503D02*
X128167236Y-94303884D01*
X128167236Y-94303884D02*
X128071998Y-94256265D01*
X128071998Y-94256265D02*
X127786284Y-94256265D01*
X127786284Y-94256265D02*
X127691046Y-94303884D01*
X127691046Y-94303884D02*
X127643427Y-94351503D01*
X127643427Y-94351503D02*
X127595808Y-94446741D01*
X127595808Y-94446741D02*
X127595808Y-94589598D01*
X127595808Y-94589598D02*
X127643427Y-94684836D01*
X127643427Y-94684836D02*
X127691046Y-94732455D01*
X127691046Y-94732455D02*
X127786284Y-94780074D01*
X127786284Y-94780074D02*
X128071998Y-94780074D01*
X128071998Y-94780074D02*
X128167236Y-94732455D01*
X128167236Y-94732455D02*
X128214856Y-94684836D01*
X128214856Y-94684836D02*
X128262475Y-94589598D01*
X128262475Y-94589598D02*
X128262475Y-94446741D01*
X128262475Y-95637217D02*
X127262475Y-95637217D01*
X128214856Y-95637217D02*
X128262475Y-95541979D01*
X128262475Y-95541979D02*
X128262475Y-95351503D01*
X128262475Y-95351503D02*
X128214856Y-95256265D01*
X128214856Y-95256265D02*
X128167236Y-95208646D01*
X128167236Y-95208646D02*
X128071998Y-95161027D01*
X128071998Y-95161027D02*
X127786284Y-95161027D01*
X127786284Y-95161027D02*
X127691046Y-95208646D01*
X127691046Y-95208646D02*
X127643427Y-95256265D01*
X127643427Y-95256265D02*
X127595808Y-95351503D01*
X127595808Y-95351503D02*
X127595808Y-95541979D01*
X127595808Y-95541979D02*
X127643427Y-95637217D01*
X127262475Y-96732456D02*
X127262475Y-97303884D01*
X128262475Y-97018170D02*
X127262475Y-97018170D01*
X128262475Y-97637218D02*
X127262475Y-97637218D01*
X128262475Y-98065789D02*
X127738665Y-98065789D01*
X127738665Y-98065789D02*
X127643427Y-98018170D01*
X127643427Y-98018170D02*
X127595808Y-97922932D01*
X127595808Y-97922932D02*
X127595808Y-97780075D01*
X127595808Y-97780075D02*
X127643427Y-97684837D01*
X127643427Y-97684837D02*
X127691046Y-97637218D01*
X128262475Y-98684837D02*
X128214856Y-98589599D01*
X128214856Y-98589599D02*
X128167236Y-98541980D01*
X128167236Y-98541980D02*
X128071998Y-98494361D01*
X128071998Y-98494361D02*
X127786284Y-98494361D01*
X127786284Y-98494361D02*
X127691046Y-98541980D01*
X127691046Y-98541980D02*
X127643427Y-98589599D01*
X127643427Y-98589599D02*
X127595808Y-98684837D01*
X127595808Y-98684837D02*
X127595808Y-98827694D01*
X127595808Y-98827694D02*
X127643427Y-98922932D01*
X127643427Y-98922932D02*
X127691046Y-98970551D01*
X127691046Y-98970551D02*
X127786284Y-99018170D01*
X127786284Y-99018170D02*
X128071998Y-99018170D01*
X128071998Y-99018170D02*
X128167236Y-98970551D01*
X128167236Y-98970551D02*
X128214856Y-98922932D01*
X128214856Y-98922932D02*
X128262475Y-98827694D01*
X128262475Y-98827694D02*
X128262475Y-98684837D01*
X128262475Y-99446742D02*
X127595808Y-99446742D01*
X127691046Y-99446742D02*
X127643427Y-99494361D01*
X127643427Y-99494361D02*
X127595808Y-99589599D01*
X127595808Y-99589599D02*
X127595808Y-99732456D01*
X127595808Y-99732456D02*
X127643427Y-99827694D01*
X127643427Y-99827694D02*
X127738665Y-99875313D01*
X127738665Y-99875313D02*
X128262475Y-99875313D01*
X127738665Y-99875313D02*
X127643427Y-99922932D01*
X127643427Y-99922932D02*
X127595808Y-100018170D01*
X127595808Y-100018170D02*
X127595808Y-100161027D01*
X127595808Y-100161027D02*
X127643427Y-100256266D01*
X127643427Y-100256266D02*
X127738665Y-100303885D01*
X127738665Y-100303885D02*
X128262475Y-100303885D01*
X128262475Y-101208646D02*
X127738665Y-101208646D01*
X127738665Y-101208646D02*
X127643427Y-101161027D01*
X127643427Y-101161027D02*
X127595808Y-101065789D01*
X127595808Y-101065789D02*
X127595808Y-100875313D01*
X127595808Y-100875313D02*
X127643427Y-100780075D01*
X128214856Y-101208646D02*
X128262475Y-101113408D01*
X128262475Y-101113408D02*
X128262475Y-100875313D01*
X128262475Y-100875313D02*
X128214856Y-100780075D01*
X128214856Y-100780075D02*
X128119617Y-100732456D01*
X128119617Y-100732456D02*
X128024379Y-100732456D01*
X128024379Y-100732456D02*
X127929141Y-100780075D01*
X127929141Y-100780075D02*
X127881522Y-100875313D01*
X127881522Y-100875313D02*
X127881522Y-101113408D01*
X127881522Y-101113408D02*
X127833903Y-101208646D01*
X128214856Y-101637218D02*
X128262475Y-101732456D01*
X128262475Y-101732456D02*
X128262475Y-101922932D01*
X128262475Y-101922932D02*
X128214856Y-102018170D01*
X128214856Y-102018170D02*
X128119617Y-102065789D01*
X128119617Y-102065789D02*
X128071998Y-102065789D01*
X128071998Y-102065789D02*
X127976760Y-102018170D01*
X127976760Y-102018170D02*
X127929141Y-101922932D01*
X127929141Y-101922932D02*
X127929141Y-101780075D01*
X127929141Y-101780075D02*
X127881522Y-101684837D01*
X127881522Y-101684837D02*
X127786284Y-101637218D01*
X127786284Y-101637218D02*
X127738665Y-101637218D01*
X127738665Y-101637218D02*
X127643427Y-101684837D01*
X127643427Y-101684837D02*
X127595808Y-101780075D01*
X127595808Y-101780075D02*
X127595808Y-101922932D01*
X127595808Y-101922932D02*
X127643427Y-102018170D01*
X127881522Y-103256266D02*
X127881522Y-104018171D01*
X128262475Y-105256266D02*
X127262475Y-105256266D01*
X127262475Y-105256266D02*
X127262475Y-105637218D01*
X127262475Y-105637218D02*
X127310094Y-105732456D01*
X127310094Y-105732456D02*
X127357713Y-105780075D01*
X127357713Y-105780075D02*
X127452951Y-105827694D01*
X127452951Y-105827694D02*
X127595808Y-105827694D01*
X127595808Y-105827694D02*
X127691046Y-105780075D01*
X127691046Y-105780075D02*
X127738665Y-105732456D01*
X127738665Y-105732456D02*
X127786284Y-105637218D01*
X127786284Y-105637218D02*
X127786284Y-105256266D01*
X128262475Y-106684837D02*
X127738665Y-106684837D01*
X127738665Y-106684837D02*
X127643427Y-106637218D01*
X127643427Y-106637218D02*
X127595808Y-106541980D01*
X127595808Y-106541980D02*
X127595808Y-106351504D01*
X127595808Y-106351504D02*
X127643427Y-106256266D01*
X128214856Y-106684837D02*
X128262475Y-106589599D01*
X128262475Y-106589599D02*
X128262475Y-106351504D01*
X128262475Y-106351504D02*
X128214856Y-106256266D01*
X128214856Y-106256266D02*
X128119617Y-106208647D01*
X128119617Y-106208647D02*
X128024379Y-106208647D01*
X128024379Y-106208647D02*
X127929141Y-106256266D01*
X127929141Y-106256266D02*
X127881522Y-106351504D01*
X127881522Y-106351504D02*
X127881522Y-106589599D01*
X127881522Y-106589599D02*
X127833903Y-106684837D01*
X128262475Y-107161028D02*
X127595808Y-107161028D01*
X127786284Y-107161028D02*
X127691046Y-107208647D01*
X127691046Y-107208647D02*
X127643427Y-107256266D01*
X127643427Y-107256266D02*
X127595808Y-107351504D01*
X127595808Y-107351504D02*
X127595808Y-107446742D01*
X128262475Y-107780076D02*
X127262475Y-107780076D01*
X127881522Y-107875314D02*
X128262475Y-108161028D01*
X127595808Y-108161028D02*
X127976760Y-107780076D01*
X128214856Y-108541981D02*
X128262475Y-108637219D01*
X128262475Y-108637219D02*
X128262475Y-108827695D01*
X128262475Y-108827695D02*
X128214856Y-108922933D01*
X128214856Y-108922933D02*
X128119617Y-108970552D01*
X128119617Y-108970552D02*
X128071998Y-108970552D01*
X128071998Y-108970552D02*
X127976760Y-108922933D01*
X127976760Y-108922933D02*
X127929141Y-108827695D01*
X127929141Y-108827695D02*
X127929141Y-108684838D01*
X127929141Y-108684838D02*
X127881522Y-108589600D01*
X127881522Y-108589600D02*
X127786284Y-108541981D01*
X127786284Y-108541981D02*
X127738665Y-108541981D01*
X127738665Y-108541981D02*
X127643427Y-108589600D01*
X127643427Y-108589600D02*
X127595808Y-108684838D01*
X127595808Y-108684838D02*
X127595808Y-108827695D01*
X127595808Y-108827695D02*
X127643427Y-108922933D01*
X127595808Y-109303886D02*
X128262475Y-109541981D01*
X127595808Y-109780076D02*
X128262475Y-109541981D01*
X128262475Y-109541981D02*
X128500570Y-109446743D01*
X128500570Y-109446743D02*
X128548189Y-109399124D01*
X128548189Y-109399124D02*
X128595808Y-109303886D01*
X128262475Y-110589600D02*
X127262475Y-110589600D01*
X128214856Y-110589600D02*
X128262475Y-110494362D01*
X128262475Y-110494362D02*
X128262475Y-110303886D01*
X128262475Y-110303886D02*
X128214856Y-110208648D01*
X128214856Y-110208648D02*
X128167236Y-110161029D01*
X128167236Y-110161029D02*
X128071998Y-110113410D01*
X128071998Y-110113410D02*
X127786284Y-110113410D01*
X127786284Y-110113410D02*
X127691046Y-110161029D01*
X127691046Y-110161029D02*
X127643427Y-110208648D01*
X127643427Y-110208648D02*
X127595808Y-110303886D01*
X127595808Y-110303886D02*
X127595808Y-110494362D01*
X127595808Y-110494362D02*
X127643427Y-110589600D01*
X128214856Y-111446743D02*
X128262475Y-111351505D01*
X128262475Y-111351505D02*
X128262475Y-111161029D01*
X128262475Y-111161029D02*
X128214856Y-111065791D01*
X128214856Y-111065791D02*
X128119617Y-111018172D01*
X128119617Y-111018172D02*
X127738665Y-111018172D01*
X127738665Y-111018172D02*
X127643427Y-111065791D01*
X127643427Y-111065791D02*
X127595808Y-111161029D01*
X127595808Y-111161029D02*
X127595808Y-111351505D01*
X127595808Y-111351505D02*
X127643427Y-111446743D01*
X127643427Y-111446743D02*
X127738665Y-111494362D01*
X127738665Y-111494362D02*
X127833903Y-111494362D01*
X127833903Y-111494362D02*
X127929141Y-111018172D01*
X128262475Y-113256267D02*
X127786284Y-112922934D01*
X128262475Y-112684839D02*
X127262475Y-112684839D01*
X127262475Y-112684839D02*
X127262475Y-113065791D01*
X127262475Y-113065791D02*
X127310094Y-113161029D01*
X127310094Y-113161029D02*
X127357713Y-113208648D01*
X127357713Y-113208648D02*
X127452951Y-113256267D01*
X127452951Y-113256267D02*
X127595808Y-113256267D01*
X127595808Y-113256267D02*
X127691046Y-113208648D01*
X127691046Y-113208648D02*
X127738665Y-113161029D01*
X127738665Y-113161029D02*
X127786284Y-113065791D01*
X127786284Y-113065791D02*
X127786284Y-112684839D01*
X128214856Y-114065791D02*
X128262475Y-113970553D01*
X128262475Y-113970553D02*
X128262475Y-113780077D01*
X128262475Y-113780077D02*
X128214856Y-113684839D01*
X128214856Y-113684839D02*
X128119617Y-113637220D01*
X128119617Y-113637220D02*
X127738665Y-113637220D01*
X127738665Y-113637220D02*
X127643427Y-113684839D01*
X127643427Y-113684839D02*
X127595808Y-113780077D01*
X127595808Y-113780077D02*
X127595808Y-113970553D01*
X127595808Y-113970553D02*
X127643427Y-114065791D01*
X127643427Y-114065791D02*
X127738665Y-114113410D01*
X127738665Y-114113410D02*
X127833903Y-114113410D01*
X127833903Y-114113410D02*
X127929141Y-113637220D01*
X127595808Y-114399125D02*
X127595808Y-114780077D01*
X127262475Y-114541982D02*
X128119617Y-114541982D01*
X128119617Y-114541982D02*
X128214856Y-114589601D01*
X128214856Y-114589601D02*
X128262475Y-114684839D01*
X128262475Y-114684839D02*
X128262475Y-114780077D01*
X128262475Y-115113411D02*
X127595808Y-115113411D01*
X127786284Y-115113411D02*
X127691046Y-115161030D01*
X127691046Y-115161030D02*
X127643427Y-115208649D01*
X127643427Y-115208649D02*
X127595808Y-115303887D01*
X127595808Y-115303887D02*
X127595808Y-115399125D01*
X128262475Y-115875316D02*
X128214856Y-115780078D01*
X128214856Y-115780078D02*
X128167236Y-115732459D01*
X128167236Y-115732459D02*
X128071998Y-115684840D01*
X128071998Y-115684840D02*
X127786284Y-115684840D01*
X127786284Y-115684840D02*
X127691046Y-115732459D01*
X127691046Y-115732459D02*
X127643427Y-115780078D01*
X127643427Y-115780078D02*
X127595808Y-115875316D01*
X127595808Y-115875316D02*
X127595808Y-116018173D01*
X127595808Y-116018173D02*
X127643427Y-116113411D01*
X127643427Y-116113411D02*
X127691046Y-116161030D01*
X127691046Y-116161030D02*
X127786284Y-116208649D01*
X127786284Y-116208649D02*
X128071998Y-116208649D01*
X128071998Y-116208649D02*
X128167236Y-116161030D01*
X128167236Y-116161030D02*
X128214856Y-116113411D01*
X128214856Y-116113411D02*
X128262475Y-116018173D01*
X128262475Y-116018173D02*
X128262475Y-115875316D01*
X129872419Y-93303884D02*
X128872419Y-93303884D01*
X129872419Y-93732455D02*
X129348609Y-93732455D01*
X129348609Y-93732455D02*
X129253371Y-93684836D01*
X129253371Y-93684836D02*
X129205752Y-93589598D01*
X129205752Y-93589598D02*
X129205752Y-93446741D01*
X129205752Y-93446741D02*
X129253371Y-93351503D01*
X129253371Y-93351503D02*
X129300990Y-93303884D01*
X129205752Y-94065789D02*
X129205752Y-94446741D01*
X128872419Y-94208646D02*
X129729561Y-94208646D01*
X129729561Y-94208646D02*
X129824800Y-94256265D01*
X129824800Y-94256265D02*
X129872419Y-94351503D01*
X129872419Y-94351503D02*
X129872419Y-94446741D01*
X129205752Y-94637218D02*
X129205752Y-95018170D01*
X128872419Y-94780075D02*
X129729561Y-94780075D01*
X129729561Y-94780075D02*
X129824800Y-94827694D01*
X129824800Y-94827694D02*
X129872419Y-94922932D01*
X129872419Y-94922932D02*
X129872419Y-95018170D01*
X129205752Y-95351504D02*
X130205752Y-95351504D01*
X129253371Y-95351504D02*
X129205752Y-95446742D01*
X129205752Y-95446742D02*
X129205752Y-95637218D01*
X129205752Y-95637218D02*
X129253371Y-95732456D01*
X129253371Y-95732456D02*
X129300990Y-95780075D01*
X129300990Y-95780075D02*
X129396228Y-95827694D01*
X129396228Y-95827694D02*
X129681942Y-95827694D01*
X129681942Y-95827694D02*
X129777180Y-95780075D01*
X129777180Y-95780075D02*
X129824800Y-95732456D01*
X129824800Y-95732456D02*
X129872419Y-95637218D01*
X129872419Y-95637218D02*
X129872419Y-95446742D01*
X129872419Y-95446742D02*
X129824800Y-95351504D01*
X129824800Y-96208647D02*
X129872419Y-96303885D01*
X129872419Y-96303885D02*
X129872419Y-96494361D01*
X129872419Y-96494361D02*
X129824800Y-96589599D01*
X129824800Y-96589599D02*
X129729561Y-96637218D01*
X129729561Y-96637218D02*
X129681942Y-96637218D01*
X129681942Y-96637218D02*
X129586704Y-96589599D01*
X129586704Y-96589599D02*
X129539085Y-96494361D01*
X129539085Y-96494361D02*
X129539085Y-96351504D01*
X129539085Y-96351504D02*
X129491466Y-96256266D01*
X129491466Y-96256266D02*
X129396228Y-96208647D01*
X129396228Y-96208647D02*
X129348609Y-96208647D01*
X129348609Y-96208647D02*
X129253371Y-96256266D01*
X129253371Y-96256266D02*
X129205752Y-96351504D01*
X129205752Y-96351504D02*
X129205752Y-96494361D01*
X129205752Y-96494361D02*
X129253371Y-96589599D01*
X129777180Y-97065790D02*
X129824800Y-97113409D01*
X129824800Y-97113409D02*
X129872419Y-97065790D01*
X129872419Y-97065790D02*
X129824800Y-97018171D01*
X129824800Y-97018171D02*
X129777180Y-97065790D01*
X129777180Y-97065790D02*
X129872419Y-97065790D01*
X129253371Y-97065790D02*
X129300990Y-97113409D01*
X129300990Y-97113409D02*
X129348609Y-97065790D01*
X129348609Y-97065790D02*
X129300990Y-97018171D01*
X129300990Y-97018171D02*
X129253371Y-97065790D01*
X129253371Y-97065790D02*
X129348609Y-97065790D01*
X128824800Y-98256265D02*
X130110514Y-97399123D01*
X128824800Y-99303884D02*
X130110514Y-98446742D01*
X129205752Y-100065789D02*
X130015276Y-100065789D01*
X130015276Y-100065789D02*
X130110514Y-100018170D01*
X130110514Y-100018170D02*
X130158133Y-99970551D01*
X130158133Y-99970551D02*
X130205752Y-99875313D01*
X130205752Y-99875313D02*
X130205752Y-99732456D01*
X130205752Y-99732456D02*
X130158133Y-99637218D01*
X129824800Y-100065789D02*
X129872419Y-99970551D01*
X129872419Y-99970551D02*
X129872419Y-99780075D01*
X129872419Y-99780075D02*
X129824800Y-99684837D01*
X129824800Y-99684837D02*
X129777180Y-99637218D01*
X129777180Y-99637218D02*
X129681942Y-99589599D01*
X129681942Y-99589599D02*
X129396228Y-99589599D01*
X129396228Y-99589599D02*
X129300990Y-99637218D01*
X129300990Y-99637218D02*
X129253371Y-99684837D01*
X129253371Y-99684837D02*
X129205752Y-99780075D01*
X129205752Y-99780075D02*
X129205752Y-99970551D01*
X129205752Y-99970551D02*
X129253371Y-100065789D01*
X129872419Y-100541980D02*
X129205752Y-100541980D01*
X128872419Y-100541980D02*
X128920038Y-100494361D01*
X128920038Y-100494361D02*
X128967657Y-100541980D01*
X128967657Y-100541980D02*
X128920038Y-100589599D01*
X128920038Y-100589599D02*
X128872419Y-100541980D01*
X128872419Y-100541980D02*
X128967657Y-100541980D01*
X129205752Y-100875313D02*
X129205752Y-101256265D01*
X128872419Y-101018170D02*
X129729561Y-101018170D01*
X129729561Y-101018170D02*
X129824800Y-101065789D01*
X129824800Y-101065789D02*
X129872419Y-101161027D01*
X129872419Y-101161027D02*
X129872419Y-101256265D01*
X129872419Y-101589599D02*
X128872419Y-101589599D01*
X129872419Y-102018170D02*
X129348609Y-102018170D01*
X129348609Y-102018170D02*
X129253371Y-101970551D01*
X129253371Y-101970551D02*
X129205752Y-101875313D01*
X129205752Y-101875313D02*
X129205752Y-101732456D01*
X129205752Y-101732456D02*
X129253371Y-101637218D01*
X129253371Y-101637218D02*
X129300990Y-101589599D01*
X129205752Y-102922932D02*
X129872419Y-102922932D01*
X129205752Y-102494361D02*
X129729561Y-102494361D01*
X129729561Y-102494361D02*
X129824800Y-102541980D01*
X129824800Y-102541980D02*
X129872419Y-102637218D01*
X129872419Y-102637218D02*
X129872419Y-102780075D01*
X129872419Y-102780075D02*
X129824800Y-102875313D01*
X129824800Y-102875313D02*
X129777180Y-102922932D01*
X129872419Y-103399123D02*
X128872419Y-103399123D01*
X129253371Y-103399123D02*
X129205752Y-103494361D01*
X129205752Y-103494361D02*
X129205752Y-103684837D01*
X129205752Y-103684837D02*
X129253371Y-103780075D01*
X129253371Y-103780075D02*
X129300990Y-103827694D01*
X129300990Y-103827694D02*
X129396228Y-103875313D01*
X129396228Y-103875313D02*
X129681942Y-103875313D01*
X129681942Y-103875313D02*
X129777180Y-103827694D01*
X129777180Y-103827694D02*
X129824800Y-103780075D01*
X129824800Y-103780075D02*
X129872419Y-103684837D01*
X129872419Y-103684837D02*
X129872419Y-103494361D01*
X129872419Y-103494361D02*
X129824800Y-103399123D01*
X129777180Y-104303885D02*
X129824800Y-104351504D01*
X129824800Y-104351504D02*
X129872419Y-104303885D01*
X129872419Y-104303885D02*
X129824800Y-104256266D01*
X129824800Y-104256266D02*
X129777180Y-104303885D01*
X129777180Y-104303885D02*
X129872419Y-104303885D01*
X129824800Y-105208646D02*
X129872419Y-105113408D01*
X129872419Y-105113408D02*
X129872419Y-104922932D01*
X129872419Y-104922932D02*
X129824800Y-104827694D01*
X129824800Y-104827694D02*
X129777180Y-104780075D01*
X129777180Y-104780075D02*
X129681942Y-104732456D01*
X129681942Y-104732456D02*
X129396228Y-104732456D01*
X129396228Y-104732456D02*
X129300990Y-104780075D01*
X129300990Y-104780075D02*
X129253371Y-104827694D01*
X129253371Y-104827694D02*
X129205752Y-104922932D01*
X129205752Y-104922932D02*
X129205752Y-105113408D01*
X129205752Y-105113408D02*
X129253371Y-105208646D01*
X129872419Y-105780075D02*
X129824800Y-105684837D01*
X129824800Y-105684837D02*
X129777180Y-105637218D01*
X129777180Y-105637218D02*
X129681942Y-105589599D01*
X129681942Y-105589599D02*
X129396228Y-105589599D01*
X129396228Y-105589599D02*
X129300990Y-105637218D01*
X129300990Y-105637218D02*
X129253371Y-105684837D01*
X129253371Y-105684837D02*
X129205752Y-105780075D01*
X129205752Y-105780075D02*
X129205752Y-105922932D01*
X129205752Y-105922932D02*
X129253371Y-106018170D01*
X129253371Y-106018170D02*
X129300990Y-106065789D01*
X129300990Y-106065789D02*
X129396228Y-106113408D01*
X129396228Y-106113408D02*
X129681942Y-106113408D01*
X129681942Y-106113408D02*
X129777180Y-106065789D01*
X129777180Y-106065789D02*
X129824800Y-106018170D01*
X129824800Y-106018170D02*
X129872419Y-105922932D01*
X129872419Y-105922932D02*
X129872419Y-105780075D01*
X129872419Y-106541980D02*
X129205752Y-106541980D01*
X129300990Y-106541980D02*
X129253371Y-106589599D01*
X129253371Y-106589599D02*
X129205752Y-106684837D01*
X129205752Y-106684837D02*
X129205752Y-106827694D01*
X129205752Y-106827694D02*
X129253371Y-106922932D01*
X129253371Y-106922932D02*
X129348609Y-106970551D01*
X129348609Y-106970551D02*
X129872419Y-106970551D01*
X129348609Y-106970551D02*
X129253371Y-107018170D01*
X129253371Y-107018170D02*
X129205752Y-107113408D01*
X129205752Y-107113408D02*
X129205752Y-107256265D01*
X129205752Y-107256265D02*
X129253371Y-107351504D01*
X129253371Y-107351504D02*
X129348609Y-107399123D01*
X129348609Y-107399123D02*
X129872419Y-107399123D01*
X128824800Y-108589598D02*
X130110514Y-107732456D01*
X129872419Y-108922932D02*
X129205752Y-108922932D01*
X129396228Y-108922932D02*
X129300990Y-108970551D01*
X129300990Y-108970551D02*
X129253371Y-109018170D01*
X129253371Y-109018170D02*
X129205752Y-109113408D01*
X129205752Y-109113408D02*
X129205752Y-109208646D01*
X129872419Y-109684837D02*
X129824800Y-109589599D01*
X129824800Y-109589599D02*
X129777180Y-109541980D01*
X129777180Y-109541980D02*
X129681942Y-109494361D01*
X129681942Y-109494361D02*
X129396228Y-109494361D01*
X129396228Y-109494361D02*
X129300990Y-109541980D01*
X129300990Y-109541980D02*
X129253371Y-109589599D01*
X129253371Y-109589599D02*
X129205752Y-109684837D01*
X129205752Y-109684837D02*
X129205752Y-109827694D01*
X129205752Y-109827694D02*
X129253371Y-109922932D01*
X129253371Y-109922932D02*
X129300990Y-109970551D01*
X129300990Y-109970551D02*
X129396228Y-110018170D01*
X129396228Y-110018170D02*
X129681942Y-110018170D01*
X129681942Y-110018170D02*
X129777180Y-109970551D01*
X129777180Y-109970551D02*
X129824800Y-109922932D01*
X129824800Y-109922932D02*
X129872419Y-109827694D01*
X129872419Y-109827694D02*
X129872419Y-109684837D01*
X129872419Y-110875313D02*
X128872419Y-110875313D01*
X129824800Y-110875313D02*
X129872419Y-110780075D01*
X129872419Y-110780075D02*
X129872419Y-110589599D01*
X129872419Y-110589599D02*
X129824800Y-110494361D01*
X129824800Y-110494361D02*
X129777180Y-110446742D01*
X129777180Y-110446742D02*
X129681942Y-110399123D01*
X129681942Y-110399123D02*
X129396228Y-110399123D01*
X129396228Y-110399123D02*
X129300990Y-110446742D01*
X129300990Y-110446742D02*
X129253371Y-110494361D01*
X129253371Y-110494361D02*
X129205752Y-110589599D01*
X129205752Y-110589599D02*
X129205752Y-110780075D01*
X129205752Y-110780075D02*
X129253371Y-110875313D01*
X129872419Y-111780075D02*
X128872419Y-111780075D01*
X129824800Y-111780075D02*
X129872419Y-111684837D01*
X129872419Y-111684837D02*
X129872419Y-111494361D01*
X129872419Y-111494361D02*
X129824800Y-111399123D01*
X129824800Y-111399123D02*
X129777180Y-111351504D01*
X129777180Y-111351504D02*
X129681942Y-111303885D01*
X129681942Y-111303885D02*
X129396228Y-111303885D01*
X129396228Y-111303885D02*
X129300990Y-111351504D01*
X129300990Y-111351504D02*
X129253371Y-111399123D01*
X129253371Y-111399123D02*
X129205752Y-111494361D01*
X129205752Y-111494361D02*
X129205752Y-111684837D01*
X129205752Y-111684837D02*
X129253371Y-111780075D01*
X129824800Y-112637218D02*
X129872419Y-112541980D01*
X129872419Y-112541980D02*
X129872419Y-112351504D01*
X129872419Y-112351504D02*
X129824800Y-112256266D01*
X129824800Y-112256266D02*
X129729561Y-112208647D01*
X129729561Y-112208647D02*
X129348609Y-112208647D01*
X129348609Y-112208647D02*
X129253371Y-112256266D01*
X129253371Y-112256266D02*
X129205752Y-112351504D01*
X129205752Y-112351504D02*
X129205752Y-112541980D01*
X129205752Y-112541980D02*
X129253371Y-112637218D01*
X129253371Y-112637218D02*
X129348609Y-112684837D01*
X129348609Y-112684837D02*
X129443847Y-112684837D01*
X129443847Y-112684837D02*
X129539085Y-112208647D01*
X129872419Y-113113409D02*
X129205752Y-113113409D01*
X129396228Y-113113409D02*
X129300990Y-113161028D01*
X129300990Y-113161028D02*
X129253371Y-113208647D01*
X129253371Y-113208647D02*
X129205752Y-113303885D01*
X129205752Y-113303885D02*
X129205752Y-113399123D01*
X129824800Y-113684838D02*
X129872419Y-113780076D01*
X129872419Y-113780076D02*
X129872419Y-113970552D01*
X129872419Y-113970552D02*
X129824800Y-114065790D01*
X129824800Y-114065790D02*
X129729561Y-114113409D01*
X129729561Y-114113409D02*
X129681942Y-114113409D01*
X129681942Y-114113409D02*
X129586704Y-114065790D01*
X129586704Y-114065790D02*
X129539085Y-113970552D01*
X129539085Y-113970552D02*
X129539085Y-113827695D01*
X129539085Y-113827695D02*
X129491466Y-113732457D01*
X129491466Y-113732457D02*
X129396228Y-113684838D01*
X129396228Y-113684838D02*
X129348609Y-113684838D01*
X129348609Y-113684838D02*
X129253371Y-113732457D01*
X129253371Y-113732457D02*
X129205752Y-113827695D01*
X129205752Y-113827695D02*
X129205752Y-113970552D01*
X129205752Y-113970552D02*
X129253371Y-114065790D01*
X129205752Y-114970552D02*
X129872419Y-114970552D01*
X129205752Y-114541981D02*
X129729561Y-114541981D01*
X129729561Y-114541981D02*
X129824800Y-114589600D01*
X129824800Y-114589600D02*
X129872419Y-114684838D01*
X129872419Y-114684838D02*
X129872419Y-114827695D01*
X129872419Y-114827695D02*
X129824800Y-114922933D01*
X129824800Y-114922933D02*
X129777180Y-114970552D01*
X129872419Y-115446743D02*
X128872419Y-115446743D01*
X129491466Y-115541981D02*
X129872419Y-115827695D01*
X129205752Y-115827695D02*
X129586704Y-115446743D01*
X128824800Y-116970552D02*
X130110514Y-116113410D01*
X129586704Y-117256267D02*
X129586704Y-117732457D01*
X129872419Y-117161029D02*
X128872419Y-117494362D01*
X128872419Y-117494362D02*
X129872419Y-117827695D01*
X129205752Y-118161029D02*
X130205752Y-118161029D01*
X129253371Y-118161029D02*
X129205752Y-118256267D01*
X129205752Y-118256267D02*
X129205752Y-118446743D01*
X129205752Y-118446743D02*
X129253371Y-118541981D01*
X129253371Y-118541981D02*
X129300990Y-118589600D01*
X129300990Y-118589600D02*
X129396228Y-118637219D01*
X129396228Y-118637219D02*
X129681942Y-118637219D01*
X129681942Y-118637219D02*
X129777180Y-118589600D01*
X129777180Y-118589600D02*
X129824800Y-118541981D01*
X129824800Y-118541981D02*
X129872419Y-118446743D01*
X129872419Y-118446743D02*
X129872419Y-118256267D01*
X129872419Y-118256267D02*
X129824800Y-118161029D01*
X129205752Y-119065791D02*
X130205752Y-119065791D01*
X129253371Y-119065791D02*
X129205752Y-119161029D01*
X129205752Y-119161029D02*
X129205752Y-119351505D01*
X129205752Y-119351505D02*
X129253371Y-119446743D01*
X129253371Y-119446743D02*
X129300990Y-119494362D01*
X129300990Y-119494362D02*
X129396228Y-119541981D01*
X129396228Y-119541981D02*
X129681942Y-119541981D01*
X129681942Y-119541981D02*
X129777180Y-119494362D01*
X129777180Y-119494362D02*
X129824800Y-119446743D01*
X129824800Y-119446743D02*
X129872419Y-119351505D01*
X129872419Y-119351505D02*
X129872419Y-119161029D01*
X129872419Y-119161029D02*
X129824800Y-119065791D01*
X129872419Y-120113410D02*
X129824800Y-120018172D01*
X129824800Y-120018172D02*
X129729561Y-119970553D01*
X129729561Y-119970553D02*
X128872419Y-119970553D01*
X129824800Y-120875315D02*
X129872419Y-120780077D01*
X129872419Y-120780077D02*
X129872419Y-120589601D01*
X129872419Y-120589601D02*
X129824800Y-120494363D01*
X129824800Y-120494363D02*
X129729561Y-120446744D01*
X129729561Y-120446744D02*
X129348609Y-120446744D01*
X129348609Y-120446744D02*
X129253371Y-120494363D01*
X129253371Y-120494363D02*
X129205752Y-120589601D01*
X129205752Y-120589601D02*
X129205752Y-120780077D01*
X129205752Y-120780077D02*
X129253371Y-120875315D01*
X129253371Y-120875315D02*
X129348609Y-120922934D01*
X129348609Y-120922934D02*
X129443847Y-120922934D01*
X129443847Y-120922934D02*
X129539085Y-120446744D01*
X129491466Y-121351506D02*
X129491466Y-122113411D01*
X129872419Y-122589601D02*
X128872419Y-122589601D01*
X129872419Y-123065791D02*
X128872419Y-123065791D01*
X129824800Y-123970552D02*
X129872419Y-123875314D01*
X129872419Y-123875314D02*
X129872419Y-123684838D01*
X129872419Y-123684838D02*
X129824800Y-123589600D01*
X129824800Y-123589600D02*
X129777180Y-123541981D01*
X129777180Y-123541981D02*
X129681942Y-123494362D01*
X129681942Y-123494362D02*
X129396228Y-123494362D01*
X129396228Y-123494362D02*
X129300990Y-123541981D01*
X129300990Y-123541981D02*
X129253371Y-123589600D01*
X129253371Y-123589600D02*
X129205752Y-123684838D01*
X129205752Y-123684838D02*
X129205752Y-123875314D01*
X129205752Y-123875314D02*
X129253371Y-123970552D01*
X129872419Y-124303886D02*
X129205752Y-124827695D01*
X129205752Y-124303886D02*
X129872419Y-124827695D01*
X129491466Y-125208648D02*
X129491466Y-125970553D01*
X129872419Y-126446743D02*
X128872419Y-126446743D01*
X128872419Y-126446743D02*
X128872419Y-126827695D01*
X128872419Y-126827695D02*
X128920038Y-126922933D01*
X128920038Y-126922933D02*
X128967657Y-126970552D01*
X128967657Y-126970552D02*
X129062895Y-127018171D01*
X129062895Y-127018171D02*
X129205752Y-127018171D01*
X129205752Y-127018171D02*
X129300990Y-126970552D01*
X129300990Y-126970552D02*
X129348609Y-126922933D01*
X129348609Y-126922933D02*
X129396228Y-126827695D01*
X129396228Y-126827695D02*
X129396228Y-126446743D01*
X129824800Y-127399124D02*
X129872419Y-127541981D01*
X129872419Y-127541981D02*
X129872419Y-127780076D01*
X129872419Y-127780076D02*
X129824800Y-127875314D01*
X129824800Y-127875314D02*
X129777180Y-127922933D01*
X129777180Y-127922933D02*
X129681942Y-127970552D01*
X129681942Y-127970552D02*
X129586704Y-127970552D01*
X129586704Y-127970552D02*
X129491466Y-127922933D01*
X129491466Y-127922933D02*
X129443847Y-127875314D01*
X129443847Y-127875314D02*
X129396228Y-127780076D01*
X129396228Y-127780076D02*
X129348609Y-127589600D01*
X129348609Y-127589600D02*
X129300990Y-127494362D01*
X129300990Y-127494362D02*
X129253371Y-127446743D01*
X129253371Y-127446743D02*
X129158133Y-127399124D01*
X129158133Y-127399124D02*
X129062895Y-127399124D01*
X129062895Y-127399124D02*
X128967657Y-127446743D01*
X128967657Y-127446743D02*
X128920038Y-127494362D01*
X128920038Y-127494362D02*
X128872419Y-127589600D01*
X128872419Y-127589600D02*
X128872419Y-127827695D01*
X128872419Y-127827695D02*
X128920038Y-127970552D01*
X128872419Y-128399124D02*
X129681942Y-128399124D01*
X129681942Y-128399124D02*
X129777180Y-128446743D01*
X129777180Y-128446743D02*
X129824800Y-128494362D01*
X129824800Y-128494362D02*
X129872419Y-128589600D01*
X129872419Y-128589600D02*
X129872419Y-128780076D01*
X129872419Y-128780076D02*
X129824800Y-128875314D01*
X129824800Y-128875314D02*
X129777180Y-128922933D01*
X129777180Y-128922933D02*
X129681942Y-128970552D01*
X129681942Y-128970552D02*
X128872419Y-128970552D01*
X129491466Y-129446743D02*
X129491466Y-130208648D01*
X129586704Y-130637219D02*
X129586704Y-131113409D01*
X129872419Y-130541981D02*
X128872419Y-130875314D01*
X128872419Y-130875314D02*
X129872419Y-131208647D01*
X128872419Y-131399124D02*
X128872419Y-131970552D01*
X129872419Y-131684838D02*
X128872419Y-131684838D01*
X128872419Y-132208648D02*
X129872419Y-132875314D01*
X128872419Y-132875314D02*
X129872419Y-132208648D01*
X129491466Y-133256267D02*
X129491466Y-134018172D01*
X129586704Y-134446743D02*
X129586704Y-134922933D01*
X129872419Y-134351505D02*
X128872419Y-134684838D01*
X128872419Y-134684838D02*
X129872419Y-135018171D01*
X129872419Y-135780076D02*
X128872419Y-135780076D01*
X129824800Y-135780076D02*
X129872419Y-135684838D01*
X129872419Y-135684838D02*
X129872419Y-135494362D01*
X129872419Y-135494362D02*
X129824800Y-135399124D01*
X129824800Y-135399124D02*
X129777180Y-135351505D01*
X129777180Y-135351505D02*
X129681942Y-135303886D01*
X129681942Y-135303886D02*
X129396228Y-135303886D01*
X129396228Y-135303886D02*
X129300990Y-135351505D01*
X129300990Y-135351505D02*
X129253371Y-135399124D01*
X129253371Y-135399124D02*
X129205752Y-135494362D01*
X129205752Y-135494362D02*
X129205752Y-135684838D01*
X129205752Y-135684838D02*
X129253371Y-135780076D01*
X129872419Y-136684838D02*
X129348609Y-136684838D01*
X129348609Y-136684838D02*
X129253371Y-136637219D01*
X129253371Y-136637219D02*
X129205752Y-136541981D01*
X129205752Y-136541981D02*
X129205752Y-136351505D01*
X129205752Y-136351505D02*
X129253371Y-136256267D01*
X129824800Y-136684838D02*
X129872419Y-136589600D01*
X129872419Y-136589600D02*
X129872419Y-136351505D01*
X129872419Y-136351505D02*
X129824800Y-136256267D01*
X129824800Y-136256267D02*
X129729561Y-136208648D01*
X129729561Y-136208648D02*
X129634323Y-136208648D01*
X129634323Y-136208648D02*
X129539085Y-136256267D01*
X129539085Y-136256267D02*
X129491466Y-136351505D01*
X129491466Y-136351505D02*
X129491466Y-136589600D01*
X129491466Y-136589600D02*
X129443847Y-136684838D01*
X129205752Y-137161029D02*
X130205752Y-137161029D01*
X129253371Y-137161029D02*
X129205752Y-137256267D01*
X129205752Y-137256267D02*
X129205752Y-137446743D01*
X129205752Y-137446743D02*
X129253371Y-137541981D01*
X129253371Y-137541981D02*
X129300990Y-137589600D01*
X129300990Y-137589600D02*
X129396228Y-137637219D01*
X129396228Y-137637219D02*
X129681942Y-137637219D01*
X129681942Y-137637219D02*
X129777180Y-137589600D01*
X129777180Y-137589600D02*
X129824800Y-137541981D01*
X129824800Y-137541981D02*
X129872419Y-137446743D01*
X129872419Y-137446743D02*
X129872419Y-137256267D01*
X129872419Y-137256267D02*
X129824800Y-137161029D01*
X129205752Y-137922934D02*
X129205752Y-138303886D01*
X128872419Y-138065791D02*
X129729561Y-138065791D01*
X129729561Y-138065791D02*
X129824800Y-138113410D01*
X129824800Y-138113410D02*
X129872419Y-138208648D01*
X129872419Y-138208648D02*
X129872419Y-138303886D01*
X129824800Y-139018172D02*
X129872419Y-138922934D01*
X129872419Y-138922934D02*
X129872419Y-138732458D01*
X129872419Y-138732458D02*
X129824800Y-138637220D01*
X129824800Y-138637220D02*
X129729561Y-138589601D01*
X129729561Y-138589601D02*
X129348609Y-138589601D01*
X129348609Y-138589601D02*
X129253371Y-138637220D01*
X129253371Y-138637220D02*
X129205752Y-138732458D01*
X129205752Y-138732458D02*
X129205752Y-138922934D01*
X129205752Y-138922934D02*
X129253371Y-139018172D01*
X129253371Y-139018172D02*
X129348609Y-139065791D01*
X129348609Y-139065791D02*
X129443847Y-139065791D01*
X129443847Y-139065791D02*
X129539085Y-138589601D01*
X129872419Y-139494363D02*
X129205752Y-139494363D01*
X129396228Y-139494363D02*
X129300990Y-139541982D01*
X129300990Y-139541982D02*
X129253371Y-139589601D01*
X129253371Y-139589601D02*
X129205752Y-139684839D01*
X129205752Y-139684839D02*
X129205752Y-139780077D01*
X165638789Y-147353167D02*
X165734027Y-147305548D01*
X165734027Y-147305548D02*
X165876884Y-147305548D01*
X165876884Y-147305548D02*
X166019741Y-147353167D01*
X166019741Y-147353167D02*
X166114979Y-147448405D01*
X166114979Y-147448405D02*
X166162598Y-147543643D01*
X166162598Y-147543643D02*
X166210217Y-147734119D01*
X166210217Y-147734119D02*
X166210217Y-147876976D01*
X166210217Y-147876976D02*
X166162598Y-148067452D01*
X166162598Y-148067452D02*
X166114979Y-148162690D01*
X166114979Y-148162690D02*
X166019741Y-148257929D01*
X166019741Y-148257929D02*
X165876884Y-148305548D01*
X165876884Y-148305548D02*
X165781646Y-148305548D01*
X165781646Y-148305548D02*
X165638789Y-148257929D01*
X165638789Y-148257929D02*
X165591170Y-148210309D01*
X165591170Y-148210309D02*
X165591170Y-147876976D01*
X165591170Y-147876976D02*
X165781646Y-147876976D01*
X165162598Y-148305548D02*
X165162598Y-147305548D01*
X165162598Y-147305548D02*
X164591170Y-148305548D01*
X164591170Y-148305548D02*
X164591170Y-147305548D01*
X164114979Y-148305548D02*
X164114979Y-147305548D01*
X164114979Y-147305548D02*
X163876884Y-147305548D01*
X163876884Y-147305548D02*
X163734027Y-147353167D01*
X163734027Y-147353167D02*
X163638789Y-147448405D01*
X163638789Y-147448405D02*
X163591170Y-147543643D01*
X163591170Y-147543643D02*
X163543551Y-147734119D01*
X163543551Y-147734119D02*
X163543551Y-147876976D01*
X163543551Y-147876976D02*
X163591170Y-148067452D01*
X163591170Y-148067452D02*
X163638789Y-148162690D01*
X163638789Y-148162690D02*
X163734027Y-148257929D01*
X163734027Y-148257929D02*
X163876884Y-148305548D01*
X163876884Y-148305548D02*
X164114979Y-148305548D01*
X175654561Y-91537060D02*
X175654561Y-91060870D01*
X175654561Y-91060870D02*
X174654561Y-91060870D01*
X167383752Y-153925694D02*
X166621848Y-153925694D01*
X167002800Y-154306647D02*
X167002800Y-153544742D01*
X165669467Y-153306647D02*
X166145657Y-153306647D01*
X166145657Y-153306647D02*
X166193276Y-153782837D01*
X166193276Y-153782837D02*
X166145657Y-153735218D01*
X166145657Y-153735218D02*
X166050419Y-153687599D01*
X166050419Y-153687599D02*
X165812324Y-153687599D01*
X165812324Y-153687599D02*
X165717086Y-153735218D01*
X165717086Y-153735218D02*
X165669467Y-153782837D01*
X165669467Y-153782837D02*
X165621848Y-153878075D01*
X165621848Y-153878075D02*
X165621848Y-154116170D01*
X165621848Y-154116170D02*
X165669467Y-154211408D01*
X165669467Y-154211408D02*
X165717086Y-154259028D01*
X165717086Y-154259028D02*
X165812324Y-154306647D01*
X165812324Y-154306647D02*
X166050419Y-154306647D01*
X166050419Y-154306647D02*
X166145657Y-154259028D01*
X166145657Y-154259028D02*
X166193276Y-154211408D01*
X165336133Y-153306647D02*
X165002800Y-154306647D01*
X165002800Y-154306647D02*
X164669467Y-153306647D01*
X164383752Y-154259028D02*
X164240895Y-154306647D01*
X164240895Y-154306647D02*
X164002800Y-154306647D01*
X164002800Y-154306647D02*
X163907562Y-154259028D01*
X163907562Y-154259028D02*
X163859943Y-154211408D01*
X163859943Y-154211408D02*
X163812324Y-154116170D01*
X163812324Y-154116170D02*
X163812324Y-154020932D01*
X163812324Y-154020932D02*
X163859943Y-153925694D01*
X163859943Y-153925694D02*
X163907562Y-153878075D01*
X163907562Y-153878075D02*
X164002800Y-153830456D01*
X164002800Y-153830456D02*
X164193276Y-153782837D01*
X164193276Y-153782837D02*
X164288514Y-153735218D01*
X164288514Y-153735218D02*
X164336133Y-153687599D01*
X164336133Y-153687599D02*
X164383752Y-153592361D01*
X164383752Y-153592361D02*
X164383752Y-153497123D01*
X164383752Y-153497123D02*
X164336133Y-153401885D01*
X164336133Y-153401885D02*
X164288514Y-153354266D01*
X164288514Y-153354266D02*
X164193276Y-153306647D01*
X164193276Y-153306647D02*
X163955181Y-153306647D01*
X163955181Y-153306647D02*
X163812324Y-153354266D01*
X163050419Y-153782837D02*
X162907562Y-153830456D01*
X162907562Y-153830456D02*
X162859943Y-153878075D01*
X162859943Y-153878075D02*
X162812324Y-153973313D01*
X162812324Y-153973313D02*
X162812324Y-154116170D01*
X162812324Y-154116170D02*
X162859943Y-154211408D01*
X162859943Y-154211408D02*
X162907562Y-154259028D01*
X162907562Y-154259028D02*
X163002800Y-154306647D01*
X163002800Y-154306647D02*
X163383752Y-154306647D01*
X163383752Y-154306647D02*
X163383752Y-153306647D01*
X163383752Y-153306647D02*
X163050419Y-153306647D01*
X163050419Y-153306647D02*
X162955181Y-153354266D01*
X162955181Y-153354266D02*
X162907562Y-153401885D01*
X162907562Y-153401885D02*
X162859943Y-153497123D01*
X162859943Y-153497123D02*
X162859943Y-153592361D01*
X162859943Y-153592361D02*
X162907562Y-153687599D01*
X162907562Y-153687599D02*
X162955181Y-153735218D01*
X162955181Y-153735218D02*
X163050419Y-153782837D01*
X163050419Y-153782837D02*
X163383752Y-153782837D01*
X134412141Y-153424046D02*
X134507379Y-153376427D01*
X134507379Y-153376427D02*
X134650236Y-153376427D01*
X134650236Y-153376427D02*
X134793093Y-153424046D01*
X134793093Y-153424046D02*
X134888331Y-153519284D01*
X134888331Y-153519284D02*
X134935950Y-153614522D01*
X134935950Y-153614522D02*
X134983569Y-153804998D01*
X134983569Y-153804998D02*
X134983569Y-153947855D01*
X134983569Y-153947855D02*
X134935950Y-154138331D01*
X134935950Y-154138331D02*
X134888331Y-154233569D01*
X134888331Y-154233569D02*
X134793093Y-154328808D01*
X134793093Y-154328808D02*
X134650236Y-154376427D01*
X134650236Y-154376427D02*
X134554998Y-154376427D01*
X134554998Y-154376427D02*
X134412141Y-154328808D01*
X134412141Y-154328808D02*
X134364522Y-154281188D01*
X134364522Y-154281188D02*
X134364522Y-153947855D01*
X134364522Y-153947855D02*
X134554998Y-153947855D01*
X133935950Y-154376427D02*
X133935950Y-153376427D01*
X133935950Y-153376427D02*
X133364522Y-154376427D01*
X133364522Y-154376427D02*
X133364522Y-153376427D01*
X132888331Y-154376427D02*
X132888331Y-153376427D01*
X132888331Y-153376427D02*
X132650236Y-153376427D01*
X132650236Y-153376427D02*
X132507379Y-153424046D01*
X132507379Y-153424046D02*
X132412141Y-153519284D01*
X132412141Y-153519284D02*
X132364522Y-153614522D01*
X132364522Y-153614522D02*
X132316903Y-153804998D01*
X132316903Y-153804998D02*
X132316903Y-153947855D01*
X132316903Y-153947855D02*
X132364522Y-154138331D01*
X132364522Y-154138331D02*
X132412141Y-154233569D01*
X132412141Y-154233569D02*
X132507379Y-154328808D01*
X132507379Y-154328808D02*
X132650236Y-154376427D01*
X132650236Y-154376427D02*
X132888331Y-154376427D01*
X175689451Y-98597134D02*
X174689451Y-98597134D01*
X174689451Y-98597134D02*
X175689451Y-99168562D01*
X175689451Y-99168562D02*
X174689451Y-99168562D01*
X151264521Y-147994375D02*
X150502617Y-147994375D01*
X150883569Y-148375328D02*
X150883569Y-147613423D01*
X149550236Y-147375328D02*
X150026426Y-147375328D01*
X150026426Y-147375328D02*
X150074045Y-147851518D01*
X150074045Y-147851518D02*
X150026426Y-147803899D01*
X150026426Y-147803899D02*
X149931188Y-147756280D01*
X149931188Y-147756280D02*
X149693093Y-147756280D01*
X149693093Y-147756280D02*
X149597855Y-147803899D01*
X149597855Y-147803899D02*
X149550236Y-147851518D01*
X149550236Y-147851518D02*
X149502617Y-147946756D01*
X149502617Y-147946756D02*
X149502617Y-148184851D01*
X149502617Y-148184851D02*
X149550236Y-148280089D01*
X149550236Y-148280089D02*
X149597855Y-148327709D01*
X149597855Y-148327709D02*
X149693093Y-148375328D01*
X149693093Y-148375328D02*
X149931188Y-148375328D01*
X149931188Y-148375328D02*
X150026426Y-148327709D01*
X150026426Y-148327709D02*
X150074045Y-148280089D01*
X149216902Y-147375328D02*
X148883569Y-148375328D01*
X148883569Y-148375328D02*
X148550236Y-147375328D01*
%LPC*%
D11*
X143975000Y-136975000D03*
D12*
X146515000Y-136975000D03*
D13*
X139975000Y-111975000D03*
D14*
X147595000Y-111975000D03*
D13*
X143515000Y-122355000D03*
D14*
X140975000Y-122355000D03*
X140975000Y-129975000D03*
X143515000Y-129975000D03*
D15*
X133775000Y-150925000D03*
D16*
X141575000Y-150925000D03*
X149375000Y-150925000D03*
X157175000Y-150925000D03*
X164975000Y-150925000D03*
D17*
X140785000Y-136975000D03*
D18*
X133165000Y-136975000D03*
D17*
X150595000Y-129975000D03*
D18*
X150595000Y-122355000D03*
D19*
X171975000Y-91175000D03*
D16*
X171975000Y-98975000D03*
D20*
X126475000Y-150975000D03*
D21*
X157625000Y-136975000D03*
D22*
X157625000Y-132775000D03*
X157625000Y-128575000D03*
X157625000Y-124375000D03*
X157625000Y-120175000D03*
X157625000Y-115975000D03*
X157625000Y-111775000D03*
X157625000Y-107575000D03*
X157625000Y-103375000D03*
X157625000Y-99175000D03*
X157625000Y-94975000D03*
X157625000Y-90775000D03*
X161825000Y-136975000D03*
X161825000Y-132775000D03*
X161825000Y-128575000D03*
X161825000Y-124375000D03*
X161825000Y-120175000D03*
X161825000Y-115975000D03*
X161825000Y-111775000D03*
X161825000Y-107575000D03*
X161825000Y-103375000D03*
X161825000Y-99175000D03*
X161825000Y-94975000D03*
X161825000Y-90775000D03*
D20*
X172475000Y-150975000D03*
X126475000Y-82975000D03*
D23*
X141925000Y-107125000D03*
D24*
X147975000Y-105175000D03*
D23*
X147975000Y-92975000D03*
X135925000Y-92925000D03*
D24*
X135975000Y-105175000D03*
D25*
X144975000Y-117975000D03*
X139975000Y-117975000D03*
D20*
X172475000Y-80975000D03*
D15*
X133775000Y-144975000D03*
D16*
X141575000Y-144975000D03*
X149375000Y-144975000D03*
X157175000Y-144975000D03*
X164975000Y-144975000D03*
D26*
X152975000Y-82975000D03*
D27*
X149015000Y-82975000D03*
X145055000Y-82975000D03*
X141095000Y-82975000D03*
X137135000Y-82975000D03*
D28*
X172575000Y-107975000D03*
D29*
X172575000Y-110475000D03*
%LPD*%
M02*
