%TF.GenerationSoftware,KiCad,Pcbnew,8.0.5*%
%TF.CreationDate,2024-11-13T07:16:51+00:00*%
%TF.ProjectId,PSU Adapter 2,50535520-4164-4617-9074-657220322e6b,0.2*%
%TF.SameCoordinates,Original*%
%TF.FileFunction,Drillmap*%
%TF.FilePolarity,Positive*%
%FSLAX45Y45*%
G04 Gerber Fmt 4.5, Leading zero omitted, Abs format (unit mm)*
G04 Created by KiCad (PCBNEW 8.0.5) date 2024-11-13 07:16:51*
%MOMM*%
%LPD*%
G01*
G04 APERTURE LIST*
%ADD10C,0.050000*%
%ADD11C,0.200000*%
%ADD12C,0.100000*%
%ADD13C,0.130000*%
%ADD14C,0.140000*%
%ADD15C,0.170000*%
%ADD16C,0.250000*%
%ADD17C,0.370000*%
G04 APERTURE END LIST*
D10*
X10000000Y-10000000D02*
X15500000Y-10000000D01*
X15500000Y-18000000D01*
X10000000Y-18000000D01*
X10000000Y-10000000D01*
D11*
D12*
X11084000Y-16065000D02*
X11154000Y-16135000D01*
X11154000Y-16065000D02*
X11084000Y-16135000D01*
X11846000Y-16065000D02*
X11916000Y-16135000D01*
X11916000Y-16065000D02*
X11846000Y-16135000D01*
X12827000Y-14603000D02*
X12897000Y-14673000D01*
X12897000Y-14603000D02*
X12827000Y-14673000D01*
X12827000Y-15365000D02*
X12897000Y-15435000D01*
X12897000Y-15365000D02*
X12827000Y-15435000D01*
X15137500Y-13200000D02*
G75*
G02*
X15062500Y-13200000I-37500J0D01*
G01*
X15062500Y-13200000D02*
G75*
G02*
X15137500Y-13200000I37500J0D01*
G01*
X15137500Y-13400000D02*
G75*
G02*
X15062500Y-13400000I-37500J0D01*
G01*
X15062500Y-13400000D02*
G75*
G02*
X15137500Y-13400000I37500J0D01*
G01*
X11800000Y-13560000D02*
X11800000Y-13640000D01*
X11760000Y-13600000D02*
X11840000Y-13600000D01*
X11800000Y-14160000D02*
X11800000Y-14240000D01*
X11760000Y-14200000D02*
X11840000Y-14200000D01*
X11900000Y-14598000D02*
X11900000Y-14678000D01*
X11860000Y-14638000D02*
X11940000Y-14638000D01*
X11900000Y-15360000D02*
X11900000Y-15440000D01*
X11860000Y-15400000D02*
X11940000Y-15400000D01*
X12154000Y-14598000D02*
X12154000Y-14678000D01*
X12114000Y-14638000D02*
X12194000Y-14638000D01*
X12154000Y-15360000D02*
X12154000Y-15440000D01*
X12114000Y-15400000D02*
X12194000Y-15400000D01*
X12300000Y-14160000D02*
X12300000Y-14240000D01*
X12260000Y-14200000D02*
X12340000Y-14200000D01*
X12562000Y-13560000D02*
X12562000Y-13640000D01*
X12522000Y-13600000D02*
X12602000Y-13600000D01*
X12231820Y-16131820D02*
X12231820Y-16068180D01*
X12168180Y-16068180D01*
X12168180Y-16131820D01*
X12231820Y-16131820D01*
X12485820Y-16131820D02*
X12485820Y-16068180D01*
X12422180Y-16068180D01*
X12422180Y-16131820D01*
X12485820Y-16131820D01*
X11405000Y-12970000D02*
X11455000Y-12920000D01*
X11405000Y-12870000D01*
X11355000Y-12920000D01*
X11405000Y-12970000D01*
X12605000Y-12970000D02*
X12655000Y-12920000D01*
X12605000Y-12870000D01*
X12555000Y-12920000D01*
X12605000Y-12970000D01*
D13*
X11935000Y-13050000D02*
X12065000Y-13180000D01*
X12065000Y-13050000D02*
X11935000Y-13180000D01*
X12065000Y-13115000D02*
G75*
G02*
X11935000Y-13115000I-65000J0D01*
G01*
X11935000Y-13115000D02*
G75*
G02*
X12065000Y-13115000I65000J0D01*
G01*
X12540000Y-11635000D02*
X12670000Y-11765000D01*
X12670000Y-11635000D02*
X12540000Y-11765000D01*
X12670000Y-11700000D02*
G75*
G02*
X12540000Y-11700000I-65000J0D01*
G01*
X12540000Y-11700000D02*
G75*
G02*
X12670000Y-11700000I65000J0D01*
G01*
D14*
X13380000Y-12190000D02*
X13520000Y-12330000D01*
X13520000Y-12190000D02*
X13380000Y-12330000D01*
X13450000Y-12190000D02*
X13450000Y-12330000D01*
X13380000Y-12260000D02*
X13520000Y-12260000D01*
X13380000Y-12610000D02*
X13520000Y-12750000D01*
X13520000Y-12610000D02*
X13380000Y-12750000D01*
X13450000Y-12610000D02*
X13450000Y-12750000D01*
X13380000Y-12680000D02*
X13520000Y-12680000D01*
X13380000Y-13030000D02*
X13520000Y-13170000D01*
X13520000Y-13030000D02*
X13380000Y-13170000D01*
X13450000Y-13030000D02*
X13450000Y-13170000D01*
X13380000Y-13100000D02*
X13520000Y-13100000D01*
X13380000Y-13450000D02*
X13520000Y-13590000D01*
X13520000Y-13450000D02*
X13380000Y-13590000D01*
X13450000Y-13450000D02*
X13450000Y-13590000D01*
X13380000Y-13520000D02*
X13520000Y-13520000D01*
X13380000Y-13870000D02*
X13520000Y-14010000D01*
X13520000Y-13870000D02*
X13380000Y-14010000D01*
X13450000Y-13870000D02*
X13450000Y-14010000D01*
X13380000Y-13940000D02*
X13520000Y-13940000D01*
X13380000Y-14290000D02*
X13520000Y-14430000D01*
X13520000Y-14290000D02*
X13380000Y-14430000D01*
X13450000Y-14290000D02*
X13450000Y-14430000D01*
X13380000Y-14360000D02*
X13520000Y-14360000D01*
X13380000Y-14710000D02*
X13520000Y-14850000D01*
X13520000Y-14710000D02*
X13380000Y-14850000D01*
X13450000Y-14710000D02*
X13450000Y-14850000D01*
X13380000Y-14780000D02*
X13520000Y-14780000D01*
X13380000Y-15130000D02*
X13520000Y-15270000D01*
X13520000Y-15130000D02*
X13380000Y-15270000D01*
X13450000Y-15130000D02*
X13450000Y-15270000D01*
X13380000Y-15200000D02*
X13520000Y-15200000D01*
X13380000Y-15550000D02*
X13520000Y-15690000D01*
X13520000Y-15550000D02*
X13380000Y-15690000D01*
X13450000Y-15550000D02*
X13450000Y-15690000D01*
X13380000Y-15620000D02*
X13520000Y-15620000D01*
X13380000Y-15970000D02*
X13520000Y-16110000D01*
X13520000Y-15970000D02*
X13380000Y-16110000D01*
X13450000Y-15970000D02*
X13450000Y-16110000D01*
X13380000Y-16040000D02*
X13520000Y-16040000D01*
X13930000Y-12190000D02*
X14070000Y-12330000D01*
X14070000Y-12190000D02*
X13930000Y-12330000D01*
X14000000Y-12190000D02*
X14000000Y-12330000D01*
X13930000Y-12260000D02*
X14070000Y-12260000D01*
X13930000Y-12610000D02*
X14070000Y-12750000D01*
X14070000Y-12610000D02*
X13930000Y-12750000D01*
X14000000Y-12610000D02*
X14000000Y-12750000D01*
X13930000Y-12680000D02*
X14070000Y-12680000D01*
X13930000Y-13030000D02*
X14070000Y-13170000D01*
X14070000Y-13030000D02*
X13930000Y-13170000D01*
X14000000Y-13030000D02*
X14000000Y-13170000D01*
X13930000Y-13100000D02*
X14070000Y-13100000D01*
X13930000Y-13450000D02*
X14070000Y-13590000D01*
X14070000Y-13450000D02*
X13930000Y-13590000D01*
X14000000Y-13450000D02*
X14000000Y-13590000D01*
X13930000Y-13520000D02*
X14070000Y-13520000D01*
X13930000Y-13870000D02*
X14070000Y-14010000D01*
X14070000Y-13870000D02*
X13930000Y-14010000D01*
X14000000Y-13870000D02*
X14000000Y-14010000D01*
X13930000Y-13940000D02*
X14070000Y-13940000D01*
X13930000Y-14290000D02*
X14070000Y-14430000D01*
X14070000Y-14290000D02*
X13930000Y-14430000D01*
X14000000Y-14290000D02*
X14000000Y-14430000D01*
X13930000Y-14360000D02*
X14070000Y-14360000D01*
X13930000Y-14710000D02*
X14070000Y-14850000D01*
X14070000Y-14710000D02*
X13930000Y-14850000D01*
X14000000Y-14710000D02*
X14000000Y-14850000D01*
X13930000Y-14780000D02*
X14070000Y-14780000D01*
X13930000Y-15130000D02*
X14070000Y-15270000D01*
X14070000Y-15130000D02*
X13930000Y-15270000D01*
X14000000Y-15130000D02*
X14000000Y-15270000D01*
X13930000Y-15200000D02*
X14070000Y-15200000D01*
X13930000Y-15550000D02*
X14070000Y-15690000D01*
X14070000Y-15550000D02*
X13930000Y-15690000D01*
X14000000Y-15550000D02*
X14000000Y-15690000D01*
X13930000Y-15620000D02*
X14070000Y-15620000D01*
X13930000Y-15970000D02*
X14070000Y-16110000D01*
X14070000Y-15970000D02*
X13930000Y-16110000D01*
X14000000Y-15970000D02*
X14000000Y-16110000D01*
X13930000Y-16040000D02*
X14070000Y-16040000D01*
D15*
X11431000Y-10615000D02*
X11601000Y-10785000D01*
X11601000Y-10615000D02*
X11431000Y-10785000D01*
X11576105Y-10760105D02*
X11576105Y-10639895D01*
X11455895Y-10639895D01*
X11455895Y-10760105D01*
X11576105Y-10760105D01*
X11827000Y-10615000D02*
X11997000Y-10785000D01*
X11997000Y-10615000D02*
X11827000Y-10785000D01*
X11972105Y-10760105D02*
X11972105Y-10639895D01*
X11851895Y-10639895D01*
X11851895Y-10760105D01*
X11972105Y-10760105D01*
X12223000Y-10615000D02*
X12393000Y-10785000D01*
X12393000Y-10615000D02*
X12223000Y-10785000D01*
X12368105Y-10760105D02*
X12368105Y-10639895D01*
X12247895Y-10639895D01*
X12247895Y-10760105D01*
X12368105Y-10760105D01*
X12619000Y-10615000D02*
X12789000Y-10785000D01*
X12789000Y-10615000D02*
X12619000Y-10785000D01*
X12764105Y-10760105D02*
X12764105Y-10639895D01*
X12643895Y-10639895D01*
X12643895Y-10760105D01*
X12764105Y-10760105D01*
X13015000Y-10615000D02*
X13185000Y-10785000D01*
X13185000Y-10615000D02*
X13015000Y-10785000D01*
X13160105Y-10760105D02*
X13160105Y-10639895D01*
X13039895Y-10639895D01*
X13039895Y-10760105D01*
X13160105Y-10760105D01*
D16*
X11055000Y-16775000D02*
X11305000Y-17025000D01*
X11305000Y-16775000D02*
X11055000Y-17025000D01*
X11180000Y-17025000D02*
X11305000Y-16900000D01*
X11180000Y-16775000D01*
X11055000Y-16900000D01*
X11180000Y-17025000D01*
X11055000Y-17370000D02*
X11305000Y-17620000D01*
X11305000Y-17370000D02*
X11055000Y-17620000D01*
X11180000Y-17620000D02*
X11305000Y-17495000D01*
X11180000Y-17370000D01*
X11055000Y-17495000D01*
X11180000Y-17620000D01*
X11835000Y-16775000D02*
X12085000Y-17025000D01*
X12085000Y-16775000D02*
X11835000Y-17025000D01*
X11960000Y-17025000D02*
X12085000Y-16900000D01*
X11960000Y-16775000D01*
X11835000Y-16900000D01*
X11960000Y-17025000D01*
X11835000Y-17370000D02*
X12085000Y-17620000D01*
X12085000Y-17370000D02*
X11835000Y-17620000D01*
X11960000Y-17620000D02*
X12085000Y-17495000D01*
X11960000Y-17370000D01*
X11835000Y-17495000D01*
X11960000Y-17620000D01*
X12615000Y-16775000D02*
X12865000Y-17025000D01*
X12865000Y-16775000D02*
X12615000Y-17025000D01*
X12740000Y-17025000D02*
X12865000Y-16900000D01*
X12740000Y-16775000D01*
X12615000Y-16900000D01*
X12740000Y-17025000D01*
X12615000Y-17370000D02*
X12865000Y-17620000D01*
X12865000Y-17370000D02*
X12615000Y-17620000D01*
X12740000Y-17620000D02*
X12865000Y-17495000D01*
X12740000Y-17370000D01*
X12615000Y-17495000D01*
X12740000Y-17620000D01*
X13395000Y-16775000D02*
X13645000Y-17025000D01*
X13645000Y-16775000D02*
X13395000Y-17025000D01*
X13520000Y-17025000D02*
X13645000Y-16900000D01*
X13520000Y-16775000D01*
X13395000Y-16900000D01*
X13520000Y-17025000D01*
X13395000Y-17370000D02*
X13645000Y-17620000D01*
X13645000Y-17370000D02*
X13395000Y-17620000D01*
X13520000Y-17620000D02*
X13645000Y-17495000D01*
X13520000Y-17370000D01*
X13395000Y-17495000D01*
X13520000Y-17620000D01*
X14175000Y-16775000D02*
X14425000Y-17025000D01*
X14425000Y-16775000D02*
X14175000Y-17025000D01*
X14300000Y-17025000D02*
X14425000Y-16900000D01*
X14300000Y-16775000D01*
X14175000Y-16900000D01*
X14300000Y-17025000D01*
X14175000Y-17370000D02*
X14425000Y-17620000D01*
X14425000Y-17370000D02*
X14175000Y-17620000D01*
X14300000Y-17620000D02*
X14425000Y-17495000D01*
X14300000Y-17370000D01*
X14175000Y-17495000D01*
X14300000Y-17620000D01*
X14875000Y-11395000D02*
X15125000Y-11645000D01*
X15125000Y-11395000D02*
X14875000Y-11645000D01*
X15000000Y-11645000D02*
X15125000Y-11520000D01*
X15000000Y-11395000D01*
X14875000Y-11520000D01*
X15000000Y-11645000D01*
X14875000Y-12175000D02*
X15125000Y-12425000D01*
X15125000Y-12175000D02*
X14875000Y-12425000D01*
X15000000Y-12425000D02*
X15125000Y-12300000D01*
X15000000Y-12175000D01*
X14875000Y-12300000D01*
X15000000Y-12425000D01*
D17*
X10450000Y-10615000D02*
X10450000Y-10985000D01*
X10265000Y-10800000D02*
X10635000Y-10800000D01*
X10635000Y-10800000D02*
G75*
G02*
X10265000Y-10800000I-185000J0D01*
G01*
X10265000Y-10800000D02*
G75*
G02*
X10635000Y-10800000I185000J0D01*
G01*
X10450000Y-17315000D02*
X10450000Y-17685000D01*
X10265000Y-17500000D02*
X10635000Y-17500000D01*
X10635000Y-17500000D02*
G75*
G02*
X10265000Y-17500000I-185000J0D01*
G01*
X10265000Y-17500000D02*
G75*
G02*
X10635000Y-17500000I185000J0D01*
G01*
X15050000Y-10315000D02*
X15050000Y-10685000D01*
X14865000Y-10500000D02*
X15235000Y-10500000D01*
X15235000Y-10500000D02*
G75*
G02*
X14865000Y-10500000I-185000J0D01*
G01*
X14865000Y-10500000D02*
G75*
G02*
X15235000Y-10500000I185000J0D01*
G01*
X15050000Y-17315000D02*
X15050000Y-17685000D01*
X14865000Y-17500000D02*
X15235000Y-17500000D01*
X15235000Y-17500000D02*
G75*
G02*
X14865000Y-17500000I-185000J0D01*
G01*
X14865000Y-17500000D02*
G75*
G02*
X15235000Y-17500000I185000J0D01*
G01*
D11*
X10258277Y-18313984D02*
X10258277Y-18113984D01*
X10258277Y-18113984D02*
X10305896Y-18113984D01*
X10305896Y-18113984D02*
X10334467Y-18123508D01*
X10334467Y-18123508D02*
X10353515Y-18142555D01*
X10353515Y-18142555D02*
X10363039Y-18161603D01*
X10363039Y-18161603D02*
X10372563Y-18199698D01*
X10372563Y-18199698D02*
X10372563Y-18228270D01*
X10372563Y-18228270D02*
X10363039Y-18266365D01*
X10363039Y-18266365D02*
X10353515Y-18285412D01*
X10353515Y-18285412D02*
X10334467Y-18304460D01*
X10334467Y-18304460D02*
X10305896Y-18313984D01*
X10305896Y-18313984D02*
X10258277Y-18313984D01*
X10458277Y-18313984D02*
X10458277Y-18180650D01*
X10458277Y-18218746D02*
X10467801Y-18199698D01*
X10467801Y-18199698D02*
X10477324Y-18190174D01*
X10477324Y-18190174D02*
X10496372Y-18180650D01*
X10496372Y-18180650D02*
X10515420Y-18180650D01*
X10582086Y-18313984D02*
X10582086Y-18180650D01*
X10582086Y-18113984D02*
X10572563Y-18123508D01*
X10572563Y-18123508D02*
X10582086Y-18133031D01*
X10582086Y-18133031D02*
X10591610Y-18123508D01*
X10591610Y-18123508D02*
X10582086Y-18113984D01*
X10582086Y-18113984D02*
X10582086Y-18133031D01*
X10705896Y-18313984D02*
X10686848Y-18304460D01*
X10686848Y-18304460D02*
X10677324Y-18285412D01*
X10677324Y-18285412D02*
X10677324Y-18113984D01*
X10810658Y-18313984D02*
X10791610Y-18304460D01*
X10791610Y-18304460D02*
X10782086Y-18285412D01*
X10782086Y-18285412D02*
X10782086Y-18113984D01*
X11039229Y-18313984D02*
X11039229Y-18113984D01*
X11039229Y-18113984D02*
X11105896Y-18256841D01*
X11105896Y-18256841D02*
X11172563Y-18113984D01*
X11172563Y-18113984D02*
X11172563Y-18313984D01*
X11353515Y-18313984D02*
X11353515Y-18209222D01*
X11353515Y-18209222D02*
X11343991Y-18190174D01*
X11343991Y-18190174D02*
X11324943Y-18180650D01*
X11324943Y-18180650D02*
X11286848Y-18180650D01*
X11286848Y-18180650D02*
X11267801Y-18190174D01*
X11353515Y-18304460D02*
X11334467Y-18313984D01*
X11334467Y-18313984D02*
X11286848Y-18313984D01*
X11286848Y-18313984D02*
X11267801Y-18304460D01*
X11267801Y-18304460D02*
X11258277Y-18285412D01*
X11258277Y-18285412D02*
X11258277Y-18266365D01*
X11258277Y-18266365D02*
X11267801Y-18247317D01*
X11267801Y-18247317D02*
X11286848Y-18237793D01*
X11286848Y-18237793D02*
X11334467Y-18237793D01*
X11334467Y-18237793D02*
X11353515Y-18228270D01*
X11448753Y-18180650D02*
X11448753Y-18380650D01*
X11448753Y-18190174D02*
X11467801Y-18180650D01*
X11467801Y-18180650D02*
X11505896Y-18180650D01*
X11505896Y-18180650D02*
X11524943Y-18190174D01*
X11524943Y-18190174D02*
X11534467Y-18199698D01*
X11534467Y-18199698D02*
X11543991Y-18218746D01*
X11543991Y-18218746D02*
X11543991Y-18275889D01*
X11543991Y-18275889D02*
X11534467Y-18294936D01*
X11534467Y-18294936D02*
X11524943Y-18304460D01*
X11524943Y-18304460D02*
X11505896Y-18313984D01*
X11505896Y-18313984D02*
X11467801Y-18313984D01*
X11467801Y-18313984D02*
X11448753Y-18304460D01*
X11629705Y-18294936D02*
X11639229Y-18304460D01*
X11639229Y-18304460D02*
X11629705Y-18313984D01*
X11629705Y-18313984D02*
X11620182Y-18304460D01*
X11620182Y-18304460D02*
X11629705Y-18294936D01*
X11629705Y-18294936D02*
X11629705Y-18313984D01*
X11629705Y-18190174D02*
X11639229Y-18199698D01*
X11639229Y-18199698D02*
X11629705Y-18209222D01*
X11629705Y-18209222D02*
X11620182Y-18199698D01*
X11620182Y-18199698D02*
X11629705Y-18190174D01*
X11629705Y-18190174D02*
X11629705Y-18209222D01*
D12*
X9927500Y-18607500D02*
X9997500Y-18677500D01*
X9997500Y-18607500D02*
X9927500Y-18677500D01*
D11*
X10296372Y-18533984D02*
X10315420Y-18533984D01*
X10315420Y-18533984D02*
X10334467Y-18543508D01*
X10334467Y-18543508D02*
X10343991Y-18553031D01*
X10343991Y-18553031D02*
X10353515Y-18572079D01*
X10353515Y-18572079D02*
X10363039Y-18610174D01*
X10363039Y-18610174D02*
X10363039Y-18657793D01*
X10363039Y-18657793D02*
X10353515Y-18695889D01*
X10353515Y-18695889D02*
X10343991Y-18714936D01*
X10343991Y-18714936D02*
X10334467Y-18724460D01*
X10334467Y-18724460D02*
X10315420Y-18733984D01*
X10315420Y-18733984D02*
X10296372Y-18733984D01*
X10296372Y-18733984D02*
X10277324Y-18724460D01*
X10277324Y-18724460D02*
X10267801Y-18714936D01*
X10267801Y-18714936D02*
X10258277Y-18695889D01*
X10258277Y-18695889D02*
X10248753Y-18657793D01*
X10248753Y-18657793D02*
X10248753Y-18610174D01*
X10248753Y-18610174D02*
X10258277Y-18572079D01*
X10258277Y-18572079D02*
X10267801Y-18553031D01*
X10267801Y-18553031D02*
X10277324Y-18543508D01*
X10277324Y-18543508D02*
X10296372Y-18533984D01*
X10448753Y-18714936D02*
X10458277Y-18724460D01*
X10458277Y-18724460D02*
X10448753Y-18733984D01*
X10448753Y-18733984D02*
X10439229Y-18724460D01*
X10439229Y-18724460D02*
X10448753Y-18714936D01*
X10448753Y-18714936D02*
X10448753Y-18733984D01*
X10524944Y-18533984D02*
X10658277Y-18533984D01*
X10658277Y-18533984D02*
X10572563Y-18733984D01*
X10772563Y-18533984D02*
X10791610Y-18533984D01*
X10791610Y-18533984D02*
X10810658Y-18543508D01*
X10810658Y-18543508D02*
X10820182Y-18553031D01*
X10820182Y-18553031D02*
X10829705Y-18572079D01*
X10829705Y-18572079D02*
X10839229Y-18610174D01*
X10839229Y-18610174D02*
X10839229Y-18657793D01*
X10839229Y-18657793D02*
X10829705Y-18695889D01*
X10829705Y-18695889D02*
X10820182Y-18714936D01*
X10820182Y-18714936D02*
X10810658Y-18724460D01*
X10810658Y-18724460D02*
X10791610Y-18733984D01*
X10791610Y-18733984D02*
X10772563Y-18733984D01*
X10772563Y-18733984D02*
X10753515Y-18724460D01*
X10753515Y-18724460D02*
X10743991Y-18714936D01*
X10743991Y-18714936D02*
X10734467Y-18695889D01*
X10734467Y-18695889D02*
X10724944Y-18657793D01*
X10724944Y-18657793D02*
X10724944Y-18610174D01*
X10724944Y-18610174D02*
X10734467Y-18572079D01*
X10734467Y-18572079D02*
X10743991Y-18553031D01*
X10743991Y-18553031D02*
X10753515Y-18543508D01*
X10753515Y-18543508D02*
X10772563Y-18533984D01*
X10963039Y-18533984D02*
X10982086Y-18533984D01*
X10982086Y-18533984D02*
X11001134Y-18543508D01*
X11001134Y-18543508D02*
X11010658Y-18553031D01*
X11010658Y-18553031D02*
X11020182Y-18572079D01*
X11020182Y-18572079D02*
X11029705Y-18610174D01*
X11029705Y-18610174D02*
X11029705Y-18657793D01*
X11029705Y-18657793D02*
X11020182Y-18695889D01*
X11020182Y-18695889D02*
X11010658Y-18714936D01*
X11010658Y-18714936D02*
X11001134Y-18724460D01*
X11001134Y-18724460D02*
X10982086Y-18733984D01*
X10982086Y-18733984D02*
X10963039Y-18733984D01*
X10963039Y-18733984D02*
X10943991Y-18724460D01*
X10943991Y-18724460D02*
X10934467Y-18714936D01*
X10934467Y-18714936D02*
X10924944Y-18695889D01*
X10924944Y-18695889D02*
X10915420Y-18657793D01*
X10915420Y-18657793D02*
X10915420Y-18610174D01*
X10915420Y-18610174D02*
X10924944Y-18572079D01*
X10924944Y-18572079D02*
X10934467Y-18553031D01*
X10934467Y-18553031D02*
X10943991Y-18543508D01*
X10943991Y-18543508D02*
X10963039Y-18533984D01*
X11115420Y-18733984D02*
X11115420Y-18600650D01*
X11115420Y-18619698D02*
X11124944Y-18610174D01*
X11124944Y-18610174D02*
X11143991Y-18600650D01*
X11143991Y-18600650D02*
X11172563Y-18600650D01*
X11172563Y-18600650D02*
X11191610Y-18610174D01*
X11191610Y-18610174D02*
X11201134Y-18629222D01*
X11201134Y-18629222D02*
X11201134Y-18733984D01*
X11201134Y-18629222D02*
X11210658Y-18610174D01*
X11210658Y-18610174D02*
X11229705Y-18600650D01*
X11229705Y-18600650D02*
X11258277Y-18600650D01*
X11258277Y-18600650D02*
X11277324Y-18610174D01*
X11277324Y-18610174D02*
X11286848Y-18629222D01*
X11286848Y-18629222D02*
X11286848Y-18733984D01*
X11382086Y-18733984D02*
X11382086Y-18600650D01*
X11382086Y-18619698D02*
X11391610Y-18610174D01*
X11391610Y-18610174D02*
X11410658Y-18600650D01*
X11410658Y-18600650D02*
X11439229Y-18600650D01*
X11439229Y-18600650D02*
X11458277Y-18610174D01*
X11458277Y-18610174D02*
X11467801Y-18629222D01*
X11467801Y-18629222D02*
X11467801Y-18733984D01*
X11467801Y-18629222D02*
X11477324Y-18610174D01*
X11477324Y-18610174D02*
X11496372Y-18600650D01*
X11496372Y-18600650D02*
X11524943Y-18600650D01*
X11524943Y-18600650D02*
X11543991Y-18610174D01*
X11543991Y-18610174D02*
X11553515Y-18629222D01*
X11553515Y-18629222D02*
X11553515Y-18733984D01*
X11943991Y-18524460D02*
X11772563Y-18781603D01*
X12201134Y-18533984D02*
X12220182Y-18533984D01*
X12220182Y-18533984D02*
X12239229Y-18543508D01*
X12239229Y-18543508D02*
X12248753Y-18553031D01*
X12248753Y-18553031D02*
X12258277Y-18572079D01*
X12258277Y-18572079D02*
X12267801Y-18610174D01*
X12267801Y-18610174D02*
X12267801Y-18657793D01*
X12267801Y-18657793D02*
X12258277Y-18695889D01*
X12258277Y-18695889D02*
X12248753Y-18714936D01*
X12248753Y-18714936D02*
X12239229Y-18724460D01*
X12239229Y-18724460D02*
X12220182Y-18733984D01*
X12220182Y-18733984D02*
X12201134Y-18733984D01*
X12201134Y-18733984D02*
X12182086Y-18724460D01*
X12182086Y-18724460D02*
X12172563Y-18714936D01*
X12172563Y-18714936D02*
X12163039Y-18695889D01*
X12163039Y-18695889D02*
X12153515Y-18657793D01*
X12153515Y-18657793D02*
X12153515Y-18610174D01*
X12153515Y-18610174D02*
X12163039Y-18572079D01*
X12163039Y-18572079D02*
X12172563Y-18553031D01*
X12172563Y-18553031D02*
X12182086Y-18543508D01*
X12182086Y-18543508D02*
X12201134Y-18533984D01*
X12353515Y-18714936D02*
X12363039Y-18724460D01*
X12363039Y-18724460D02*
X12353515Y-18733984D01*
X12353515Y-18733984D02*
X12343991Y-18724460D01*
X12343991Y-18724460D02*
X12353515Y-18714936D01*
X12353515Y-18714936D02*
X12353515Y-18733984D01*
X12486848Y-18533984D02*
X12505896Y-18533984D01*
X12505896Y-18533984D02*
X12524944Y-18543508D01*
X12524944Y-18543508D02*
X12534467Y-18553031D01*
X12534467Y-18553031D02*
X12543991Y-18572079D01*
X12543991Y-18572079D02*
X12553515Y-18610174D01*
X12553515Y-18610174D02*
X12553515Y-18657793D01*
X12553515Y-18657793D02*
X12543991Y-18695889D01*
X12543991Y-18695889D02*
X12534467Y-18714936D01*
X12534467Y-18714936D02*
X12524944Y-18724460D01*
X12524944Y-18724460D02*
X12505896Y-18733984D01*
X12505896Y-18733984D02*
X12486848Y-18733984D01*
X12486848Y-18733984D02*
X12467801Y-18724460D01*
X12467801Y-18724460D02*
X12458277Y-18714936D01*
X12458277Y-18714936D02*
X12448753Y-18695889D01*
X12448753Y-18695889D02*
X12439229Y-18657793D01*
X12439229Y-18657793D02*
X12439229Y-18610174D01*
X12439229Y-18610174D02*
X12448753Y-18572079D01*
X12448753Y-18572079D02*
X12458277Y-18553031D01*
X12458277Y-18553031D02*
X12467801Y-18543508D01*
X12467801Y-18543508D02*
X12486848Y-18533984D01*
X12629706Y-18553031D02*
X12639229Y-18543508D01*
X12639229Y-18543508D02*
X12658277Y-18533984D01*
X12658277Y-18533984D02*
X12705896Y-18533984D01*
X12705896Y-18533984D02*
X12724944Y-18543508D01*
X12724944Y-18543508D02*
X12734467Y-18553031D01*
X12734467Y-18553031D02*
X12743991Y-18572079D01*
X12743991Y-18572079D02*
X12743991Y-18591127D01*
X12743991Y-18591127D02*
X12734467Y-18619698D01*
X12734467Y-18619698D02*
X12620182Y-18733984D01*
X12620182Y-18733984D02*
X12743991Y-18733984D01*
X12810658Y-18533984D02*
X12943991Y-18533984D01*
X12943991Y-18533984D02*
X12858277Y-18733984D01*
X13105896Y-18533984D02*
X13067801Y-18533984D01*
X13067801Y-18533984D02*
X13048753Y-18543508D01*
X13048753Y-18543508D02*
X13039229Y-18553031D01*
X13039229Y-18553031D02*
X13020182Y-18581603D01*
X13020182Y-18581603D02*
X13010658Y-18619698D01*
X13010658Y-18619698D02*
X13010658Y-18695889D01*
X13010658Y-18695889D02*
X13020182Y-18714936D01*
X13020182Y-18714936D02*
X13029706Y-18724460D01*
X13029706Y-18724460D02*
X13048753Y-18733984D01*
X13048753Y-18733984D02*
X13086848Y-18733984D01*
X13086848Y-18733984D02*
X13105896Y-18724460D01*
X13105896Y-18724460D02*
X13115420Y-18714936D01*
X13115420Y-18714936D02*
X13124944Y-18695889D01*
X13124944Y-18695889D02*
X13124944Y-18648270D01*
X13124944Y-18648270D02*
X13115420Y-18629222D01*
X13115420Y-18629222D02*
X13105896Y-18619698D01*
X13105896Y-18619698D02*
X13086848Y-18610174D01*
X13086848Y-18610174D02*
X13048753Y-18610174D01*
X13048753Y-18610174D02*
X13029706Y-18619698D01*
X13029706Y-18619698D02*
X13020182Y-18629222D01*
X13020182Y-18629222D02*
X13010658Y-18648270D01*
X13201134Y-18533984D02*
X13201134Y-18572079D01*
X13277325Y-18533984D02*
X13277325Y-18572079D01*
X13572563Y-18810174D02*
X13563039Y-18800650D01*
X13563039Y-18800650D02*
X13543991Y-18772079D01*
X13543991Y-18772079D02*
X13534468Y-18753031D01*
X13534468Y-18753031D02*
X13524944Y-18724460D01*
X13524944Y-18724460D02*
X13515420Y-18676841D01*
X13515420Y-18676841D02*
X13515420Y-18638746D01*
X13515420Y-18638746D02*
X13524944Y-18591127D01*
X13524944Y-18591127D02*
X13534468Y-18562555D01*
X13534468Y-18562555D02*
X13543991Y-18543508D01*
X13543991Y-18543508D02*
X13563039Y-18514936D01*
X13563039Y-18514936D02*
X13572563Y-18505412D01*
X13734468Y-18600650D02*
X13734468Y-18733984D01*
X13686848Y-18524460D02*
X13639229Y-18667317D01*
X13639229Y-18667317D02*
X13763039Y-18667317D01*
X13991610Y-18733984D02*
X13991610Y-18533984D01*
X14077325Y-18733984D02*
X14077325Y-18629222D01*
X14077325Y-18629222D02*
X14067801Y-18610174D01*
X14067801Y-18610174D02*
X14048753Y-18600650D01*
X14048753Y-18600650D02*
X14020182Y-18600650D01*
X14020182Y-18600650D02*
X14001134Y-18610174D01*
X14001134Y-18610174D02*
X13991610Y-18619698D01*
X14201134Y-18733984D02*
X14182087Y-18724460D01*
X14182087Y-18724460D02*
X14172563Y-18714936D01*
X14172563Y-18714936D02*
X14163039Y-18695889D01*
X14163039Y-18695889D02*
X14163039Y-18638746D01*
X14163039Y-18638746D02*
X14172563Y-18619698D01*
X14172563Y-18619698D02*
X14182087Y-18610174D01*
X14182087Y-18610174D02*
X14201134Y-18600650D01*
X14201134Y-18600650D02*
X14229706Y-18600650D01*
X14229706Y-18600650D02*
X14248753Y-18610174D01*
X14248753Y-18610174D02*
X14258277Y-18619698D01*
X14258277Y-18619698D02*
X14267801Y-18638746D01*
X14267801Y-18638746D02*
X14267801Y-18695889D01*
X14267801Y-18695889D02*
X14258277Y-18714936D01*
X14258277Y-18714936D02*
X14248753Y-18724460D01*
X14248753Y-18724460D02*
X14229706Y-18733984D01*
X14229706Y-18733984D02*
X14201134Y-18733984D01*
X14382087Y-18733984D02*
X14363039Y-18724460D01*
X14363039Y-18724460D02*
X14353515Y-18705412D01*
X14353515Y-18705412D02*
X14353515Y-18533984D01*
X14534468Y-18724460D02*
X14515420Y-18733984D01*
X14515420Y-18733984D02*
X14477325Y-18733984D01*
X14477325Y-18733984D02*
X14458277Y-18724460D01*
X14458277Y-18724460D02*
X14448753Y-18705412D01*
X14448753Y-18705412D02*
X14448753Y-18629222D01*
X14448753Y-18629222D02*
X14458277Y-18610174D01*
X14458277Y-18610174D02*
X14477325Y-18600650D01*
X14477325Y-18600650D02*
X14515420Y-18600650D01*
X14515420Y-18600650D02*
X14534468Y-18610174D01*
X14534468Y-18610174D02*
X14543991Y-18629222D01*
X14543991Y-18629222D02*
X14543991Y-18648270D01*
X14543991Y-18648270D02*
X14448753Y-18667317D01*
X14620182Y-18724460D02*
X14639230Y-18733984D01*
X14639230Y-18733984D02*
X14677325Y-18733984D01*
X14677325Y-18733984D02*
X14696372Y-18724460D01*
X14696372Y-18724460D02*
X14705896Y-18705412D01*
X14705896Y-18705412D02*
X14705896Y-18695889D01*
X14705896Y-18695889D02*
X14696372Y-18676841D01*
X14696372Y-18676841D02*
X14677325Y-18667317D01*
X14677325Y-18667317D02*
X14648753Y-18667317D01*
X14648753Y-18667317D02*
X14629706Y-18657793D01*
X14629706Y-18657793D02*
X14620182Y-18638746D01*
X14620182Y-18638746D02*
X14620182Y-18629222D01*
X14620182Y-18629222D02*
X14629706Y-18610174D01*
X14629706Y-18610174D02*
X14648753Y-18600650D01*
X14648753Y-18600650D02*
X14677325Y-18600650D01*
X14677325Y-18600650D02*
X14696372Y-18610174D01*
X14772563Y-18810174D02*
X14782087Y-18800650D01*
X14782087Y-18800650D02*
X14801134Y-18772079D01*
X14801134Y-18772079D02*
X14810658Y-18753031D01*
X14810658Y-18753031D02*
X14820182Y-18724460D01*
X14820182Y-18724460D02*
X14829706Y-18676841D01*
X14829706Y-18676841D02*
X14829706Y-18638746D01*
X14829706Y-18638746D02*
X14820182Y-18591127D01*
X14820182Y-18591127D02*
X14810658Y-18562555D01*
X14810658Y-18562555D02*
X14801134Y-18543508D01*
X14801134Y-18543508D02*
X14782087Y-18514936D01*
X14782087Y-18514936D02*
X14772563Y-18505412D01*
D12*
X9997500Y-18906500D02*
G75*
G02*
X9922500Y-18906500I-37500J0D01*
G01*
X9922500Y-18906500D02*
G75*
G02*
X9997500Y-18906500I37500J0D01*
G01*
D11*
X10296372Y-18797984D02*
X10315420Y-18797984D01*
X10315420Y-18797984D02*
X10334467Y-18807508D01*
X10334467Y-18807508D02*
X10343991Y-18817031D01*
X10343991Y-18817031D02*
X10353515Y-18836079D01*
X10353515Y-18836079D02*
X10363039Y-18874174D01*
X10363039Y-18874174D02*
X10363039Y-18921793D01*
X10363039Y-18921793D02*
X10353515Y-18959889D01*
X10353515Y-18959889D02*
X10343991Y-18978936D01*
X10343991Y-18978936D02*
X10334467Y-18988460D01*
X10334467Y-18988460D02*
X10315420Y-18997984D01*
X10315420Y-18997984D02*
X10296372Y-18997984D01*
X10296372Y-18997984D02*
X10277324Y-18988460D01*
X10277324Y-18988460D02*
X10267801Y-18978936D01*
X10267801Y-18978936D02*
X10258277Y-18959889D01*
X10258277Y-18959889D02*
X10248753Y-18921793D01*
X10248753Y-18921793D02*
X10248753Y-18874174D01*
X10248753Y-18874174D02*
X10258277Y-18836079D01*
X10258277Y-18836079D02*
X10267801Y-18817031D01*
X10267801Y-18817031D02*
X10277324Y-18807508D01*
X10277324Y-18807508D02*
X10296372Y-18797984D01*
X10448753Y-18978936D02*
X10458277Y-18988460D01*
X10458277Y-18988460D02*
X10448753Y-18997984D01*
X10448753Y-18997984D02*
X10439229Y-18988460D01*
X10439229Y-18988460D02*
X10448753Y-18978936D01*
X10448753Y-18978936D02*
X10448753Y-18997984D01*
X10524944Y-18797984D02*
X10658277Y-18797984D01*
X10658277Y-18797984D02*
X10572563Y-18997984D01*
X10829705Y-18797984D02*
X10734467Y-18797984D01*
X10734467Y-18797984D02*
X10724944Y-18893222D01*
X10724944Y-18893222D02*
X10734467Y-18883698D01*
X10734467Y-18883698D02*
X10753515Y-18874174D01*
X10753515Y-18874174D02*
X10801134Y-18874174D01*
X10801134Y-18874174D02*
X10820182Y-18883698D01*
X10820182Y-18883698D02*
X10829705Y-18893222D01*
X10829705Y-18893222D02*
X10839229Y-18912270D01*
X10839229Y-18912270D02*
X10839229Y-18959889D01*
X10839229Y-18959889D02*
X10829705Y-18978936D01*
X10829705Y-18978936D02*
X10820182Y-18988460D01*
X10820182Y-18988460D02*
X10801134Y-18997984D01*
X10801134Y-18997984D02*
X10753515Y-18997984D01*
X10753515Y-18997984D02*
X10734467Y-18988460D01*
X10734467Y-18988460D02*
X10724944Y-18978936D01*
X10963039Y-18797984D02*
X10982086Y-18797984D01*
X10982086Y-18797984D02*
X11001134Y-18807508D01*
X11001134Y-18807508D02*
X11010658Y-18817031D01*
X11010658Y-18817031D02*
X11020182Y-18836079D01*
X11020182Y-18836079D02*
X11029705Y-18874174D01*
X11029705Y-18874174D02*
X11029705Y-18921793D01*
X11029705Y-18921793D02*
X11020182Y-18959889D01*
X11020182Y-18959889D02*
X11010658Y-18978936D01*
X11010658Y-18978936D02*
X11001134Y-18988460D01*
X11001134Y-18988460D02*
X10982086Y-18997984D01*
X10982086Y-18997984D02*
X10963039Y-18997984D01*
X10963039Y-18997984D02*
X10943991Y-18988460D01*
X10943991Y-18988460D02*
X10934467Y-18978936D01*
X10934467Y-18978936D02*
X10924944Y-18959889D01*
X10924944Y-18959889D02*
X10915420Y-18921793D01*
X10915420Y-18921793D02*
X10915420Y-18874174D01*
X10915420Y-18874174D02*
X10924944Y-18836079D01*
X10924944Y-18836079D02*
X10934467Y-18817031D01*
X10934467Y-18817031D02*
X10943991Y-18807508D01*
X10943991Y-18807508D02*
X10963039Y-18797984D01*
X11115420Y-18997984D02*
X11115420Y-18864650D01*
X11115420Y-18883698D02*
X11124944Y-18874174D01*
X11124944Y-18874174D02*
X11143991Y-18864650D01*
X11143991Y-18864650D02*
X11172563Y-18864650D01*
X11172563Y-18864650D02*
X11191610Y-18874174D01*
X11191610Y-18874174D02*
X11201134Y-18893222D01*
X11201134Y-18893222D02*
X11201134Y-18997984D01*
X11201134Y-18893222D02*
X11210658Y-18874174D01*
X11210658Y-18874174D02*
X11229705Y-18864650D01*
X11229705Y-18864650D02*
X11258277Y-18864650D01*
X11258277Y-18864650D02*
X11277324Y-18874174D01*
X11277324Y-18874174D02*
X11286848Y-18893222D01*
X11286848Y-18893222D02*
X11286848Y-18997984D01*
X11382086Y-18997984D02*
X11382086Y-18864650D01*
X11382086Y-18883698D02*
X11391610Y-18874174D01*
X11391610Y-18874174D02*
X11410658Y-18864650D01*
X11410658Y-18864650D02*
X11439229Y-18864650D01*
X11439229Y-18864650D02*
X11458277Y-18874174D01*
X11458277Y-18874174D02*
X11467801Y-18893222D01*
X11467801Y-18893222D02*
X11467801Y-18997984D01*
X11467801Y-18893222D02*
X11477324Y-18874174D01*
X11477324Y-18874174D02*
X11496372Y-18864650D01*
X11496372Y-18864650D02*
X11524943Y-18864650D01*
X11524943Y-18864650D02*
X11543991Y-18874174D01*
X11543991Y-18874174D02*
X11553515Y-18893222D01*
X11553515Y-18893222D02*
X11553515Y-18997984D01*
X11943991Y-18788460D02*
X11772563Y-19045603D01*
X12201134Y-18797984D02*
X12220182Y-18797984D01*
X12220182Y-18797984D02*
X12239229Y-18807508D01*
X12239229Y-18807508D02*
X12248753Y-18817031D01*
X12248753Y-18817031D02*
X12258277Y-18836079D01*
X12258277Y-18836079D02*
X12267801Y-18874174D01*
X12267801Y-18874174D02*
X12267801Y-18921793D01*
X12267801Y-18921793D02*
X12258277Y-18959889D01*
X12258277Y-18959889D02*
X12248753Y-18978936D01*
X12248753Y-18978936D02*
X12239229Y-18988460D01*
X12239229Y-18988460D02*
X12220182Y-18997984D01*
X12220182Y-18997984D02*
X12201134Y-18997984D01*
X12201134Y-18997984D02*
X12182086Y-18988460D01*
X12182086Y-18988460D02*
X12172563Y-18978936D01*
X12172563Y-18978936D02*
X12163039Y-18959889D01*
X12163039Y-18959889D02*
X12153515Y-18921793D01*
X12153515Y-18921793D02*
X12153515Y-18874174D01*
X12153515Y-18874174D02*
X12163039Y-18836079D01*
X12163039Y-18836079D02*
X12172563Y-18817031D01*
X12172563Y-18817031D02*
X12182086Y-18807508D01*
X12182086Y-18807508D02*
X12201134Y-18797984D01*
X12353515Y-18978936D02*
X12363039Y-18988460D01*
X12363039Y-18988460D02*
X12353515Y-18997984D01*
X12353515Y-18997984D02*
X12343991Y-18988460D01*
X12343991Y-18988460D02*
X12353515Y-18978936D01*
X12353515Y-18978936D02*
X12353515Y-18997984D01*
X12486848Y-18797984D02*
X12505896Y-18797984D01*
X12505896Y-18797984D02*
X12524944Y-18807508D01*
X12524944Y-18807508D02*
X12534467Y-18817031D01*
X12534467Y-18817031D02*
X12543991Y-18836079D01*
X12543991Y-18836079D02*
X12553515Y-18874174D01*
X12553515Y-18874174D02*
X12553515Y-18921793D01*
X12553515Y-18921793D02*
X12543991Y-18959889D01*
X12543991Y-18959889D02*
X12534467Y-18978936D01*
X12534467Y-18978936D02*
X12524944Y-18988460D01*
X12524944Y-18988460D02*
X12505896Y-18997984D01*
X12505896Y-18997984D02*
X12486848Y-18997984D01*
X12486848Y-18997984D02*
X12467801Y-18988460D01*
X12467801Y-18988460D02*
X12458277Y-18978936D01*
X12458277Y-18978936D02*
X12448753Y-18959889D01*
X12448753Y-18959889D02*
X12439229Y-18921793D01*
X12439229Y-18921793D02*
X12439229Y-18874174D01*
X12439229Y-18874174D02*
X12448753Y-18836079D01*
X12448753Y-18836079D02*
X12458277Y-18817031D01*
X12458277Y-18817031D02*
X12467801Y-18807508D01*
X12467801Y-18807508D02*
X12486848Y-18797984D01*
X12629706Y-18817031D02*
X12639229Y-18807508D01*
X12639229Y-18807508D02*
X12658277Y-18797984D01*
X12658277Y-18797984D02*
X12705896Y-18797984D01*
X12705896Y-18797984D02*
X12724944Y-18807508D01*
X12724944Y-18807508D02*
X12734467Y-18817031D01*
X12734467Y-18817031D02*
X12743991Y-18836079D01*
X12743991Y-18836079D02*
X12743991Y-18855127D01*
X12743991Y-18855127D02*
X12734467Y-18883698D01*
X12734467Y-18883698D02*
X12620182Y-18997984D01*
X12620182Y-18997984D02*
X12743991Y-18997984D01*
X12839229Y-18997984D02*
X12877325Y-18997984D01*
X12877325Y-18997984D02*
X12896372Y-18988460D01*
X12896372Y-18988460D02*
X12905896Y-18978936D01*
X12905896Y-18978936D02*
X12924944Y-18950365D01*
X12924944Y-18950365D02*
X12934467Y-18912270D01*
X12934467Y-18912270D02*
X12934467Y-18836079D01*
X12934467Y-18836079D02*
X12924944Y-18817031D01*
X12924944Y-18817031D02*
X12915420Y-18807508D01*
X12915420Y-18807508D02*
X12896372Y-18797984D01*
X12896372Y-18797984D02*
X12858277Y-18797984D01*
X12858277Y-18797984D02*
X12839229Y-18807508D01*
X12839229Y-18807508D02*
X12829706Y-18817031D01*
X12829706Y-18817031D02*
X12820182Y-18836079D01*
X12820182Y-18836079D02*
X12820182Y-18883698D01*
X12820182Y-18883698D02*
X12829706Y-18902746D01*
X12829706Y-18902746D02*
X12839229Y-18912270D01*
X12839229Y-18912270D02*
X12858277Y-18921793D01*
X12858277Y-18921793D02*
X12896372Y-18921793D01*
X12896372Y-18921793D02*
X12915420Y-18912270D01*
X12915420Y-18912270D02*
X12924944Y-18902746D01*
X12924944Y-18902746D02*
X12934467Y-18883698D01*
X13115420Y-18797984D02*
X13020182Y-18797984D01*
X13020182Y-18797984D02*
X13010658Y-18893222D01*
X13010658Y-18893222D02*
X13020182Y-18883698D01*
X13020182Y-18883698D02*
X13039229Y-18874174D01*
X13039229Y-18874174D02*
X13086848Y-18874174D01*
X13086848Y-18874174D02*
X13105896Y-18883698D01*
X13105896Y-18883698D02*
X13115420Y-18893222D01*
X13115420Y-18893222D02*
X13124944Y-18912270D01*
X13124944Y-18912270D02*
X13124944Y-18959889D01*
X13124944Y-18959889D02*
X13115420Y-18978936D01*
X13115420Y-18978936D02*
X13105896Y-18988460D01*
X13105896Y-18988460D02*
X13086848Y-18997984D01*
X13086848Y-18997984D02*
X13039229Y-18997984D01*
X13039229Y-18997984D02*
X13020182Y-18988460D01*
X13020182Y-18988460D02*
X13010658Y-18978936D01*
X13201134Y-18797984D02*
X13201134Y-18836079D01*
X13277325Y-18797984D02*
X13277325Y-18836079D01*
X13572563Y-19074174D02*
X13563039Y-19064650D01*
X13563039Y-19064650D02*
X13543991Y-19036079D01*
X13543991Y-19036079D02*
X13534468Y-19017031D01*
X13534468Y-19017031D02*
X13524944Y-18988460D01*
X13524944Y-18988460D02*
X13515420Y-18940841D01*
X13515420Y-18940841D02*
X13515420Y-18902746D01*
X13515420Y-18902746D02*
X13524944Y-18855127D01*
X13524944Y-18855127D02*
X13534468Y-18826555D01*
X13534468Y-18826555D02*
X13543991Y-18807508D01*
X13543991Y-18807508D02*
X13563039Y-18778936D01*
X13563039Y-18778936D02*
X13572563Y-18769412D01*
X13639229Y-18817031D02*
X13648753Y-18807508D01*
X13648753Y-18807508D02*
X13667801Y-18797984D01*
X13667801Y-18797984D02*
X13715420Y-18797984D01*
X13715420Y-18797984D02*
X13734468Y-18807508D01*
X13734468Y-18807508D02*
X13743991Y-18817031D01*
X13743991Y-18817031D02*
X13753515Y-18836079D01*
X13753515Y-18836079D02*
X13753515Y-18855127D01*
X13753515Y-18855127D02*
X13743991Y-18883698D01*
X13743991Y-18883698D02*
X13629706Y-18997984D01*
X13629706Y-18997984D02*
X13753515Y-18997984D01*
X13991610Y-18997984D02*
X13991610Y-18797984D01*
X14077325Y-18997984D02*
X14077325Y-18893222D01*
X14077325Y-18893222D02*
X14067801Y-18874174D01*
X14067801Y-18874174D02*
X14048753Y-18864650D01*
X14048753Y-18864650D02*
X14020182Y-18864650D01*
X14020182Y-18864650D02*
X14001134Y-18874174D01*
X14001134Y-18874174D02*
X13991610Y-18883698D01*
X14201134Y-18997984D02*
X14182087Y-18988460D01*
X14182087Y-18988460D02*
X14172563Y-18978936D01*
X14172563Y-18978936D02*
X14163039Y-18959889D01*
X14163039Y-18959889D02*
X14163039Y-18902746D01*
X14163039Y-18902746D02*
X14172563Y-18883698D01*
X14172563Y-18883698D02*
X14182087Y-18874174D01*
X14182087Y-18874174D02*
X14201134Y-18864650D01*
X14201134Y-18864650D02*
X14229706Y-18864650D01*
X14229706Y-18864650D02*
X14248753Y-18874174D01*
X14248753Y-18874174D02*
X14258277Y-18883698D01*
X14258277Y-18883698D02*
X14267801Y-18902746D01*
X14267801Y-18902746D02*
X14267801Y-18959889D01*
X14267801Y-18959889D02*
X14258277Y-18978936D01*
X14258277Y-18978936D02*
X14248753Y-18988460D01*
X14248753Y-18988460D02*
X14229706Y-18997984D01*
X14229706Y-18997984D02*
X14201134Y-18997984D01*
X14382087Y-18997984D02*
X14363039Y-18988460D01*
X14363039Y-18988460D02*
X14353515Y-18969412D01*
X14353515Y-18969412D02*
X14353515Y-18797984D01*
X14534468Y-18988460D02*
X14515420Y-18997984D01*
X14515420Y-18997984D02*
X14477325Y-18997984D01*
X14477325Y-18997984D02*
X14458277Y-18988460D01*
X14458277Y-18988460D02*
X14448753Y-18969412D01*
X14448753Y-18969412D02*
X14448753Y-18893222D01*
X14448753Y-18893222D02*
X14458277Y-18874174D01*
X14458277Y-18874174D02*
X14477325Y-18864650D01*
X14477325Y-18864650D02*
X14515420Y-18864650D01*
X14515420Y-18864650D02*
X14534468Y-18874174D01*
X14534468Y-18874174D02*
X14543991Y-18893222D01*
X14543991Y-18893222D02*
X14543991Y-18912270D01*
X14543991Y-18912270D02*
X14448753Y-18931317D01*
X14620182Y-18988460D02*
X14639230Y-18997984D01*
X14639230Y-18997984D02*
X14677325Y-18997984D01*
X14677325Y-18997984D02*
X14696372Y-18988460D01*
X14696372Y-18988460D02*
X14705896Y-18969412D01*
X14705896Y-18969412D02*
X14705896Y-18959889D01*
X14705896Y-18959889D02*
X14696372Y-18940841D01*
X14696372Y-18940841D02*
X14677325Y-18931317D01*
X14677325Y-18931317D02*
X14648753Y-18931317D01*
X14648753Y-18931317D02*
X14629706Y-18921793D01*
X14629706Y-18921793D02*
X14620182Y-18902746D01*
X14620182Y-18902746D02*
X14620182Y-18893222D01*
X14620182Y-18893222D02*
X14629706Y-18874174D01*
X14629706Y-18874174D02*
X14648753Y-18864650D01*
X14648753Y-18864650D02*
X14677325Y-18864650D01*
X14677325Y-18864650D02*
X14696372Y-18874174D01*
X14772563Y-19074174D02*
X14782087Y-19064650D01*
X14782087Y-19064650D02*
X14801134Y-19036079D01*
X14801134Y-19036079D02*
X14810658Y-19017031D01*
X14810658Y-19017031D02*
X14820182Y-18988460D01*
X14820182Y-18988460D02*
X14829706Y-18940841D01*
X14829706Y-18940841D02*
X14829706Y-18902746D01*
X14829706Y-18902746D02*
X14820182Y-18855127D01*
X14820182Y-18855127D02*
X14810658Y-18826555D01*
X14810658Y-18826555D02*
X14801134Y-18807508D01*
X14801134Y-18807508D02*
X14782087Y-18778936D01*
X14782087Y-18778936D02*
X14772563Y-18769412D01*
D12*
X9957500Y-19130500D02*
X9957500Y-19210500D01*
X9917500Y-19170500D02*
X9997500Y-19170500D01*
D11*
X10296372Y-19061984D02*
X10315420Y-19061984D01*
X10315420Y-19061984D02*
X10334467Y-19071508D01*
X10334467Y-19071508D02*
X10343991Y-19081031D01*
X10343991Y-19081031D02*
X10353515Y-19100079D01*
X10353515Y-19100079D02*
X10363039Y-19138174D01*
X10363039Y-19138174D02*
X10363039Y-19185793D01*
X10363039Y-19185793D02*
X10353515Y-19223889D01*
X10353515Y-19223889D02*
X10343991Y-19242936D01*
X10343991Y-19242936D02*
X10334467Y-19252460D01*
X10334467Y-19252460D02*
X10315420Y-19261984D01*
X10315420Y-19261984D02*
X10296372Y-19261984D01*
X10296372Y-19261984D02*
X10277324Y-19252460D01*
X10277324Y-19252460D02*
X10267801Y-19242936D01*
X10267801Y-19242936D02*
X10258277Y-19223889D01*
X10258277Y-19223889D02*
X10248753Y-19185793D01*
X10248753Y-19185793D02*
X10248753Y-19138174D01*
X10248753Y-19138174D02*
X10258277Y-19100079D01*
X10258277Y-19100079D02*
X10267801Y-19081031D01*
X10267801Y-19081031D02*
X10277324Y-19071508D01*
X10277324Y-19071508D02*
X10296372Y-19061984D01*
X10448753Y-19242936D02*
X10458277Y-19252460D01*
X10458277Y-19252460D02*
X10448753Y-19261984D01*
X10448753Y-19261984D02*
X10439229Y-19252460D01*
X10439229Y-19252460D02*
X10448753Y-19242936D01*
X10448753Y-19242936D02*
X10448753Y-19261984D01*
X10572563Y-19147698D02*
X10553515Y-19138174D01*
X10553515Y-19138174D02*
X10543991Y-19128650D01*
X10543991Y-19128650D02*
X10534467Y-19109603D01*
X10534467Y-19109603D02*
X10534467Y-19100079D01*
X10534467Y-19100079D02*
X10543991Y-19081031D01*
X10543991Y-19081031D02*
X10553515Y-19071508D01*
X10553515Y-19071508D02*
X10572563Y-19061984D01*
X10572563Y-19061984D02*
X10610658Y-19061984D01*
X10610658Y-19061984D02*
X10629705Y-19071508D01*
X10629705Y-19071508D02*
X10639229Y-19081031D01*
X10639229Y-19081031D02*
X10648753Y-19100079D01*
X10648753Y-19100079D02*
X10648753Y-19109603D01*
X10648753Y-19109603D02*
X10639229Y-19128650D01*
X10639229Y-19128650D02*
X10629705Y-19138174D01*
X10629705Y-19138174D02*
X10610658Y-19147698D01*
X10610658Y-19147698D02*
X10572563Y-19147698D01*
X10572563Y-19147698D02*
X10553515Y-19157222D01*
X10553515Y-19157222D02*
X10543991Y-19166746D01*
X10543991Y-19166746D02*
X10534467Y-19185793D01*
X10534467Y-19185793D02*
X10534467Y-19223889D01*
X10534467Y-19223889D02*
X10543991Y-19242936D01*
X10543991Y-19242936D02*
X10553515Y-19252460D01*
X10553515Y-19252460D02*
X10572563Y-19261984D01*
X10572563Y-19261984D02*
X10610658Y-19261984D01*
X10610658Y-19261984D02*
X10629705Y-19252460D01*
X10629705Y-19252460D02*
X10639229Y-19242936D01*
X10639229Y-19242936D02*
X10648753Y-19223889D01*
X10648753Y-19223889D02*
X10648753Y-19185793D01*
X10648753Y-19185793D02*
X10639229Y-19166746D01*
X10639229Y-19166746D02*
X10629705Y-19157222D01*
X10629705Y-19157222D02*
X10610658Y-19147698D01*
X10772563Y-19061984D02*
X10791610Y-19061984D01*
X10791610Y-19061984D02*
X10810658Y-19071508D01*
X10810658Y-19071508D02*
X10820182Y-19081031D01*
X10820182Y-19081031D02*
X10829705Y-19100079D01*
X10829705Y-19100079D02*
X10839229Y-19138174D01*
X10839229Y-19138174D02*
X10839229Y-19185793D01*
X10839229Y-19185793D02*
X10829705Y-19223889D01*
X10829705Y-19223889D02*
X10820182Y-19242936D01*
X10820182Y-19242936D02*
X10810658Y-19252460D01*
X10810658Y-19252460D02*
X10791610Y-19261984D01*
X10791610Y-19261984D02*
X10772563Y-19261984D01*
X10772563Y-19261984D02*
X10753515Y-19252460D01*
X10753515Y-19252460D02*
X10743991Y-19242936D01*
X10743991Y-19242936D02*
X10734467Y-19223889D01*
X10734467Y-19223889D02*
X10724944Y-19185793D01*
X10724944Y-19185793D02*
X10724944Y-19138174D01*
X10724944Y-19138174D02*
X10734467Y-19100079D01*
X10734467Y-19100079D02*
X10743991Y-19081031D01*
X10743991Y-19081031D02*
X10753515Y-19071508D01*
X10753515Y-19071508D02*
X10772563Y-19061984D01*
X10963039Y-19061984D02*
X10982086Y-19061984D01*
X10982086Y-19061984D02*
X11001134Y-19071508D01*
X11001134Y-19071508D02*
X11010658Y-19081031D01*
X11010658Y-19081031D02*
X11020182Y-19100079D01*
X11020182Y-19100079D02*
X11029705Y-19138174D01*
X11029705Y-19138174D02*
X11029705Y-19185793D01*
X11029705Y-19185793D02*
X11020182Y-19223889D01*
X11020182Y-19223889D02*
X11010658Y-19242936D01*
X11010658Y-19242936D02*
X11001134Y-19252460D01*
X11001134Y-19252460D02*
X10982086Y-19261984D01*
X10982086Y-19261984D02*
X10963039Y-19261984D01*
X10963039Y-19261984D02*
X10943991Y-19252460D01*
X10943991Y-19252460D02*
X10934467Y-19242936D01*
X10934467Y-19242936D02*
X10924944Y-19223889D01*
X10924944Y-19223889D02*
X10915420Y-19185793D01*
X10915420Y-19185793D02*
X10915420Y-19138174D01*
X10915420Y-19138174D02*
X10924944Y-19100079D01*
X10924944Y-19100079D02*
X10934467Y-19081031D01*
X10934467Y-19081031D02*
X10943991Y-19071508D01*
X10943991Y-19071508D02*
X10963039Y-19061984D01*
X11115420Y-19261984D02*
X11115420Y-19128650D01*
X11115420Y-19147698D02*
X11124944Y-19138174D01*
X11124944Y-19138174D02*
X11143991Y-19128650D01*
X11143991Y-19128650D02*
X11172563Y-19128650D01*
X11172563Y-19128650D02*
X11191610Y-19138174D01*
X11191610Y-19138174D02*
X11201134Y-19157222D01*
X11201134Y-19157222D02*
X11201134Y-19261984D01*
X11201134Y-19157222D02*
X11210658Y-19138174D01*
X11210658Y-19138174D02*
X11229705Y-19128650D01*
X11229705Y-19128650D02*
X11258277Y-19128650D01*
X11258277Y-19128650D02*
X11277324Y-19138174D01*
X11277324Y-19138174D02*
X11286848Y-19157222D01*
X11286848Y-19157222D02*
X11286848Y-19261984D01*
X11382086Y-19261984D02*
X11382086Y-19128650D01*
X11382086Y-19147698D02*
X11391610Y-19138174D01*
X11391610Y-19138174D02*
X11410658Y-19128650D01*
X11410658Y-19128650D02*
X11439229Y-19128650D01*
X11439229Y-19128650D02*
X11458277Y-19138174D01*
X11458277Y-19138174D02*
X11467801Y-19157222D01*
X11467801Y-19157222D02*
X11467801Y-19261984D01*
X11467801Y-19157222D02*
X11477324Y-19138174D01*
X11477324Y-19138174D02*
X11496372Y-19128650D01*
X11496372Y-19128650D02*
X11524943Y-19128650D01*
X11524943Y-19128650D02*
X11543991Y-19138174D01*
X11543991Y-19138174D02*
X11553515Y-19157222D01*
X11553515Y-19157222D02*
X11553515Y-19261984D01*
X11943991Y-19052460D02*
X11772563Y-19309603D01*
X12201134Y-19061984D02*
X12220182Y-19061984D01*
X12220182Y-19061984D02*
X12239229Y-19071508D01*
X12239229Y-19071508D02*
X12248753Y-19081031D01*
X12248753Y-19081031D02*
X12258277Y-19100079D01*
X12258277Y-19100079D02*
X12267801Y-19138174D01*
X12267801Y-19138174D02*
X12267801Y-19185793D01*
X12267801Y-19185793D02*
X12258277Y-19223889D01*
X12258277Y-19223889D02*
X12248753Y-19242936D01*
X12248753Y-19242936D02*
X12239229Y-19252460D01*
X12239229Y-19252460D02*
X12220182Y-19261984D01*
X12220182Y-19261984D02*
X12201134Y-19261984D01*
X12201134Y-19261984D02*
X12182086Y-19252460D01*
X12182086Y-19252460D02*
X12172563Y-19242936D01*
X12172563Y-19242936D02*
X12163039Y-19223889D01*
X12163039Y-19223889D02*
X12153515Y-19185793D01*
X12153515Y-19185793D02*
X12153515Y-19138174D01*
X12153515Y-19138174D02*
X12163039Y-19100079D01*
X12163039Y-19100079D02*
X12172563Y-19081031D01*
X12172563Y-19081031D02*
X12182086Y-19071508D01*
X12182086Y-19071508D02*
X12201134Y-19061984D01*
X12353515Y-19242936D02*
X12363039Y-19252460D01*
X12363039Y-19252460D02*
X12353515Y-19261984D01*
X12353515Y-19261984D02*
X12343991Y-19252460D01*
X12343991Y-19252460D02*
X12353515Y-19242936D01*
X12353515Y-19242936D02*
X12353515Y-19261984D01*
X12486848Y-19061984D02*
X12505896Y-19061984D01*
X12505896Y-19061984D02*
X12524944Y-19071508D01*
X12524944Y-19071508D02*
X12534467Y-19081031D01*
X12534467Y-19081031D02*
X12543991Y-19100079D01*
X12543991Y-19100079D02*
X12553515Y-19138174D01*
X12553515Y-19138174D02*
X12553515Y-19185793D01*
X12553515Y-19185793D02*
X12543991Y-19223889D01*
X12543991Y-19223889D02*
X12534467Y-19242936D01*
X12534467Y-19242936D02*
X12524944Y-19252460D01*
X12524944Y-19252460D02*
X12505896Y-19261984D01*
X12505896Y-19261984D02*
X12486848Y-19261984D01*
X12486848Y-19261984D02*
X12467801Y-19252460D01*
X12467801Y-19252460D02*
X12458277Y-19242936D01*
X12458277Y-19242936D02*
X12448753Y-19223889D01*
X12448753Y-19223889D02*
X12439229Y-19185793D01*
X12439229Y-19185793D02*
X12439229Y-19138174D01*
X12439229Y-19138174D02*
X12448753Y-19100079D01*
X12448753Y-19100079D02*
X12458277Y-19081031D01*
X12458277Y-19081031D02*
X12467801Y-19071508D01*
X12467801Y-19071508D02*
X12486848Y-19061984D01*
X12620182Y-19061984D02*
X12743991Y-19061984D01*
X12743991Y-19061984D02*
X12677325Y-19138174D01*
X12677325Y-19138174D02*
X12705896Y-19138174D01*
X12705896Y-19138174D02*
X12724944Y-19147698D01*
X12724944Y-19147698D02*
X12734467Y-19157222D01*
X12734467Y-19157222D02*
X12743991Y-19176270D01*
X12743991Y-19176270D02*
X12743991Y-19223889D01*
X12743991Y-19223889D02*
X12734467Y-19242936D01*
X12734467Y-19242936D02*
X12724944Y-19252460D01*
X12724944Y-19252460D02*
X12705896Y-19261984D01*
X12705896Y-19261984D02*
X12648753Y-19261984D01*
X12648753Y-19261984D02*
X12629706Y-19252460D01*
X12629706Y-19252460D02*
X12620182Y-19242936D01*
X12934467Y-19261984D02*
X12820182Y-19261984D01*
X12877325Y-19261984D02*
X12877325Y-19061984D01*
X12877325Y-19061984D02*
X12858277Y-19090555D01*
X12858277Y-19090555D02*
X12839229Y-19109603D01*
X12839229Y-19109603D02*
X12820182Y-19119127D01*
X13115420Y-19061984D02*
X13020182Y-19061984D01*
X13020182Y-19061984D02*
X13010658Y-19157222D01*
X13010658Y-19157222D02*
X13020182Y-19147698D01*
X13020182Y-19147698D02*
X13039229Y-19138174D01*
X13039229Y-19138174D02*
X13086848Y-19138174D01*
X13086848Y-19138174D02*
X13105896Y-19147698D01*
X13105896Y-19147698D02*
X13115420Y-19157222D01*
X13115420Y-19157222D02*
X13124944Y-19176270D01*
X13124944Y-19176270D02*
X13124944Y-19223889D01*
X13124944Y-19223889D02*
X13115420Y-19242936D01*
X13115420Y-19242936D02*
X13105896Y-19252460D01*
X13105896Y-19252460D02*
X13086848Y-19261984D01*
X13086848Y-19261984D02*
X13039229Y-19261984D01*
X13039229Y-19261984D02*
X13020182Y-19252460D01*
X13020182Y-19252460D02*
X13010658Y-19242936D01*
X13201134Y-19061984D02*
X13201134Y-19100079D01*
X13277325Y-19061984D02*
X13277325Y-19100079D01*
X13572563Y-19338174D02*
X13563039Y-19328650D01*
X13563039Y-19328650D02*
X13543991Y-19300079D01*
X13543991Y-19300079D02*
X13534468Y-19281031D01*
X13534468Y-19281031D02*
X13524944Y-19252460D01*
X13524944Y-19252460D02*
X13515420Y-19204841D01*
X13515420Y-19204841D02*
X13515420Y-19166746D01*
X13515420Y-19166746D02*
X13524944Y-19119127D01*
X13524944Y-19119127D02*
X13534468Y-19090555D01*
X13534468Y-19090555D02*
X13543991Y-19071508D01*
X13543991Y-19071508D02*
X13563039Y-19042936D01*
X13563039Y-19042936D02*
X13572563Y-19033412D01*
X13677325Y-19147698D02*
X13658277Y-19138174D01*
X13658277Y-19138174D02*
X13648753Y-19128650D01*
X13648753Y-19128650D02*
X13639229Y-19109603D01*
X13639229Y-19109603D02*
X13639229Y-19100079D01*
X13639229Y-19100079D02*
X13648753Y-19081031D01*
X13648753Y-19081031D02*
X13658277Y-19071508D01*
X13658277Y-19071508D02*
X13677325Y-19061984D01*
X13677325Y-19061984D02*
X13715420Y-19061984D01*
X13715420Y-19061984D02*
X13734468Y-19071508D01*
X13734468Y-19071508D02*
X13743991Y-19081031D01*
X13743991Y-19081031D02*
X13753515Y-19100079D01*
X13753515Y-19100079D02*
X13753515Y-19109603D01*
X13753515Y-19109603D02*
X13743991Y-19128650D01*
X13743991Y-19128650D02*
X13734468Y-19138174D01*
X13734468Y-19138174D02*
X13715420Y-19147698D01*
X13715420Y-19147698D02*
X13677325Y-19147698D01*
X13677325Y-19147698D02*
X13658277Y-19157222D01*
X13658277Y-19157222D02*
X13648753Y-19166746D01*
X13648753Y-19166746D02*
X13639229Y-19185793D01*
X13639229Y-19185793D02*
X13639229Y-19223889D01*
X13639229Y-19223889D02*
X13648753Y-19242936D01*
X13648753Y-19242936D02*
X13658277Y-19252460D01*
X13658277Y-19252460D02*
X13677325Y-19261984D01*
X13677325Y-19261984D02*
X13715420Y-19261984D01*
X13715420Y-19261984D02*
X13734468Y-19252460D01*
X13734468Y-19252460D02*
X13743991Y-19242936D01*
X13743991Y-19242936D02*
X13753515Y-19223889D01*
X13753515Y-19223889D02*
X13753515Y-19185793D01*
X13753515Y-19185793D02*
X13743991Y-19166746D01*
X13743991Y-19166746D02*
X13734468Y-19157222D01*
X13734468Y-19157222D02*
X13715420Y-19147698D01*
X13991610Y-19261984D02*
X13991610Y-19061984D01*
X14077325Y-19261984D02*
X14077325Y-19157222D01*
X14077325Y-19157222D02*
X14067801Y-19138174D01*
X14067801Y-19138174D02*
X14048753Y-19128650D01*
X14048753Y-19128650D02*
X14020182Y-19128650D01*
X14020182Y-19128650D02*
X14001134Y-19138174D01*
X14001134Y-19138174D02*
X13991610Y-19147698D01*
X14201134Y-19261984D02*
X14182087Y-19252460D01*
X14182087Y-19252460D02*
X14172563Y-19242936D01*
X14172563Y-19242936D02*
X14163039Y-19223889D01*
X14163039Y-19223889D02*
X14163039Y-19166746D01*
X14163039Y-19166746D02*
X14172563Y-19147698D01*
X14172563Y-19147698D02*
X14182087Y-19138174D01*
X14182087Y-19138174D02*
X14201134Y-19128650D01*
X14201134Y-19128650D02*
X14229706Y-19128650D01*
X14229706Y-19128650D02*
X14248753Y-19138174D01*
X14248753Y-19138174D02*
X14258277Y-19147698D01*
X14258277Y-19147698D02*
X14267801Y-19166746D01*
X14267801Y-19166746D02*
X14267801Y-19223889D01*
X14267801Y-19223889D02*
X14258277Y-19242936D01*
X14258277Y-19242936D02*
X14248753Y-19252460D01*
X14248753Y-19252460D02*
X14229706Y-19261984D01*
X14229706Y-19261984D02*
X14201134Y-19261984D01*
X14382087Y-19261984D02*
X14363039Y-19252460D01*
X14363039Y-19252460D02*
X14353515Y-19233412D01*
X14353515Y-19233412D02*
X14353515Y-19061984D01*
X14534468Y-19252460D02*
X14515420Y-19261984D01*
X14515420Y-19261984D02*
X14477325Y-19261984D01*
X14477325Y-19261984D02*
X14458277Y-19252460D01*
X14458277Y-19252460D02*
X14448753Y-19233412D01*
X14448753Y-19233412D02*
X14448753Y-19157222D01*
X14448753Y-19157222D02*
X14458277Y-19138174D01*
X14458277Y-19138174D02*
X14477325Y-19128650D01*
X14477325Y-19128650D02*
X14515420Y-19128650D01*
X14515420Y-19128650D02*
X14534468Y-19138174D01*
X14534468Y-19138174D02*
X14543991Y-19157222D01*
X14543991Y-19157222D02*
X14543991Y-19176270D01*
X14543991Y-19176270D02*
X14448753Y-19195317D01*
X14620182Y-19252460D02*
X14639230Y-19261984D01*
X14639230Y-19261984D02*
X14677325Y-19261984D01*
X14677325Y-19261984D02*
X14696372Y-19252460D01*
X14696372Y-19252460D02*
X14705896Y-19233412D01*
X14705896Y-19233412D02*
X14705896Y-19223889D01*
X14705896Y-19223889D02*
X14696372Y-19204841D01*
X14696372Y-19204841D02*
X14677325Y-19195317D01*
X14677325Y-19195317D02*
X14648753Y-19195317D01*
X14648753Y-19195317D02*
X14629706Y-19185793D01*
X14629706Y-19185793D02*
X14620182Y-19166746D01*
X14620182Y-19166746D02*
X14620182Y-19157222D01*
X14620182Y-19157222D02*
X14629706Y-19138174D01*
X14629706Y-19138174D02*
X14648753Y-19128650D01*
X14648753Y-19128650D02*
X14677325Y-19128650D01*
X14677325Y-19128650D02*
X14696372Y-19138174D01*
X14772563Y-19338174D02*
X14782087Y-19328650D01*
X14782087Y-19328650D02*
X14801134Y-19300079D01*
X14801134Y-19300079D02*
X14810658Y-19281031D01*
X14810658Y-19281031D02*
X14820182Y-19252460D01*
X14820182Y-19252460D02*
X14829706Y-19204841D01*
X14829706Y-19204841D02*
X14829706Y-19166746D01*
X14829706Y-19166746D02*
X14820182Y-19119127D01*
X14820182Y-19119127D02*
X14810658Y-19090555D01*
X14810658Y-19090555D02*
X14801134Y-19071508D01*
X14801134Y-19071508D02*
X14782087Y-19042936D01*
X14782087Y-19042936D02*
X14772563Y-19033412D01*
D12*
X9984320Y-19466320D02*
X9984320Y-19402680D01*
X9920680Y-19402680D01*
X9920680Y-19466320D01*
X9984320Y-19466320D01*
D11*
X10296372Y-19325984D02*
X10315420Y-19325984D01*
X10315420Y-19325984D02*
X10334467Y-19335508D01*
X10334467Y-19335508D02*
X10343991Y-19345031D01*
X10343991Y-19345031D02*
X10353515Y-19364079D01*
X10353515Y-19364079D02*
X10363039Y-19402174D01*
X10363039Y-19402174D02*
X10363039Y-19449793D01*
X10363039Y-19449793D02*
X10353515Y-19487889D01*
X10353515Y-19487889D02*
X10343991Y-19506936D01*
X10343991Y-19506936D02*
X10334467Y-19516460D01*
X10334467Y-19516460D02*
X10315420Y-19525984D01*
X10315420Y-19525984D02*
X10296372Y-19525984D01*
X10296372Y-19525984D02*
X10277324Y-19516460D01*
X10277324Y-19516460D02*
X10267801Y-19506936D01*
X10267801Y-19506936D02*
X10258277Y-19487889D01*
X10258277Y-19487889D02*
X10248753Y-19449793D01*
X10248753Y-19449793D02*
X10248753Y-19402174D01*
X10248753Y-19402174D02*
X10258277Y-19364079D01*
X10258277Y-19364079D02*
X10267801Y-19345031D01*
X10267801Y-19345031D02*
X10277324Y-19335508D01*
X10277324Y-19335508D02*
X10296372Y-19325984D01*
X10448753Y-19506936D02*
X10458277Y-19516460D01*
X10458277Y-19516460D02*
X10448753Y-19525984D01*
X10448753Y-19525984D02*
X10439229Y-19516460D01*
X10439229Y-19516460D02*
X10448753Y-19506936D01*
X10448753Y-19506936D02*
X10448753Y-19525984D01*
X10553515Y-19525984D02*
X10591610Y-19525984D01*
X10591610Y-19525984D02*
X10610658Y-19516460D01*
X10610658Y-19516460D02*
X10620182Y-19506936D01*
X10620182Y-19506936D02*
X10639229Y-19478365D01*
X10639229Y-19478365D02*
X10648753Y-19440270D01*
X10648753Y-19440270D02*
X10648753Y-19364079D01*
X10648753Y-19364079D02*
X10639229Y-19345031D01*
X10639229Y-19345031D02*
X10629705Y-19335508D01*
X10629705Y-19335508D02*
X10610658Y-19325984D01*
X10610658Y-19325984D02*
X10572563Y-19325984D01*
X10572563Y-19325984D02*
X10553515Y-19335508D01*
X10553515Y-19335508D02*
X10543991Y-19345031D01*
X10543991Y-19345031D02*
X10534467Y-19364079D01*
X10534467Y-19364079D02*
X10534467Y-19411698D01*
X10534467Y-19411698D02*
X10543991Y-19430746D01*
X10543991Y-19430746D02*
X10553515Y-19440270D01*
X10553515Y-19440270D02*
X10572563Y-19449793D01*
X10572563Y-19449793D02*
X10610658Y-19449793D01*
X10610658Y-19449793D02*
X10629705Y-19440270D01*
X10629705Y-19440270D02*
X10639229Y-19430746D01*
X10639229Y-19430746D02*
X10648753Y-19411698D01*
X10772563Y-19325984D02*
X10791610Y-19325984D01*
X10791610Y-19325984D02*
X10810658Y-19335508D01*
X10810658Y-19335508D02*
X10820182Y-19345031D01*
X10820182Y-19345031D02*
X10829705Y-19364079D01*
X10829705Y-19364079D02*
X10839229Y-19402174D01*
X10839229Y-19402174D02*
X10839229Y-19449793D01*
X10839229Y-19449793D02*
X10829705Y-19487889D01*
X10829705Y-19487889D02*
X10820182Y-19506936D01*
X10820182Y-19506936D02*
X10810658Y-19516460D01*
X10810658Y-19516460D02*
X10791610Y-19525984D01*
X10791610Y-19525984D02*
X10772563Y-19525984D01*
X10772563Y-19525984D02*
X10753515Y-19516460D01*
X10753515Y-19516460D02*
X10743991Y-19506936D01*
X10743991Y-19506936D02*
X10734467Y-19487889D01*
X10734467Y-19487889D02*
X10724944Y-19449793D01*
X10724944Y-19449793D02*
X10724944Y-19402174D01*
X10724944Y-19402174D02*
X10734467Y-19364079D01*
X10734467Y-19364079D02*
X10743991Y-19345031D01*
X10743991Y-19345031D02*
X10753515Y-19335508D01*
X10753515Y-19335508D02*
X10772563Y-19325984D01*
X10963039Y-19325984D02*
X10982086Y-19325984D01*
X10982086Y-19325984D02*
X11001134Y-19335508D01*
X11001134Y-19335508D02*
X11010658Y-19345031D01*
X11010658Y-19345031D02*
X11020182Y-19364079D01*
X11020182Y-19364079D02*
X11029705Y-19402174D01*
X11029705Y-19402174D02*
X11029705Y-19449793D01*
X11029705Y-19449793D02*
X11020182Y-19487889D01*
X11020182Y-19487889D02*
X11010658Y-19506936D01*
X11010658Y-19506936D02*
X11001134Y-19516460D01*
X11001134Y-19516460D02*
X10982086Y-19525984D01*
X10982086Y-19525984D02*
X10963039Y-19525984D01*
X10963039Y-19525984D02*
X10943991Y-19516460D01*
X10943991Y-19516460D02*
X10934467Y-19506936D01*
X10934467Y-19506936D02*
X10924944Y-19487889D01*
X10924944Y-19487889D02*
X10915420Y-19449793D01*
X10915420Y-19449793D02*
X10915420Y-19402174D01*
X10915420Y-19402174D02*
X10924944Y-19364079D01*
X10924944Y-19364079D02*
X10934467Y-19345031D01*
X10934467Y-19345031D02*
X10943991Y-19335508D01*
X10943991Y-19335508D02*
X10963039Y-19325984D01*
X11115420Y-19525984D02*
X11115420Y-19392650D01*
X11115420Y-19411698D02*
X11124944Y-19402174D01*
X11124944Y-19402174D02*
X11143991Y-19392650D01*
X11143991Y-19392650D02*
X11172563Y-19392650D01*
X11172563Y-19392650D02*
X11191610Y-19402174D01*
X11191610Y-19402174D02*
X11201134Y-19421222D01*
X11201134Y-19421222D02*
X11201134Y-19525984D01*
X11201134Y-19421222D02*
X11210658Y-19402174D01*
X11210658Y-19402174D02*
X11229705Y-19392650D01*
X11229705Y-19392650D02*
X11258277Y-19392650D01*
X11258277Y-19392650D02*
X11277324Y-19402174D01*
X11277324Y-19402174D02*
X11286848Y-19421222D01*
X11286848Y-19421222D02*
X11286848Y-19525984D01*
X11382086Y-19525984D02*
X11382086Y-19392650D01*
X11382086Y-19411698D02*
X11391610Y-19402174D01*
X11391610Y-19402174D02*
X11410658Y-19392650D01*
X11410658Y-19392650D02*
X11439229Y-19392650D01*
X11439229Y-19392650D02*
X11458277Y-19402174D01*
X11458277Y-19402174D02*
X11467801Y-19421222D01*
X11467801Y-19421222D02*
X11467801Y-19525984D01*
X11467801Y-19421222D02*
X11477324Y-19402174D01*
X11477324Y-19402174D02*
X11496372Y-19392650D01*
X11496372Y-19392650D02*
X11524943Y-19392650D01*
X11524943Y-19392650D02*
X11543991Y-19402174D01*
X11543991Y-19402174D02*
X11553515Y-19421222D01*
X11553515Y-19421222D02*
X11553515Y-19525984D01*
X11943991Y-19316460D02*
X11772563Y-19573603D01*
X12201134Y-19325984D02*
X12220182Y-19325984D01*
X12220182Y-19325984D02*
X12239229Y-19335508D01*
X12239229Y-19335508D02*
X12248753Y-19345031D01*
X12248753Y-19345031D02*
X12258277Y-19364079D01*
X12258277Y-19364079D02*
X12267801Y-19402174D01*
X12267801Y-19402174D02*
X12267801Y-19449793D01*
X12267801Y-19449793D02*
X12258277Y-19487889D01*
X12258277Y-19487889D02*
X12248753Y-19506936D01*
X12248753Y-19506936D02*
X12239229Y-19516460D01*
X12239229Y-19516460D02*
X12220182Y-19525984D01*
X12220182Y-19525984D02*
X12201134Y-19525984D01*
X12201134Y-19525984D02*
X12182086Y-19516460D01*
X12182086Y-19516460D02*
X12172563Y-19506936D01*
X12172563Y-19506936D02*
X12163039Y-19487889D01*
X12163039Y-19487889D02*
X12153515Y-19449793D01*
X12153515Y-19449793D02*
X12153515Y-19402174D01*
X12153515Y-19402174D02*
X12163039Y-19364079D01*
X12163039Y-19364079D02*
X12172563Y-19345031D01*
X12172563Y-19345031D02*
X12182086Y-19335508D01*
X12182086Y-19335508D02*
X12201134Y-19325984D01*
X12353515Y-19506936D02*
X12363039Y-19516460D01*
X12363039Y-19516460D02*
X12353515Y-19525984D01*
X12353515Y-19525984D02*
X12343991Y-19516460D01*
X12343991Y-19516460D02*
X12353515Y-19506936D01*
X12353515Y-19506936D02*
X12353515Y-19525984D01*
X12486848Y-19325984D02*
X12505896Y-19325984D01*
X12505896Y-19325984D02*
X12524944Y-19335508D01*
X12524944Y-19335508D02*
X12534467Y-19345031D01*
X12534467Y-19345031D02*
X12543991Y-19364079D01*
X12543991Y-19364079D02*
X12553515Y-19402174D01*
X12553515Y-19402174D02*
X12553515Y-19449793D01*
X12553515Y-19449793D02*
X12543991Y-19487889D01*
X12543991Y-19487889D02*
X12534467Y-19506936D01*
X12534467Y-19506936D02*
X12524944Y-19516460D01*
X12524944Y-19516460D02*
X12505896Y-19525984D01*
X12505896Y-19525984D02*
X12486848Y-19525984D01*
X12486848Y-19525984D02*
X12467801Y-19516460D01*
X12467801Y-19516460D02*
X12458277Y-19506936D01*
X12458277Y-19506936D02*
X12448753Y-19487889D01*
X12448753Y-19487889D02*
X12439229Y-19449793D01*
X12439229Y-19449793D02*
X12439229Y-19402174D01*
X12439229Y-19402174D02*
X12448753Y-19364079D01*
X12448753Y-19364079D02*
X12458277Y-19345031D01*
X12458277Y-19345031D02*
X12467801Y-19335508D01*
X12467801Y-19335508D02*
X12486848Y-19325984D01*
X12620182Y-19325984D02*
X12743991Y-19325984D01*
X12743991Y-19325984D02*
X12677325Y-19402174D01*
X12677325Y-19402174D02*
X12705896Y-19402174D01*
X12705896Y-19402174D02*
X12724944Y-19411698D01*
X12724944Y-19411698D02*
X12734467Y-19421222D01*
X12734467Y-19421222D02*
X12743991Y-19440270D01*
X12743991Y-19440270D02*
X12743991Y-19487889D01*
X12743991Y-19487889D02*
X12734467Y-19506936D01*
X12734467Y-19506936D02*
X12724944Y-19516460D01*
X12724944Y-19516460D02*
X12705896Y-19525984D01*
X12705896Y-19525984D02*
X12648753Y-19525984D01*
X12648753Y-19525984D02*
X12629706Y-19516460D01*
X12629706Y-19516460D02*
X12620182Y-19506936D01*
X12924944Y-19325984D02*
X12829706Y-19325984D01*
X12829706Y-19325984D02*
X12820182Y-19421222D01*
X12820182Y-19421222D02*
X12829706Y-19411698D01*
X12829706Y-19411698D02*
X12848753Y-19402174D01*
X12848753Y-19402174D02*
X12896372Y-19402174D01*
X12896372Y-19402174D02*
X12915420Y-19411698D01*
X12915420Y-19411698D02*
X12924944Y-19421222D01*
X12924944Y-19421222D02*
X12934467Y-19440270D01*
X12934467Y-19440270D02*
X12934467Y-19487889D01*
X12934467Y-19487889D02*
X12924944Y-19506936D01*
X12924944Y-19506936D02*
X12915420Y-19516460D01*
X12915420Y-19516460D02*
X12896372Y-19525984D01*
X12896372Y-19525984D02*
X12848753Y-19525984D01*
X12848753Y-19525984D02*
X12829706Y-19516460D01*
X12829706Y-19516460D02*
X12820182Y-19506936D01*
X13105896Y-19392650D02*
X13105896Y-19525984D01*
X13058277Y-19316460D02*
X13010658Y-19459317D01*
X13010658Y-19459317D02*
X13134467Y-19459317D01*
X13201134Y-19325984D02*
X13201134Y-19364079D01*
X13277325Y-19325984D02*
X13277325Y-19364079D01*
X13572563Y-19602174D02*
X13563039Y-19592650D01*
X13563039Y-19592650D02*
X13543991Y-19564079D01*
X13543991Y-19564079D02*
X13534468Y-19545031D01*
X13534468Y-19545031D02*
X13524944Y-19516460D01*
X13524944Y-19516460D02*
X13515420Y-19468841D01*
X13515420Y-19468841D02*
X13515420Y-19430746D01*
X13515420Y-19430746D02*
X13524944Y-19383127D01*
X13524944Y-19383127D02*
X13534468Y-19354555D01*
X13534468Y-19354555D02*
X13543991Y-19335508D01*
X13543991Y-19335508D02*
X13563039Y-19306936D01*
X13563039Y-19306936D02*
X13572563Y-19297412D01*
X13639229Y-19345031D02*
X13648753Y-19335508D01*
X13648753Y-19335508D02*
X13667801Y-19325984D01*
X13667801Y-19325984D02*
X13715420Y-19325984D01*
X13715420Y-19325984D02*
X13734468Y-19335508D01*
X13734468Y-19335508D02*
X13743991Y-19345031D01*
X13743991Y-19345031D02*
X13753515Y-19364079D01*
X13753515Y-19364079D02*
X13753515Y-19383127D01*
X13753515Y-19383127D02*
X13743991Y-19411698D01*
X13743991Y-19411698D02*
X13629706Y-19525984D01*
X13629706Y-19525984D02*
X13753515Y-19525984D01*
X13991610Y-19525984D02*
X13991610Y-19325984D01*
X14077325Y-19525984D02*
X14077325Y-19421222D01*
X14077325Y-19421222D02*
X14067801Y-19402174D01*
X14067801Y-19402174D02*
X14048753Y-19392650D01*
X14048753Y-19392650D02*
X14020182Y-19392650D01*
X14020182Y-19392650D02*
X14001134Y-19402174D01*
X14001134Y-19402174D02*
X13991610Y-19411698D01*
X14201134Y-19525984D02*
X14182087Y-19516460D01*
X14182087Y-19516460D02*
X14172563Y-19506936D01*
X14172563Y-19506936D02*
X14163039Y-19487889D01*
X14163039Y-19487889D02*
X14163039Y-19430746D01*
X14163039Y-19430746D02*
X14172563Y-19411698D01*
X14172563Y-19411698D02*
X14182087Y-19402174D01*
X14182087Y-19402174D02*
X14201134Y-19392650D01*
X14201134Y-19392650D02*
X14229706Y-19392650D01*
X14229706Y-19392650D02*
X14248753Y-19402174D01*
X14248753Y-19402174D02*
X14258277Y-19411698D01*
X14258277Y-19411698D02*
X14267801Y-19430746D01*
X14267801Y-19430746D02*
X14267801Y-19487889D01*
X14267801Y-19487889D02*
X14258277Y-19506936D01*
X14258277Y-19506936D02*
X14248753Y-19516460D01*
X14248753Y-19516460D02*
X14229706Y-19525984D01*
X14229706Y-19525984D02*
X14201134Y-19525984D01*
X14382087Y-19525984D02*
X14363039Y-19516460D01*
X14363039Y-19516460D02*
X14353515Y-19497412D01*
X14353515Y-19497412D02*
X14353515Y-19325984D01*
X14534468Y-19516460D02*
X14515420Y-19525984D01*
X14515420Y-19525984D02*
X14477325Y-19525984D01*
X14477325Y-19525984D02*
X14458277Y-19516460D01*
X14458277Y-19516460D02*
X14448753Y-19497412D01*
X14448753Y-19497412D02*
X14448753Y-19421222D01*
X14448753Y-19421222D02*
X14458277Y-19402174D01*
X14458277Y-19402174D02*
X14477325Y-19392650D01*
X14477325Y-19392650D02*
X14515420Y-19392650D01*
X14515420Y-19392650D02*
X14534468Y-19402174D01*
X14534468Y-19402174D02*
X14543991Y-19421222D01*
X14543991Y-19421222D02*
X14543991Y-19440270D01*
X14543991Y-19440270D02*
X14448753Y-19459317D01*
X14620182Y-19516460D02*
X14639230Y-19525984D01*
X14639230Y-19525984D02*
X14677325Y-19525984D01*
X14677325Y-19525984D02*
X14696372Y-19516460D01*
X14696372Y-19516460D02*
X14705896Y-19497412D01*
X14705896Y-19497412D02*
X14705896Y-19487889D01*
X14705896Y-19487889D02*
X14696372Y-19468841D01*
X14696372Y-19468841D02*
X14677325Y-19459317D01*
X14677325Y-19459317D02*
X14648753Y-19459317D01*
X14648753Y-19459317D02*
X14629706Y-19449793D01*
X14629706Y-19449793D02*
X14620182Y-19430746D01*
X14620182Y-19430746D02*
X14620182Y-19421222D01*
X14620182Y-19421222D02*
X14629706Y-19402174D01*
X14629706Y-19402174D02*
X14648753Y-19392650D01*
X14648753Y-19392650D02*
X14677325Y-19392650D01*
X14677325Y-19392650D02*
X14696372Y-19402174D01*
X14772563Y-19602174D02*
X14782087Y-19592650D01*
X14782087Y-19592650D02*
X14801134Y-19564079D01*
X14801134Y-19564079D02*
X14810658Y-19545031D01*
X14810658Y-19545031D02*
X14820182Y-19516460D01*
X14820182Y-19516460D02*
X14829706Y-19468841D01*
X14829706Y-19468841D02*
X14829706Y-19430746D01*
X14829706Y-19430746D02*
X14820182Y-19383127D01*
X14820182Y-19383127D02*
X14810658Y-19354555D01*
X14810658Y-19354555D02*
X14801134Y-19335508D01*
X14801134Y-19335508D02*
X14782087Y-19306936D01*
X14782087Y-19306936D02*
X14772563Y-19297412D01*
D12*
X9947500Y-19748500D02*
X9997500Y-19698500D01*
X9947500Y-19648500D01*
X9897500Y-19698500D01*
X9947500Y-19748500D01*
D11*
X10363039Y-19789984D02*
X10248753Y-19789984D01*
X10305896Y-19789984D02*
X10305896Y-19589984D01*
X10305896Y-19589984D02*
X10286848Y-19618555D01*
X10286848Y-19618555D02*
X10267801Y-19637603D01*
X10267801Y-19637603D02*
X10248753Y-19647127D01*
X10448753Y-19770936D02*
X10458277Y-19780460D01*
X10458277Y-19780460D02*
X10448753Y-19789984D01*
X10448753Y-19789984D02*
X10439229Y-19780460D01*
X10439229Y-19780460D02*
X10448753Y-19770936D01*
X10448753Y-19770936D02*
X10448753Y-19789984D01*
X10582086Y-19589984D02*
X10601134Y-19589984D01*
X10601134Y-19589984D02*
X10620182Y-19599508D01*
X10620182Y-19599508D02*
X10629705Y-19609031D01*
X10629705Y-19609031D02*
X10639229Y-19628079D01*
X10639229Y-19628079D02*
X10648753Y-19666174D01*
X10648753Y-19666174D02*
X10648753Y-19713793D01*
X10648753Y-19713793D02*
X10639229Y-19751889D01*
X10639229Y-19751889D02*
X10629705Y-19770936D01*
X10629705Y-19770936D02*
X10620182Y-19780460D01*
X10620182Y-19780460D02*
X10601134Y-19789984D01*
X10601134Y-19789984D02*
X10582086Y-19789984D01*
X10582086Y-19789984D02*
X10563039Y-19780460D01*
X10563039Y-19780460D02*
X10553515Y-19770936D01*
X10553515Y-19770936D02*
X10543991Y-19751889D01*
X10543991Y-19751889D02*
X10534467Y-19713793D01*
X10534467Y-19713793D02*
X10534467Y-19666174D01*
X10534467Y-19666174D02*
X10543991Y-19628079D01*
X10543991Y-19628079D02*
X10553515Y-19609031D01*
X10553515Y-19609031D02*
X10563039Y-19599508D01*
X10563039Y-19599508D02*
X10582086Y-19589984D01*
X10772563Y-19589984D02*
X10791610Y-19589984D01*
X10791610Y-19589984D02*
X10810658Y-19599508D01*
X10810658Y-19599508D02*
X10820182Y-19609031D01*
X10820182Y-19609031D02*
X10829705Y-19628079D01*
X10829705Y-19628079D02*
X10839229Y-19666174D01*
X10839229Y-19666174D02*
X10839229Y-19713793D01*
X10839229Y-19713793D02*
X10829705Y-19751889D01*
X10829705Y-19751889D02*
X10820182Y-19770936D01*
X10820182Y-19770936D02*
X10810658Y-19780460D01*
X10810658Y-19780460D02*
X10791610Y-19789984D01*
X10791610Y-19789984D02*
X10772563Y-19789984D01*
X10772563Y-19789984D02*
X10753515Y-19780460D01*
X10753515Y-19780460D02*
X10743991Y-19770936D01*
X10743991Y-19770936D02*
X10734467Y-19751889D01*
X10734467Y-19751889D02*
X10724944Y-19713793D01*
X10724944Y-19713793D02*
X10724944Y-19666174D01*
X10724944Y-19666174D02*
X10734467Y-19628079D01*
X10734467Y-19628079D02*
X10743991Y-19609031D01*
X10743991Y-19609031D02*
X10753515Y-19599508D01*
X10753515Y-19599508D02*
X10772563Y-19589984D01*
X10963039Y-19589984D02*
X10982086Y-19589984D01*
X10982086Y-19589984D02*
X11001134Y-19599508D01*
X11001134Y-19599508D02*
X11010658Y-19609031D01*
X11010658Y-19609031D02*
X11020182Y-19628079D01*
X11020182Y-19628079D02*
X11029705Y-19666174D01*
X11029705Y-19666174D02*
X11029705Y-19713793D01*
X11029705Y-19713793D02*
X11020182Y-19751889D01*
X11020182Y-19751889D02*
X11010658Y-19770936D01*
X11010658Y-19770936D02*
X11001134Y-19780460D01*
X11001134Y-19780460D02*
X10982086Y-19789984D01*
X10982086Y-19789984D02*
X10963039Y-19789984D01*
X10963039Y-19789984D02*
X10943991Y-19780460D01*
X10943991Y-19780460D02*
X10934467Y-19770936D01*
X10934467Y-19770936D02*
X10924944Y-19751889D01*
X10924944Y-19751889D02*
X10915420Y-19713793D01*
X10915420Y-19713793D02*
X10915420Y-19666174D01*
X10915420Y-19666174D02*
X10924944Y-19628079D01*
X10924944Y-19628079D02*
X10934467Y-19609031D01*
X10934467Y-19609031D02*
X10943991Y-19599508D01*
X10943991Y-19599508D02*
X10963039Y-19589984D01*
X11115420Y-19789984D02*
X11115420Y-19656650D01*
X11115420Y-19675698D02*
X11124944Y-19666174D01*
X11124944Y-19666174D02*
X11143991Y-19656650D01*
X11143991Y-19656650D02*
X11172563Y-19656650D01*
X11172563Y-19656650D02*
X11191610Y-19666174D01*
X11191610Y-19666174D02*
X11201134Y-19685222D01*
X11201134Y-19685222D02*
X11201134Y-19789984D01*
X11201134Y-19685222D02*
X11210658Y-19666174D01*
X11210658Y-19666174D02*
X11229705Y-19656650D01*
X11229705Y-19656650D02*
X11258277Y-19656650D01*
X11258277Y-19656650D02*
X11277324Y-19666174D01*
X11277324Y-19666174D02*
X11286848Y-19685222D01*
X11286848Y-19685222D02*
X11286848Y-19789984D01*
X11382086Y-19789984D02*
X11382086Y-19656650D01*
X11382086Y-19675698D02*
X11391610Y-19666174D01*
X11391610Y-19666174D02*
X11410658Y-19656650D01*
X11410658Y-19656650D02*
X11439229Y-19656650D01*
X11439229Y-19656650D02*
X11458277Y-19666174D01*
X11458277Y-19666174D02*
X11467801Y-19685222D01*
X11467801Y-19685222D02*
X11467801Y-19789984D01*
X11467801Y-19685222D02*
X11477324Y-19666174D01*
X11477324Y-19666174D02*
X11496372Y-19656650D01*
X11496372Y-19656650D02*
X11524943Y-19656650D01*
X11524943Y-19656650D02*
X11543991Y-19666174D01*
X11543991Y-19666174D02*
X11553515Y-19685222D01*
X11553515Y-19685222D02*
X11553515Y-19789984D01*
X11943991Y-19580460D02*
X11772563Y-19837603D01*
X12201134Y-19589984D02*
X12220182Y-19589984D01*
X12220182Y-19589984D02*
X12239229Y-19599508D01*
X12239229Y-19599508D02*
X12248753Y-19609031D01*
X12248753Y-19609031D02*
X12258277Y-19628079D01*
X12258277Y-19628079D02*
X12267801Y-19666174D01*
X12267801Y-19666174D02*
X12267801Y-19713793D01*
X12267801Y-19713793D02*
X12258277Y-19751889D01*
X12258277Y-19751889D02*
X12248753Y-19770936D01*
X12248753Y-19770936D02*
X12239229Y-19780460D01*
X12239229Y-19780460D02*
X12220182Y-19789984D01*
X12220182Y-19789984D02*
X12201134Y-19789984D01*
X12201134Y-19789984D02*
X12182086Y-19780460D01*
X12182086Y-19780460D02*
X12172563Y-19770936D01*
X12172563Y-19770936D02*
X12163039Y-19751889D01*
X12163039Y-19751889D02*
X12153515Y-19713793D01*
X12153515Y-19713793D02*
X12153515Y-19666174D01*
X12153515Y-19666174D02*
X12163039Y-19628079D01*
X12163039Y-19628079D02*
X12172563Y-19609031D01*
X12172563Y-19609031D02*
X12182086Y-19599508D01*
X12182086Y-19599508D02*
X12201134Y-19589984D01*
X12353515Y-19770936D02*
X12363039Y-19780460D01*
X12363039Y-19780460D02*
X12353515Y-19789984D01*
X12353515Y-19789984D02*
X12343991Y-19780460D01*
X12343991Y-19780460D02*
X12353515Y-19770936D01*
X12353515Y-19770936D02*
X12353515Y-19789984D01*
X12486848Y-19589984D02*
X12505896Y-19589984D01*
X12505896Y-19589984D02*
X12524944Y-19599508D01*
X12524944Y-19599508D02*
X12534467Y-19609031D01*
X12534467Y-19609031D02*
X12543991Y-19628079D01*
X12543991Y-19628079D02*
X12553515Y-19666174D01*
X12553515Y-19666174D02*
X12553515Y-19713793D01*
X12553515Y-19713793D02*
X12543991Y-19751889D01*
X12543991Y-19751889D02*
X12534467Y-19770936D01*
X12534467Y-19770936D02*
X12524944Y-19780460D01*
X12524944Y-19780460D02*
X12505896Y-19789984D01*
X12505896Y-19789984D02*
X12486848Y-19789984D01*
X12486848Y-19789984D02*
X12467801Y-19780460D01*
X12467801Y-19780460D02*
X12458277Y-19770936D01*
X12458277Y-19770936D02*
X12448753Y-19751889D01*
X12448753Y-19751889D02*
X12439229Y-19713793D01*
X12439229Y-19713793D02*
X12439229Y-19666174D01*
X12439229Y-19666174D02*
X12448753Y-19628079D01*
X12448753Y-19628079D02*
X12458277Y-19609031D01*
X12458277Y-19609031D02*
X12467801Y-19599508D01*
X12467801Y-19599508D02*
X12486848Y-19589984D01*
X12620182Y-19589984D02*
X12743991Y-19589984D01*
X12743991Y-19589984D02*
X12677325Y-19666174D01*
X12677325Y-19666174D02*
X12705896Y-19666174D01*
X12705896Y-19666174D02*
X12724944Y-19675698D01*
X12724944Y-19675698D02*
X12734467Y-19685222D01*
X12734467Y-19685222D02*
X12743991Y-19704270D01*
X12743991Y-19704270D02*
X12743991Y-19751889D01*
X12743991Y-19751889D02*
X12734467Y-19770936D01*
X12734467Y-19770936D02*
X12724944Y-19780460D01*
X12724944Y-19780460D02*
X12705896Y-19789984D01*
X12705896Y-19789984D02*
X12648753Y-19789984D01*
X12648753Y-19789984D02*
X12629706Y-19780460D01*
X12629706Y-19780460D02*
X12620182Y-19770936D01*
X12839229Y-19789984D02*
X12877325Y-19789984D01*
X12877325Y-19789984D02*
X12896372Y-19780460D01*
X12896372Y-19780460D02*
X12905896Y-19770936D01*
X12905896Y-19770936D02*
X12924944Y-19742365D01*
X12924944Y-19742365D02*
X12934467Y-19704270D01*
X12934467Y-19704270D02*
X12934467Y-19628079D01*
X12934467Y-19628079D02*
X12924944Y-19609031D01*
X12924944Y-19609031D02*
X12915420Y-19599508D01*
X12915420Y-19599508D02*
X12896372Y-19589984D01*
X12896372Y-19589984D02*
X12858277Y-19589984D01*
X12858277Y-19589984D02*
X12839229Y-19599508D01*
X12839229Y-19599508D02*
X12829706Y-19609031D01*
X12829706Y-19609031D02*
X12820182Y-19628079D01*
X12820182Y-19628079D02*
X12820182Y-19675698D01*
X12820182Y-19675698D02*
X12829706Y-19694746D01*
X12829706Y-19694746D02*
X12839229Y-19704270D01*
X12839229Y-19704270D02*
X12858277Y-19713793D01*
X12858277Y-19713793D02*
X12896372Y-19713793D01*
X12896372Y-19713793D02*
X12915420Y-19704270D01*
X12915420Y-19704270D02*
X12924944Y-19694746D01*
X12924944Y-19694746D02*
X12934467Y-19675698D01*
X13105896Y-19656650D02*
X13105896Y-19789984D01*
X13058277Y-19580460D02*
X13010658Y-19723317D01*
X13010658Y-19723317D02*
X13134467Y-19723317D01*
X13201134Y-19589984D02*
X13201134Y-19628079D01*
X13277325Y-19589984D02*
X13277325Y-19628079D01*
X13572563Y-19866174D02*
X13563039Y-19856650D01*
X13563039Y-19856650D02*
X13543991Y-19828079D01*
X13543991Y-19828079D02*
X13534468Y-19809031D01*
X13534468Y-19809031D02*
X13524944Y-19780460D01*
X13524944Y-19780460D02*
X13515420Y-19732841D01*
X13515420Y-19732841D02*
X13515420Y-19694746D01*
X13515420Y-19694746D02*
X13524944Y-19647127D01*
X13524944Y-19647127D02*
X13534468Y-19618555D01*
X13534468Y-19618555D02*
X13543991Y-19599508D01*
X13543991Y-19599508D02*
X13563039Y-19570936D01*
X13563039Y-19570936D02*
X13572563Y-19561412D01*
X13639229Y-19609031D02*
X13648753Y-19599508D01*
X13648753Y-19599508D02*
X13667801Y-19589984D01*
X13667801Y-19589984D02*
X13715420Y-19589984D01*
X13715420Y-19589984D02*
X13734468Y-19599508D01*
X13734468Y-19599508D02*
X13743991Y-19609031D01*
X13743991Y-19609031D02*
X13753515Y-19628079D01*
X13753515Y-19628079D02*
X13753515Y-19647127D01*
X13753515Y-19647127D02*
X13743991Y-19675698D01*
X13743991Y-19675698D02*
X13629706Y-19789984D01*
X13629706Y-19789984D02*
X13753515Y-19789984D01*
X13991610Y-19789984D02*
X13991610Y-19589984D01*
X14077325Y-19789984D02*
X14077325Y-19685222D01*
X14077325Y-19685222D02*
X14067801Y-19666174D01*
X14067801Y-19666174D02*
X14048753Y-19656650D01*
X14048753Y-19656650D02*
X14020182Y-19656650D01*
X14020182Y-19656650D02*
X14001134Y-19666174D01*
X14001134Y-19666174D02*
X13991610Y-19675698D01*
X14201134Y-19789984D02*
X14182087Y-19780460D01*
X14182087Y-19780460D02*
X14172563Y-19770936D01*
X14172563Y-19770936D02*
X14163039Y-19751889D01*
X14163039Y-19751889D02*
X14163039Y-19694746D01*
X14163039Y-19694746D02*
X14172563Y-19675698D01*
X14172563Y-19675698D02*
X14182087Y-19666174D01*
X14182087Y-19666174D02*
X14201134Y-19656650D01*
X14201134Y-19656650D02*
X14229706Y-19656650D01*
X14229706Y-19656650D02*
X14248753Y-19666174D01*
X14248753Y-19666174D02*
X14258277Y-19675698D01*
X14258277Y-19675698D02*
X14267801Y-19694746D01*
X14267801Y-19694746D02*
X14267801Y-19751889D01*
X14267801Y-19751889D02*
X14258277Y-19770936D01*
X14258277Y-19770936D02*
X14248753Y-19780460D01*
X14248753Y-19780460D02*
X14229706Y-19789984D01*
X14229706Y-19789984D02*
X14201134Y-19789984D01*
X14382087Y-19789984D02*
X14363039Y-19780460D01*
X14363039Y-19780460D02*
X14353515Y-19761412D01*
X14353515Y-19761412D02*
X14353515Y-19589984D01*
X14534468Y-19780460D02*
X14515420Y-19789984D01*
X14515420Y-19789984D02*
X14477325Y-19789984D01*
X14477325Y-19789984D02*
X14458277Y-19780460D01*
X14458277Y-19780460D02*
X14448753Y-19761412D01*
X14448753Y-19761412D02*
X14448753Y-19685222D01*
X14448753Y-19685222D02*
X14458277Y-19666174D01*
X14458277Y-19666174D02*
X14477325Y-19656650D01*
X14477325Y-19656650D02*
X14515420Y-19656650D01*
X14515420Y-19656650D02*
X14534468Y-19666174D01*
X14534468Y-19666174D02*
X14543991Y-19685222D01*
X14543991Y-19685222D02*
X14543991Y-19704270D01*
X14543991Y-19704270D02*
X14448753Y-19723317D01*
X14620182Y-19780460D02*
X14639230Y-19789984D01*
X14639230Y-19789984D02*
X14677325Y-19789984D01*
X14677325Y-19789984D02*
X14696372Y-19780460D01*
X14696372Y-19780460D02*
X14705896Y-19761412D01*
X14705896Y-19761412D02*
X14705896Y-19751889D01*
X14705896Y-19751889D02*
X14696372Y-19732841D01*
X14696372Y-19732841D02*
X14677325Y-19723317D01*
X14677325Y-19723317D02*
X14648753Y-19723317D01*
X14648753Y-19723317D02*
X14629706Y-19713793D01*
X14629706Y-19713793D02*
X14620182Y-19694746D01*
X14620182Y-19694746D02*
X14620182Y-19685222D01*
X14620182Y-19685222D02*
X14629706Y-19666174D01*
X14629706Y-19666174D02*
X14648753Y-19656650D01*
X14648753Y-19656650D02*
X14677325Y-19656650D01*
X14677325Y-19656650D02*
X14696372Y-19666174D01*
X14772563Y-19866174D02*
X14782087Y-19856650D01*
X14782087Y-19856650D02*
X14801134Y-19828079D01*
X14801134Y-19828079D02*
X14810658Y-19809031D01*
X14810658Y-19809031D02*
X14820182Y-19780460D01*
X14820182Y-19780460D02*
X14829706Y-19732841D01*
X14829706Y-19732841D02*
X14829706Y-19694746D01*
X14829706Y-19694746D02*
X14820182Y-19647127D01*
X14820182Y-19647127D02*
X14810658Y-19618555D01*
X14810658Y-19618555D02*
X14801134Y-19599508D01*
X14801134Y-19599508D02*
X14782087Y-19570936D01*
X14782087Y-19570936D02*
X14772563Y-19561412D01*
D13*
X9867500Y-19897500D02*
X9997500Y-20027500D01*
X9997500Y-19897500D02*
X9867500Y-20027500D01*
X9997500Y-19962500D02*
G75*
G02*
X9867500Y-19962500I-65000J0D01*
G01*
X9867500Y-19962500D02*
G75*
G02*
X9997500Y-19962500I65000J0D01*
G01*
D11*
X10363039Y-20053984D02*
X10248753Y-20053984D01*
X10305896Y-20053984D02*
X10305896Y-19853984D01*
X10305896Y-19853984D02*
X10286848Y-19882555D01*
X10286848Y-19882555D02*
X10267801Y-19901603D01*
X10267801Y-19901603D02*
X10248753Y-19911127D01*
X10448753Y-20034936D02*
X10458277Y-20044460D01*
X10458277Y-20044460D02*
X10448753Y-20053984D01*
X10448753Y-20053984D02*
X10439229Y-20044460D01*
X10439229Y-20044460D02*
X10448753Y-20034936D01*
X10448753Y-20034936D02*
X10448753Y-20053984D01*
X10524944Y-19853984D02*
X10648753Y-19853984D01*
X10648753Y-19853984D02*
X10582086Y-19930174D01*
X10582086Y-19930174D02*
X10610658Y-19930174D01*
X10610658Y-19930174D02*
X10629705Y-19939698D01*
X10629705Y-19939698D02*
X10639229Y-19949222D01*
X10639229Y-19949222D02*
X10648753Y-19968270D01*
X10648753Y-19968270D02*
X10648753Y-20015889D01*
X10648753Y-20015889D02*
X10639229Y-20034936D01*
X10639229Y-20034936D02*
X10629705Y-20044460D01*
X10629705Y-20044460D02*
X10610658Y-20053984D01*
X10610658Y-20053984D02*
X10553515Y-20053984D01*
X10553515Y-20053984D02*
X10534467Y-20044460D01*
X10534467Y-20044460D02*
X10524944Y-20034936D01*
X10772563Y-19853984D02*
X10791610Y-19853984D01*
X10791610Y-19853984D02*
X10810658Y-19863508D01*
X10810658Y-19863508D02*
X10820182Y-19873031D01*
X10820182Y-19873031D02*
X10829705Y-19892079D01*
X10829705Y-19892079D02*
X10839229Y-19930174D01*
X10839229Y-19930174D02*
X10839229Y-19977793D01*
X10839229Y-19977793D02*
X10829705Y-20015889D01*
X10829705Y-20015889D02*
X10820182Y-20034936D01*
X10820182Y-20034936D02*
X10810658Y-20044460D01*
X10810658Y-20044460D02*
X10791610Y-20053984D01*
X10791610Y-20053984D02*
X10772563Y-20053984D01*
X10772563Y-20053984D02*
X10753515Y-20044460D01*
X10753515Y-20044460D02*
X10743991Y-20034936D01*
X10743991Y-20034936D02*
X10734467Y-20015889D01*
X10734467Y-20015889D02*
X10724944Y-19977793D01*
X10724944Y-19977793D02*
X10724944Y-19930174D01*
X10724944Y-19930174D02*
X10734467Y-19892079D01*
X10734467Y-19892079D02*
X10743991Y-19873031D01*
X10743991Y-19873031D02*
X10753515Y-19863508D01*
X10753515Y-19863508D02*
X10772563Y-19853984D01*
X10963039Y-19853984D02*
X10982086Y-19853984D01*
X10982086Y-19853984D02*
X11001134Y-19863508D01*
X11001134Y-19863508D02*
X11010658Y-19873031D01*
X11010658Y-19873031D02*
X11020182Y-19892079D01*
X11020182Y-19892079D02*
X11029705Y-19930174D01*
X11029705Y-19930174D02*
X11029705Y-19977793D01*
X11029705Y-19977793D02*
X11020182Y-20015889D01*
X11020182Y-20015889D02*
X11010658Y-20034936D01*
X11010658Y-20034936D02*
X11001134Y-20044460D01*
X11001134Y-20044460D02*
X10982086Y-20053984D01*
X10982086Y-20053984D02*
X10963039Y-20053984D01*
X10963039Y-20053984D02*
X10943991Y-20044460D01*
X10943991Y-20044460D02*
X10934467Y-20034936D01*
X10934467Y-20034936D02*
X10924944Y-20015889D01*
X10924944Y-20015889D02*
X10915420Y-19977793D01*
X10915420Y-19977793D02*
X10915420Y-19930174D01*
X10915420Y-19930174D02*
X10924944Y-19892079D01*
X10924944Y-19892079D02*
X10934467Y-19873031D01*
X10934467Y-19873031D02*
X10943991Y-19863508D01*
X10943991Y-19863508D02*
X10963039Y-19853984D01*
X11115420Y-20053984D02*
X11115420Y-19920650D01*
X11115420Y-19939698D02*
X11124944Y-19930174D01*
X11124944Y-19930174D02*
X11143991Y-19920650D01*
X11143991Y-19920650D02*
X11172563Y-19920650D01*
X11172563Y-19920650D02*
X11191610Y-19930174D01*
X11191610Y-19930174D02*
X11201134Y-19949222D01*
X11201134Y-19949222D02*
X11201134Y-20053984D01*
X11201134Y-19949222D02*
X11210658Y-19930174D01*
X11210658Y-19930174D02*
X11229705Y-19920650D01*
X11229705Y-19920650D02*
X11258277Y-19920650D01*
X11258277Y-19920650D02*
X11277324Y-19930174D01*
X11277324Y-19930174D02*
X11286848Y-19949222D01*
X11286848Y-19949222D02*
X11286848Y-20053984D01*
X11382086Y-20053984D02*
X11382086Y-19920650D01*
X11382086Y-19939698D02*
X11391610Y-19930174D01*
X11391610Y-19930174D02*
X11410658Y-19920650D01*
X11410658Y-19920650D02*
X11439229Y-19920650D01*
X11439229Y-19920650D02*
X11458277Y-19930174D01*
X11458277Y-19930174D02*
X11467801Y-19949222D01*
X11467801Y-19949222D02*
X11467801Y-20053984D01*
X11467801Y-19949222D02*
X11477324Y-19930174D01*
X11477324Y-19930174D02*
X11496372Y-19920650D01*
X11496372Y-19920650D02*
X11524943Y-19920650D01*
X11524943Y-19920650D02*
X11543991Y-19930174D01*
X11543991Y-19930174D02*
X11553515Y-19949222D01*
X11553515Y-19949222D02*
X11553515Y-20053984D01*
X11943991Y-19844460D02*
X11772563Y-20101603D01*
X12201134Y-19853984D02*
X12220182Y-19853984D01*
X12220182Y-19853984D02*
X12239229Y-19863508D01*
X12239229Y-19863508D02*
X12248753Y-19873031D01*
X12248753Y-19873031D02*
X12258277Y-19892079D01*
X12258277Y-19892079D02*
X12267801Y-19930174D01*
X12267801Y-19930174D02*
X12267801Y-19977793D01*
X12267801Y-19977793D02*
X12258277Y-20015889D01*
X12258277Y-20015889D02*
X12248753Y-20034936D01*
X12248753Y-20034936D02*
X12239229Y-20044460D01*
X12239229Y-20044460D02*
X12220182Y-20053984D01*
X12220182Y-20053984D02*
X12201134Y-20053984D01*
X12201134Y-20053984D02*
X12182086Y-20044460D01*
X12182086Y-20044460D02*
X12172563Y-20034936D01*
X12172563Y-20034936D02*
X12163039Y-20015889D01*
X12163039Y-20015889D02*
X12153515Y-19977793D01*
X12153515Y-19977793D02*
X12153515Y-19930174D01*
X12153515Y-19930174D02*
X12163039Y-19892079D01*
X12163039Y-19892079D02*
X12172563Y-19873031D01*
X12172563Y-19873031D02*
X12182086Y-19863508D01*
X12182086Y-19863508D02*
X12201134Y-19853984D01*
X12353515Y-20034936D02*
X12363039Y-20044460D01*
X12363039Y-20044460D02*
X12353515Y-20053984D01*
X12353515Y-20053984D02*
X12343991Y-20044460D01*
X12343991Y-20044460D02*
X12353515Y-20034936D01*
X12353515Y-20034936D02*
X12353515Y-20053984D01*
X12486848Y-19853984D02*
X12505896Y-19853984D01*
X12505896Y-19853984D02*
X12524944Y-19863508D01*
X12524944Y-19863508D02*
X12534467Y-19873031D01*
X12534467Y-19873031D02*
X12543991Y-19892079D01*
X12543991Y-19892079D02*
X12553515Y-19930174D01*
X12553515Y-19930174D02*
X12553515Y-19977793D01*
X12553515Y-19977793D02*
X12543991Y-20015889D01*
X12543991Y-20015889D02*
X12534467Y-20034936D01*
X12534467Y-20034936D02*
X12524944Y-20044460D01*
X12524944Y-20044460D02*
X12505896Y-20053984D01*
X12505896Y-20053984D02*
X12486848Y-20053984D01*
X12486848Y-20053984D02*
X12467801Y-20044460D01*
X12467801Y-20044460D02*
X12458277Y-20034936D01*
X12458277Y-20034936D02*
X12448753Y-20015889D01*
X12448753Y-20015889D02*
X12439229Y-19977793D01*
X12439229Y-19977793D02*
X12439229Y-19930174D01*
X12439229Y-19930174D02*
X12448753Y-19892079D01*
X12448753Y-19892079D02*
X12458277Y-19873031D01*
X12458277Y-19873031D02*
X12467801Y-19863508D01*
X12467801Y-19863508D02*
X12486848Y-19853984D01*
X12734467Y-19853984D02*
X12639229Y-19853984D01*
X12639229Y-19853984D02*
X12629706Y-19949222D01*
X12629706Y-19949222D02*
X12639229Y-19939698D01*
X12639229Y-19939698D02*
X12658277Y-19930174D01*
X12658277Y-19930174D02*
X12705896Y-19930174D01*
X12705896Y-19930174D02*
X12724944Y-19939698D01*
X12724944Y-19939698D02*
X12734467Y-19949222D01*
X12734467Y-19949222D02*
X12743991Y-19968270D01*
X12743991Y-19968270D02*
X12743991Y-20015889D01*
X12743991Y-20015889D02*
X12734467Y-20034936D01*
X12734467Y-20034936D02*
X12724944Y-20044460D01*
X12724944Y-20044460D02*
X12705896Y-20053984D01*
X12705896Y-20053984D02*
X12658277Y-20053984D01*
X12658277Y-20053984D02*
X12639229Y-20044460D01*
X12639229Y-20044460D02*
X12629706Y-20034936D01*
X12934467Y-20053984D02*
X12820182Y-20053984D01*
X12877325Y-20053984D02*
X12877325Y-19853984D01*
X12877325Y-19853984D02*
X12858277Y-19882555D01*
X12858277Y-19882555D02*
X12839229Y-19901603D01*
X12839229Y-19901603D02*
X12820182Y-19911127D01*
X13010658Y-19873031D02*
X13020182Y-19863508D01*
X13020182Y-19863508D02*
X13039229Y-19853984D01*
X13039229Y-19853984D02*
X13086848Y-19853984D01*
X13086848Y-19853984D02*
X13105896Y-19863508D01*
X13105896Y-19863508D02*
X13115420Y-19873031D01*
X13115420Y-19873031D02*
X13124944Y-19892079D01*
X13124944Y-19892079D02*
X13124944Y-19911127D01*
X13124944Y-19911127D02*
X13115420Y-19939698D01*
X13115420Y-19939698D02*
X13001134Y-20053984D01*
X13001134Y-20053984D02*
X13124944Y-20053984D01*
X13201134Y-19853984D02*
X13201134Y-19892079D01*
X13277325Y-19853984D02*
X13277325Y-19892079D01*
X13572563Y-20130174D02*
X13563039Y-20120650D01*
X13563039Y-20120650D02*
X13543991Y-20092079D01*
X13543991Y-20092079D02*
X13534468Y-20073031D01*
X13534468Y-20073031D02*
X13524944Y-20044460D01*
X13524944Y-20044460D02*
X13515420Y-19996841D01*
X13515420Y-19996841D02*
X13515420Y-19958746D01*
X13515420Y-19958746D02*
X13524944Y-19911127D01*
X13524944Y-19911127D02*
X13534468Y-19882555D01*
X13534468Y-19882555D02*
X13543991Y-19863508D01*
X13543991Y-19863508D02*
X13563039Y-19834936D01*
X13563039Y-19834936D02*
X13572563Y-19825412D01*
X13639229Y-19873031D02*
X13648753Y-19863508D01*
X13648753Y-19863508D02*
X13667801Y-19853984D01*
X13667801Y-19853984D02*
X13715420Y-19853984D01*
X13715420Y-19853984D02*
X13734468Y-19863508D01*
X13734468Y-19863508D02*
X13743991Y-19873031D01*
X13743991Y-19873031D02*
X13753515Y-19892079D01*
X13753515Y-19892079D02*
X13753515Y-19911127D01*
X13753515Y-19911127D02*
X13743991Y-19939698D01*
X13743991Y-19939698D02*
X13629706Y-20053984D01*
X13629706Y-20053984D02*
X13753515Y-20053984D01*
X13991610Y-20053984D02*
X13991610Y-19853984D01*
X14077325Y-20053984D02*
X14077325Y-19949222D01*
X14077325Y-19949222D02*
X14067801Y-19930174D01*
X14067801Y-19930174D02*
X14048753Y-19920650D01*
X14048753Y-19920650D02*
X14020182Y-19920650D01*
X14020182Y-19920650D02*
X14001134Y-19930174D01*
X14001134Y-19930174D02*
X13991610Y-19939698D01*
X14201134Y-20053984D02*
X14182087Y-20044460D01*
X14182087Y-20044460D02*
X14172563Y-20034936D01*
X14172563Y-20034936D02*
X14163039Y-20015889D01*
X14163039Y-20015889D02*
X14163039Y-19958746D01*
X14163039Y-19958746D02*
X14172563Y-19939698D01*
X14172563Y-19939698D02*
X14182087Y-19930174D01*
X14182087Y-19930174D02*
X14201134Y-19920650D01*
X14201134Y-19920650D02*
X14229706Y-19920650D01*
X14229706Y-19920650D02*
X14248753Y-19930174D01*
X14248753Y-19930174D02*
X14258277Y-19939698D01*
X14258277Y-19939698D02*
X14267801Y-19958746D01*
X14267801Y-19958746D02*
X14267801Y-20015889D01*
X14267801Y-20015889D02*
X14258277Y-20034936D01*
X14258277Y-20034936D02*
X14248753Y-20044460D01*
X14248753Y-20044460D02*
X14229706Y-20053984D01*
X14229706Y-20053984D02*
X14201134Y-20053984D01*
X14382087Y-20053984D02*
X14363039Y-20044460D01*
X14363039Y-20044460D02*
X14353515Y-20025412D01*
X14353515Y-20025412D02*
X14353515Y-19853984D01*
X14534468Y-20044460D02*
X14515420Y-20053984D01*
X14515420Y-20053984D02*
X14477325Y-20053984D01*
X14477325Y-20053984D02*
X14458277Y-20044460D01*
X14458277Y-20044460D02*
X14448753Y-20025412D01*
X14448753Y-20025412D02*
X14448753Y-19949222D01*
X14448753Y-19949222D02*
X14458277Y-19930174D01*
X14458277Y-19930174D02*
X14477325Y-19920650D01*
X14477325Y-19920650D02*
X14515420Y-19920650D01*
X14515420Y-19920650D02*
X14534468Y-19930174D01*
X14534468Y-19930174D02*
X14543991Y-19949222D01*
X14543991Y-19949222D02*
X14543991Y-19968270D01*
X14543991Y-19968270D02*
X14448753Y-19987317D01*
X14620182Y-20044460D02*
X14639230Y-20053984D01*
X14639230Y-20053984D02*
X14677325Y-20053984D01*
X14677325Y-20053984D02*
X14696372Y-20044460D01*
X14696372Y-20044460D02*
X14705896Y-20025412D01*
X14705896Y-20025412D02*
X14705896Y-20015889D01*
X14705896Y-20015889D02*
X14696372Y-19996841D01*
X14696372Y-19996841D02*
X14677325Y-19987317D01*
X14677325Y-19987317D02*
X14648753Y-19987317D01*
X14648753Y-19987317D02*
X14629706Y-19977793D01*
X14629706Y-19977793D02*
X14620182Y-19958746D01*
X14620182Y-19958746D02*
X14620182Y-19949222D01*
X14620182Y-19949222D02*
X14629706Y-19930174D01*
X14629706Y-19930174D02*
X14648753Y-19920650D01*
X14648753Y-19920650D02*
X14677325Y-19920650D01*
X14677325Y-19920650D02*
X14696372Y-19930174D01*
X14772563Y-20130174D02*
X14782087Y-20120650D01*
X14782087Y-20120650D02*
X14801134Y-20092079D01*
X14801134Y-20092079D02*
X14810658Y-20073031D01*
X14810658Y-20073031D02*
X14820182Y-20044460D01*
X14820182Y-20044460D02*
X14829706Y-19996841D01*
X14829706Y-19996841D02*
X14829706Y-19958746D01*
X14829706Y-19958746D02*
X14820182Y-19911127D01*
X14820182Y-19911127D02*
X14810658Y-19882555D01*
X14810658Y-19882555D02*
X14801134Y-19863508D01*
X14801134Y-19863508D02*
X14782087Y-19834936D01*
X14782087Y-19834936D02*
X14772563Y-19825412D01*
D14*
X9857500Y-20156500D02*
X9997500Y-20296500D01*
X9997500Y-20156500D02*
X9857500Y-20296500D01*
X9927500Y-20156500D02*
X9927500Y-20296500D01*
X9857500Y-20226500D02*
X9997500Y-20226500D01*
D11*
X10363039Y-20317984D02*
X10248753Y-20317984D01*
X10305896Y-20317984D02*
X10305896Y-20117984D01*
X10305896Y-20117984D02*
X10286848Y-20146555D01*
X10286848Y-20146555D02*
X10267801Y-20165603D01*
X10267801Y-20165603D02*
X10248753Y-20175127D01*
X10448753Y-20298936D02*
X10458277Y-20308460D01*
X10458277Y-20308460D02*
X10448753Y-20317984D01*
X10448753Y-20317984D02*
X10439229Y-20308460D01*
X10439229Y-20308460D02*
X10448753Y-20298936D01*
X10448753Y-20298936D02*
X10448753Y-20317984D01*
X10629705Y-20184650D02*
X10629705Y-20317984D01*
X10582086Y-20108460D02*
X10534467Y-20251317D01*
X10534467Y-20251317D02*
X10658277Y-20251317D01*
X10772563Y-20117984D02*
X10791610Y-20117984D01*
X10791610Y-20117984D02*
X10810658Y-20127508D01*
X10810658Y-20127508D02*
X10820182Y-20137031D01*
X10820182Y-20137031D02*
X10829705Y-20156079D01*
X10829705Y-20156079D02*
X10839229Y-20194174D01*
X10839229Y-20194174D02*
X10839229Y-20241793D01*
X10839229Y-20241793D02*
X10829705Y-20279889D01*
X10829705Y-20279889D02*
X10820182Y-20298936D01*
X10820182Y-20298936D02*
X10810658Y-20308460D01*
X10810658Y-20308460D02*
X10791610Y-20317984D01*
X10791610Y-20317984D02*
X10772563Y-20317984D01*
X10772563Y-20317984D02*
X10753515Y-20308460D01*
X10753515Y-20308460D02*
X10743991Y-20298936D01*
X10743991Y-20298936D02*
X10734467Y-20279889D01*
X10734467Y-20279889D02*
X10724944Y-20241793D01*
X10724944Y-20241793D02*
X10724944Y-20194174D01*
X10724944Y-20194174D02*
X10734467Y-20156079D01*
X10734467Y-20156079D02*
X10743991Y-20137031D01*
X10743991Y-20137031D02*
X10753515Y-20127508D01*
X10753515Y-20127508D02*
X10772563Y-20117984D01*
X10963039Y-20117984D02*
X10982086Y-20117984D01*
X10982086Y-20117984D02*
X11001134Y-20127508D01*
X11001134Y-20127508D02*
X11010658Y-20137031D01*
X11010658Y-20137031D02*
X11020182Y-20156079D01*
X11020182Y-20156079D02*
X11029705Y-20194174D01*
X11029705Y-20194174D02*
X11029705Y-20241793D01*
X11029705Y-20241793D02*
X11020182Y-20279889D01*
X11020182Y-20279889D02*
X11010658Y-20298936D01*
X11010658Y-20298936D02*
X11001134Y-20308460D01*
X11001134Y-20308460D02*
X10982086Y-20317984D01*
X10982086Y-20317984D02*
X10963039Y-20317984D01*
X10963039Y-20317984D02*
X10943991Y-20308460D01*
X10943991Y-20308460D02*
X10934467Y-20298936D01*
X10934467Y-20298936D02*
X10924944Y-20279889D01*
X10924944Y-20279889D02*
X10915420Y-20241793D01*
X10915420Y-20241793D02*
X10915420Y-20194174D01*
X10915420Y-20194174D02*
X10924944Y-20156079D01*
X10924944Y-20156079D02*
X10934467Y-20137031D01*
X10934467Y-20137031D02*
X10943991Y-20127508D01*
X10943991Y-20127508D02*
X10963039Y-20117984D01*
X11115420Y-20317984D02*
X11115420Y-20184650D01*
X11115420Y-20203698D02*
X11124944Y-20194174D01*
X11124944Y-20194174D02*
X11143991Y-20184650D01*
X11143991Y-20184650D02*
X11172563Y-20184650D01*
X11172563Y-20184650D02*
X11191610Y-20194174D01*
X11191610Y-20194174D02*
X11201134Y-20213222D01*
X11201134Y-20213222D02*
X11201134Y-20317984D01*
X11201134Y-20213222D02*
X11210658Y-20194174D01*
X11210658Y-20194174D02*
X11229705Y-20184650D01*
X11229705Y-20184650D02*
X11258277Y-20184650D01*
X11258277Y-20184650D02*
X11277324Y-20194174D01*
X11277324Y-20194174D02*
X11286848Y-20213222D01*
X11286848Y-20213222D02*
X11286848Y-20317984D01*
X11382086Y-20317984D02*
X11382086Y-20184650D01*
X11382086Y-20203698D02*
X11391610Y-20194174D01*
X11391610Y-20194174D02*
X11410658Y-20184650D01*
X11410658Y-20184650D02*
X11439229Y-20184650D01*
X11439229Y-20184650D02*
X11458277Y-20194174D01*
X11458277Y-20194174D02*
X11467801Y-20213222D01*
X11467801Y-20213222D02*
X11467801Y-20317984D01*
X11467801Y-20213222D02*
X11477324Y-20194174D01*
X11477324Y-20194174D02*
X11496372Y-20184650D01*
X11496372Y-20184650D02*
X11524943Y-20184650D01*
X11524943Y-20184650D02*
X11543991Y-20194174D01*
X11543991Y-20194174D02*
X11553515Y-20213222D01*
X11553515Y-20213222D02*
X11553515Y-20317984D01*
X11943991Y-20108460D02*
X11772563Y-20365603D01*
X12201134Y-20117984D02*
X12220182Y-20117984D01*
X12220182Y-20117984D02*
X12239229Y-20127508D01*
X12239229Y-20127508D02*
X12248753Y-20137031D01*
X12248753Y-20137031D02*
X12258277Y-20156079D01*
X12258277Y-20156079D02*
X12267801Y-20194174D01*
X12267801Y-20194174D02*
X12267801Y-20241793D01*
X12267801Y-20241793D02*
X12258277Y-20279889D01*
X12258277Y-20279889D02*
X12248753Y-20298936D01*
X12248753Y-20298936D02*
X12239229Y-20308460D01*
X12239229Y-20308460D02*
X12220182Y-20317984D01*
X12220182Y-20317984D02*
X12201134Y-20317984D01*
X12201134Y-20317984D02*
X12182086Y-20308460D01*
X12182086Y-20308460D02*
X12172563Y-20298936D01*
X12172563Y-20298936D02*
X12163039Y-20279889D01*
X12163039Y-20279889D02*
X12153515Y-20241793D01*
X12153515Y-20241793D02*
X12153515Y-20194174D01*
X12153515Y-20194174D02*
X12163039Y-20156079D01*
X12163039Y-20156079D02*
X12172563Y-20137031D01*
X12172563Y-20137031D02*
X12182086Y-20127508D01*
X12182086Y-20127508D02*
X12201134Y-20117984D01*
X12353515Y-20298936D02*
X12363039Y-20308460D01*
X12363039Y-20308460D02*
X12353515Y-20317984D01*
X12353515Y-20317984D02*
X12343991Y-20308460D01*
X12343991Y-20308460D02*
X12353515Y-20298936D01*
X12353515Y-20298936D02*
X12353515Y-20317984D01*
X12486848Y-20117984D02*
X12505896Y-20117984D01*
X12505896Y-20117984D02*
X12524944Y-20127508D01*
X12524944Y-20127508D02*
X12534467Y-20137031D01*
X12534467Y-20137031D02*
X12543991Y-20156079D01*
X12543991Y-20156079D02*
X12553515Y-20194174D01*
X12553515Y-20194174D02*
X12553515Y-20241793D01*
X12553515Y-20241793D02*
X12543991Y-20279889D01*
X12543991Y-20279889D02*
X12534467Y-20298936D01*
X12534467Y-20298936D02*
X12524944Y-20308460D01*
X12524944Y-20308460D02*
X12505896Y-20317984D01*
X12505896Y-20317984D02*
X12486848Y-20317984D01*
X12486848Y-20317984D02*
X12467801Y-20308460D01*
X12467801Y-20308460D02*
X12458277Y-20298936D01*
X12458277Y-20298936D02*
X12448753Y-20279889D01*
X12448753Y-20279889D02*
X12439229Y-20241793D01*
X12439229Y-20241793D02*
X12439229Y-20194174D01*
X12439229Y-20194174D02*
X12448753Y-20156079D01*
X12448753Y-20156079D02*
X12458277Y-20137031D01*
X12458277Y-20137031D02*
X12467801Y-20127508D01*
X12467801Y-20127508D02*
X12486848Y-20117984D01*
X12734467Y-20117984D02*
X12639229Y-20117984D01*
X12639229Y-20117984D02*
X12629706Y-20213222D01*
X12629706Y-20213222D02*
X12639229Y-20203698D01*
X12639229Y-20203698D02*
X12658277Y-20194174D01*
X12658277Y-20194174D02*
X12705896Y-20194174D01*
X12705896Y-20194174D02*
X12724944Y-20203698D01*
X12724944Y-20203698D02*
X12734467Y-20213222D01*
X12734467Y-20213222D02*
X12743991Y-20232270D01*
X12743991Y-20232270D02*
X12743991Y-20279889D01*
X12743991Y-20279889D02*
X12734467Y-20298936D01*
X12734467Y-20298936D02*
X12724944Y-20308460D01*
X12724944Y-20308460D02*
X12705896Y-20317984D01*
X12705896Y-20317984D02*
X12658277Y-20317984D01*
X12658277Y-20317984D02*
X12639229Y-20308460D01*
X12639229Y-20308460D02*
X12629706Y-20298936D01*
X12924944Y-20117984D02*
X12829706Y-20117984D01*
X12829706Y-20117984D02*
X12820182Y-20213222D01*
X12820182Y-20213222D02*
X12829706Y-20203698D01*
X12829706Y-20203698D02*
X12848753Y-20194174D01*
X12848753Y-20194174D02*
X12896372Y-20194174D01*
X12896372Y-20194174D02*
X12915420Y-20203698D01*
X12915420Y-20203698D02*
X12924944Y-20213222D01*
X12924944Y-20213222D02*
X12934467Y-20232270D01*
X12934467Y-20232270D02*
X12934467Y-20279889D01*
X12934467Y-20279889D02*
X12924944Y-20298936D01*
X12924944Y-20298936D02*
X12915420Y-20308460D01*
X12915420Y-20308460D02*
X12896372Y-20317984D01*
X12896372Y-20317984D02*
X12848753Y-20317984D01*
X12848753Y-20317984D02*
X12829706Y-20308460D01*
X12829706Y-20308460D02*
X12820182Y-20298936D01*
X13124944Y-20317984D02*
X13010658Y-20317984D01*
X13067801Y-20317984D02*
X13067801Y-20117984D01*
X13067801Y-20117984D02*
X13048753Y-20146555D01*
X13048753Y-20146555D02*
X13029706Y-20165603D01*
X13029706Y-20165603D02*
X13010658Y-20175127D01*
X13201134Y-20117984D02*
X13201134Y-20156079D01*
X13277325Y-20117984D02*
X13277325Y-20156079D01*
X13572563Y-20394174D02*
X13563039Y-20384650D01*
X13563039Y-20384650D02*
X13543991Y-20356079D01*
X13543991Y-20356079D02*
X13534468Y-20337031D01*
X13534468Y-20337031D02*
X13524944Y-20308460D01*
X13524944Y-20308460D02*
X13515420Y-20260841D01*
X13515420Y-20260841D02*
X13515420Y-20222746D01*
X13515420Y-20222746D02*
X13524944Y-20175127D01*
X13524944Y-20175127D02*
X13534468Y-20146555D01*
X13534468Y-20146555D02*
X13543991Y-20127508D01*
X13543991Y-20127508D02*
X13563039Y-20098936D01*
X13563039Y-20098936D02*
X13572563Y-20089412D01*
X13639229Y-20137031D02*
X13648753Y-20127508D01*
X13648753Y-20127508D02*
X13667801Y-20117984D01*
X13667801Y-20117984D02*
X13715420Y-20117984D01*
X13715420Y-20117984D02*
X13734468Y-20127508D01*
X13734468Y-20127508D02*
X13743991Y-20137031D01*
X13743991Y-20137031D02*
X13753515Y-20156079D01*
X13753515Y-20156079D02*
X13753515Y-20175127D01*
X13753515Y-20175127D02*
X13743991Y-20203698D01*
X13743991Y-20203698D02*
X13629706Y-20317984D01*
X13629706Y-20317984D02*
X13753515Y-20317984D01*
X13877325Y-20117984D02*
X13896372Y-20117984D01*
X13896372Y-20117984D02*
X13915420Y-20127508D01*
X13915420Y-20127508D02*
X13924944Y-20137031D01*
X13924944Y-20137031D02*
X13934468Y-20156079D01*
X13934468Y-20156079D02*
X13943991Y-20194174D01*
X13943991Y-20194174D02*
X13943991Y-20241793D01*
X13943991Y-20241793D02*
X13934468Y-20279889D01*
X13934468Y-20279889D02*
X13924944Y-20298936D01*
X13924944Y-20298936D02*
X13915420Y-20308460D01*
X13915420Y-20308460D02*
X13896372Y-20317984D01*
X13896372Y-20317984D02*
X13877325Y-20317984D01*
X13877325Y-20317984D02*
X13858277Y-20308460D01*
X13858277Y-20308460D02*
X13848753Y-20298936D01*
X13848753Y-20298936D02*
X13839229Y-20279889D01*
X13839229Y-20279889D02*
X13829706Y-20241793D01*
X13829706Y-20241793D02*
X13829706Y-20194174D01*
X13829706Y-20194174D02*
X13839229Y-20156079D01*
X13839229Y-20156079D02*
X13848753Y-20137031D01*
X13848753Y-20137031D02*
X13858277Y-20127508D01*
X13858277Y-20127508D02*
X13877325Y-20117984D01*
X14182087Y-20317984D02*
X14182087Y-20117984D01*
X14267801Y-20317984D02*
X14267801Y-20213222D01*
X14267801Y-20213222D02*
X14258277Y-20194174D01*
X14258277Y-20194174D02*
X14239230Y-20184650D01*
X14239230Y-20184650D02*
X14210658Y-20184650D01*
X14210658Y-20184650D02*
X14191610Y-20194174D01*
X14191610Y-20194174D02*
X14182087Y-20203698D01*
X14391610Y-20317984D02*
X14372563Y-20308460D01*
X14372563Y-20308460D02*
X14363039Y-20298936D01*
X14363039Y-20298936D02*
X14353515Y-20279889D01*
X14353515Y-20279889D02*
X14353515Y-20222746D01*
X14353515Y-20222746D02*
X14363039Y-20203698D01*
X14363039Y-20203698D02*
X14372563Y-20194174D01*
X14372563Y-20194174D02*
X14391610Y-20184650D01*
X14391610Y-20184650D02*
X14420182Y-20184650D01*
X14420182Y-20184650D02*
X14439230Y-20194174D01*
X14439230Y-20194174D02*
X14448753Y-20203698D01*
X14448753Y-20203698D02*
X14458277Y-20222746D01*
X14458277Y-20222746D02*
X14458277Y-20279889D01*
X14458277Y-20279889D02*
X14448753Y-20298936D01*
X14448753Y-20298936D02*
X14439230Y-20308460D01*
X14439230Y-20308460D02*
X14420182Y-20317984D01*
X14420182Y-20317984D02*
X14391610Y-20317984D01*
X14572563Y-20317984D02*
X14553515Y-20308460D01*
X14553515Y-20308460D02*
X14543991Y-20289412D01*
X14543991Y-20289412D02*
X14543991Y-20117984D01*
X14724944Y-20308460D02*
X14705896Y-20317984D01*
X14705896Y-20317984D02*
X14667801Y-20317984D01*
X14667801Y-20317984D02*
X14648753Y-20308460D01*
X14648753Y-20308460D02*
X14639230Y-20289412D01*
X14639230Y-20289412D02*
X14639230Y-20213222D01*
X14639230Y-20213222D02*
X14648753Y-20194174D01*
X14648753Y-20194174D02*
X14667801Y-20184650D01*
X14667801Y-20184650D02*
X14705896Y-20184650D01*
X14705896Y-20184650D02*
X14724944Y-20194174D01*
X14724944Y-20194174D02*
X14734468Y-20213222D01*
X14734468Y-20213222D02*
X14734468Y-20232270D01*
X14734468Y-20232270D02*
X14639230Y-20251317D01*
X14810658Y-20308460D02*
X14829706Y-20317984D01*
X14829706Y-20317984D02*
X14867801Y-20317984D01*
X14867801Y-20317984D02*
X14886849Y-20308460D01*
X14886849Y-20308460D02*
X14896372Y-20289412D01*
X14896372Y-20289412D02*
X14896372Y-20279889D01*
X14896372Y-20279889D02*
X14886849Y-20260841D01*
X14886849Y-20260841D02*
X14867801Y-20251317D01*
X14867801Y-20251317D02*
X14839230Y-20251317D01*
X14839230Y-20251317D02*
X14820182Y-20241793D01*
X14820182Y-20241793D02*
X14810658Y-20222746D01*
X14810658Y-20222746D02*
X14810658Y-20213222D01*
X14810658Y-20213222D02*
X14820182Y-20194174D01*
X14820182Y-20194174D02*
X14839230Y-20184650D01*
X14839230Y-20184650D02*
X14867801Y-20184650D01*
X14867801Y-20184650D02*
X14886849Y-20194174D01*
X14963039Y-20394174D02*
X14972563Y-20384650D01*
X14972563Y-20384650D02*
X14991611Y-20356079D01*
X14991611Y-20356079D02*
X15001134Y-20337031D01*
X15001134Y-20337031D02*
X15010658Y-20308460D01*
X15010658Y-20308460D02*
X15020182Y-20260841D01*
X15020182Y-20260841D02*
X15020182Y-20222746D01*
X15020182Y-20222746D02*
X15010658Y-20175127D01*
X15010658Y-20175127D02*
X15001134Y-20146555D01*
X15001134Y-20146555D02*
X14991611Y-20127508D01*
X14991611Y-20127508D02*
X14972563Y-20098936D01*
X14972563Y-20098936D02*
X14963039Y-20089412D01*
D15*
X9827500Y-20405500D02*
X9997500Y-20575500D01*
X9997500Y-20405500D02*
X9827500Y-20575500D01*
X9972605Y-20550605D02*
X9972605Y-20430395D01*
X9852395Y-20430395D01*
X9852395Y-20550605D01*
X9972605Y-20550605D01*
D11*
X10363039Y-20581984D02*
X10248753Y-20581984D01*
X10305896Y-20581984D02*
X10305896Y-20381984D01*
X10305896Y-20381984D02*
X10286848Y-20410555D01*
X10286848Y-20410555D02*
X10267801Y-20429603D01*
X10267801Y-20429603D02*
X10248753Y-20439127D01*
X10448753Y-20562936D02*
X10458277Y-20572460D01*
X10458277Y-20572460D02*
X10448753Y-20581984D01*
X10448753Y-20581984D02*
X10439229Y-20572460D01*
X10439229Y-20572460D02*
X10448753Y-20562936D01*
X10448753Y-20562936D02*
X10448753Y-20581984D01*
X10524944Y-20381984D02*
X10658277Y-20381984D01*
X10658277Y-20381984D02*
X10572563Y-20581984D01*
X10772563Y-20381984D02*
X10791610Y-20381984D01*
X10791610Y-20381984D02*
X10810658Y-20391508D01*
X10810658Y-20391508D02*
X10820182Y-20401031D01*
X10820182Y-20401031D02*
X10829705Y-20420079D01*
X10829705Y-20420079D02*
X10839229Y-20458174D01*
X10839229Y-20458174D02*
X10839229Y-20505793D01*
X10839229Y-20505793D02*
X10829705Y-20543889D01*
X10829705Y-20543889D02*
X10820182Y-20562936D01*
X10820182Y-20562936D02*
X10810658Y-20572460D01*
X10810658Y-20572460D02*
X10791610Y-20581984D01*
X10791610Y-20581984D02*
X10772563Y-20581984D01*
X10772563Y-20581984D02*
X10753515Y-20572460D01*
X10753515Y-20572460D02*
X10743991Y-20562936D01*
X10743991Y-20562936D02*
X10734467Y-20543889D01*
X10734467Y-20543889D02*
X10724944Y-20505793D01*
X10724944Y-20505793D02*
X10724944Y-20458174D01*
X10724944Y-20458174D02*
X10734467Y-20420079D01*
X10734467Y-20420079D02*
X10743991Y-20401031D01*
X10743991Y-20401031D02*
X10753515Y-20391508D01*
X10753515Y-20391508D02*
X10772563Y-20381984D01*
X10963039Y-20381984D02*
X10982086Y-20381984D01*
X10982086Y-20381984D02*
X11001134Y-20391508D01*
X11001134Y-20391508D02*
X11010658Y-20401031D01*
X11010658Y-20401031D02*
X11020182Y-20420079D01*
X11020182Y-20420079D02*
X11029705Y-20458174D01*
X11029705Y-20458174D02*
X11029705Y-20505793D01*
X11029705Y-20505793D02*
X11020182Y-20543889D01*
X11020182Y-20543889D02*
X11010658Y-20562936D01*
X11010658Y-20562936D02*
X11001134Y-20572460D01*
X11001134Y-20572460D02*
X10982086Y-20581984D01*
X10982086Y-20581984D02*
X10963039Y-20581984D01*
X10963039Y-20581984D02*
X10943991Y-20572460D01*
X10943991Y-20572460D02*
X10934467Y-20562936D01*
X10934467Y-20562936D02*
X10924944Y-20543889D01*
X10924944Y-20543889D02*
X10915420Y-20505793D01*
X10915420Y-20505793D02*
X10915420Y-20458174D01*
X10915420Y-20458174D02*
X10924944Y-20420079D01*
X10924944Y-20420079D02*
X10934467Y-20401031D01*
X10934467Y-20401031D02*
X10943991Y-20391508D01*
X10943991Y-20391508D02*
X10963039Y-20381984D01*
X11115420Y-20581984D02*
X11115420Y-20448650D01*
X11115420Y-20467698D02*
X11124944Y-20458174D01*
X11124944Y-20458174D02*
X11143991Y-20448650D01*
X11143991Y-20448650D02*
X11172563Y-20448650D01*
X11172563Y-20448650D02*
X11191610Y-20458174D01*
X11191610Y-20458174D02*
X11201134Y-20477222D01*
X11201134Y-20477222D02*
X11201134Y-20581984D01*
X11201134Y-20477222D02*
X11210658Y-20458174D01*
X11210658Y-20458174D02*
X11229705Y-20448650D01*
X11229705Y-20448650D02*
X11258277Y-20448650D01*
X11258277Y-20448650D02*
X11277324Y-20458174D01*
X11277324Y-20458174D02*
X11286848Y-20477222D01*
X11286848Y-20477222D02*
X11286848Y-20581984D01*
X11382086Y-20581984D02*
X11382086Y-20448650D01*
X11382086Y-20467698D02*
X11391610Y-20458174D01*
X11391610Y-20458174D02*
X11410658Y-20448650D01*
X11410658Y-20448650D02*
X11439229Y-20448650D01*
X11439229Y-20448650D02*
X11458277Y-20458174D01*
X11458277Y-20458174D02*
X11467801Y-20477222D01*
X11467801Y-20477222D02*
X11467801Y-20581984D01*
X11467801Y-20477222D02*
X11477324Y-20458174D01*
X11477324Y-20458174D02*
X11496372Y-20448650D01*
X11496372Y-20448650D02*
X11524943Y-20448650D01*
X11524943Y-20448650D02*
X11543991Y-20458174D01*
X11543991Y-20458174D02*
X11553515Y-20477222D01*
X11553515Y-20477222D02*
X11553515Y-20581984D01*
X11943991Y-20372460D02*
X11772563Y-20629603D01*
X12201134Y-20381984D02*
X12220182Y-20381984D01*
X12220182Y-20381984D02*
X12239229Y-20391508D01*
X12239229Y-20391508D02*
X12248753Y-20401031D01*
X12248753Y-20401031D02*
X12258277Y-20420079D01*
X12258277Y-20420079D02*
X12267801Y-20458174D01*
X12267801Y-20458174D02*
X12267801Y-20505793D01*
X12267801Y-20505793D02*
X12258277Y-20543889D01*
X12258277Y-20543889D02*
X12248753Y-20562936D01*
X12248753Y-20562936D02*
X12239229Y-20572460D01*
X12239229Y-20572460D02*
X12220182Y-20581984D01*
X12220182Y-20581984D02*
X12201134Y-20581984D01*
X12201134Y-20581984D02*
X12182086Y-20572460D01*
X12182086Y-20572460D02*
X12172563Y-20562936D01*
X12172563Y-20562936D02*
X12163039Y-20543889D01*
X12163039Y-20543889D02*
X12153515Y-20505793D01*
X12153515Y-20505793D02*
X12153515Y-20458174D01*
X12153515Y-20458174D02*
X12163039Y-20420079D01*
X12163039Y-20420079D02*
X12172563Y-20401031D01*
X12172563Y-20401031D02*
X12182086Y-20391508D01*
X12182086Y-20391508D02*
X12201134Y-20381984D01*
X12353515Y-20562936D02*
X12363039Y-20572460D01*
X12363039Y-20572460D02*
X12353515Y-20581984D01*
X12353515Y-20581984D02*
X12343991Y-20572460D01*
X12343991Y-20572460D02*
X12353515Y-20562936D01*
X12353515Y-20562936D02*
X12353515Y-20581984D01*
X12486848Y-20381984D02*
X12505896Y-20381984D01*
X12505896Y-20381984D02*
X12524944Y-20391508D01*
X12524944Y-20391508D02*
X12534467Y-20401031D01*
X12534467Y-20401031D02*
X12543991Y-20420079D01*
X12543991Y-20420079D02*
X12553515Y-20458174D01*
X12553515Y-20458174D02*
X12553515Y-20505793D01*
X12553515Y-20505793D02*
X12543991Y-20543889D01*
X12543991Y-20543889D02*
X12534467Y-20562936D01*
X12534467Y-20562936D02*
X12524944Y-20572460D01*
X12524944Y-20572460D02*
X12505896Y-20581984D01*
X12505896Y-20581984D02*
X12486848Y-20581984D01*
X12486848Y-20581984D02*
X12467801Y-20572460D01*
X12467801Y-20572460D02*
X12458277Y-20562936D01*
X12458277Y-20562936D02*
X12448753Y-20543889D01*
X12448753Y-20543889D02*
X12439229Y-20505793D01*
X12439229Y-20505793D02*
X12439229Y-20458174D01*
X12439229Y-20458174D02*
X12448753Y-20420079D01*
X12448753Y-20420079D02*
X12458277Y-20401031D01*
X12458277Y-20401031D02*
X12467801Y-20391508D01*
X12467801Y-20391508D02*
X12486848Y-20381984D01*
X12724944Y-20381984D02*
X12686848Y-20381984D01*
X12686848Y-20381984D02*
X12667801Y-20391508D01*
X12667801Y-20391508D02*
X12658277Y-20401031D01*
X12658277Y-20401031D02*
X12639229Y-20429603D01*
X12639229Y-20429603D02*
X12629706Y-20467698D01*
X12629706Y-20467698D02*
X12629706Y-20543889D01*
X12629706Y-20543889D02*
X12639229Y-20562936D01*
X12639229Y-20562936D02*
X12648753Y-20572460D01*
X12648753Y-20572460D02*
X12667801Y-20581984D01*
X12667801Y-20581984D02*
X12705896Y-20581984D01*
X12705896Y-20581984D02*
X12724944Y-20572460D01*
X12724944Y-20572460D02*
X12734467Y-20562936D01*
X12734467Y-20562936D02*
X12743991Y-20543889D01*
X12743991Y-20543889D02*
X12743991Y-20496270D01*
X12743991Y-20496270D02*
X12734467Y-20477222D01*
X12734467Y-20477222D02*
X12724944Y-20467698D01*
X12724944Y-20467698D02*
X12705896Y-20458174D01*
X12705896Y-20458174D02*
X12667801Y-20458174D01*
X12667801Y-20458174D02*
X12648753Y-20467698D01*
X12648753Y-20467698D02*
X12639229Y-20477222D01*
X12639229Y-20477222D02*
X12629706Y-20496270D01*
X12915420Y-20381984D02*
X12877325Y-20381984D01*
X12877325Y-20381984D02*
X12858277Y-20391508D01*
X12858277Y-20391508D02*
X12848753Y-20401031D01*
X12848753Y-20401031D02*
X12829706Y-20429603D01*
X12829706Y-20429603D02*
X12820182Y-20467698D01*
X12820182Y-20467698D02*
X12820182Y-20543889D01*
X12820182Y-20543889D02*
X12829706Y-20562936D01*
X12829706Y-20562936D02*
X12839229Y-20572460D01*
X12839229Y-20572460D02*
X12858277Y-20581984D01*
X12858277Y-20581984D02*
X12896372Y-20581984D01*
X12896372Y-20581984D02*
X12915420Y-20572460D01*
X12915420Y-20572460D02*
X12924944Y-20562936D01*
X12924944Y-20562936D02*
X12934467Y-20543889D01*
X12934467Y-20543889D02*
X12934467Y-20496270D01*
X12934467Y-20496270D02*
X12924944Y-20477222D01*
X12924944Y-20477222D02*
X12915420Y-20467698D01*
X12915420Y-20467698D02*
X12896372Y-20458174D01*
X12896372Y-20458174D02*
X12858277Y-20458174D01*
X12858277Y-20458174D02*
X12839229Y-20467698D01*
X12839229Y-20467698D02*
X12829706Y-20477222D01*
X12829706Y-20477222D02*
X12820182Y-20496270D01*
X13029706Y-20581984D02*
X13067801Y-20581984D01*
X13067801Y-20581984D02*
X13086848Y-20572460D01*
X13086848Y-20572460D02*
X13096372Y-20562936D01*
X13096372Y-20562936D02*
X13115420Y-20534365D01*
X13115420Y-20534365D02*
X13124944Y-20496270D01*
X13124944Y-20496270D02*
X13124944Y-20420079D01*
X13124944Y-20420079D02*
X13115420Y-20401031D01*
X13115420Y-20401031D02*
X13105896Y-20391508D01*
X13105896Y-20391508D02*
X13086848Y-20381984D01*
X13086848Y-20381984D02*
X13048753Y-20381984D01*
X13048753Y-20381984D02*
X13029706Y-20391508D01*
X13029706Y-20391508D02*
X13020182Y-20401031D01*
X13020182Y-20401031D02*
X13010658Y-20420079D01*
X13010658Y-20420079D02*
X13010658Y-20467698D01*
X13010658Y-20467698D02*
X13020182Y-20486746D01*
X13020182Y-20486746D02*
X13029706Y-20496270D01*
X13029706Y-20496270D02*
X13048753Y-20505793D01*
X13048753Y-20505793D02*
X13086848Y-20505793D01*
X13086848Y-20505793D02*
X13105896Y-20496270D01*
X13105896Y-20496270D02*
X13115420Y-20486746D01*
X13115420Y-20486746D02*
X13124944Y-20467698D01*
X13201134Y-20381984D02*
X13201134Y-20420079D01*
X13277325Y-20381984D02*
X13277325Y-20420079D01*
X13572563Y-20658174D02*
X13563039Y-20648650D01*
X13563039Y-20648650D02*
X13543991Y-20620079D01*
X13543991Y-20620079D02*
X13534468Y-20601031D01*
X13534468Y-20601031D02*
X13524944Y-20572460D01*
X13524944Y-20572460D02*
X13515420Y-20524841D01*
X13515420Y-20524841D02*
X13515420Y-20486746D01*
X13515420Y-20486746D02*
X13524944Y-20439127D01*
X13524944Y-20439127D02*
X13534468Y-20410555D01*
X13534468Y-20410555D02*
X13543991Y-20391508D01*
X13543991Y-20391508D02*
X13563039Y-20362936D01*
X13563039Y-20362936D02*
X13572563Y-20353412D01*
X13743991Y-20381984D02*
X13648753Y-20381984D01*
X13648753Y-20381984D02*
X13639229Y-20477222D01*
X13639229Y-20477222D02*
X13648753Y-20467698D01*
X13648753Y-20467698D02*
X13667801Y-20458174D01*
X13667801Y-20458174D02*
X13715420Y-20458174D01*
X13715420Y-20458174D02*
X13734468Y-20467698D01*
X13734468Y-20467698D02*
X13743991Y-20477222D01*
X13743991Y-20477222D02*
X13753515Y-20496270D01*
X13753515Y-20496270D02*
X13753515Y-20543889D01*
X13753515Y-20543889D02*
X13743991Y-20562936D01*
X13743991Y-20562936D02*
X13734468Y-20572460D01*
X13734468Y-20572460D02*
X13715420Y-20581984D01*
X13715420Y-20581984D02*
X13667801Y-20581984D01*
X13667801Y-20581984D02*
X13648753Y-20572460D01*
X13648753Y-20572460D02*
X13639229Y-20562936D01*
X13991610Y-20581984D02*
X13991610Y-20381984D01*
X14077325Y-20581984D02*
X14077325Y-20477222D01*
X14077325Y-20477222D02*
X14067801Y-20458174D01*
X14067801Y-20458174D02*
X14048753Y-20448650D01*
X14048753Y-20448650D02*
X14020182Y-20448650D01*
X14020182Y-20448650D02*
X14001134Y-20458174D01*
X14001134Y-20458174D02*
X13991610Y-20467698D01*
X14201134Y-20581984D02*
X14182087Y-20572460D01*
X14182087Y-20572460D02*
X14172563Y-20562936D01*
X14172563Y-20562936D02*
X14163039Y-20543889D01*
X14163039Y-20543889D02*
X14163039Y-20486746D01*
X14163039Y-20486746D02*
X14172563Y-20467698D01*
X14172563Y-20467698D02*
X14182087Y-20458174D01*
X14182087Y-20458174D02*
X14201134Y-20448650D01*
X14201134Y-20448650D02*
X14229706Y-20448650D01*
X14229706Y-20448650D02*
X14248753Y-20458174D01*
X14248753Y-20458174D02*
X14258277Y-20467698D01*
X14258277Y-20467698D02*
X14267801Y-20486746D01*
X14267801Y-20486746D02*
X14267801Y-20543889D01*
X14267801Y-20543889D02*
X14258277Y-20562936D01*
X14258277Y-20562936D02*
X14248753Y-20572460D01*
X14248753Y-20572460D02*
X14229706Y-20581984D01*
X14229706Y-20581984D02*
X14201134Y-20581984D01*
X14382087Y-20581984D02*
X14363039Y-20572460D01*
X14363039Y-20572460D02*
X14353515Y-20553412D01*
X14353515Y-20553412D02*
X14353515Y-20381984D01*
X14534468Y-20572460D02*
X14515420Y-20581984D01*
X14515420Y-20581984D02*
X14477325Y-20581984D01*
X14477325Y-20581984D02*
X14458277Y-20572460D01*
X14458277Y-20572460D02*
X14448753Y-20553412D01*
X14448753Y-20553412D02*
X14448753Y-20477222D01*
X14448753Y-20477222D02*
X14458277Y-20458174D01*
X14458277Y-20458174D02*
X14477325Y-20448650D01*
X14477325Y-20448650D02*
X14515420Y-20448650D01*
X14515420Y-20448650D02*
X14534468Y-20458174D01*
X14534468Y-20458174D02*
X14543991Y-20477222D01*
X14543991Y-20477222D02*
X14543991Y-20496270D01*
X14543991Y-20496270D02*
X14448753Y-20515317D01*
X14620182Y-20572460D02*
X14639230Y-20581984D01*
X14639230Y-20581984D02*
X14677325Y-20581984D01*
X14677325Y-20581984D02*
X14696372Y-20572460D01*
X14696372Y-20572460D02*
X14705896Y-20553412D01*
X14705896Y-20553412D02*
X14705896Y-20543889D01*
X14705896Y-20543889D02*
X14696372Y-20524841D01*
X14696372Y-20524841D02*
X14677325Y-20515317D01*
X14677325Y-20515317D02*
X14648753Y-20515317D01*
X14648753Y-20515317D02*
X14629706Y-20505793D01*
X14629706Y-20505793D02*
X14620182Y-20486746D01*
X14620182Y-20486746D02*
X14620182Y-20477222D01*
X14620182Y-20477222D02*
X14629706Y-20458174D01*
X14629706Y-20458174D02*
X14648753Y-20448650D01*
X14648753Y-20448650D02*
X14677325Y-20448650D01*
X14677325Y-20448650D02*
X14696372Y-20458174D01*
X14772563Y-20658174D02*
X14782087Y-20648650D01*
X14782087Y-20648650D02*
X14801134Y-20620079D01*
X14801134Y-20620079D02*
X14810658Y-20601031D01*
X14810658Y-20601031D02*
X14820182Y-20572460D01*
X14820182Y-20572460D02*
X14829706Y-20524841D01*
X14829706Y-20524841D02*
X14829706Y-20486746D01*
X14829706Y-20486746D02*
X14820182Y-20439127D01*
X14820182Y-20439127D02*
X14810658Y-20410555D01*
X14810658Y-20410555D02*
X14801134Y-20391508D01*
X14801134Y-20391508D02*
X14782087Y-20362936D01*
X14782087Y-20362936D02*
X14772563Y-20353412D01*
X9797500Y-20680500D02*
X9997500Y-20880500D01*
X9997500Y-20680500D02*
X9797500Y-20880500D01*
X9897500Y-20880500D02*
X9997500Y-20780500D01*
X9897500Y-20680500D01*
X9797500Y-20780500D01*
X9897500Y-20880500D01*
X10248753Y-20691031D02*
X10258277Y-20681508D01*
X10258277Y-20681508D02*
X10277324Y-20671984D01*
X10277324Y-20671984D02*
X10324944Y-20671984D01*
X10324944Y-20671984D02*
X10343991Y-20681508D01*
X10343991Y-20681508D02*
X10353515Y-20691031D01*
X10353515Y-20691031D02*
X10363039Y-20710079D01*
X10363039Y-20710079D02*
X10363039Y-20729127D01*
X10363039Y-20729127D02*
X10353515Y-20757698D01*
X10353515Y-20757698D02*
X10239229Y-20871984D01*
X10239229Y-20871984D02*
X10363039Y-20871984D01*
X10448753Y-20852936D02*
X10458277Y-20862460D01*
X10458277Y-20862460D02*
X10448753Y-20871984D01*
X10448753Y-20871984D02*
X10439229Y-20862460D01*
X10439229Y-20862460D02*
X10448753Y-20852936D01*
X10448753Y-20852936D02*
X10448753Y-20871984D01*
X10639229Y-20671984D02*
X10543991Y-20671984D01*
X10543991Y-20671984D02*
X10534467Y-20767222D01*
X10534467Y-20767222D02*
X10543991Y-20757698D01*
X10543991Y-20757698D02*
X10563039Y-20748174D01*
X10563039Y-20748174D02*
X10610658Y-20748174D01*
X10610658Y-20748174D02*
X10629705Y-20757698D01*
X10629705Y-20757698D02*
X10639229Y-20767222D01*
X10639229Y-20767222D02*
X10648753Y-20786270D01*
X10648753Y-20786270D02*
X10648753Y-20833889D01*
X10648753Y-20833889D02*
X10639229Y-20852936D01*
X10639229Y-20852936D02*
X10629705Y-20862460D01*
X10629705Y-20862460D02*
X10610658Y-20871984D01*
X10610658Y-20871984D02*
X10563039Y-20871984D01*
X10563039Y-20871984D02*
X10543991Y-20862460D01*
X10543991Y-20862460D02*
X10534467Y-20852936D01*
X10772563Y-20671984D02*
X10791610Y-20671984D01*
X10791610Y-20671984D02*
X10810658Y-20681508D01*
X10810658Y-20681508D02*
X10820182Y-20691031D01*
X10820182Y-20691031D02*
X10829705Y-20710079D01*
X10829705Y-20710079D02*
X10839229Y-20748174D01*
X10839229Y-20748174D02*
X10839229Y-20795793D01*
X10839229Y-20795793D02*
X10829705Y-20833889D01*
X10829705Y-20833889D02*
X10820182Y-20852936D01*
X10820182Y-20852936D02*
X10810658Y-20862460D01*
X10810658Y-20862460D02*
X10791610Y-20871984D01*
X10791610Y-20871984D02*
X10772563Y-20871984D01*
X10772563Y-20871984D02*
X10753515Y-20862460D01*
X10753515Y-20862460D02*
X10743991Y-20852936D01*
X10743991Y-20852936D02*
X10734467Y-20833889D01*
X10734467Y-20833889D02*
X10724944Y-20795793D01*
X10724944Y-20795793D02*
X10724944Y-20748174D01*
X10724944Y-20748174D02*
X10734467Y-20710079D01*
X10734467Y-20710079D02*
X10743991Y-20691031D01*
X10743991Y-20691031D02*
X10753515Y-20681508D01*
X10753515Y-20681508D02*
X10772563Y-20671984D01*
X10963039Y-20671984D02*
X10982086Y-20671984D01*
X10982086Y-20671984D02*
X11001134Y-20681508D01*
X11001134Y-20681508D02*
X11010658Y-20691031D01*
X11010658Y-20691031D02*
X11020182Y-20710079D01*
X11020182Y-20710079D02*
X11029705Y-20748174D01*
X11029705Y-20748174D02*
X11029705Y-20795793D01*
X11029705Y-20795793D02*
X11020182Y-20833889D01*
X11020182Y-20833889D02*
X11010658Y-20852936D01*
X11010658Y-20852936D02*
X11001134Y-20862460D01*
X11001134Y-20862460D02*
X10982086Y-20871984D01*
X10982086Y-20871984D02*
X10963039Y-20871984D01*
X10963039Y-20871984D02*
X10943991Y-20862460D01*
X10943991Y-20862460D02*
X10934467Y-20852936D01*
X10934467Y-20852936D02*
X10924944Y-20833889D01*
X10924944Y-20833889D02*
X10915420Y-20795793D01*
X10915420Y-20795793D02*
X10915420Y-20748174D01*
X10915420Y-20748174D02*
X10924944Y-20710079D01*
X10924944Y-20710079D02*
X10934467Y-20691031D01*
X10934467Y-20691031D02*
X10943991Y-20681508D01*
X10943991Y-20681508D02*
X10963039Y-20671984D01*
X11115420Y-20871984D02*
X11115420Y-20738650D01*
X11115420Y-20757698D02*
X11124944Y-20748174D01*
X11124944Y-20748174D02*
X11143991Y-20738650D01*
X11143991Y-20738650D02*
X11172563Y-20738650D01*
X11172563Y-20738650D02*
X11191610Y-20748174D01*
X11191610Y-20748174D02*
X11201134Y-20767222D01*
X11201134Y-20767222D02*
X11201134Y-20871984D01*
X11201134Y-20767222D02*
X11210658Y-20748174D01*
X11210658Y-20748174D02*
X11229705Y-20738650D01*
X11229705Y-20738650D02*
X11258277Y-20738650D01*
X11258277Y-20738650D02*
X11277324Y-20748174D01*
X11277324Y-20748174D02*
X11286848Y-20767222D01*
X11286848Y-20767222D02*
X11286848Y-20871984D01*
X11382086Y-20871984D02*
X11382086Y-20738650D01*
X11382086Y-20757698D02*
X11391610Y-20748174D01*
X11391610Y-20748174D02*
X11410658Y-20738650D01*
X11410658Y-20738650D02*
X11439229Y-20738650D01*
X11439229Y-20738650D02*
X11458277Y-20748174D01*
X11458277Y-20748174D02*
X11467801Y-20767222D01*
X11467801Y-20767222D02*
X11467801Y-20871984D01*
X11467801Y-20767222D02*
X11477324Y-20748174D01*
X11477324Y-20748174D02*
X11496372Y-20738650D01*
X11496372Y-20738650D02*
X11524943Y-20738650D01*
X11524943Y-20738650D02*
X11543991Y-20748174D01*
X11543991Y-20748174D02*
X11553515Y-20767222D01*
X11553515Y-20767222D02*
X11553515Y-20871984D01*
X11943991Y-20662460D02*
X11772563Y-20919603D01*
X12201134Y-20671984D02*
X12220182Y-20671984D01*
X12220182Y-20671984D02*
X12239229Y-20681508D01*
X12239229Y-20681508D02*
X12248753Y-20691031D01*
X12248753Y-20691031D02*
X12258277Y-20710079D01*
X12258277Y-20710079D02*
X12267801Y-20748174D01*
X12267801Y-20748174D02*
X12267801Y-20795793D01*
X12267801Y-20795793D02*
X12258277Y-20833889D01*
X12258277Y-20833889D02*
X12248753Y-20852936D01*
X12248753Y-20852936D02*
X12239229Y-20862460D01*
X12239229Y-20862460D02*
X12220182Y-20871984D01*
X12220182Y-20871984D02*
X12201134Y-20871984D01*
X12201134Y-20871984D02*
X12182086Y-20862460D01*
X12182086Y-20862460D02*
X12172563Y-20852936D01*
X12172563Y-20852936D02*
X12163039Y-20833889D01*
X12163039Y-20833889D02*
X12153515Y-20795793D01*
X12153515Y-20795793D02*
X12153515Y-20748174D01*
X12153515Y-20748174D02*
X12163039Y-20710079D01*
X12163039Y-20710079D02*
X12172563Y-20691031D01*
X12172563Y-20691031D02*
X12182086Y-20681508D01*
X12182086Y-20681508D02*
X12201134Y-20671984D01*
X12353515Y-20852936D02*
X12363039Y-20862460D01*
X12363039Y-20862460D02*
X12353515Y-20871984D01*
X12353515Y-20871984D02*
X12343991Y-20862460D01*
X12343991Y-20862460D02*
X12353515Y-20852936D01*
X12353515Y-20852936D02*
X12353515Y-20871984D01*
X12486848Y-20671984D02*
X12505896Y-20671984D01*
X12505896Y-20671984D02*
X12524944Y-20681508D01*
X12524944Y-20681508D02*
X12534467Y-20691031D01*
X12534467Y-20691031D02*
X12543991Y-20710079D01*
X12543991Y-20710079D02*
X12553515Y-20748174D01*
X12553515Y-20748174D02*
X12553515Y-20795793D01*
X12553515Y-20795793D02*
X12543991Y-20833889D01*
X12543991Y-20833889D02*
X12534467Y-20852936D01*
X12534467Y-20852936D02*
X12524944Y-20862460D01*
X12524944Y-20862460D02*
X12505896Y-20871984D01*
X12505896Y-20871984D02*
X12486848Y-20871984D01*
X12486848Y-20871984D02*
X12467801Y-20862460D01*
X12467801Y-20862460D02*
X12458277Y-20852936D01*
X12458277Y-20852936D02*
X12448753Y-20833889D01*
X12448753Y-20833889D02*
X12439229Y-20795793D01*
X12439229Y-20795793D02*
X12439229Y-20748174D01*
X12439229Y-20748174D02*
X12448753Y-20710079D01*
X12448753Y-20710079D02*
X12458277Y-20691031D01*
X12458277Y-20691031D02*
X12467801Y-20681508D01*
X12467801Y-20681508D02*
X12486848Y-20671984D01*
X12648753Y-20871984D02*
X12686848Y-20871984D01*
X12686848Y-20871984D02*
X12705896Y-20862460D01*
X12705896Y-20862460D02*
X12715420Y-20852936D01*
X12715420Y-20852936D02*
X12734467Y-20824365D01*
X12734467Y-20824365D02*
X12743991Y-20786270D01*
X12743991Y-20786270D02*
X12743991Y-20710079D01*
X12743991Y-20710079D02*
X12734467Y-20691031D01*
X12734467Y-20691031D02*
X12724944Y-20681508D01*
X12724944Y-20681508D02*
X12705896Y-20671984D01*
X12705896Y-20671984D02*
X12667801Y-20671984D01*
X12667801Y-20671984D02*
X12648753Y-20681508D01*
X12648753Y-20681508D02*
X12639229Y-20691031D01*
X12639229Y-20691031D02*
X12629706Y-20710079D01*
X12629706Y-20710079D02*
X12629706Y-20757698D01*
X12629706Y-20757698D02*
X12639229Y-20776746D01*
X12639229Y-20776746D02*
X12648753Y-20786270D01*
X12648753Y-20786270D02*
X12667801Y-20795793D01*
X12667801Y-20795793D02*
X12705896Y-20795793D01*
X12705896Y-20795793D02*
X12724944Y-20786270D01*
X12724944Y-20786270D02*
X12734467Y-20776746D01*
X12734467Y-20776746D02*
X12743991Y-20757698D01*
X12858277Y-20757698D02*
X12839229Y-20748174D01*
X12839229Y-20748174D02*
X12829706Y-20738650D01*
X12829706Y-20738650D02*
X12820182Y-20719603D01*
X12820182Y-20719603D02*
X12820182Y-20710079D01*
X12820182Y-20710079D02*
X12829706Y-20691031D01*
X12829706Y-20691031D02*
X12839229Y-20681508D01*
X12839229Y-20681508D02*
X12858277Y-20671984D01*
X12858277Y-20671984D02*
X12896372Y-20671984D01*
X12896372Y-20671984D02*
X12915420Y-20681508D01*
X12915420Y-20681508D02*
X12924944Y-20691031D01*
X12924944Y-20691031D02*
X12934467Y-20710079D01*
X12934467Y-20710079D02*
X12934467Y-20719603D01*
X12934467Y-20719603D02*
X12924944Y-20738650D01*
X12924944Y-20738650D02*
X12915420Y-20748174D01*
X12915420Y-20748174D02*
X12896372Y-20757698D01*
X12896372Y-20757698D02*
X12858277Y-20757698D01*
X12858277Y-20757698D02*
X12839229Y-20767222D01*
X12839229Y-20767222D02*
X12829706Y-20776746D01*
X12829706Y-20776746D02*
X12820182Y-20795793D01*
X12820182Y-20795793D02*
X12820182Y-20833889D01*
X12820182Y-20833889D02*
X12829706Y-20852936D01*
X12829706Y-20852936D02*
X12839229Y-20862460D01*
X12839229Y-20862460D02*
X12858277Y-20871984D01*
X12858277Y-20871984D02*
X12896372Y-20871984D01*
X12896372Y-20871984D02*
X12915420Y-20862460D01*
X12915420Y-20862460D02*
X12924944Y-20852936D01*
X12924944Y-20852936D02*
X12934467Y-20833889D01*
X12934467Y-20833889D02*
X12934467Y-20795793D01*
X12934467Y-20795793D02*
X12924944Y-20776746D01*
X12924944Y-20776746D02*
X12915420Y-20767222D01*
X12915420Y-20767222D02*
X12896372Y-20757698D01*
X13105896Y-20738650D02*
X13105896Y-20871984D01*
X13058277Y-20662460D02*
X13010658Y-20805317D01*
X13010658Y-20805317D02*
X13134467Y-20805317D01*
X13201134Y-20671984D02*
X13201134Y-20710079D01*
X13277325Y-20671984D02*
X13277325Y-20710079D01*
X13572563Y-20948174D02*
X13563039Y-20938650D01*
X13563039Y-20938650D02*
X13543991Y-20910079D01*
X13543991Y-20910079D02*
X13534468Y-20891031D01*
X13534468Y-20891031D02*
X13524944Y-20862460D01*
X13524944Y-20862460D02*
X13515420Y-20814841D01*
X13515420Y-20814841D02*
X13515420Y-20776746D01*
X13515420Y-20776746D02*
X13524944Y-20729127D01*
X13524944Y-20729127D02*
X13534468Y-20700555D01*
X13534468Y-20700555D02*
X13543991Y-20681508D01*
X13543991Y-20681508D02*
X13563039Y-20652936D01*
X13563039Y-20652936D02*
X13572563Y-20643412D01*
X13753515Y-20871984D02*
X13639229Y-20871984D01*
X13696372Y-20871984D02*
X13696372Y-20671984D01*
X13696372Y-20671984D02*
X13677325Y-20700555D01*
X13677325Y-20700555D02*
X13658277Y-20719603D01*
X13658277Y-20719603D02*
X13639229Y-20729127D01*
X13829706Y-20691031D02*
X13839229Y-20681508D01*
X13839229Y-20681508D02*
X13858277Y-20671984D01*
X13858277Y-20671984D02*
X13905896Y-20671984D01*
X13905896Y-20671984D02*
X13924944Y-20681508D01*
X13924944Y-20681508D02*
X13934468Y-20691031D01*
X13934468Y-20691031D02*
X13943991Y-20710079D01*
X13943991Y-20710079D02*
X13943991Y-20729127D01*
X13943991Y-20729127D02*
X13934468Y-20757698D01*
X13934468Y-20757698D02*
X13820182Y-20871984D01*
X13820182Y-20871984D02*
X13943991Y-20871984D01*
X14182087Y-20871984D02*
X14182087Y-20671984D01*
X14267801Y-20871984D02*
X14267801Y-20767222D01*
X14267801Y-20767222D02*
X14258277Y-20748174D01*
X14258277Y-20748174D02*
X14239230Y-20738650D01*
X14239230Y-20738650D02*
X14210658Y-20738650D01*
X14210658Y-20738650D02*
X14191610Y-20748174D01*
X14191610Y-20748174D02*
X14182087Y-20757698D01*
X14391610Y-20871984D02*
X14372563Y-20862460D01*
X14372563Y-20862460D02*
X14363039Y-20852936D01*
X14363039Y-20852936D02*
X14353515Y-20833889D01*
X14353515Y-20833889D02*
X14353515Y-20776746D01*
X14353515Y-20776746D02*
X14363039Y-20757698D01*
X14363039Y-20757698D02*
X14372563Y-20748174D01*
X14372563Y-20748174D02*
X14391610Y-20738650D01*
X14391610Y-20738650D02*
X14420182Y-20738650D01*
X14420182Y-20738650D02*
X14439230Y-20748174D01*
X14439230Y-20748174D02*
X14448753Y-20757698D01*
X14448753Y-20757698D02*
X14458277Y-20776746D01*
X14458277Y-20776746D02*
X14458277Y-20833889D01*
X14458277Y-20833889D02*
X14448753Y-20852936D01*
X14448753Y-20852936D02*
X14439230Y-20862460D01*
X14439230Y-20862460D02*
X14420182Y-20871984D01*
X14420182Y-20871984D02*
X14391610Y-20871984D01*
X14572563Y-20871984D02*
X14553515Y-20862460D01*
X14553515Y-20862460D02*
X14543991Y-20843412D01*
X14543991Y-20843412D02*
X14543991Y-20671984D01*
X14724944Y-20862460D02*
X14705896Y-20871984D01*
X14705896Y-20871984D02*
X14667801Y-20871984D01*
X14667801Y-20871984D02*
X14648753Y-20862460D01*
X14648753Y-20862460D02*
X14639230Y-20843412D01*
X14639230Y-20843412D02*
X14639230Y-20767222D01*
X14639230Y-20767222D02*
X14648753Y-20748174D01*
X14648753Y-20748174D02*
X14667801Y-20738650D01*
X14667801Y-20738650D02*
X14705896Y-20738650D01*
X14705896Y-20738650D02*
X14724944Y-20748174D01*
X14724944Y-20748174D02*
X14734468Y-20767222D01*
X14734468Y-20767222D02*
X14734468Y-20786270D01*
X14734468Y-20786270D02*
X14639230Y-20805317D01*
X14810658Y-20862460D02*
X14829706Y-20871984D01*
X14829706Y-20871984D02*
X14867801Y-20871984D01*
X14867801Y-20871984D02*
X14886849Y-20862460D01*
X14886849Y-20862460D02*
X14896372Y-20843412D01*
X14896372Y-20843412D02*
X14896372Y-20833889D01*
X14896372Y-20833889D02*
X14886849Y-20814841D01*
X14886849Y-20814841D02*
X14867801Y-20805317D01*
X14867801Y-20805317D02*
X14839230Y-20805317D01*
X14839230Y-20805317D02*
X14820182Y-20795793D01*
X14820182Y-20795793D02*
X14810658Y-20776746D01*
X14810658Y-20776746D02*
X14810658Y-20767222D01*
X14810658Y-20767222D02*
X14820182Y-20748174D01*
X14820182Y-20748174D02*
X14839230Y-20738650D01*
X14839230Y-20738650D02*
X14867801Y-20738650D01*
X14867801Y-20738650D02*
X14886849Y-20748174D01*
X14963039Y-20948174D02*
X14972563Y-20938650D01*
X14972563Y-20938650D02*
X14991611Y-20910079D01*
X14991611Y-20910079D02*
X15001134Y-20891031D01*
X15001134Y-20891031D02*
X15010658Y-20862460D01*
X15010658Y-20862460D02*
X15020182Y-20814841D01*
X15020182Y-20814841D02*
X15020182Y-20776746D01*
X15020182Y-20776746D02*
X15010658Y-20729127D01*
X15010658Y-20729127D02*
X15001134Y-20700555D01*
X15001134Y-20700555D02*
X14991611Y-20681508D01*
X14991611Y-20681508D02*
X14972563Y-20652936D01*
X14972563Y-20652936D02*
X14963039Y-20643412D01*
X9897500Y-21000500D02*
X9897500Y-21200500D01*
X9797500Y-21100500D02*
X9997500Y-21100500D01*
X9997500Y-21100500D02*
G75*
G02*
X9797500Y-21100500I-100000J0D01*
G01*
X9797500Y-21100500D02*
G75*
G02*
X9997500Y-21100500I100000J0D01*
G01*
X10239229Y-20991984D02*
X10363039Y-20991984D01*
X10363039Y-20991984D02*
X10296372Y-21068174D01*
X10296372Y-21068174D02*
X10324944Y-21068174D01*
X10324944Y-21068174D02*
X10343991Y-21077698D01*
X10343991Y-21077698D02*
X10353515Y-21087222D01*
X10353515Y-21087222D02*
X10363039Y-21106270D01*
X10363039Y-21106270D02*
X10363039Y-21153889D01*
X10363039Y-21153889D02*
X10353515Y-21172936D01*
X10353515Y-21172936D02*
X10343991Y-21182460D01*
X10343991Y-21182460D02*
X10324944Y-21191984D01*
X10324944Y-21191984D02*
X10267801Y-21191984D01*
X10267801Y-21191984D02*
X10248753Y-21182460D01*
X10248753Y-21182460D02*
X10239229Y-21172936D01*
X10448753Y-21172936D02*
X10458277Y-21182460D01*
X10458277Y-21182460D02*
X10448753Y-21191984D01*
X10448753Y-21191984D02*
X10439229Y-21182460D01*
X10439229Y-21182460D02*
X10448753Y-21172936D01*
X10448753Y-21172936D02*
X10448753Y-21191984D01*
X10524944Y-20991984D02*
X10658277Y-20991984D01*
X10658277Y-20991984D02*
X10572563Y-21191984D01*
X10772563Y-20991984D02*
X10791610Y-20991984D01*
X10791610Y-20991984D02*
X10810658Y-21001508D01*
X10810658Y-21001508D02*
X10820182Y-21011031D01*
X10820182Y-21011031D02*
X10829705Y-21030079D01*
X10829705Y-21030079D02*
X10839229Y-21068174D01*
X10839229Y-21068174D02*
X10839229Y-21115793D01*
X10839229Y-21115793D02*
X10829705Y-21153889D01*
X10829705Y-21153889D02*
X10820182Y-21172936D01*
X10820182Y-21172936D02*
X10810658Y-21182460D01*
X10810658Y-21182460D02*
X10791610Y-21191984D01*
X10791610Y-21191984D02*
X10772563Y-21191984D01*
X10772563Y-21191984D02*
X10753515Y-21182460D01*
X10753515Y-21182460D02*
X10743991Y-21172936D01*
X10743991Y-21172936D02*
X10734467Y-21153889D01*
X10734467Y-21153889D02*
X10724944Y-21115793D01*
X10724944Y-21115793D02*
X10724944Y-21068174D01*
X10724944Y-21068174D02*
X10734467Y-21030079D01*
X10734467Y-21030079D02*
X10743991Y-21011031D01*
X10743991Y-21011031D02*
X10753515Y-21001508D01*
X10753515Y-21001508D02*
X10772563Y-20991984D01*
X10963039Y-20991984D02*
X10982086Y-20991984D01*
X10982086Y-20991984D02*
X11001134Y-21001508D01*
X11001134Y-21001508D02*
X11010658Y-21011031D01*
X11010658Y-21011031D02*
X11020182Y-21030079D01*
X11020182Y-21030079D02*
X11029705Y-21068174D01*
X11029705Y-21068174D02*
X11029705Y-21115793D01*
X11029705Y-21115793D02*
X11020182Y-21153889D01*
X11020182Y-21153889D02*
X11010658Y-21172936D01*
X11010658Y-21172936D02*
X11001134Y-21182460D01*
X11001134Y-21182460D02*
X10982086Y-21191984D01*
X10982086Y-21191984D02*
X10963039Y-21191984D01*
X10963039Y-21191984D02*
X10943991Y-21182460D01*
X10943991Y-21182460D02*
X10934467Y-21172936D01*
X10934467Y-21172936D02*
X10924944Y-21153889D01*
X10924944Y-21153889D02*
X10915420Y-21115793D01*
X10915420Y-21115793D02*
X10915420Y-21068174D01*
X10915420Y-21068174D02*
X10924944Y-21030079D01*
X10924944Y-21030079D02*
X10934467Y-21011031D01*
X10934467Y-21011031D02*
X10943991Y-21001508D01*
X10943991Y-21001508D02*
X10963039Y-20991984D01*
X11115420Y-21191984D02*
X11115420Y-21058650D01*
X11115420Y-21077698D02*
X11124944Y-21068174D01*
X11124944Y-21068174D02*
X11143991Y-21058650D01*
X11143991Y-21058650D02*
X11172563Y-21058650D01*
X11172563Y-21058650D02*
X11191610Y-21068174D01*
X11191610Y-21068174D02*
X11201134Y-21087222D01*
X11201134Y-21087222D02*
X11201134Y-21191984D01*
X11201134Y-21087222D02*
X11210658Y-21068174D01*
X11210658Y-21068174D02*
X11229705Y-21058650D01*
X11229705Y-21058650D02*
X11258277Y-21058650D01*
X11258277Y-21058650D02*
X11277324Y-21068174D01*
X11277324Y-21068174D02*
X11286848Y-21087222D01*
X11286848Y-21087222D02*
X11286848Y-21191984D01*
X11382086Y-21191984D02*
X11382086Y-21058650D01*
X11382086Y-21077698D02*
X11391610Y-21068174D01*
X11391610Y-21068174D02*
X11410658Y-21058650D01*
X11410658Y-21058650D02*
X11439229Y-21058650D01*
X11439229Y-21058650D02*
X11458277Y-21068174D01*
X11458277Y-21068174D02*
X11467801Y-21087222D01*
X11467801Y-21087222D02*
X11467801Y-21191984D01*
X11467801Y-21087222D02*
X11477324Y-21068174D01*
X11477324Y-21068174D02*
X11496372Y-21058650D01*
X11496372Y-21058650D02*
X11524943Y-21058650D01*
X11524943Y-21058650D02*
X11543991Y-21068174D01*
X11543991Y-21068174D02*
X11553515Y-21087222D01*
X11553515Y-21087222D02*
X11553515Y-21191984D01*
X11943991Y-20982460D02*
X11772563Y-21239603D01*
X12201134Y-20991984D02*
X12220182Y-20991984D01*
X12220182Y-20991984D02*
X12239229Y-21001508D01*
X12239229Y-21001508D02*
X12248753Y-21011031D01*
X12248753Y-21011031D02*
X12258277Y-21030079D01*
X12258277Y-21030079D02*
X12267801Y-21068174D01*
X12267801Y-21068174D02*
X12267801Y-21115793D01*
X12267801Y-21115793D02*
X12258277Y-21153889D01*
X12258277Y-21153889D02*
X12248753Y-21172936D01*
X12248753Y-21172936D02*
X12239229Y-21182460D01*
X12239229Y-21182460D02*
X12220182Y-21191984D01*
X12220182Y-21191984D02*
X12201134Y-21191984D01*
X12201134Y-21191984D02*
X12182086Y-21182460D01*
X12182086Y-21182460D02*
X12172563Y-21172936D01*
X12172563Y-21172936D02*
X12163039Y-21153889D01*
X12163039Y-21153889D02*
X12153515Y-21115793D01*
X12153515Y-21115793D02*
X12153515Y-21068174D01*
X12153515Y-21068174D02*
X12163039Y-21030079D01*
X12163039Y-21030079D02*
X12172563Y-21011031D01*
X12172563Y-21011031D02*
X12182086Y-21001508D01*
X12182086Y-21001508D02*
X12201134Y-20991984D01*
X12353515Y-21172936D02*
X12363039Y-21182460D01*
X12363039Y-21182460D02*
X12353515Y-21191984D01*
X12353515Y-21191984D02*
X12343991Y-21182460D01*
X12343991Y-21182460D02*
X12353515Y-21172936D01*
X12353515Y-21172936D02*
X12353515Y-21191984D01*
X12553515Y-21191984D02*
X12439229Y-21191984D01*
X12496372Y-21191984D02*
X12496372Y-20991984D01*
X12496372Y-20991984D02*
X12477325Y-21020555D01*
X12477325Y-21020555D02*
X12458277Y-21039603D01*
X12458277Y-21039603D02*
X12439229Y-21049127D01*
X12724944Y-21058650D02*
X12724944Y-21191984D01*
X12677325Y-20982460D02*
X12629706Y-21125317D01*
X12629706Y-21125317D02*
X12753515Y-21125317D01*
X12924944Y-20991984D02*
X12829706Y-20991984D01*
X12829706Y-20991984D02*
X12820182Y-21087222D01*
X12820182Y-21087222D02*
X12829706Y-21077698D01*
X12829706Y-21077698D02*
X12848753Y-21068174D01*
X12848753Y-21068174D02*
X12896372Y-21068174D01*
X12896372Y-21068174D02*
X12915420Y-21077698D01*
X12915420Y-21077698D02*
X12924944Y-21087222D01*
X12924944Y-21087222D02*
X12934467Y-21106270D01*
X12934467Y-21106270D02*
X12934467Y-21153889D01*
X12934467Y-21153889D02*
X12924944Y-21172936D01*
X12924944Y-21172936D02*
X12915420Y-21182460D01*
X12915420Y-21182460D02*
X12896372Y-21191984D01*
X12896372Y-21191984D02*
X12848753Y-21191984D01*
X12848753Y-21191984D02*
X12829706Y-21182460D01*
X12829706Y-21182460D02*
X12820182Y-21172936D01*
X13001134Y-20991984D02*
X13134467Y-20991984D01*
X13134467Y-20991984D02*
X13048753Y-21191984D01*
X13201134Y-20991984D02*
X13201134Y-21030079D01*
X13277325Y-20991984D02*
X13277325Y-21030079D01*
X13572563Y-21268174D02*
X13563039Y-21258650D01*
X13563039Y-21258650D02*
X13543991Y-21230079D01*
X13543991Y-21230079D02*
X13534468Y-21211031D01*
X13534468Y-21211031D02*
X13524944Y-21182460D01*
X13524944Y-21182460D02*
X13515420Y-21134841D01*
X13515420Y-21134841D02*
X13515420Y-21096746D01*
X13515420Y-21096746D02*
X13524944Y-21049127D01*
X13524944Y-21049127D02*
X13534468Y-21020555D01*
X13534468Y-21020555D02*
X13543991Y-21001508D01*
X13543991Y-21001508D02*
X13563039Y-20972936D01*
X13563039Y-20972936D02*
X13572563Y-20963412D01*
X13734468Y-21058650D02*
X13734468Y-21191984D01*
X13686848Y-20982460D02*
X13639229Y-21125317D01*
X13639229Y-21125317D02*
X13763039Y-21125317D01*
X13991610Y-21191984D02*
X13991610Y-20991984D01*
X14077325Y-21191984D02*
X14077325Y-21087222D01*
X14077325Y-21087222D02*
X14067801Y-21068174D01*
X14067801Y-21068174D02*
X14048753Y-21058650D01*
X14048753Y-21058650D02*
X14020182Y-21058650D01*
X14020182Y-21058650D02*
X14001134Y-21068174D01*
X14001134Y-21068174D02*
X13991610Y-21077698D01*
X14201134Y-21191984D02*
X14182087Y-21182460D01*
X14182087Y-21182460D02*
X14172563Y-21172936D01*
X14172563Y-21172936D02*
X14163039Y-21153889D01*
X14163039Y-21153889D02*
X14163039Y-21096746D01*
X14163039Y-21096746D02*
X14172563Y-21077698D01*
X14172563Y-21077698D02*
X14182087Y-21068174D01*
X14182087Y-21068174D02*
X14201134Y-21058650D01*
X14201134Y-21058650D02*
X14229706Y-21058650D01*
X14229706Y-21058650D02*
X14248753Y-21068174D01*
X14248753Y-21068174D02*
X14258277Y-21077698D01*
X14258277Y-21077698D02*
X14267801Y-21096746D01*
X14267801Y-21096746D02*
X14267801Y-21153889D01*
X14267801Y-21153889D02*
X14258277Y-21172936D01*
X14258277Y-21172936D02*
X14248753Y-21182460D01*
X14248753Y-21182460D02*
X14229706Y-21191984D01*
X14229706Y-21191984D02*
X14201134Y-21191984D01*
X14382087Y-21191984D02*
X14363039Y-21182460D01*
X14363039Y-21182460D02*
X14353515Y-21163412D01*
X14353515Y-21163412D02*
X14353515Y-20991984D01*
X14534468Y-21182460D02*
X14515420Y-21191984D01*
X14515420Y-21191984D02*
X14477325Y-21191984D01*
X14477325Y-21191984D02*
X14458277Y-21182460D01*
X14458277Y-21182460D02*
X14448753Y-21163412D01*
X14448753Y-21163412D02*
X14448753Y-21087222D01*
X14448753Y-21087222D02*
X14458277Y-21068174D01*
X14458277Y-21068174D02*
X14477325Y-21058650D01*
X14477325Y-21058650D02*
X14515420Y-21058650D01*
X14515420Y-21058650D02*
X14534468Y-21068174D01*
X14534468Y-21068174D02*
X14543991Y-21087222D01*
X14543991Y-21087222D02*
X14543991Y-21106270D01*
X14543991Y-21106270D02*
X14448753Y-21125317D01*
X14620182Y-21182460D02*
X14639230Y-21191984D01*
X14639230Y-21191984D02*
X14677325Y-21191984D01*
X14677325Y-21191984D02*
X14696372Y-21182460D01*
X14696372Y-21182460D02*
X14705896Y-21163412D01*
X14705896Y-21163412D02*
X14705896Y-21153889D01*
X14705896Y-21153889D02*
X14696372Y-21134841D01*
X14696372Y-21134841D02*
X14677325Y-21125317D01*
X14677325Y-21125317D02*
X14648753Y-21125317D01*
X14648753Y-21125317D02*
X14629706Y-21115793D01*
X14629706Y-21115793D02*
X14620182Y-21096746D01*
X14620182Y-21096746D02*
X14620182Y-21087222D01*
X14620182Y-21087222D02*
X14629706Y-21068174D01*
X14629706Y-21068174D02*
X14648753Y-21058650D01*
X14648753Y-21058650D02*
X14677325Y-21058650D01*
X14677325Y-21058650D02*
X14696372Y-21068174D01*
X14772563Y-21268174D02*
X14782087Y-21258650D01*
X14782087Y-21258650D02*
X14801134Y-21230079D01*
X14801134Y-21230079D02*
X14810658Y-21211031D01*
X14810658Y-21211031D02*
X14820182Y-21182460D01*
X14820182Y-21182460D02*
X14829706Y-21134841D01*
X14829706Y-21134841D02*
X14829706Y-21096746D01*
X14829706Y-21096746D02*
X14820182Y-21049127D01*
X14820182Y-21049127D02*
X14810658Y-21020555D01*
X14810658Y-21020555D02*
X14801134Y-21001508D01*
X14801134Y-21001508D02*
X14782087Y-20972936D01*
X14782087Y-20972936D02*
X14772563Y-20963412D01*
M02*
