%TF.GenerationSoftware,KiCad,Pcbnew,8.0.6*%
%TF.CreationDate,2024-12-18T16:50:58+00:00*%
%TF.ProjectId,PSU Adapter 2,50535520-4164-4617-9074-657220322e6b,0.4*%
%TF.SameCoordinates,Original*%
%TF.FileFunction,Drillmap*%
%TF.FilePolarity,Positive*%
%FSLAX45Y45*%
G04 Gerber Fmt 4.5, Leading zero omitted, Abs format (unit mm)*
G04 Created by KiCad (PCBNEW 8.0.6) date 2024-12-18 16:50:58*
%MOMM*%
%LPD*%
G01*
G04 APERTURE LIST*
%ADD10C,0.050000*%
%ADD11C,0.200000*%
G04 APERTURE END LIST*
D10*
X12197500Y-7597500D02*
X17697500Y-7597500D01*
X17697500Y-15597500D01*
X12197500Y-15597500D01*
X12197500Y-7597500D01*
D11*
X12455777Y-15911484D02*
X12455777Y-15711484D01*
X12455777Y-15711484D02*
X12503396Y-15711484D01*
X12503396Y-15711484D02*
X12531967Y-15721008D01*
X12531967Y-15721008D02*
X12551015Y-15740055D01*
X12551015Y-15740055D02*
X12560539Y-15759103D01*
X12560539Y-15759103D02*
X12570062Y-15797198D01*
X12570062Y-15797198D02*
X12570062Y-15825769D01*
X12570062Y-15825769D02*
X12560539Y-15863865D01*
X12560539Y-15863865D02*
X12551015Y-15882912D01*
X12551015Y-15882912D02*
X12531967Y-15901960D01*
X12531967Y-15901960D02*
X12503396Y-15911484D01*
X12503396Y-15911484D02*
X12455777Y-15911484D01*
X12655777Y-15911484D02*
X12655777Y-15778150D01*
X12655777Y-15816246D02*
X12665301Y-15797198D01*
X12665301Y-15797198D02*
X12674824Y-15787674D01*
X12674824Y-15787674D02*
X12693872Y-15778150D01*
X12693872Y-15778150D02*
X12712920Y-15778150D01*
X12779586Y-15911484D02*
X12779586Y-15778150D01*
X12779586Y-15711484D02*
X12770062Y-15721008D01*
X12770062Y-15721008D02*
X12779586Y-15730531D01*
X12779586Y-15730531D02*
X12789110Y-15721008D01*
X12789110Y-15721008D02*
X12779586Y-15711484D01*
X12779586Y-15711484D02*
X12779586Y-15730531D01*
X12903396Y-15911484D02*
X12884348Y-15901960D01*
X12884348Y-15901960D02*
X12874824Y-15882912D01*
X12874824Y-15882912D02*
X12874824Y-15711484D01*
X13008158Y-15911484D02*
X12989110Y-15901960D01*
X12989110Y-15901960D02*
X12979586Y-15882912D01*
X12979586Y-15882912D02*
X12979586Y-15711484D01*
X13236729Y-15911484D02*
X13236729Y-15711484D01*
X13236729Y-15711484D02*
X13303396Y-15854341D01*
X13303396Y-15854341D02*
X13370062Y-15711484D01*
X13370062Y-15711484D02*
X13370062Y-15911484D01*
X13551015Y-15911484D02*
X13551015Y-15806722D01*
X13551015Y-15806722D02*
X13541491Y-15787674D01*
X13541491Y-15787674D02*
X13522443Y-15778150D01*
X13522443Y-15778150D02*
X13484348Y-15778150D01*
X13484348Y-15778150D02*
X13465301Y-15787674D01*
X13551015Y-15901960D02*
X13531967Y-15911484D01*
X13531967Y-15911484D02*
X13484348Y-15911484D01*
X13484348Y-15911484D02*
X13465301Y-15901960D01*
X13465301Y-15901960D02*
X13455777Y-15882912D01*
X13455777Y-15882912D02*
X13455777Y-15863865D01*
X13455777Y-15863865D02*
X13465301Y-15844817D01*
X13465301Y-15844817D02*
X13484348Y-15835293D01*
X13484348Y-15835293D02*
X13531967Y-15835293D01*
X13531967Y-15835293D02*
X13551015Y-15825769D01*
X13646253Y-15778150D02*
X13646253Y-15978150D01*
X13646253Y-15787674D02*
X13665301Y-15778150D01*
X13665301Y-15778150D02*
X13703396Y-15778150D01*
X13703396Y-15778150D02*
X13722443Y-15787674D01*
X13722443Y-15787674D02*
X13731967Y-15797198D01*
X13731967Y-15797198D02*
X13741491Y-15816246D01*
X13741491Y-15816246D02*
X13741491Y-15873388D01*
X13741491Y-15873388D02*
X13731967Y-15892436D01*
X13731967Y-15892436D02*
X13722443Y-15901960D01*
X13722443Y-15901960D02*
X13703396Y-15911484D01*
X13703396Y-15911484D02*
X13665301Y-15911484D01*
X13665301Y-15911484D02*
X13646253Y-15901960D01*
X13827205Y-15892436D02*
X13836729Y-15901960D01*
X13836729Y-15901960D02*
X13827205Y-15911484D01*
X13827205Y-15911484D02*
X13817682Y-15901960D01*
X13817682Y-15901960D02*
X13827205Y-15892436D01*
X13827205Y-15892436D02*
X13827205Y-15911484D01*
X13827205Y-15787674D02*
X13836729Y-15797198D01*
X13836729Y-15797198D02*
X13827205Y-15806722D01*
X13827205Y-15806722D02*
X13817682Y-15797198D01*
X13817682Y-15797198D02*
X13827205Y-15787674D01*
X13827205Y-15787674D02*
X13827205Y-15806722D01*
M02*
