G04 #@! TF.GenerationSoftware,KiCad,Pcbnew,8.0.6*
G04 #@! TF.CreationDate,2024-12-17T06:09:13+00:00*
G04 #@! TF.ProjectId,PSU Adapter 2,50535520-4164-4617-9074-657220322e6b,0.3*
G04 #@! TF.SameCoordinates,Original*
G04 #@! TF.FileFunction,Copper,L1,Top*
G04 #@! TF.FilePolarity,Positive*
%FSLAX46Y46*%
G04 Gerber Fmt 4.6, Leading zero omitted, Abs format (unit mm)*
G04 Created by KiCad (PCBNEW 8.0.6) date 2024-12-17 06:09:13*
%MOMM*%
%LPD*%
G01*
G04 APERTURE LIST*
G04 Aperture macros list*
%AMRoundRect*
0 Rectangle with rounded corners*
0 $1 Rounding radius*
0 $2 $3 $4 $5 $6 $7 $8 $9 X,Y pos of 4 corners*
0 Add a 4 corners polygon primitive as box body*
4,1,4,$2,$3,$4,$5,$6,$7,$8,$9,$2,$3,0*
0 Add four circle primitives for the rounded corners*
1,1,$1+$1,$2,$3*
1,1,$1+$1,$4,$5*
1,1,$1+$1,$6,$7*
1,1,$1+$1,$8,$9*
0 Add four rect primitives between the rounded corners*
20,1,$1+$1,$2,$3,$4,$5,0*
20,1,$1+$1,$4,$5,$6,$7,0*
20,1,$1+$1,$6,$7,$8,$9,0*
20,1,$1+$1,$8,$9,$2,$3,0*%
G04 Aperture macros list end*
G04 #@! TA.AperFunction,ComponentPad*
%ADD10R,1.800000X1.800000*%
G04 #@! TD*
G04 #@! TA.AperFunction,ComponentPad*
%ADD11C,1.800000*%
G04 #@! TD*
G04 #@! TA.AperFunction,ComponentPad*
%ADD12R,1.600000X1.600000*%
G04 #@! TD*
G04 #@! TA.AperFunction,ComponentPad*
%ADD13O,1.600000X1.600000*%
G04 #@! TD*
G04 #@! TA.AperFunction,ComponentPad*
%ADD14RoundRect,0.250002X-1.699998X-1.699998X1.699998X-1.699998X1.699998X1.699998X-1.699998X1.699998X0*%
G04 #@! TD*
G04 #@! TA.AperFunction,ComponentPad*
%ADD15C,3.900000*%
G04 #@! TD*
G04 #@! TA.AperFunction,ComponentPad*
%ADD16C,1.400000*%
G04 #@! TD*
G04 #@! TA.AperFunction,ComponentPad*
%ADD17O,1.400000X1.400000*%
G04 #@! TD*
G04 #@! TA.AperFunction,ComponentPad*
%ADD18RoundRect,0.250002X-1.699998X1.699998X-1.699998X-1.699998X1.699998X-1.699998X1.699998X1.699998X0*%
G04 #@! TD*
G04 #@! TA.AperFunction,ComponentPad*
%ADD19C,7.400000*%
G04 #@! TD*
G04 #@! TA.AperFunction,ComponentPad*
%ADD20RoundRect,0.250001X1.399999X-1.099999X1.399999X1.099999X-1.399999X1.099999X-1.399999X-1.099999X0*%
G04 #@! TD*
G04 #@! TA.AperFunction,ComponentPad*
%ADD21O,3.300000X2.700000*%
G04 #@! TD*
G04 #@! TA.AperFunction,ComponentPad*
%ADD22C,3.000000*%
G04 #@! TD*
G04 #@! TA.AperFunction,ComponentPad*
%ADD23C,2.500000*%
G04 #@! TD*
G04 #@! TA.AperFunction,ComponentPad*
%ADD24C,1.600000*%
G04 #@! TD*
G04 #@! TA.AperFunction,ComponentPad*
%ADD25RoundRect,0.250001X1.099999X1.099999X-1.099999X1.099999X-1.099999X-1.099999X1.099999X-1.099999X0*%
G04 #@! TD*
G04 #@! TA.AperFunction,ComponentPad*
%ADD26C,2.700000*%
G04 #@! TD*
G04 #@! TA.AperFunction,ComponentPad*
%ADD27RoundRect,0.250000X-0.725000X0.600000X-0.725000X-0.600000X0.725000X-0.600000X0.725000X0.600000X0*%
G04 #@! TD*
G04 #@! TA.AperFunction,ComponentPad*
%ADD28O,1.950000X1.700000*%
G04 #@! TD*
G04 #@! TA.AperFunction,Conductor*
%ADD29C,0.200000*%
G04 #@! TD*
G04 #@! TA.AperFunction,Conductor*
%ADD30C,1.000000*%
G04 #@! TD*
G04 #@! TA.AperFunction,Conductor*
%ADD31C,0.500000*%
G04 #@! TD*
G04 APERTURE END LIST*
D10*
X143975000Y-136975000D03*
D11*
X146515000Y-136975000D03*
D12*
X139975000Y-111975000D03*
D13*
X147595000Y-111975000D03*
D12*
X143515000Y-122355000D03*
D13*
X140975000Y-122355000D03*
X140975000Y-129975000D03*
X143515000Y-129975000D03*
D14*
X133775000Y-150925000D03*
D15*
X141575000Y-150925000D03*
X149375000Y-150925000D03*
X157175000Y-150925000D03*
X164975000Y-150925000D03*
D16*
X140785000Y-136975000D03*
D17*
X133165000Y-136975000D03*
D16*
X150595000Y-129975000D03*
D17*
X150595000Y-122355000D03*
D18*
X171975000Y-91175000D03*
D15*
X171975000Y-98975000D03*
D19*
X126475000Y-150975000D03*
D20*
X157625000Y-136975000D03*
D21*
X157625000Y-132775000D03*
X157625000Y-128575000D03*
X157625000Y-124375000D03*
X157625000Y-120175000D03*
X157625000Y-115975000D03*
X157625000Y-111775000D03*
X157625000Y-107575000D03*
X157625000Y-103375000D03*
X157625000Y-99175000D03*
X157625000Y-94975000D03*
X157625000Y-90775000D03*
X161825000Y-136975000D03*
X161825000Y-132775000D03*
X161825000Y-128575000D03*
X161825000Y-124375000D03*
X161825000Y-120175000D03*
X161825000Y-115975000D03*
X161825000Y-111775000D03*
X161825000Y-107575000D03*
X161825000Y-103375000D03*
X161825000Y-99175000D03*
X161825000Y-94975000D03*
X161825000Y-90775000D03*
D19*
X172475000Y-150975000D03*
X126475000Y-82975000D03*
D22*
X141925000Y-107125000D03*
D23*
X147975000Y-105175000D03*
D22*
X147975000Y-92975000D03*
X135925000Y-92925000D03*
D23*
X135975000Y-105175000D03*
D24*
X144975000Y-117975000D03*
X139975000Y-117975000D03*
D19*
X172475000Y-80975000D03*
D14*
X133775000Y-144975000D03*
D15*
X141575000Y-144975000D03*
X149375000Y-144975000D03*
X157175000Y-144975000D03*
X164975000Y-144975000D03*
D25*
X152975000Y-82975000D03*
D26*
X149015000Y-82975000D03*
X145055000Y-82975000D03*
X141095000Y-82975000D03*
X137135000Y-82975000D03*
D27*
X172575000Y-107975000D03*
D28*
X172575000Y-110475000D03*
D29*
X144975000Y-117975000D02*
X144975000Y-120895000D01*
X150595000Y-122355000D02*
X143515000Y-122355000D01*
X144975000Y-120895000D02*
X143515000Y-122355000D01*
X140785000Y-136975000D02*
X143975000Y-136975000D01*
X139975000Y-117975000D02*
X139975000Y-121355000D01*
X148025000Y-111545000D02*
X147595000Y-111975000D01*
X148025000Y-105175000D02*
X148025000Y-111545000D01*
X139975000Y-121355000D02*
X140975000Y-122355000D01*
X146515000Y-136975000D02*
X146515000Y-133515000D01*
X144975000Y-131975000D02*
X137975000Y-131975000D01*
X146515000Y-133515000D02*
X144975000Y-131975000D01*
X148075000Y-115975000D02*
X156475000Y-107575000D01*
X135975000Y-129975000D02*
X135975000Y-118975000D01*
X156475000Y-107575000D02*
X157625000Y-107575000D01*
X138975000Y-115975000D02*
X148075000Y-115975000D01*
X135975000Y-118975000D02*
X138975000Y-115975000D01*
X137975000Y-131975000D02*
X135975000Y-129975000D01*
X139975000Y-111975000D02*
X139975000Y-113975000D01*
D30*
X153975000Y-107975000D02*
X147975000Y-113975000D01*
D29*
X172975000Y-105975000D02*
X172975000Y-107975000D01*
D30*
X153975000Y-101675000D02*
X153975000Y-107975000D01*
D29*
X156475000Y-99175000D02*
X158675000Y-96975000D01*
D30*
X129975000Y-121975000D02*
X129975000Y-140975000D01*
X147975000Y-113975000D02*
X139975000Y-113975000D01*
X139975000Y-113975000D02*
X137975000Y-113975000D01*
X137975000Y-113975000D02*
X129975000Y-121975000D01*
X157625000Y-95625000D02*
X157625000Y-98525000D01*
X133775000Y-144775000D02*
X133775000Y-144975000D01*
X129975000Y-140975000D02*
X133775000Y-144775000D01*
D29*
X158675000Y-96975000D02*
X163975000Y-96975000D01*
D30*
X157625000Y-98525000D02*
X156975000Y-99175000D01*
D29*
X163975000Y-96975000D02*
X172975000Y-105975000D01*
X139975000Y-111975000D02*
X136025000Y-108025000D01*
X136025000Y-108025000D02*
X136025000Y-105175000D01*
D30*
X156975000Y-94975000D02*
X157625000Y-95625000D01*
X156475000Y-99175000D02*
X153975000Y-101675000D01*
X165975000Y-137975000D02*
X160975000Y-142975000D01*
X160975000Y-142975000D02*
X160975000Y-151975000D01*
X152425000Y-153975000D02*
X149375000Y-150925000D01*
X165975000Y-134975000D02*
X165975000Y-137975000D01*
X158975000Y-153975000D02*
X152425000Y-153975000D01*
X161975000Y-132775000D02*
X163775000Y-132775000D01*
X160975000Y-151975000D02*
X158975000Y-153975000D01*
X163775000Y-132775000D02*
X165975000Y-134975000D01*
D31*
X158875000Y-100975000D02*
X163975000Y-100975000D01*
X167975000Y-147925000D02*
X164975000Y-150925000D01*
X167975000Y-104975000D02*
X167975000Y-147925000D01*
X156475000Y-103375000D02*
X158875000Y-100975000D01*
X163975000Y-100975000D02*
X167975000Y-104975000D01*
D29*
X137975000Y-142975000D02*
X139975000Y-140975000D01*
X154225000Y-147975000D02*
X139975000Y-147975000D01*
X139975000Y-147975000D02*
X137975000Y-145975000D01*
X137975000Y-145975000D02*
X137975000Y-142975000D01*
X150595000Y-138595000D02*
X150595000Y-129975000D01*
X139975000Y-140975000D02*
X148215000Y-140975000D01*
X148215000Y-140975000D02*
X150595000Y-138595000D01*
X157175000Y-150925000D02*
X154225000Y-147975000D01*
D30*
X155975000Y-115975000D02*
X157625000Y-115975000D01*
X157625000Y-124375000D02*
X156375000Y-124375000D01*
X141575000Y-144975000D02*
X149375000Y-144975000D01*
X149375000Y-144975000D02*
X157175000Y-144975000D01*
X164975000Y-106525000D02*
X164975000Y-112975000D01*
X164975000Y-112975000D02*
X164025000Y-113925000D01*
X164025000Y-113925000D02*
X159675000Y-113925000D01*
X156375000Y-124375000D02*
X153975000Y-121975000D01*
X159675000Y-113925000D02*
X157625000Y-115975000D01*
X161825000Y-103375000D02*
X164975000Y-106525000D01*
X153975000Y-117975000D02*
X155975000Y-115975000D01*
X153975000Y-121975000D02*
X153975000Y-117975000D01*
D29*
X140975000Y-129975000D02*
X144532898Y-126417102D01*
X144532898Y-126417102D02*
X159932898Y-126417102D01*
X159932898Y-126417102D02*
X161975000Y-124375000D01*
G04 #@! TA.AperFunction,Conductor*
G36*
X164997776Y-77994685D02*
G01*
X165009255Y-78003026D01*
X166197222Y-78975000D01*
X168235418Y-80642615D01*
X168274839Y-80700302D01*
X168280748Y-80744669D01*
X168269434Y-80974999D01*
X168269434Y-80975000D01*
X168289685Y-81387218D01*
X168289685Y-81387223D01*
X168289686Y-81387227D01*
X168350244Y-81795471D01*
X168450527Y-82195821D01*
X168589555Y-82584379D01*
X168589562Y-82584395D01*
X168589564Y-82584400D01*
X168766022Y-82957490D01*
X168766024Y-82957493D01*
X168978198Y-83311484D01*
X169224058Y-83642988D01*
X169501215Y-83948784D01*
X169807011Y-84225941D01*
X169807017Y-84225946D01*
X170138513Y-84471800D01*
X170492510Y-84683978D01*
X170865600Y-84860436D01*
X170865609Y-84860439D01*
X170865620Y-84860444D01*
X171185783Y-84975000D01*
X171254189Y-84999476D01*
X171654535Y-85099757D01*
X172062782Y-85160315D01*
X172475000Y-85180566D01*
X172887218Y-85160315D01*
X173295465Y-85099757D01*
X173531764Y-85040567D01*
X173601571Y-85043372D01*
X173640409Y-85064880D01*
X175929521Y-86937790D01*
X175968942Y-86995477D01*
X175975000Y-87033761D01*
X175975000Y-94851000D01*
X175955315Y-94918039D01*
X175902511Y-94963794D01*
X175851000Y-94975000D01*
X164099500Y-94975000D01*
X164032461Y-94955315D01*
X163986706Y-94902511D01*
X163976954Y-94857685D01*
X163975766Y-94857763D01*
X163975500Y-94853717D01*
X163975500Y-94853712D01*
X163943838Y-94613211D01*
X163881054Y-94378900D01*
X163788224Y-94154788D01*
X163666936Y-93944711D01*
X163519265Y-93752262D01*
X163519260Y-93752256D01*
X163347743Y-93580739D01*
X163347736Y-93580733D01*
X163155293Y-93433067D01*
X163155292Y-93433066D01*
X163155289Y-93433064D01*
X162945212Y-93311776D01*
X162945205Y-93311773D01*
X162721104Y-93218947D01*
X162486785Y-93156161D01*
X162246289Y-93124500D01*
X162246288Y-93124500D01*
X161403712Y-93124500D01*
X161403711Y-93124500D01*
X161163214Y-93156161D01*
X160928895Y-93218947D01*
X160704794Y-93311773D01*
X160704785Y-93311777D01*
X160494706Y-93433067D01*
X160302263Y-93580733D01*
X160302256Y-93580739D01*
X160130739Y-93752256D01*
X160130733Y-93752263D01*
X159983067Y-93944706D01*
X159861777Y-94154785D01*
X159861773Y-94154794D01*
X159839561Y-94208419D01*
X159795720Y-94262822D01*
X159729426Y-94284887D01*
X159661726Y-94267608D01*
X159614116Y-94216471D01*
X159610439Y-94208419D01*
X159588226Y-94154794D01*
X159588224Y-94154788D01*
X159466936Y-93944711D01*
X159319265Y-93752262D01*
X159319260Y-93752256D01*
X159147743Y-93580739D01*
X159147736Y-93580733D01*
X158955293Y-93433067D01*
X158955292Y-93433066D01*
X158955289Y-93433064D01*
X158745212Y-93311776D01*
X158745205Y-93311773D01*
X158521104Y-93218947D01*
X158286785Y-93156161D01*
X158046289Y-93124500D01*
X158046288Y-93124500D01*
X157203712Y-93124500D01*
X157203711Y-93124500D01*
X156963214Y-93156161D01*
X156728895Y-93218947D01*
X156504794Y-93311773D01*
X156504785Y-93311777D01*
X156294706Y-93433067D01*
X156102263Y-93580733D01*
X156102256Y-93580739D01*
X155930739Y-93752256D01*
X155930733Y-93752263D01*
X155783067Y-93944706D01*
X155661777Y-94154785D01*
X155661773Y-94154794D01*
X155568947Y-94378895D01*
X155506161Y-94613214D01*
X155474500Y-94853711D01*
X155474500Y-95096288D01*
X155506161Y-95336787D01*
X155506162Y-95336789D01*
X155509760Y-95350218D01*
X155510255Y-95352063D01*
X155508592Y-95421912D01*
X155478161Y-95471837D01*
X153975000Y-96974999D01*
X153975000Y-99920041D01*
X153955315Y-99987080D01*
X153934281Y-100011912D01*
X152907308Y-100942871D01*
X152844419Y-100973312D01*
X152824027Y-100975000D01*
X145974999Y-100975000D01*
X144975000Y-101974999D01*
X144975000Y-108923638D01*
X144955315Y-108990677D01*
X144938681Y-109011319D01*
X144011319Y-109938681D01*
X143949996Y-109972166D01*
X143923638Y-109975000D01*
X140026362Y-109975000D01*
X139959323Y-109955315D01*
X139938681Y-109938681D01*
X139011319Y-109011319D01*
X138977834Y-108949996D01*
X138975000Y-108923638D01*
X138975000Y-91026363D01*
X144469500Y-91026363D01*
X144469500Y-94927123D01*
X144471235Y-94968972D01*
X144472940Y-94989476D01*
X144478139Y-95031053D01*
X144478140Y-95031059D01*
X144478141Y-95031060D01*
X144521853Y-95168139D01*
X144552337Y-95231007D01*
X144632898Y-95350218D01*
X145990846Y-96846158D01*
X146040207Y-96893633D01*
X146040225Y-96893648D01*
X146065891Y-96915184D01*
X146073080Y-96920429D01*
X146121207Y-96955544D01*
X146252597Y-97014180D01*
X146319804Y-97033284D01*
X146462391Y-97052528D01*
X146462397Y-97052527D01*
X146462398Y-97052528D01*
X147321774Y-97045096D01*
X150390999Y-97018557D01*
X150442833Y-97015442D01*
X150468119Y-97012613D01*
X150519366Y-97004195D01*
X150654175Y-96953913D01*
X150715498Y-96920428D01*
X150830679Y-96834204D01*
X152292235Y-95372648D01*
X152339928Y-95317523D01*
X152361263Y-95288932D01*
X152400544Y-95227497D01*
X152450407Y-95092533D01*
X152465047Y-95024214D01*
X152474866Y-94880673D01*
X152473150Y-94857685D01*
X152405010Y-93944706D01*
X152289297Y-92394312D01*
X152303937Y-92325996D01*
X152316499Y-92307159D01*
X153652487Y-90653711D01*
X155474500Y-90653711D01*
X155474500Y-90896288D01*
X155506161Y-91136785D01*
X155568947Y-91371104D01*
X155639561Y-91541581D01*
X155661776Y-91595212D01*
X155783064Y-91805289D01*
X155783066Y-91805292D01*
X155783067Y-91805293D01*
X155930733Y-91997736D01*
X155930739Y-91997743D01*
X156102256Y-92169260D01*
X156102262Y-92169265D01*
X156294711Y-92316936D01*
X156504788Y-92438224D01*
X156728900Y-92531054D01*
X156963211Y-92593838D01*
X157143586Y-92617584D01*
X157203711Y-92625500D01*
X157203712Y-92625500D01*
X158046289Y-92625500D01*
X158094388Y-92619167D01*
X158286789Y-92593838D01*
X158521100Y-92531054D01*
X158745212Y-92438224D01*
X158955289Y-92316936D01*
X159147738Y-92169265D01*
X159319265Y-91997738D01*
X159466936Y-91805289D01*
X159588224Y-91595212D01*
X159610439Y-91541581D01*
X159654279Y-91487177D01*
X159720573Y-91465112D01*
X159788273Y-91482391D01*
X159835884Y-91533528D01*
X159839561Y-91541581D01*
X159861770Y-91595200D01*
X159861773Y-91595205D01*
X159861776Y-91595212D01*
X159983064Y-91805289D01*
X159983066Y-91805292D01*
X159983067Y-91805293D01*
X160130733Y-91997736D01*
X160130739Y-91997743D01*
X160302256Y-92169260D01*
X160302262Y-92169265D01*
X160494711Y-92316936D01*
X160704788Y-92438224D01*
X160928900Y-92531054D01*
X161163211Y-92593838D01*
X161343586Y-92617584D01*
X161403711Y-92625500D01*
X161403712Y-92625500D01*
X162246289Y-92625500D01*
X162294388Y-92619167D01*
X162486789Y-92593838D01*
X162721100Y-92531054D01*
X162945212Y-92438224D01*
X163155289Y-92316936D01*
X163347738Y-92169265D01*
X163519265Y-91997738D01*
X163666936Y-91805289D01*
X163788224Y-91595212D01*
X163881054Y-91371100D01*
X163943838Y-91136789D01*
X163975500Y-90896288D01*
X163975500Y-90653712D01*
X163943838Y-90413211D01*
X163881054Y-90178900D01*
X163788224Y-89954788D01*
X163666936Y-89744711D01*
X163519265Y-89552262D01*
X163519260Y-89552256D01*
X163347743Y-89380739D01*
X163347736Y-89380733D01*
X163155293Y-89233067D01*
X163155292Y-89233066D01*
X163155289Y-89233064D01*
X162945212Y-89111776D01*
X162945205Y-89111773D01*
X162721104Y-89018947D01*
X162486785Y-88956161D01*
X162246289Y-88924500D01*
X162246288Y-88924500D01*
X161403712Y-88924500D01*
X161403711Y-88924500D01*
X161163214Y-88956161D01*
X160928895Y-89018947D01*
X160704794Y-89111773D01*
X160704785Y-89111777D01*
X160494706Y-89233067D01*
X160302263Y-89380733D01*
X160302256Y-89380739D01*
X160130739Y-89552256D01*
X160130733Y-89552263D01*
X159983067Y-89744706D01*
X159861777Y-89954785D01*
X159861773Y-89954794D01*
X159839561Y-90008419D01*
X159795720Y-90062822D01*
X159729426Y-90084887D01*
X159661726Y-90067608D01*
X159614116Y-90016471D01*
X159610439Y-90008419D01*
X159588226Y-89954794D01*
X159588224Y-89954788D01*
X159466936Y-89744711D01*
X159319265Y-89552262D01*
X159319260Y-89552256D01*
X159147743Y-89380739D01*
X159147736Y-89380733D01*
X158955293Y-89233067D01*
X158955292Y-89233066D01*
X158955289Y-89233064D01*
X158745212Y-89111776D01*
X158745205Y-89111773D01*
X158521104Y-89018947D01*
X158286785Y-88956161D01*
X158046289Y-88924500D01*
X158046288Y-88924500D01*
X157203712Y-88924500D01*
X157203711Y-88924500D01*
X156963214Y-88956161D01*
X156728895Y-89018947D01*
X156504794Y-89111773D01*
X156504785Y-89111777D01*
X156294706Y-89233067D01*
X156102263Y-89380733D01*
X156102256Y-89380739D01*
X155930739Y-89552256D01*
X155930733Y-89552263D01*
X155783067Y-89744706D01*
X155661777Y-89954785D01*
X155661773Y-89954794D01*
X155568947Y-90178895D01*
X155506161Y-90413214D01*
X155474500Y-90653711D01*
X153652487Y-90653711D01*
X156340640Y-87326794D01*
X156357287Y-87305008D01*
X156365152Y-87294115D01*
X156380567Y-87271500D01*
X156440338Y-87140623D01*
X156460023Y-87073584D01*
X156460024Y-87073580D01*
X156480500Y-86931164D01*
X156480500Y-81026362D01*
X156477603Y-80972322D01*
X156474769Y-80945964D01*
X156466114Y-80892552D01*
X156415832Y-80757743D01*
X156382347Y-80696420D01*
X156296123Y-80581239D01*
X156296118Y-80581234D01*
X156296113Y-80581228D01*
X155368776Y-79653892D01*
X155368770Y-79653886D01*
X155368761Y-79653877D01*
X155368737Y-79653855D01*
X155328519Y-79617728D01*
X155328507Y-79617718D01*
X155307856Y-79601076D01*
X155263974Y-79569433D01*
X155133100Y-79509663D01*
X155066055Y-79489976D01*
X155018582Y-79483150D01*
X154923638Y-79469500D01*
X152026362Y-79469500D01*
X152026360Y-79469500D01*
X151972311Y-79472397D01*
X151972310Y-79472397D01*
X151945977Y-79475229D01*
X151945950Y-79475232D01*
X151892554Y-79483885D01*
X151892552Y-79483885D01*
X151757747Y-79534166D01*
X151696422Y-79567651D01*
X151581240Y-79653876D01*
X151581228Y-79653886D01*
X150653892Y-80581223D01*
X150653855Y-80581262D01*
X150617728Y-80621480D01*
X150617718Y-80621492D01*
X150601076Y-80642143D01*
X150569433Y-80686025D01*
X150509663Y-80816899D01*
X150489976Y-80883944D01*
X150488738Y-80892554D01*
X150469501Y-81026359D01*
X150469500Y-81026363D01*
X150469500Y-86714254D01*
X150449815Y-86781293D01*
X150433181Y-86801935D01*
X148801935Y-88433181D01*
X148740612Y-88466666D01*
X148714254Y-88469500D01*
X147026360Y-88469500D01*
X146972311Y-88472397D01*
X146972310Y-88472397D01*
X146945977Y-88475229D01*
X146945950Y-88475232D01*
X146892554Y-88483885D01*
X146892552Y-88483885D01*
X146757747Y-88534166D01*
X146696422Y-88567651D01*
X146581240Y-88653876D01*
X146581228Y-88653886D01*
X144653892Y-90581223D01*
X144653855Y-90581262D01*
X144617728Y-90621480D01*
X144617718Y-90621492D01*
X144601076Y-90642143D01*
X144569433Y-90686025D01*
X144509663Y-90816899D01*
X144489976Y-90883944D01*
X144469500Y-91026363D01*
X138975000Y-91026363D01*
X138975000Y-88026362D01*
X138994685Y-87959323D01*
X139011319Y-87938681D01*
X140938681Y-86011319D01*
X141000004Y-85977834D01*
X141026362Y-85975000D01*
X144975000Y-85975000D01*
X145975000Y-84975000D01*
X145975000Y-84654615D01*
X145994685Y-84587576D01*
X146039572Y-84545784D01*
X146058011Y-84535716D01*
X146269915Y-84377087D01*
X146457087Y-84189915D01*
X146615716Y-83978011D01*
X146742574Y-83745689D01*
X146835077Y-83497678D01*
X146891343Y-83239026D01*
X146910227Y-82975000D01*
X146891343Y-82710974D01*
X146835077Y-82452322D01*
X146742574Y-82204311D01*
X146615716Y-81971989D01*
X146483577Y-81795471D01*
X146457093Y-81760092D01*
X146457077Y-81760074D01*
X146269925Y-81572922D01*
X146269907Y-81572906D01*
X146058013Y-81414285D01*
X146058005Y-81414280D01*
X146039571Y-81404214D01*
X145990167Y-81354808D01*
X145975000Y-81295383D01*
X145975000Y-79026362D01*
X145994685Y-78959323D01*
X146011319Y-78938681D01*
X146938681Y-78011319D01*
X147000004Y-77977834D01*
X147026362Y-77975000D01*
X164930737Y-77975000D01*
X164997776Y-77994685D01*
G37*
G04 #@! TD.AperFunction*
G04 #@! TA.AperFunction,Conductor*
G36*
X154990677Y-79994685D02*
G01*
X155011319Y-80011319D01*
X155938681Y-80938681D01*
X155972166Y-81000004D01*
X155975000Y-81026362D01*
X155975000Y-86931164D01*
X155955315Y-86998203D01*
X155947450Y-87009096D01*
X151766647Y-92183351D01*
X151766647Y-92183352D01*
X151970768Y-94918296D01*
X151956128Y-94986615D01*
X151934793Y-95015206D01*
X150473237Y-96476762D01*
X150411914Y-96510247D01*
X150386628Y-96513076D01*
X146458020Y-96547047D01*
X146390813Y-96527943D01*
X146365134Y-96506396D01*
X145007186Y-95010456D01*
X144976702Y-94947588D01*
X144975000Y-94927112D01*
X144975000Y-91026362D01*
X144994685Y-90959323D01*
X145011319Y-90938681D01*
X146938681Y-89011319D01*
X147000004Y-88977834D01*
X147026362Y-88975000D01*
X148975000Y-88975000D01*
X150975000Y-86975000D01*
X150975000Y-81026362D01*
X150994685Y-80959323D01*
X151011319Y-80938681D01*
X151938681Y-80011319D01*
X152000004Y-79977834D01*
X152026362Y-79975000D01*
X154923638Y-79975000D01*
X154990677Y-79994685D01*
G37*
G04 #@! TD.AperFunction*
M02*
