G04 #@! TF.GenerationSoftware,KiCad,Pcbnew,8.0.6*
G04 #@! TF.CreationDate,2024-12-17T06:09:13+00:00*
G04 #@! TF.ProjectId,PSU Adapter 2,50535520-4164-4617-9074-657220322e6b,0.3*
G04 #@! TF.SameCoordinates,Original*
G04 #@! TF.FileFunction,Soldermask,Top*
G04 #@! TF.FilePolarity,Negative*
%FSLAX46Y46*%
G04 Gerber Fmt 4.6, Leading zero omitted, Abs format (unit mm)*
G04 Created by KiCad (PCBNEW 8.0.6) date 2024-12-17 06:09:13*
%MOMM*%
%LPD*%
G01*
G04 APERTURE LIST*
G04 Aperture macros list*
%AMRoundRect*
0 Rectangle with rounded corners*
0 $1 Rounding radius*
0 $2 $3 $4 $5 $6 $7 $8 $9 X,Y pos of 4 corners*
0 Add a 4 corners polygon primitive as box body*
4,1,4,$2,$3,$4,$5,$6,$7,$8,$9,$2,$3,0*
0 Add four circle primitives for the rounded corners*
1,1,$1+$1,$2,$3*
1,1,$1+$1,$4,$5*
1,1,$1+$1,$6,$7*
1,1,$1+$1,$8,$9*
0 Add four rect primitives between the rounded corners*
20,1,$1+$1,$2,$3,$4,$5,0*
20,1,$1+$1,$4,$5,$6,$7,0*
20,1,$1+$1,$6,$7,$8,$9,0*
20,1,$1+$1,$8,$9,$2,$3,0*%
G04 Aperture macros list end*
%ADD10R,1.800000X1.800000*%
%ADD11C,1.800000*%
%ADD12R,1.600000X1.600000*%
%ADD13O,1.600000X1.600000*%
%ADD14RoundRect,0.250002X-1.699998X-1.699998X1.699998X-1.699998X1.699998X1.699998X-1.699998X1.699998X0*%
%ADD15C,3.900000*%
%ADD16C,1.400000*%
%ADD17O,1.400000X1.400000*%
%ADD18RoundRect,0.250002X-1.699998X1.699998X-1.699998X-1.699998X1.699998X-1.699998X1.699998X1.699998X0*%
%ADD19C,7.400000*%
%ADD20RoundRect,0.250001X1.399999X-1.099999X1.399999X1.099999X-1.399999X1.099999X-1.399999X-1.099999X0*%
%ADD21O,3.300000X2.700000*%
%ADD22C,3.000000*%
%ADD23C,2.500000*%
%ADD24C,1.600000*%
%ADD25RoundRect,0.250001X1.099999X1.099999X-1.099999X1.099999X-1.099999X-1.099999X1.099999X-1.099999X0*%
%ADD26C,2.700000*%
%ADD27RoundRect,0.250000X-0.725000X0.600000X-0.725000X-0.600000X0.725000X-0.600000X0.725000X0.600000X0*%
%ADD28O,1.950000X1.700000*%
G04 APERTURE END LIST*
D10*
X143975000Y-136975000D03*
D11*
X146515000Y-136975000D03*
D12*
X139975000Y-111975000D03*
D13*
X147595000Y-111975000D03*
D12*
X143515000Y-122355000D03*
D13*
X140975000Y-122355000D03*
X140975000Y-129975000D03*
X143515000Y-129975000D03*
D14*
X133775000Y-150925000D03*
D15*
X141575000Y-150925000D03*
X149375000Y-150925000D03*
X157175000Y-150925000D03*
X164975000Y-150925000D03*
D16*
X140785000Y-136975000D03*
D17*
X133165000Y-136975000D03*
D16*
X150595000Y-129975000D03*
D17*
X150595000Y-122355000D03*
D18*
X171975000Y-91175000D03*
D15*
X171975000Y-98975000D03*
D19*
X126475000Y-150975000D03*
D20*
X157625000Y-136975000D03*
D21*
X157625000Y-132775000D03*
X157625000Y-128575000D03*
X157625000Y-124375000D03*
X157625000Y-120175000D03*
X157625000Y-115975000D03*
X157625000Y-111775000D03*
X157625000Y-107575000D03*
X157625000Y-103375000D03*
X157625000Y-99175000D03*
X157625000Y-94975000D03*
X157625000Y-90775000D03*
X161825000Y-136975000D03*
X161825000Y-132775000D03*
X161825000Y-128575000D03*
X161825000Y-124375000D03*
X161825000Y-120175000D03*
X161825000Y-115975000D03*
X161825000Y-111775000D03*
X161825000Y-107575000D03*
X161825000Y-103375000D03*
X161825000Y-99175000D03*
X161825000Y-94975000D03*
X161825000Y-90775000D03*
D19*
X172475000Y-150975000D03*
X126475000Y-82975000D03*
D22*
X141925000Y-107125000D03*
D23*
X147975000Y-105175000D03*
D22*
X147975000Y-92975000D03*
X135925000Y-92925000D03*
D23*
X135975000Y-105175000D03*
D24*
X144975000Y-117975000D03*
X139975000Y-117975000D03*
D19*
X172475000Y-80975000D03*
D14*
X133775000Y-144975000D03*
D15*
X141575000Y-144975000D03*
X149375000Y-144975000D03*
X157175000Y-144975000D03*
X164975000Y-144975000D03*
D25*
X152975000Y-82975000D03*
D26*
X149015000Y-82975000D03*
X145055000Y-82975000D03*
X141095000Y-82975000D03*
X137135000Y-82975000D03*
D27*
X172575000Y-107975000D03*
D28*
X172575000Y-110475000D03*
M02*
