G04 #@! TF.GenerationSoftware,KiCad,Pcbnew,8.0.5*
G04 #@! TF.CreationDate,2024-11-13T11:33:32+00:00*
G04 #@! TF.ProjectId,PSU Adapter 2,50535520-4164-4617-9074-657220322e6b,0.2*
G04 #@! TF.SameCoordinates,Original*
G04 #@! TF.FileFunction,Soldermask,Top*
G04 #@! TF.FilePolarity,Negative*
%FSLAX46Y46*%
G04 Gerber Fmt 4.6, Leading zero omitted, Abs format (unit mm)*
G04 Created by KiCad (PCBNEW 8.0.5) date 2024-11-13 11:33:32*
%MOMM*%
%LPD*%
G01*
G04 APERTURE LIST*
G04 Aperture macros list*
%AMRoundRect*
0 Rectangle with rounded corners*
0 $1 Rounding radius*
0 $2 $3 $4 $5 $6 $7 $8 $9 X,Y pos of 4 corners*
0 Add a 4 corners polygon primitive as box body*
4,1,4,$2,$3,$4,$5,$6,$7,$8,$9,$2,$3,0*
0 Add four circle primitives for the rounded corners*
1,1,$1+$1,$2,$3*
1,1,$1+$1,$4,$5*
1,1,$1+$1,$6,$7*
1,1,$1+$1,$8,$9*
0 Add four rect primitives between the rounded corners*
20,1,$1+$1,$2,$3,$4,$5,0*
20,1,$1+$1,$4,$5,$6,$7,0*
20,1,$1+$1,$6,$7,$8,$9,0*
20,1,$1+$1,$8,$9,$2,$3,0*%
G04 Aperture macros list end*
%ADD10RoundRect,0.250001X1.399999X-1.099999X1.399999X1.099999X-1.399999X1.099999X-1.399999X-1.099999X0*%
%ADD11O,3.300000X2.700000*%
%ADD12R,1.800000X1.800000*%
%ADD13C,1.800000*%
%ADD14R,1.600000X1.600000*%
%ADD15O,1.600000X1.600000*%
%ADD16RoundRect,0.250002X-1.699998X-1.699998X1.699998X-1.699998X1.699998X1.699998X-1.699998X1.699998X0*%
%ADD17C,3.900000*%
%ADD18C,1.400000*%
%ADD19O,1.400000X1.400000*%
%ADD20RoundRect,0.250002X-1.699998X1.699998X-1.699998X-1.699998X1.699998X-1.699998X1.699998X1.699998X0*%
%ADD21C,7.400000*%
%ADD22C,3.000000*%
%ADD23C,2.500000*%
%ADD24C,1.600000*%
%ADD25RoundRect,0.250001X1.099999X1.099999X-1.099999X1.099999X-1.099999X-1.099999X1.099999X-1.099999X0*%
%ADD26C,2.700000*%
%ADD27RoundRect,0.250000X-0.625000X0.350000X-0.625000X-0.350000X0.625000X-0.350000X0.625000X0.350000X0*%
%ADD28O,1.750000X1.200000*%
G04 APERTURE END LIST*
D10*
X135000000Y-161000000D03*
D11*
X135000000Y-156800000D03*
X135000000Y-152600000D03*
X135000000Y-148400000D03*
X135000000Y-144200000D03*
X135000000Y-140000000D03*
X135000000Y-135800000D03*
X135000000Y-131600000D03*
X135000000Y-127400000D03*
X135000000Y-123200000D03*
X135000000Y-119000000D03*
X135000000Y-114800000D03*
X140500000Y-161000000D03*
X140500000Y-156800000D03*
X140500000Y-152600000D03*
X140500000Y-148400000D03*
X140500000Y-144200000D03*
X140500000Y-140000000D03*
X140500000Y-135800000D03*
X140500000Y-131600000D03*
X140500000Y-127400000D03*
X140500000Y-123200000D03*
X140500000Y-119000000D03*
X140500000Y-114800000D03*
D12*
X122000000Y-161000000D03*
D13*
X124540000Y-161000000D03*
D14*
X118000000Y-136000000D03*
D15*
X125620000Y-136000000D03*
D14*
X121540000Y-146380000D03*
D15*
X119000000Y-146380000D03*
X119000000Y-154000000D03*
X121540000Y-154000000D03*
D16*
X111800000Y-174950000D03*
D17*
X119600000Y-174950000D03*
X127400000Y-174950000D03*
X135200000Y-174950000D03*
X143000000Y-174950000D03*
D18*
X118810000Y-161000000D03*
D19*
X111190000Y-161000000D03*
D18*
X128620000Y-154000000D03*
D19*
X128620000Y-146380000D03*
D20*
X150000000Y-115200000D03*
D17*
X150000000Y-123000000D03*
D21*
X104500000Y-175000000D03*
D22*
X120000000Y-131150000D03*
D23*
X126050000Y-129200000D03*
D22*
X126050000Y-117000000D03*
D23*
X114050000Y-129200000D03*
D21*
X150500000Y-175000000D03*
X104500000Y-108000000D03*
D24*
X123000000Y-142000000D03*
X118000000Y-142000000D03*
D21*
X150500000Y-105000000D03*
D16*
X111800000Y-169000000D03*
D17*
X119600000Y-169000000D03*
X127400000Y-169000000D03*
X135200000Y-169000000D03*
X143000000Y-169000000D03*
D25*
X131000000Y-107000000D03*
D26*
X127040000Y-107000000D03*
X123080000Y-107000000D03*
X119120000Y-107000000D03*
X115160000Y-107000000D03*
D27*
X151000000Y-132000000D03*
D28*
X151000000Y-134000000D03*
M02*
