%TF.GenerationSoftware,KiCad,Pcbnew,8.0.6*%
%TF.CreationDate,2024-12-17T06:09:18+00:00*%
%TF.ProjectId,PSU Adapter 2,50535520-4164-4617-9074-657220322e6b,0.3*%
%TF.SameCoordinates,Original*%
%TF.FileFunction,Drillmap*%
%TF.FilePolarity,Positive*%
%FSLAX45Y45*%
G04 Gerber Fmt 4.5, Leading zero omitted, Abs format (unit mm)*
G04 Created by KiCad (PCBNEW 8.0.6) date 2024-12-17 06:09:18*
%MOMM*%
%LPD*%
G01*
G04 APERTURE LIST*
%ADD10C,0.050000*%
%ADD11C,0.200000*%
%ADD12C,0.100000*%
%ADD13C,0.130000*%
%ADD14C,0.160000*%
%ADD15C,0.170000*%
%ADD16C,0.250000*%
%ADD17C,0.370000*%
G04 APERTURE END LIST*
D10*
X12197500Y-7597500D02*
X17697500Y-7597500D01*
X17697500Y-15597500D01*
X12197500Y-15597500D01*
X12197500Y-7597500D01*
D11*
D12*
X13281500Y-13662500D02*
X13351500Y-13732500D01*
X13351500Y-13662500D02*
X13281500Y-13732500D01*
X14043500Y-13662500D02*
X14113500Y-13732500D01*
X14113500Y-13662500D02*
X14043500Y-13732500D01*
X15024500Y-12200500D02*
X15094500Y-12270500D01*
X15094500Y-12200500D02*
X15024500Y-12270500D01*
X15024500Y-12962500D02*
X15094500Y-13032500D01*
X15094500Y-12962500D02*
X15024500Y-13032500D01*
X14037500Y-11197500D02*
G75*
G02*
X13957500Y-11197500I-40000J0D01*
G01*
X13957500Y-11197500D02*
G75*
G02*
X14037500Y-11197500I40000J0D01*
G01*
X14037500Y-11797500D02*
G75*
G02*
X13957500Y-11797500I-40000J0D01*
G01*
X13957500Y-11797500D02*
G75*
G02*
X14037500Y-11797500I40000J0D01*
G01*
X14137500Y-12235500D02*
G75*
G02*
X14057500Y-12235500I-40000J0D01*
G01*
X14057500Y-12235500D02*
G75*
G02*
X14137500Y-12235500I40000J0D01*
G01*
X14137500Y-12997500D02*
G75*
G02*
X14057500Y-12997500I-40000J0D01*
G01*
X14057500Y-12997500D02*
G75*
G02*
X14137500Y-12997500I40000J0D01*
G01*
X14391500Y-12235500D02*
G75*
G02*
X14311500Y-12235500I-40000J0D01*
G01*
X14311500Y-12235500D02*
G75*
G02*
X14391500Y-12235500I40000J0D01*
G01*
X14391500Y-12997500D02*
G75*
G02*
X14311500Y-12997500I-40000J0D01*
G01*
X14311500Y-12997500D02*
G75*
G02*
X14391500Y-12997500I40000J0D01*
G01*
X14537500Y-11797500D02*
G75*
G02*
X14457500Y-11797500I-40000J0D01*
G01*
X14457500Y-11797500D02*
G75*
G02*
X14537500Y-11797500I40000J0D01*
G01*
X14799500Y-11197500D02*
G75*
G02*
X14719500Y-11197500I-40000J0D01*
G01*
X14719500Y-11197500D02*
G75*
G02*
X14799500Y-11197500I40000J0D01*
G01*
X14397500Y-13652500D02*
X14397500Y-13742500D01*
X14352500Y-13697500D02*
X14442500Y-13697500D01*
X14651500Y-13652500D02*
X14651500Y-13742500D01*
X14606500Y-13697500D02*
X14696500Y-13697500D01*
X17291088Y-10831088D02*
X17291088Y-10763912D01*
X17223912Y-10763912D01*
X17223912Y-10831088D01*
X17291088Y-10831088D01*
X17291088Y-11081088D02*
X17291088Y-11013912D01*
X17223912Y-11013912D01*
X17223912Y-11081088D01*
X17291088Y-11081088D01*
X13597500Y-10567500D02*
X13647500Y-10517500D01*
X13597500Y-10467500D01*
X13547500Y-10517500D01*
X13597500Y-10567500D01*
X14797500Y-10567500D02*
X14847500Y-10517500D01*
X14797500Y-10467500D01*
X14747500Y-10517500D01*
X14797500Y-10567500D01*
D13*
X13527500Y-9227500D02*
X13657500Y-9357500D01*
X13657500Y-9227500D02*
X13527500Y-9357500D01*
X13657500Y-9292500D02*
G75*
G02*
X13527500Y-9292500I-65000J0D01*
G01*
X13527500Y-9292500D02*
G75*
G02*
X13657500Y-9292500I65000J0D01*
G01*
X14127500Y-10647500D02*
X14257500Y-10777500D01*
X14257500Y-10647500D02*
X14127500Y-10777500D01*
X14257500Y-10712500D02*
G75*
G02*
X14127500Y-10712500I-65000J0D01*
G01*
X14127500Y-10712500D02*
G75*
G02*
X14257500Y-10712500I65000J0D01*
G01*
X14732500Y-9232500D02*
X14862500Y-9362500D01*
X14862500Y-9232500D02*
X14732500Y-9362500D01*
X14862500Y-9297500D02*
G75*
G02*
X14732500Y-9297500I-65000J0D01*
G01*
X14732500Y-9297500D02*
G75*
G02*
X14862500Y-9297500I65000J0D01*
G01*
D14*
X15682500Y-8997500D02*
X15842500Y-9157500D01*
X15842500Y-8997500D02*
X15682500Y-9157500D01*
X15762500Y-8997500D02*
X15762500Y-9157500D01*
X15682500Y-9077500D02*
X15842500Y-9077500D01*
X15682500Y-9417500D02*
X15842500Y-9577500D01*
X15842500Y-9417500D02*
X15682500Y-9577500D01*
X15762500Y-9417500D02*
X15762500Y-9577500D01*
X15682500Y-9497500D02*
X15842500Y-9497500D01*
X15682500Y-9837500D02*
X15842500Y-9997500D01*
X15842500Y-9837500D02*
X15682500Y-9997500D01*
X15762500Y-9837500D02*
X15762500Y-9997500D01*
X15682500Y-9917500D02*
X15842500Y-9917500D01*
X15682500Y-10257500D02*
X15842500Y-10417500D01*
X15842500Y-10257500D02*
X15682500Y-10417500D01*
X15762500Y-10257500D02*
X15762500Y-10417500D01*
X15682500Y-10337500D02*
X15842500Y-10337500D01*
X15682500Y-10677500D02*
X15842500Y-10837500D01*
X15842500Y-10677500D02*
X15682500Y-10837500D01*
X15762500Y-10677500D02*
X15762500Y-10837500D01*
X15682500Y-10757500D02*
X15842500Y-10757500D01*
X15682500Y-11097500D02*
X15842500Y-11257500D01*
X15842500Y-11097500D02*
X15682500Y-11257500D01*
X15762500Y-11097500D02*
X15762500Y-11257500D01*
X15682500Y-11177500D02*
X15842500Y-11177500D01*
X15682500Y-11517500D02*
X15842500Y-11677500D01*
X15842500Y-11517500D02*
X15682500Y-11677500D01*
X15762500Y-11517500D02*
X15762500Y-11677500D01*
X15682500Y-11597500D02*
X15842500Y-11597500D01*
X15682500Y-11937500D02*
X15842500Y-12097500D01*
X15842500Y-11937500D02*
X15682500Y-12097500D01*
X15762500Y-11937500D02*
X15762500Y-12097500D01*
X15682500Y-12017500D02*
X15842500Y-12017500D01*
X15682500Y-12357500D02*
X15842500Y-12517500D01*
X15842500Y-12357500D02*
X15682500Y-12517500D01*
X15762500Y-12357500D02*
X15762500Y-12517500D01*
X15682500Y-12437500D02*
X15842500Y-12437500D01*
X15682500Y-12777500D02*
X15842500Y-12937500D01*
X15842500Y-12777500D02*
X15682500Y-12937500D01*
X15762500Y-12777500D02*
X15762500Y-12937500D01*
X15682500Y-12857500D02*
X15842500Y-12857500D01*
X15682500Y-13197500D02*
X15842500Y-13357500D01*
X15842500Y-13197500D02*
X15682500Y-13357500D01*
X15762500Y-13197500D02*
X15762500Y-13357500D01*
X15682500Y-13277500D02*
X15842500Y-13277500D01*
X15682500Y-13617500D02*
X15842500Y-13777500D01*
X15842500Y-13617500D02*
X15682500Y-13777500D01*
X15762500Y-13617500D02*
X15762500Y-13777500D01*
X15682500Y-13697500D02*
X15842500Y-13697500D01*
X16102500Y-8997500D02*
X16262500Y-9157500D01*
X16262500Y-8997500D02*
X16102500Y-9157500D01*
X16182500Y-8997500D02*
X16182500Y-9157500D01*
X16102500Y-9077500D02*
X16262500Y-9077500D01*
X16102500Y-9417500D02*
X16262500Y-9577500D01*
X16262500Y-9417500D02*
X16102500Y-9577500D01*
X16182500Y-9417500D02*
X16182500Y-9577500D01*
X16102500Y-9497500D02*
X16262500Y-9497500D01*
X16102500Y-9837500D02*
X16262500Y-9997500D01*
X16262500Y-9837500D02*
X16102500Y-9997500D01*
X16182500Y-9837500D02*
X16182500Y-9997500D01*
X16102500Y-9917500D02*
X16262500Y-9917500D01*
X16102500Y-10257500D02*
X16262500Y-10417500D01*
X16262500Y-10257500D02*
X16102500Y-10417500D01*
X16182500Y-10257500D02*
X16182500Y-10417500D01*
X16102500Y-10337500D02*
X16262500Y-10337500D01*
X16102500Y-10677500D02*
X16262500Y-10837500D01*
X16262500Y-10677500D02*
X16102500Y-10837500D01*
X16182500Y-10677500D02*
X16182500Y-10837500D01*
X16102500Y-10757500D02*
X16262500Y-10757500D01*
X16102500Y-11097500D02*
X16262500Y-11257500D01*
X16262500Y-11097500D02*
X16102500Y-11257500D01*
X16182500Y-11097500D02*
X16182500Y-11257500D01*
X16102500Y-11177500D02*
X16262500Y-11177500D01*
X16102500Y-11517500D02*
X16262500Y-11677500D01*
X16262500Y-11517500D02*
X16102500Y-11677500D01*
X16182500Y-11517500D02*
X16182500Y-11677500D01*
X16102500Y-11597500D02*
X16262500Y-11597500D01*
X16102500Y-11937500D02*
X16262500Y-12097500D01*
X16262500Y-11937500D02*
X16102500Y-12097500D01*
X16182500Y-11937500D02*
X16182500Y-12097500D01*
X16102500Y-12017500D02*
X16262500Y-12017500D01*
X16102500Y-12357500D02*
X16262500Y-12517500D01*
X16262500Y-12357500D02*
X16102500Y-12517500D01*
X16182500Y-12357500D02*
X16182500Y-12517500D01*
X16102500Y-12437500D02*
X16262500Y-12437500D01*
X16102500Y-12777500D02*
X16262500Y-12937500D01*
X16262500Y-12777500D02*
X16102500Y-12937500D01*
X16182500Y-12777500D02*
X16182500Y-12937500D01*
X16102500Y-12857500D02*
X16262500Y-12857500D01*
X16102500Y-13197500D02*
X16262500Y-13357500D01*
X16262500Y-13197500D02*
X16102500Y-13357500D01*
X16182500Y-13197500D02*
X16182500Y-13357500D01*
X16102500Y-13277500D02*
X16262500Y-13277500D01*
X16102500Y-13617500D02*
X16262500Y-13777500D01*
X16262500Y-13617500D02*
X16102500Y-13777500D01*
X16182500Y-13617500D02*
X16182500Y-13777500D01*
X16102500Y-13697500D02*
X16262500Y-13697500D01*
D15*
X13628500Y-8212500D02*
X13798500Y-8382500D01*
X13798500Y-8212500D02*
X13628500Y-8382500D01*
X13773605Y-8357605D02*
X13773605Y-8237395D01*
X13653395Y-8237395D01*
X13653395Y-8357605D01*
X13773605Y-8357605D01*
X14024500Y-8212500D02*
X14194500Y-8382500D01*
X14194500Y-8212500D02*
X14024500Y-8382500D01*
X14169605Y-8357605D02*
X14169605Y-8237395D01*
X14049395Y-8237395D01*
X14049395Y-8357605D01*
X14169605Y-8357605D01*
X14420500Y-8212500D02*
X14590500Y-8382500D01*
X14590500Y-8212500D02*
X14420500Y-8382500D01*
X14565605Y-8357605D02*
X14565605Y-8237395D01*
X14445395Y-8237395D01*
X14445395Y-8357605D01*
X14565605Y-8357605D01*
X14816500Y-8212500D02*
X14986500Y-8382500D01*
X14986500Y-8212500D02*
X14816500Y-8382500D01*
X14961605Y-8357605D02*
X14961605Y-8237395D01*
X14841395Y-8237395D01*
X14841395Y-8357605D01*
X14961605Y-8357605D01*
X15212500Y-8212500D02*
X15382500Y-8382500D01*
X15382500Y-8212500D02*
X15212500Y-8382500D01*
X15357605Y-8357605D02*
X15357605Y-8237395D01*
X15237395Y-8237395D01*
X15237395Y-8357605D01*
X15357605Y-8357605D01*
D16*
X13252500Y-14372500D02*
X13502500Y-14622500D01*
X13502500Y-14372500D02*
X13252500Y-14622500D01*
X13377500Y-14622500D02*
X13502500Y-14497500D01*
X13377500Y-14372500D01*
X13252500Y-14497500D01*
X13377500Y-14622500D01*
X13252500Y-14967500D02*
X13502500Y-15217500D01*
X13502500Y-14967500D02*
X13252500Y-15217500D01*
X13377500Y-15217500D02*
X13502500Y-15092500D01*
X13377500Y-14967500D01*
X13252500Y-15092500D01*
X13377500Y-15217500D01*
X14032500Y-14372500D02*
X14282500Y-14622500D01*
X14282500Y-14372500D02*
X14032500Y-14622500D01*
X14157500Y-14622500D02*
X14282500Y-14497500D01*
X14157500Y-14372500D01*
X14032500Y-14497500D01*
X14157500Y-14622500D01*
X14032500Y-14967500D02*
X14282500Y-15217500D01*
X14282500Y-14967500D02*
X14032500Y-15217500D01*
X14157500Y-15217500D02*
X14282500Y-15092500D01*
X14157500Y-14967500D01*
X14032500Y-15092500D01*
X14157500Y-15217500D01*
X14812500Y-14372500D02*
X15062500Y-14622500D01*
X15062500Y-14372500D02*
X14812500Y-14622500D01*
X14937500Y-14622500D02*
X15062500Y-14497500D01*
X14937500Y-14372500D01*
X14812500Y-14497500D01*
X14937500Y-14622500D01*
X14812500Y-14967500D02*
X15062500Y-15217500D01*
X15062500Y-14967500D02*
X14812500Y-15217500D01*
X14937500Y-15217500D02*
X15062500Y-15092500D01*
X14937500Y-14967500D01*
X14812500Y-15092500D01*
X14937500Y-15217500D01*
X15592500Y-14372500D02*
X15842500Y-14622500D01*
X15842500Y-14372500D02*
X15592500Y-14622500D01*
X15717500Y-14622500D02*
X15842500Y-14497500D01*
X15717500Y-14372500D01*
X15592500Y-14497500D01*
X15717500Y-14622500D01*
X15592500Y-14967500D02*
X15842500Y-15217500D01*
X15842500Y-14967500D02*
X15592500Y-15217500D01*
X15717500Y-15217500D02*
X15842500Y-15092500D01*
X15717500Y-14967500D01*
X15592500Y-15092500D01*
X15717500Y-15217500D01*
X16372500Y-14372500D02*
X16622500Y-14622500D01*
X16622500Y-14372500D02*
X16372500Y-14622500D01*
X16497500Y-14622500D02*
X16622500Y-14497500D01*
X16497500Y-14372500D01*
X16372500Y-14497500D01*
X16497500Y-14622500D01*
X16372500Y-14967500D02*
X16622500Y-15217500D01*
X16622500Y-14967500D02*
X16372500Y-15217500D01*
X16497500Y-15217500D02*
X16622500Y-15092500D01*
X16497500Y-14967500D01*
X16372500Y-15092500D01*
X16497500Y-15217500D01*
X17072500Y-8992500D02*
X17322500Y-9242500D01*
X17322500Y-8992500D02*
X17072500Y-9242500D01*
X17197500Y-9242500D02*
X17322500Y-9117500D01*
X17197500Y-8992500D01*
X17072500Y-9117500D01*
X17197500Y-9242500D01*
X17072500Y-9772500D02*
X17322500Y-10022500D01*
X17322500Y-9772500D02*
X17072500Y-10022500D01*
X17197500Y-10022500D02*
X17322500Y-9897500D01*
X17197500Y-9772500D01*
X17072500Y-9897500D01*
X17197500Y-10022500D01*
D17*
X12647500Y-8112500D02*
X12647500Y-8482500D01*
X12462500Y-8297500D02*
X12832500Y-8297500D01*
X12832500Y-8297500D02*
G75*
G02*
X12462500Y-8297500I-185000J0D01*
G01*
X12462500Y-8297500D02*
G75*
G02*
X12832500Y-8297500I185000J0D01*
G01*
X12647500Y-14912500D02*
X12647500Y-15282500D01*
X12462500Y-15097500D02*
X12832500Y-15097500D01*
X12832500Y-15097500D02*
G75*
G02*
X12462500Y-15097500I-185000J0D01*
G01*
X12462500Y-15097500D02*
G75*
G02*
X12832500Y-15097500I185000J0D01*
G01*
X17247500Y-7912500D02*
X17247500Y-8282500D01*
X17062500Y-8097500D02*
X17432500Y-8097500D01*
X17432500Y-8097500D02*
G75*
G02*
X17062500Y-8097500I-185000J0D01*
G01*
X17062500Y-8097500D02*
G75*
G02*
X17432500Y-8097500I185000J0D01*
G01*
X17247500Y-14912500D02*
X17247500Y-15282500D01*
X17062500Y-15097500D02*
X17432500Y-15097500D01*
X17432500Y-15097500D02*
G75*
G02*
X17062500Y-15097500I-185000J0D01*
G01*
X17062500Y-15097500D02*
G75*
G02*
X17432500Y-15097500I185000J0D01*
G01*
D11*
X12455777Y-15911484D02*
X12455777Y-15711484D01*
X12455777Y-15711484D02*
X12503396Y-15711484D01*
X12503396Y-15711484D02*
X12531967Y-15721008D01*
X12531967Y-15721008D02*
X12551015Y-15740055D01*
X12551015Y-15740055D02*
X12560539Y-15759103D01*
X12560539Y-15759103D02*
X12570062Y-15797198D01*
X12570062Y-15797198D02*
X12570062Y-15825769D01*
X12570062Y-15825769D02*
X12560539Y-15863865D01*
X12560539Y-15863865D02*
X12551015Y-15882912D01*
X12551015Y-15882912D02*
X12531967Y-15901960D01*
X12531967Y-15901960D02*
X12503396Y-15911484D01*
X12503396Y-15911484D02*
X12455777Y-15911484D01*
X12655777Y-15911484D02*
X12655777Y-15778150D01*
X12655777Y-15816246D02*
X12665301Y-15797198D01*
X12665301Y-15797198D02*
X12674824Y-15787674D01*
X12674824Y-15787674D02*
X12693872Y-15778150D01*
X12693872Y-15778150D02*
X12712920Y-15778150D01*
X12779586Y-15911484D02*
X12779586Y-15778150D01*
X12779586Y-15711484D02*
X12770062Y-15721008D01*
X12770062Y-15721008D02*
X12779586Y-15730531D01*
X12779586Y-15730531D02*
X12789110Y-15721008D01*
X12789110Y-15721008D02*
X12779586Y-15711484D01*
X12779586Y-15711484D02*
X12779586Y-15730531D01*
X12903396Y-15911484D02*
X12884348Y-15901960D01*
X12884348Y-15901960D02*
X12874824Y-15882912D01*
X12874824Y-15882912D02*
X12874824Y-15711484D01*
X13008158Y-15911484D02*
X12989110Y-15901960D01*
X12989110Y-15901960D02*
X12979586Y-15882912D01*
X12979586Y-15882912D02*
X12979586Y-15711484D01*
X13236729Y-15911484D02*
X13236729Y-15711484D01*
X13236729Y-15711484D02*
X13303396Y-15854341D01*
X13303396Y-15854341D02*
X13370062Y-15711484D01*
X13370062Y-15711484D02*
X13370062Y-15911484D01*
X13551015Y-15911484D02*
X13551015Y-15806722D01*
X13551015Y-15806722D02*
X13541491Y-15787674D01*
X13541491Y-15787674D02*
X13522443Y-15778150D01*
X13522443Y-15778150D02*
X13484348Y-15778150D01*
X13484348Y-15778150D02*
X13465301Y-15787674D01*
X13551015Y-15901960D02*
X13531967Y-15911484D01*
X13531967Y-15911484D02*
X13484348Y-15911484D01*
X13484348Y-15911484D02*
X13465301Y-15901960D01*
X13465301Y-15901960D02*
X13455777Y-15882912D01*
X13455777Y-15882912D02*
X13455777Y-15863865D01*
X13455777Y-15863865D02*
X13465301Y-15844817D01*
X13465301Y-15844817D02*
X13484348Y-15835293D01*
X13484348Y-15835293D02*
X13531967Y-15835293D01*
X13531967Y-15835293D02*
X13551015Y-15825769D01*
X13646253Y-15778150D02*
X13646253Y-15978150D01*
X13646253Y-15787674D02*
X13665301Y-15778150D01*
X13665301Y-15778150D02*
X13703396Y-15778150D01*
X13703396Y-15778150D02*
X13722443Y-15787674D01*
X13722443Y-15787674D02*
X13731967Y-15797198D01*
X13731967Y-15797198D02*
X13741491Y-15816246D01*
X13741491Y-15816246D02*
X13741491Y-15873388D01*
X13741491Y-15873388D02*
X13731967Y-15892436D01*
X13731967Y-15892436D02*
X13722443Y-15901960D01*
X13722443Y-15901960D02*
X13703396Y-15911484D01*
X13703396Y-15911484D02*
X13665301Y-15911484D01*
X13665301Y-15911484D02*
X13646253Y-15901960D01*
X13827205Y-15892436D02*
X13836729Y-15901960D01*
X13836729Y-15901960D02*
X13827205Y-15911484D01*
X13827205Y-15911484D02*
X13817682Y-15901960D01*
X13817682Y-15901960D02*
X13827205Y-15892436D01*
X13827205Y-15892436D02*
X13827205Y-15911484D01*
X13827205Y-15787674D02*
X13836729Y-15797198D01*
X13836729Y-15797198D02*
X13827205Y-15806722D01*
X13827205Y-15806722D02*
X13817682Y-15797198D01*
X13817682Y-15797198D02*
X13827205Y-15787674D01*
X13827205Y-15787674D02*
X13827205Y-15806722D01*
D12*
X12125000Y-16205000D02*
X12195000Y-16275000D01*
X12195000Y-16205000D02*
X12125000Y-16275000D01*
D11*
X12493872Y-16131484D02*
X12512920Y-16131484D01*
X12512920Y-16131484D02*
X12531967Y-16141008D01*
X12531967Y-16141008D02*
X12541491Y-16150531D01*
X12541491Y-16150531D02*
X12551015Y-16169579D01*
X12551015Y-16169579D02*
X12560539Y-16207674D01*
X12560539Y-16207674D02*
X12560539Y-16255293D01*
X12560539Y-16255293D02*
X12551015Y-16293388D01*
X12551015Y-16293388D02*
X12541491Y-16312436D01*
X12541491Y-16312436D02*
X12531967Y-16321960D01*
X12531967Y-16321960D02*
X12512920Y-16331484D01*
X12512920Y-16331484D02*
X12493872Y-16331484D01*
X12493872Y-16331484D02*
X12474824Y-16321960D01*
X12474824Y-16321960D02*
X12465301Y-16312436D01*
X12465301Y-16312436D02*
X12455777Y-16293388D01*
X12455777Y-16293388D02*
X12446253Y-16255293D01*
X12446253Y-16255293D02*
X12446253Y-16207674D01*
X12446253Y-16207674D02*
X12455777Y-16169579D01*
X12455777Y-16169579D02*
X12465301Y-16150531D01*
X12465301Y-16150531D02*
X12474824Y-16141008D01*
X12474824Y-16141008D02*
X12493872Y-16131484D01*
X12646253Y-16312436D02*
X12655777Y-16321960D01*
X12655777Y-16321960D02*
X12646253Y-16331484D01*
X12646253Y-16331484D02*
X12636729Y-16321960D01*
X12636729Y-16321960D02*
X12646253Y-16312436D01*
X12646253Y-16312436D02*
X12646253Y-16331484D01*
X12722443Y-16131484D02*
X12855777Y-16131484D01*
X12855777Y-16131484D02*
X12770062Y-16331484D01*
X12970062Y-16131484D02*
X12989110Y-16131484D01*
X12989110Y-16131484D02*
X13008158Y-16141008D01*
X13008158Y-16141008D02*
X13017682Y-16150531D01*
X13017682Y-16150531D02*
X13027205Y-16169579D01*
X13027205Y-16169579D02*
X13036729Y-16207674D01*
X13036729Y-16207674D02*
X13036729Y-16255293D01*
X13036729Y-16255293D02*
X13027205Y-16293388D01*
X13027205Y-16293388D02*
X13017682Y-16312436D01*
X13017682Y-16312436D02*
X13008158Y-16321960D01*
X13008158Y-16321960D02*
X12989110Y-16331484D01*
X12989110Y-16331484D02*
X12970062Y-16331484D01*
X12970062Y-16331484D02*
X12951015Y-16321960D01*
X12951015Y-16321960D02*
X12941491Y-16312436D01*
X12941491Y-16312436D02*
X12931967Y-16293388D01*
X12931967Y-16293388D02*
X12922443Y-16255293D01*
X12922443Y-16255293D02*
X12922443Y-16207674D01*
X12922443Y-16207674D02*
X12931967Y-16169579D01*
X12931967Y-16169579D02*
X12941491Y-16150531D01*
X12941491Y-16150531D02*
X12951015Y-16141008D01*
X12951015Y-16141008D02*
X12970062Y-16131484D01*
X13160539Y-16131484D02*
X13179586Y-16131484D01*
X13179586Y-16131484D02*
X13198634Y-16141008D01*
X13198634Y-16141008D02*
X13208158Y-16150531D01*
X13208158Y-16150531D02*
X13217682Y-16169579D01*
X13217682Y-16169579D02*
X13227205Y-16207674D01*
X13227205Y-16207674D02*
X13227205Y-16255293D01*
X13227205Y-16255293D02*
X13217682Y-16293388D01*
X13217682Y-16293388D02*
X13208158Y-16312436D01*
X13208158Y-16312436D02*
X13198634Y-16321960D01*
X13198634Y-16321960D02*
X13179586Y-16331484D01*
X13179586Y-16331484D02*
X13160539Y-16331484D01*
X13160539Y-16331484D02*
X13141491Y-16321960D01*
X13141491Y-16321960D02*
X13131967Y-16312436D01*
X13131967Y-16312436D02*
X13122443Y-16293388D01*
X13122443Y-16293388D02*
X13112920Y-16255293D01*
X13112920Y-16255293D02*
X13112920Y-16207674D01*
X13112920Y-16207674D02*
X13122443Y-16169579D01*
X13122443Y-16169579D02*
X13131967Y-16150531D01*
X13131967Y-16150531D02*
X13141491Y-16141008D01*
X13141491Y-16141008D02*
X13160539Y-16131484D01*
X13312920Y-16331484D02*
X13312920Y-16198150D01*
X13312920Y-16217198D02*
X13322443Y-16207674D01*
X13322443Y-16207674D02*
X13341491Y-16198150D01*
X13341491Y-16198150D02*
X13370063Y-16198150D01*
X13370063Y-16198150D02*
X13389110Y-16207674D01*
X13389110Y-16207674D02*
X13398634Y-16226722D01*
X13398634Y-16226722D02*
X13398634Y-16331484D01*
X13398634Y-16226722D02*
X13408158Y-16207674D01*
X13408158Y-16207674D02*
X13427205Y-16198150D01*
X13427205Y-16198150D02*
X13455777Y-16198150D01*
X13455777Y-16198150D02*
X13474824Y-16207674D01*
X13474824Y-16207674D02*
X13484348Y-16226722D01*
X13484348Y-16226722D02*
X13484348Y-16331484D01*
X13579586Y-16331484D02*
X13579586Y-16198150D01*
X13579586Y-16217198D02*
X13589110Y-16207674D01*
X13589110Y-16207674D02*
X13608158Y-16198150D01*
X13608158Y-16198150D02*
X13636729Y-16198150D01*
X13636729Y-16198150D02*
X13655777Y-16207674D01*
X13655777Y-16207674D02*
X13665301Y-16226722D01*
X13665301Y-16226722D02*
X13665301Y-16331484D01*
X13665301Y-16226722D02*
X13674824Y-16207674D01*
X13674824Y-16207674D02*
X13693872Y-16198150D01*
X13693872Y-16198150D02*
X13722443Y-16198150D01*
X13722443Y-16198150D02*
X13741491Y-16207674D01*
X13741491Y-16207674D02*
X13751015Y-16226722D01*
X13751015Y-16226722D02*
X13751015Y-16331484D01*
X14141491Y-16121960D02*
X13970063Y-16379103D01*
X14398634Y-16131484D02*
X14417682Y-16131484D01*
X14417682Y-16131484D02*
X14436729Y-16141008D01*
X14436729Y-16141008D02*
X14446253Y-16150531D01*
X14446253Y-16150531D02*
X14455777Y-16169579D01*
X14455777Y-16169579D02*
X14465301Y-16207674D01*
X14465301Y-16207674D02*
X14465301Y-16255293D01*
X14465301Y-16255293D02*
X14455777Y-16293388D01*
X14455777Y-16293388D02*
X14446253Y-16312436D01*
X14446253Y-16312436D02*
X14436729Y-16321960D01*
X14436729Y-16321960D02*
X14417682Y-16331484D01*
X14417682Y-16331484D02*
X14398634Y-16331484D01*
X14398634Y-16331484D02*
X14379586Y-16321960D01*
X14379586Y-16321960D02*
X14370063Y-16312436D01*
X14370063Y-16312436D02*
X14360539Y-16293388D01*
X14360539Y-16293388D02*
X14351015Y-16255293D01*
X14351015Y-16255293D02*
X14351015Y-16207674D01*
X14351015Y-16207674D02*
X14360539Y-16169579D01*
X14360539Y-16169579D02*
X14370063Y-16150531D01*
X14370063Y-16150531D02*
X14379586Y-16141008D01*
X14379586Y-16141008D02*
X14398634Y-16131484D01*
X14551015Y-16312436D02*
X14560539Y-16321960D01*
X14560539Y-16321960D02*
X14551015Y-16331484D01*
X14551015Y-16331484D02*
X14541491Y-16321960D01*
X14541491Y-16321960D02*
X14551015Y-16312436D01*
X14551015Y-16312436D02*
X14551015Y-16331484D01*
X14684348Y-16131484D02*
X14703396Y-16131484D01*
X14703396Y-16131484D02*
X14722444Y-16141008D01*
X14722444Y-16141008D02*
X14731967Y-16150531D01*
X14731967Y-16150531D02*
X14741491Y-16169579D01*
X14741491Y-16169579D02*
X14751015Y-16207674D01*
X14751015Y-16207674D02*
X14751015Y-16255293D01*
X14751015Y-16255293D02*
X14741491Y-16293388D01*
X14741491Y-16293388D02*
X14731967Y-16312436D01*
X14731967Y-16312436D02*
X14722444Y-16321960D01*
X14722444Y-16321960D02*
X14703396Y-16331484D01*
X14703396Y-16331484D02*
X14684348Y-16331484D01*
X14684348Y-16331484D02*
X14665301Y-16321960D01*
X14665301Y-16321960D02*
X14655777Y-16312436D01*
X14655777Y-16312436D02*
X14646253Y-16293388D01*
X14646253Y-16293388D02*
X14636729Y-16255293D01*
X14636729Y-16255293D02*
X14636729Y-16207674D01*
X14636729Y-16207674D02*
X14646253Y-16169579D01*
X14646253Y-16169579D02*
X14655777Y-16150531D01*
X14655777Y-16150531D02*
X14665301Y-16141008D01*
X14665301Y-16141008D02*
X14684348Y-16131484D01*
X14827206Y-16150531D02*
X14836729Y-16141008D01*
X14836729Y-16141008D02*
X14855777Y-16131484D01*
X14855777Y-16131484D02*
X14903396Y-16131484D01*
X14903396Y-16131484D02*
X14922444Y-16141008D01*
X14922444Y-16141008D02*
X14931967Y-16150531D01*
X14931967Y-16150531D02*
X14941491Y-16169579D01*
X14941491Y-16169579D02*
X14941491Y-16188627D01*
X14941491Y-16188627D02*
X14931967Y-16217198D01*
X14931967Y-16217198D02*
X14817682Y-16331484D01*
X14817682Y-16331484D02*
X14941491Y-16331484D01*
X15008158Y-16131484D02*
X15141491Y-16131484D01*
X15141491Y-16131484D02*
X15055777Y-16331484D01*
X15303396Y-16131484D02*
X15265301Y-16131484D01*
X15265301Y-16131484D02*
X15246253Y-16141008D01*
X15246253Y-16141008D02*
X15236729Y-16150531D01*
X15236729Y-16150531D02*
X15217682Y-16179103D01*
X15217682Y-16179103D02*
X15208158Y-16217198D01*
X15208158Y-16217198D02*
X15208158Y-16293388D01*
X15208158Y-16293388D02*
X15217682Y-16312436D01*
X15217682Y-16312436D02*
X15227206Y-16321960D01*
X15227206Y-16321960D02*
X15246253Y-16331484D01*
X15246253Y-16331484D02*
X15284348Y-16331484D01*
X15284348Y-16331484D02*
X15303396Y-16321960D01*
X15303396Y-16321960D02*
X15312920Y-16312436D01*
X15312920Y-16312436D02*
X15322444Y-16293388D01*
X15322444Y-16293388D02*
X15322444Y-16245769D01*
X15322444Y-16245769D02*
X15312920Y-16226722D01*
X15312920Y-16226722D02*
X15303396Y-16217198D01*
X15303396Y-16217198D02*
X15284348Y-16207674D01*
X15284348Y-16207674D02*
X15246253Y-16207674D01*
X15246253Y-16207674D02*
X15227206Y-16217198D01*
X15227206Y-16217198D02*
X15217682Y-16226722D01*
X15217682Y-16226722D02*
X15208158Y-16245769D01*
X15398634Y-16131484D02*
X15398634Y-16169579D01*
X15474825Y-16131484D02*
X15474825Y-16169579D01*
X15770063Y-16407674D02*
X15760539Y-16398150D01*
X15760539Y-16398150D02*
X15741491Y-16369579D01*
X15741491Y-16369579D02*
X15731968Y-16350531D01*
X15731968Y-16350531D02*
X15722444Y-16321960D01*
X15722444Y-16321960D02*
X15712920Y-16274341D01*
X15712920Y-16274341D02*
X15712920Y-16236246D01*
X15712920Y-16236246D02*
X15722444Y-16188627D01*
X15722444Y-16188627D02*
X15731968Y-16160055D01*
X15731968Y-16160055D02*
X15741491Y-16141008D01*
X15741491Y-16141008D02*
X15760539Y-16112436D01*
X15760539Y-16112436D02*
X15770063Y-16102912D01*
X15931968Y-16198150D02*
X15931968Y-16331484D01*
X15884348Y-16121960D02*
X15836729Y-16264817D01*
X15836729Y-16264817D02*
X15960539Y-16264817D01*
X16189110Y-16331484D02*
X16189110Y-16131484D01*
X16274825Y-16331484D02*
X16274825Y-16226722D01*
X16274825Y-16226722D02*
X16265301Y-16207674D01*
X16265301Y-16207674D02*
X16246253Y-16198150D01*
X16246253Y-16198150D02*
X16217682Y-16198150D01*
X16217682Y-16198150D02*
X16198634Y-16207674D01*
X16198634Y-16207674D02*
X16189110Y-16217198D01*
X16398634Y-16331484D02*
X16379587Y-16321960D01*
X16379587Y-16321960D02*
X16370063Y-16312436D01*
X16370063Y-16312436D02*
X16360539Y-16293388D01*
X16360539Y-16293388D02*
X16360539Y-16236246D01*
X16360539Y-16236246D02*
X16370063Y-16217198D01*
X16370063Y-16217198D02*
X16379587Y-16207674D01*
X16379587Y-16207674D02*
X16398634Y-16198150D01*
X16398634Y-16198150D02*
X16427206Y-16198150D01*
X16427206Y-16198150D02*
X16446253Y-16207674D01*
X16446253Y-16207674D02*
X16455777Y-16217198D01*
X16455777Y-16217198D02*
X16465301Y-16236246D01*
X16465301Y-16236246D02*
X16465301Y-16293388D01*
X16465301Y-16293388D02*
X16455777Y-16312436D01*
X16455777Y-16312436D02*
X16446253Y-16321960D01*
X16446253Y-16321960D02*
X16427206Y-16331484D01*
X16427206Y-16331484D02*
X16398634Y-16331484D01*
X16579587Y-16331484D02*
X16560539Y-16321960D01*
X16560539Y-16321960D02*
X16551015Y-16302912D01*
X16551015Y-16302912D02*
X16551015Y-16131484D01*
X16731968Y-16321960D02*
X16712920Y-16331484D01*
X16712920Y-16331484D02*
X16674825Y-16331484D01*
X16674825Y-16331484D02*
X16655777Y-16321960D01*
X16655777Y-16321960D02*
X16646253Y-16302912D01*
X16646253Y-16302912D02*
X16646253Y-16226722D01*
X16646253Y-16226722D02*
X16655777Y-16207674D01*
X16655777Y-16207674D02*
X16674825Y-16198150D01*
X16674825Y-16198150D02*
X16712920Y-16198150D01*
X16712920Y-16198150D02*
X16731968Y-16207674D01*
X16731968Y-16207674D02*
X16741491Y-16226722D01*
X16741491Y-16226722D02*
X16741491Y-16245769D01*
X16741491Y-16245769D02*
X16646253Y-16264817D01*
X16817682Y-16321960D02*
X16836730Y-16331484D01*
X16836730Y-16331484D02*
X16874825Y-16331484D01*
X16874825Y-16331484D02*
X16893873Y-16321960D01*
X16893873Y-16321960D02*
X16903396Y-16302912D01*
X16903396Y-16302912D02*
X16903396Y-16293388D01*
X16903396Y-16293388D02*
X16893873Y-16274341D01*
X16893873Y-16274341D02*
X16874825Y-16264817D01*
X16874825Y-16264817D02*
X16846253Y-16264817D01*
X16846253Y-16264817D02*
X16827206Y-16255293D01*
X16827206Y-16255293D02*
X16817682Y-16236246D01*
X16817682Y-16236246D02*
X16817682Y-16226722D01*
X16817682Y-16226722D02*
X16827206Y-16207674D01*
X16827206Y-16207674D02*
X16846253Y-16198150D01*
X16846253Y-16198150D02*
X16874825Y-16198150D01*
X16874825Y-16198150D02*
X16893873Y-16207674D01*
X16970063Y-16407674D02*
X16979587Y-16398150D01*
X16979587Y-16398150D02*
X16998634Y-16369579D01*
X16998634Y-16369579D02*
X17008158Y-16350531D01*
X17008158Y-16350531D02*
X17017682Y-16321960D01*
X17017682Y-16321960D02*
X17027206Y-16274341D01*
X17027206Y-16274341D02*
X17027206Y-16236246D01*
X17027206Y-16236246D02*
X17017682Y-16188627D01*
X17017682Y-16188627D02*
X17008158Y-16160055D01*
X17008158Y-16160055D02*
X16998634Y-16141008D01*
X16998634Y-16141008D02*
X16979587Y-16112436D01*
X16979587Y-16112436D02*
X16970063Y-16102912D01*
D12*
X12195000Y-16504000D02*
G75*
G02*
X12115000Y-16504000I-40000J0D01*
G01*
X12115000Y-16504000D02*
G75*
G02*
X12195000Y-16504000I40000J0D01*
G01*
D11*
X12493872Y-16395484D02*
X12512920Y-16395484D01*
X12512920Y-16395484D02*
X12531967Y-16405008D01*
X12531967Y-16405008D02*
X12541491Y-16414531D01*
X12541491Y-16414531D02*
X12551015Y-16433579D01*
X12551015Y-16433579D02*
X12560539Y-16471674D01*
X12560539Y-16471674D02*
X12560539Y-16519293D01*
X12560539Y-16519293D02*
X12551015Y-16557388D01*
X12551015Y-16557388D02*
X12541491Y-16576436D01*
X12541491Y-16576436D02*
X12531967Y-16585960D01*
X12531967Y-16585960D02*
X12512920Y-16595484D01*
X12512920Y-16595484D02*
X12493872Y-16595484D01*
X12493872Y-16595484D02*
X12474824Y-16585960D01*
X12474824Y-16585960D02*
X12465301Y-16576436D01*
X12465301Y-16576436D02*
X12455777Y-16557388D01*
X12455777Y-16557388D02*
X12446253Y-16519293D01*
X12446253Y-16519293D02*
X12446253Y-16471674D01*
X12446253Y-16471674D02*
X12455777Y-16433579D01*
X12455777Y-16433579D02*
X12465301Y-16414531D01*
X12465301Y-16414531D02*
X12474824Y-16405008D01*
X12474824Y-16405008D02*
X12493872Y-16395484D01*
X12646253Y-16576436D02*
X12655777Y-16585960D01*
X12655777Y-16585960D02*
X12646253Y-16595484D01*
X12646253Y-16595484D02*
X12636729Y-16585960D01*
X12636729Y-16585960D02*
X12646253Y-16576436D01*
X12646253Y-16576436D02*
X12646253Y-16595484D01*
X12770062Y-16481198D02*
X12751015Y-16471674D01*
X12751015Y-16471674D02*
X12741491Y-16462150D01*
X12741491Y-16462150D02*
X12731967Y-16443103D01*
X12731967Y-16443103D02*
X12731967Y-16433579D01*
X12731967Y-16433579D02*
X12741491Y-16414531D01*
X12741491Y-16414531D02*
X12751015Y-16405008D01*
X12751015Y-16405008D02*
X12770062Y-16395484D01*
X12770062Y-16395484D02*
X12808158Y-16395484D01*
X12808158Y-16395484D02*
X12827205Y-16405008D01*
X12827205Y-16405008D02*
X12836729Y-16414531D01*
X12836729Y-16414531D02*
X12846253Y-16433579D01*
X12846253Y-16433579D02*
X12846253Y-16443103D01*
X12846253Y-16443103D02*
X12836729Y-16462150D01*
X12836729Y-16462150D02*
X12827205Y-16471674D01*
X12827205Y-16471674D02*
X12808158Y-16481198D01*
X12808158Y-16481198D02*
X12770062Y-16481198D01*
X12770062Y-16481198D02*
X12751015Y-16490722D01*
X12751015Y-16490722D02*
X12741491Y-16500246D01*
X12741491Y-16500246D02*
X12731967Y-16519293D01*
X12731967Y-16519293D02*
X12731967Y-16557388D01*
X12731967Y-16557388D02*
X12741491Y-16576436D01*
X12741491Y-16576436D02*
X12751015Y-16585960D01*
X12751015Y-16585960D02*
X12770062Y-16595484D01*
X12770062Y-16595484D02*
X12808158Y-16595484D01*
X12808158Y-16595484D02*
X12827205Y-16585960D01*
X12827205Y-16585960D02*
X12836729Y-16576436D01*
X12836729Y-16576436D02*
X12846253Y-16557388D01*
X12846253Y-16557388D02*
X12846253Y-16519293D01*
X12846253Y-16519293D02*
X12836729Y-16500246D01*
X12836729Y-16500246D02*
X12827205Y-16490722D01*
X12827205Y-16490722D02*
X12808158Y-16481198D01*
X12970062Y-16395484D02*
X12989110Y-16395484D01*
X12989110Y-16395484D02*
X13008158Y-16405008D01*
X13008158Y-16405008D02*
X13017682Y-16414531D01*
X13017682Y-16414531D02*
X13027205Y-16433579D01*
X13027205Y-16433579D02*
X13036729Y-16471674D01*
X13036729Y-16471674D02*
X13036729Y-16519293D01*
X13036729Y-16519293D02*
X13027205Y-16557388D01*
X13027205Y-16557388D02*
X13017682Y-16576436D01*
X13017682Y-16576436D02*
X13008158Y-16585960D01*
X13008158Y-16585960D02*
X12989110Y-16595484D01*
X12989110Y-16595484D02*
X12970062Y-16595484D01*
X12970062Y-16595484D02*
X12951015Y-16585960D01*
X12951015Y-16585960D02*
X12941491Y-16576436D01*
X12941491Y-16576436D02*
X12931967Y-16557388D01*
X12931967Y-16557388D02*
X12922443Y-16519293D01*
X12922443Y-16519293D02*
X12922443Y-16471674D01*
X12922443Y-16471674D02*
X12931967Y-16433579D01*
X12931967Y-16433579D02*
X12941491Y-16414531D01*
X12941491Y-16414531D02*
X12951015Y-16405008D01*
X12951015Y-16405008D02*
X12970062Y-16395484D01*
X13160539Y-16395484D02*
X13179586Y-16395484D01*
X13179586Y-16395484D02*
X13198634Y-16405008D01*
X13198634Y-16405008D02*
X13208158Y-16414531D01*
X13208158Y-16414531D02*
X13217682Y-16433579D01*
X13217682Y-16433579D02*
X13227205Y-16471674D01*
X13227205Y-16471674D02*
X13227205Y-16519293D01*
X13227205Y-16519293D02*
X13217682Y-16557388D01*
X13217682Y-16557388D02*
X13208158Y-16576436D01*
X13208158Y-16576436D02*
X13198634Y-16585960D01*
X13198634Y-16585960D02*
X13179586Y-16595484D01*
X13179586Y-16595484D02*
X13160539Y-16595484D01*
X13160539Y-16595484D02*
X13141491Y-16585960D01*
X13141491Y-16585960D02*
X13131967Y-16576436D01*
X13131967Y-16576436D02*
X13122443Y-16557388D01*
X13122443Y-16557388D02*
X13112920Y-16519293D01*
X13112920Y-16519293D02*
X13112920Y-16471674D01*
X13112920Y-16471674D02*
X13122443Y-16433579D01*
X13122443Y-16433579D02*
X13131967Y-16414531D01*
X13131967Y-16414531D02*
X13141491Y-16405008D01*
X13141491Y-16405008D02*
X13160539Y-16395484D01*
X13312920Y-16595484D02*
X13312920Y-16462150D01*
X13312920Y-16481198D02*
X13322443Y-16471674D01*
X13322443Y-16471674D02*
X13341491Y-16462150D01*
X13341491Y-16462150D02*
X13370063Y-16462150D01*
X13370063Y-16462150D02*
X13389110Y-16471674D01*
X13389110Y-16471674D02*
X13398634Y-16490722D01*
X13398634Y-16490722D02*
X13398634Y-16595484D01*
X13398634Y-16490722D02*
X13408158Y-16471674D01*
X13408158Y-16471674D02*
X13427205Y-16462150D01*
X13427205Y-16462150D02*
X13455777Y-16462150D01*
X13455777Y-16462150D02*
X13474824Y-16471674D01*
X13474824Y-16471674D02*
X13484348Y-16490722D01*
X13484348Y-16490722D02*
X13484348Y-16595484D01*
X13579586Y-16595484D02*
X13579586Y-16462150D01*
X13579586Y-16481198D02*
X13589110Y-16471674D01*
X13589110Y-16471674D02*
X13608158Y-16462150D01*
X13608158Y-16462150D02*
X13636729Y-16462150D01*
X13636729Y-16462150D02*
X13655777Y-16471674D01*
X13655777Y-16471674D02*
X13665301Y-16490722D01*
X13665301Y-16490722D02*
X13665301Y-16595484D01*
X13665301Y-16490722D02*
X13674824Y-16471674D01*
X13674824Y-16471674D02*
X13693872Y-16462150D01*
X13693872Y-16462150D02*
X13722443Y-16462150D01*
X13722443Y-16462150D02*
X13741491Y-16471674D01*
X13741491Y-16471674D02*
X13751015Y-16490722D01*
X13751015Y-16490722D02*
X13751015Y-16595484D01*
X14141491Y-16385960D02*
X13970063Y-16643103D01*
X14398634Y-16395484D02*
X14417682Y-16395484D01*
X14417682Y-16395484D02*
X14436729Y-16405008D01*
X14436729Y-16405008D02*
X14446253Y-16414531D01*
X14446253Y-16414531D02*
X14455777Y-16433579D01*
X14455777Y-16433579D02*
X14465301Y-16471674D01*
X14465301Y-16471674D02*
X14465301Y-16519293D01*
X14465301Y-16519293D02*
X14455777Y-16557388D01*
X14455777Y-16557388D02*
X14446253Y-16576436D01*
X14446253Y-16576436D02*
X14436729Y-16585960D01*
X14436729Y-16585960D02*
X14417682Y-16595484D01*
X14417682Y-16595484D02*
X14398634Y-16595484D01*
X14398634Y-16595484D02*
X14379586Y-16585960D01*
X14379586Y-16585960D02*
X14370063Y-16576436D01*
X14370063Y-16576436D02*
X14360539Y-16557388D01*
X14360539Y-16557388D02*
X14351015Y-16519293D01*
X14351015Y-16519293D02*
X14351015Y-16471674D01*
X14351015Y-16471674D02*
X14360539Y-16433579D01*
X14360539Y-16433579D02*
X14370063Y-16414531D01*
X14370063Y-16414531D02*
X14379586Y-16405008D01*
X14379586Y-16405008D02*
X14398634Y-16395484D01*
X14551015Y-16576436D02*
X14560539Y-16585960D01*
X14560539Y-16585960D02*
X14551015Y-16595484D01*
X14551015Y-16595484D02*
X14541491Y-16585960D01*
X14541491Y-16585960D02*
X14551015Y-16576436D01*
X14551015Y-16576436D02*
X14551015Y-16595484D01*
X14684348Y-16395484D02*
X14703396Y-16395484D01*
X14703396Y-16395484D02*
X14722444Y-16405008D01*
X14722444Y-16405008D02*
X14731967Y-16414531D01*
X14731967Y-16414531D02*
X14741491Y-16433579D01*
X14741491Y-16433579D02*
X14751015Y-16471674D01*
X14751015Y-16471674D02*
X14751015Y-16519293D01*
X14751015Y-16519293D02*
X14741491Y-16557388D01*
X14741491Y-16557388D02*
X14731967Y-16576436D01*
X14731967Y-16576436D02*
X14722444Y-16585960D01*
X14722444Y-16585960D02*
X14703396Y-16595484D01*
X14703396Y-16595484D02*
X14684348Y-16595484D01*
X14684348Y-16595484D02*
X14665301Y-16585960D01*
X14665301Y-16585960D02*
X14655777Y-16576436D01*
X14655777Y-16576436D02*
X14646253Y-16557388D01*
X14646253Y-16557388D02*
X14636729Y-16519293D01*
X14636729Y-16519293D02*
X14636729Y-16471674D01*
X14636729Y-16471674D02*
X14646253Y-16433579D01*
X14646253Y-16433579D02*
X14655777Y-16414531D01*
X14655777Y-16414531D02*
X14665301Y-16405008D01*
X14665301Y-16405008D02*
X14684348Y-16395484D01*
X14817682Y-16395484D02*
X14941491Y-16395484D01*
X14941491Y-16395484D02*
X14874825Y-16471674D01*
X14874825Y-16471674D02*
X14903396Y-16471674D01*
X14903396Y-16471674D02*
X14922444Y-16481198D01*
X14922444Y-16481198D02*
X14931967Y-16490722D01*
X14931967Y-16490722D02*
X14941491Y-16509769D01*
X14941491Y-16509769D02*
X14941491Y-16557388D01*
X14941491Y-16557388D02*
X14931967Y-16576436D01*
X14931967Y-16576436D02*
X14922444Y-16585960D01*
X14922444Y-16585960D02*
X14903396Y-16595484D01*
X14903396Y-16595484D02*
X14846253Y-16595484D01*
X14846253Y-16595484D02*
X14827206Y-16585960D01*
X14827206Y-16585960D02*
X14817682Y-16576436D01*
X15131967Y-16595484D02*
X15017682Y-16595484D01*
X15074825Y-16595484D02*
X15074825Y-16395484D01*
X15074825Y-16395484D02*
X15055777Y-16424055D01*
X15055777Y-16424055D02*
X15036729Y-16443103D01*
X15036729Y-16443103D02*
X15017682Y-16452627D01*
X15312920Y-16395484D02*
X15217682Y-16395484D01*
X15217682Y-16395484D02*
X15208158Y-16490722D01*
X15208158Y-16490722D02*
X15217682Y-16481198D01*
X15217682Y-16481198D02*
X15236729Y-16471674D01*
X15236729Y-16471674D02*
X15284348Y-16471674D01*
X15284348Y-16471674D02*
X15303396Y-16481198D01*
X15303396Y-16481198D02*
X15312920Y-16490722D01*
X15312920Y-16490722D02*
X15322444Y-16509769D01*
X15322444Y-16509769D02*
X15322444Y-16557388D01*
X15322444Y-16557388D02*
X15312920Y-16576436D01*
X15312920Y-16576436D02*
X15303396Y-16585960D01*
X15303396Y-16585960D02*
X15284348Y-16595484D01*
X15284348Y-16595484D02*
X15236729Y-16595484D01*
X15236729Y-16595484D02*
X15217682Y-16585960D01*
X15217682Y-16585960D02*
X15208158Y-16576436D01*
X15398634Y-16395484D02*
X15398634Y-16433579D01*
X15474825Y-16395484D02*
X15474825Y-16433579D01*
X15770063Y-16671674D02*
X15760539Y-16662150D01*
X15760539Y-16662150D02*
X15741491Y-16633579D01*
X15741491Y-16633579D02*
X15731968Y-16614531D01*
X15731968Y-16614531D02*
X15722444Y-16585960D01*
X15722444Y-16585960D02*
X15712920Y-16538341D01*
X15712920Y-16538341D02*
X15712920Y-16500246D01*
X15712920Y-16500246D02*
X15722444Y-16452627D01*
X15722444Y-16452627D02*
X15731968Y-16424055D01*
X15731968Y-16424055D02*
X15741491Y-16405008D01*
X15741491Y-16405008D02*
X15760539Y-16376436D01*
X15760539Y-16376436D02*
X15770063Y-16366912D01*
X15874825Y-16481198D02*
X15855777Y-16471674D01*
X15855777Y-16471674D02*
X15846253Y-16462150D01*
X15846253Y-16462150D02*
X15836729Y-16443103D01*
X15836729Y-16443103D02*
X15836729Y-16433579D01*
X15836729Y-16433579D02*
X15846253Y-16414531D01*
X15846253Y-16414531D02*
X15855777Y-16405008D01*
X15855777Y-16405008D02*
X15874825Y-16395484D01*
X15874825Y-16395484D02*
X15912920Y-16395484D01*
X15912920Y-16395484D02*
X15931968Y-16405008D01*
X15931968Y-16405008D02*
X15941491Y-16414531D01*
X15941491Y-16414531D02*
X15951015Y-16433579D01*
X15951015Y-16433579D02*
X15951015Y-16443103D01*
X15951015Y-16443103D02*
X15941491Y-16462150D01*
X15941491Y-16462150D02*
X15931968Y-16471674D01*
X15931968Y-16471674D02*
X15912920Y-16481198D01*
X15912920Y-16481198D02*
X15874825Y-16481198D01*
X15874825Y-16481198D02*
X15855777Y-16490722D01*
X15855777Y-16490722D02*
X15846253Y-16500246D01*
X15846253Y-16500246D02*
X15836729Y-16519293D01*
X15836729Y-16519293D02*
X15836729Y-16557388D01*
X15836729Y-16557388D02*
X15846253Y-16576436D01*
X15846253Y-16576436D02*
X15855777Y-16585960D01*
X15855777Y-16585960D02*
X15874825Y-16595484D01*
X15874825Y-16595484D02*
X15912920Y-16595484D01*
X15912920Y-16595484D02*
X15931968Y-16585960D01*
X15931968Y-16585960D02*
X15941491Y-16576436D01*
X15941491Y-16576436D02*
X15951015Y-16557388D01*
X15951015Y-16557388D02*
X15951015Y-16519293D01*
X15951015Y-16519293D02*
X15941491Y-16500246D01*
X15941491Y-16500246D02*
X15931968Y-16490722D01*
X15931968Y-16490722D02*
X15912920Y-16481198D01*
X16189110Y-16595484D02*
X16189110Y-16395484D01*
X16274825Y-16595484D02*
X16274825Y-16490722D01*
X16274825Y-16490722D02*
X16265301Y-16471674D01*
X16265301Y-16471674D02*
X16246253Y-16462150D01*
X16246253Y-16462150D02*
X16217682Y-16462150D01*
X16217682Y-16462150D02*
X16198634Y-16471674D01*
X16198634Y-16471674D02*
X16189110Y-16481198D01*
X16398634Y-16595484D02*
X16379587Y-16585960D01*
X16379587Y-16585960D02*
X16370063Y-16576436D01*
X16370063Y-16576436D02*
X16360539Y-16557388D01*
X16360539Y-16557388D02*
X16360539Y-16500246D01*
X16360539Y-16500246D02*
X16370063Y-16481198D01*
X16370063Y-16481198D02*
X16379587Y-16471674D01*
X16379587Y-16471674D02*
X16398634Y-16462150D01*
X16398634Y-16462150D02*
X16427206Y-16462150D01*
X16427206Y-16462150D02*
X16446253Y-16471674D01*
X16446253Y-16471674D02*
X16455777Y-16481198D01*
X16455777Y-16481198D02*
X16465301Y-16500246D01*
X16465301Y-16500246D02*
X16465301Y-16557388D01*
X16465301Y-16557388D02*
X16455777Y-16576436D01*
X16455777Y-16576436D02*
X16446253Y-16585960D01*
X16446253Y-16585960D02*
X16427206Y-16595484D01*
X16427206Y-16595484D02*
X16398634Y-16595484D01*
X16579587Y-16595484D02*
X16560539Y-16585960D01*
X16560539Y-16585960D02*
X16551015Y-16566912D01*
X16551015Y-16566912D02*
X16551015Y-16395484D01*
X16731968Y-16585960D02*
X16712920Y-16595484D01*
X16712920Y-16595484D02*
X16674825Y-16595484D01*
X16674825Y-16595484D02*
X16655777Y-16585960D01*
X16655777Y-16585960D02*
X16646253Y-16566912D01*
X16646253Y-16566912D02*
X16646253Y-16490722D01*
X16646253Y-16490722D02*
X16655777Y-16471674D01*
X16655777Y-16471674D02*
X16674825Y-16462150D01*
X16674825Y-16462150D02*
X16712920Y-16462150D01*
X16712920Y-16462150D02*
X16731968Y-16471674D01*
X16731968Y-16471674D02*
X16741491Y-16490722D01*
X16741491Y-16490722D02*
X16741491Y-16509769D01*
X16741491Y-16509769D02*
X16646253Y-16528817D01*
X16817682Y-16585960D02*
X16836730Y-16595484D01*
X16836730Y-16595484D02*
X16874825Y-16595484D01*
X16874825Y-16595484D02*
X16893873Y-16585960D01*
X16893873Y-16585960D02*
X16903396Y-16566912D01*
X16903396Y-16566912D02*
X16903396Y-16557388D01*
X16903396Y-16557388D02*
X16893873Y-16538341D01*
X16893873Y-16538341D02*
X16874825Y-16528817D01*
X16874825Y-16528817D02*
X16846253Y-16528817D01*
X16846253Y-16528817D02*
X16827206Y-16519293D01*
X16827206Y-16519293D02*
X16817682Y-16500246D01*
X16817682Y-16500246D02*
X16817682Y-16490722D01*
X16817682Y-16490722D02*
X16827206Y-16471674D01*
X16827206Y-16471674D02*
X16846253Y-16462150D01*
X16846253Y-16462150D02*
X16874825Y-16462150D01*
X16874825Y-16462150D02*
X16893873Y-16471674D01*
X16970063Y-16671674D02*
X16979587Y-16662150D01*
X16979587Y-16662150D02*
X16998634Y-16633579D01*
X16998634Y-16633579D02*
X17008158Y-16614531D01*
X17008158Y-16614531D02*
X17017682Y-16585960D01*
X17017682Y-16585960D02*
X17027206Y-16538341D01*
X17027206Y-16538341D02*
X17027206Y-16500246D01*
X17027206Y-16500246D02*
X17017682Y-16452627D01*
X17017682Y-16452627D02*
X17008158Y-16424055D01*
X17008158Y-16424055D02*
X16998634Y-16405008D01*
X16998634Y-16405008D02*
X16979587Y-16376436D01*
X16979587Y-16376436D02*
X16970063Y-16366912D01*
D12*
X12150000Y-16723000D02*
X12150000Y-16813000D01*
X12105000Y-16768000D02*
X12195000Y-16768000D01*
D11*
X12493872Y-16659484D02*
X12512920Y-16659484D01*
X12512920Y-16659484D02*
X12531967Y-16669008D01*
X12531967Y-16669008D02*
X12541491Y-16678531D01*
X12541491Y-16678531D02*
X12551015Y-16697579D01*
X12551015Y-16697579D02*
X12560539Y-16735674D01*
X12560539Y-16735674D02*
X12560539Y-16783293D01*
X12560539Y-16783293D02*
X12551015Y-16821389D01*
X12551015Y-16821389D02*
X12541491Y-16840436D01*
X12541491Y-16840436D02*
X12531967Y-16849960D01*
X12531967Y-16849960D02*
X12512920Y-16859484D01*
X12512920Y-16859484D02*
X12493872Y-16859484D01*
X12493872Y-16859484D02*
X12474824Y-16849960D01*
X12474824Y-16849960D02*
X12465301Y-16840436D01*
X12465301Y-16840436D02*
X12455777Y-16821389D01*
X12455777Y-16821389D02*
X12446253Y-16783293D01*
X12446253Y-16783293D02*
X12446253Y-16735674D01*
X12446253Y-16735674D02*
X12455777Y-16697579D01*
X12455777Y-16697579D02*
X12465301Y-16678531D01*
X12465301Y-16678531D02*
X12474824Y-16669008D01*
X12474824Y-16669008D02*
X12493872Y-16659484D01*
X12646253Y-16840436D02*
X12655777Y-16849960D01*
X12655777Y-16849960D02*
X12646253Y-16859484D01*
X12646253Y-16859484D02*
X12636729Y-16849960D01*
X12636729Y-16849960D02*
X12646253Y-16840436D01*
X12646253Y-16840436D02*
X12646253Y-16859484D01*
X12751015Y-16859484D02*
X12789110Y-16859484D01*
X12789110Y-16859484D02*
X12808158Y-16849960D01*
X12808158Y-16849960D02*
X12817682Y-16840436D01*
X12817682Y-16840436D02*
X12836729Y-16811865D01*
X12836729Y-16811865D02*
X12846253Y-16773769D01*
X12846253Y-16773769D02*
X12846253Y-16697579D01*
X12846253Y-16697579D02*
X12836729Y-16678531D01*
X12836729Y-16678531D02*
X12827205Y-16669008D01*
X12827205Y-16669008D02*
X12808158Y-16659484D01*
X12808158Y-16659484D02*
X12770062Y-16659484D01*
X12770062Y-16659484D02*
X12751015Y-16669008D01*
X12751015Y-16669008D02*
X12741491Y-16678531D01*
X12741491Y-16678531D02*
X12731967Y-16697579D01*
X12731967Y-16697579D02*
X12731967Y-16745198D01*
X12731967Y-16745198D02*
X12741491Y-16764246D01*
X12741491Y-16764246D02*
X12751015Y-16773769D01*
X12751015Y-16773769D02*
X12770062Y-16783293D01*
X12770062Y-16783293D02*
X12808158Y-16783293D01*
X12808158Y-16783293D02*
X12827205Y-16773769D01*
X12827205Y-16773769D02*
X12836729Y-16764246D01*
X12836729Y-16764246D02*
X12846253Y-16745198D01*
X12970062Y-16659484D02*
X12989110Y-16659484D01*
X12989110Y-16659484D02*
X13008158Y-16669008D01*
X13008158Y-16669008D02*
X13017682Y-16678531D01*
X13017682Y-16678531D02*
X13027205Y-16697579D01*
X13027205Y-16697579D02*
X13036729Y-16735674D01*
X13036729Y-16735674D02*
X13036729Y-16783293D01*
X13036729Y-16783293D02*
X13027205Y-16821389D01*
X13027205Y-16821389D02*
X13017682Y-16840436D01*
X13017682Y-16840436D02*
X13008158Y-16849960D01*
X13008158Y-16849960D02*
X12989110Y-16859484D01*
X12989110Y-16859484D02*
X12970062Y-16859484D01*
X12970062Y-16859484D02*
X12951015Y-16849960D01*
X12951015Y-16849960D02*
X12941491Y-16840436D01*
X12941491Y-16840436D02*
X12931967Y-16821389D01*
X12931967Y-16821389D02*
X12922443Y-16783293D01*
X12922443Y-16783293D02*
X12922443Y-16735674D01*
X12922443Y-16735674D02*
X12931967Y-16697579D01*
X12931967Y-16697579D02*
X12941491Y-16678531D01*
X12941491Y-16678531D02*
X12951015Y-16669008D01*
X12951015Y-16669008D02*
X12970062Y-16659484D01*
X13160539Y-16659484D02*
X13179586Y-16659484D01*
X13179586Y-16659484D02*
X13198634Y-16669008D01*
X13198634Y-16669008D02*
X13208158Y-16678531D01*
X13208158Y-16678531D02*
X13217682Y-16697579D01*
X13217682Y-16697579D02*
X13227205Y-16735674D01*
X13227205Y-16735674D02*
X13227205Y-16783293D01*
X13227205Y-16783293D02*
X13217682Y-16821389D01*
X13217682Y-16821389D02*
X13208158Y-16840436D01*
X13208158Y-16840436D02*
X13198634Y-16849960D01*
X13198634Y-16849960D02*
X13179586Y-16859484D01*
X13179586Y-16859484D02*
X13160539Y-16859484D01*
X13160539Y-16859484D02*
X13141491Y-16849960D01*
X13141491Y-16849960D02*
X13131967Y-16840436D01*
X13131967Y-16840436D02*
X13122443Y-16821389D01*
X13122443Y-16821389D02*
X13112920Y-16783293D01*
X13112920Y-16783293D02*
X13112920Y-16735674D01*
X13112920Y-16735674D02*
X13122443Y-16697579D01*
X13122443Y-16697579D02*
X13131967Y-16678531D01*
X13131967Y-16678531D02*
X13141491Y-16669008D01*
X13141491Y-16669008D02*
X13160539Y-16659484D01*
X13312920Y-16859484D02*
X13312920Y-16726150D01*
X13312920Y-16745198D02*
X13322443Y-16735674D01*
X13322443Y-16735674D02*
X13341491Y-16726150D01*
X13341491Y-16726150D02*
X13370063Y-16726150D01*
X13370063Y-16726150D02*
X13389110Y-16735674D01*
X13389110Y-16735674D02*
X13398634Y-16754722D01*
X13398634Y-16754722D02*
X13398634Y-16859484D01*
X13398634Y-16754722D02*
X13408158Y-16735674D01*
X13408158Y-16735674D02*
X13427205Y-16726150D01*
X13427205Y-16726150D02*
X13455777Y-16726150D01*
X13455777Y-16726150D02*
X13474824Y-16735674D01*
X13474824Y-16735674D02*
X13484348Y-16754722D01*
X13484348Y-16754722D02*
X13484348Y-16859484D01*
X13579586Y-16859484D02*
X13579586Y-16726150D01*
X13579586Y-16745198D02*
X13589110Y-16735674D01*
X13589110Y-16735674D02*
X13608158Y-16726150D01*
X13608158Y-16726150D02*
X13636729Y-16726150D01*
X13636729Y-16726150D02*
X13655777Y-16735674D01*
X13655777Y-16735674D02*
X13665301Y-16754722D01*
X13665301Y-16754722D02*
X13665301Y-16859484D01*
X13665301Y-16754722D02*
X13674824Y-16735674D01*
X13674824Y-16735674D02*
X13693872Y-16726150D01*
X13693872Y-16726150D02*
X13722443Y-16726150D01*
X13722443Y-16726150D02*
X13741491Y-16735674D01*
X13741491Y-16735674D02*
X13751015Y-16754722D01*
X13751015Y-16754722D02*
X13751015Y-16859484D01*
X14141491Y-16649960D02*
X13970063Y-16907103D01*
X14398634Y-16659484D02*
X14417682Y-16659484D01*
X14417682Y-16659484D02*
X14436729Y-16669008D01*
X14436729Y-16669008D02*
X14446253Y-16678531D01*
X14446253Y-16678531D02*
X14455777Y-16697579D01*
X14455777Y-16697579D02*
X14465301Y-16735674D01*
X14465301Y-16735674D02*
X14465301Y-16783293D01*
X14465301Y-16783293D02*
X14455777Y-16821389D01*
X14455777Y-16821389D02*
X14446253Y-16840436D01*
X14446253Y-16840436D02*
X14436729Y-16849960D01*
X14436729Y-16849960D02*
X14417682Y-16859484D01*
X14417682Y-16859484D02*
X14398634Y-16859484D01*
X14398634Y-16859484D02*
X14379586Y-16849960D01*
X14379586Y-16849960D02*
X14370063Y-16840436D01*
X14370063Y-16840436D02*
X14360539Y-16821389D01*
X14360539Y-16821389D02*
X14351015Y-16783293D01*
X14351015Y-16783293D02*
X14351015Y-16735674D01*
X14351015Y-16735674D02*
X14360539Y-16697579D01*
X14360539Y-16697579D02*
X14370063Y-16678531D01*
X14370063Y-16678531D02*
X14379586Y-16669008D01*
X14379586Y-16669008D02*
X14398634Y-16659484D01*
X14551015Y-16840436D02*
X14560539Y-16849960D01*
X14560539Y-16849960D02*
X14551015Y-16859484D01*
X14551015Y-16859484D02*
X14541491Y-16849960D01*
X14541491Y-16849960D02*
X14551015Y-16840436D01*
X14551015Y-16840436D02*
X14551015Y-16859484D01*
X14684348Y-16659484D02*
X14703396Y-16659484D01*
X14703396Y-16659484D02*
X14722444Y-16669008D01*
X14722444Y-16669008D02*
X14731967Y-16678531D01*
X14731967Y-16678531D02*
X14741491Y-16697579D01*
X14741491Y-16697579D02*
X14751015Y-16735674D01*
X14751015Y-16735674D02*
X14751015Y-16783293D01*
X14751015Y-16783293D02*
X14741491Y-16821389D01*
X14741491Y-16821389D02*
X14731967Y-16840436D01*
X14731967Y-16840436D02*
X14722444Y-16849960D01*
X14722444Y-16849960D02*
X14703396Y-16859484D01*
X14703396Y-16859484D02*
X14684348Y-16859484D01*
X14684348Y-16859484D02*
X14665301Y-16849960D01*
X14665301Y-16849960D02*
X14655777Y-16840436D01*
X14655777Y-16840436D02*
X14646253Y-16821389D01*
X14646253Y-16821389D02*
X14636729Y-16783293D01*
X14636729Y-16783293D02*
X14636729Y-16735674D01*
X14636729Y-16735674D02*
X14646253Y-16697579D01*
X14646253Y-16697579D02*
X14655777Y-16678531D01*
X14655777Y-16678531D02*
X14665301Y-16669008D01*
X14665301Y-16669008D02*
X14684348Y-16659484D01*
X14817682Y-16659484D02*
X14941491Y-16659484D01*
X14941491Y-16659484D02*
X14874825Y-16735674D01*
X14874825Y-16735674D02*
X14903396Y-16735674D01*
X14903396Y-16735674D02*
X14922444Y-16745198D01*
X14922444Y-16745198D02*
X14931967Y-16754722D01*
X14931967Y-16754722D02*
X14941491Y-16773769D01*
X14941491Y-16773769D02*
X14941491Y-16821389D01*
X14941491Y-16821389D02*
X14931967Y-16840436D01*
X14931967Y-16840436D02*
X14922444Y-16849960D01*
X14922444Y-16849960D02*
X14903396Y-16859484D01*
X14903396Y-16859484D02*
X14846253Y-16859484D01*
X14846253Y-16859484D02*
X14827206Y-16849960D01*
X14827206Y-16849960D02*
X14817682Y-16840436D01*
X15122444Y-16659484D02*
X15027206Y-16659484D01*
X15027206Y-16659484D02*
X15017682Y-16754722D01*
X15017682Y-16754722D02*
X15027206Y-16745198D01*
X15027206Y-16745198D02*
X15046253Y-16735674D01*
X15046253Y-16735674D02*
X15093872Y-16735674D01*
X15093872Y-16735674D02*
X15112920Y-16745198D01*
X15112920Y-16745198D02*
X15122444Y-16754722D01*
X15122444Y-16754722D02*
X15131967Y-16773769D01*
X15131967Y-16773769D02*
X15131967Y-16821389D01*
X15131967Y-16821389D02*
X15122444Y-16840436D01*
X15122444Y-16840436D02*
X15112920Y-16849960D01*
X15112920Y-16849960D02*
X15093872Y-16859484D01*
X15093872Y-16859484D02*
X15046253Y-16859484D01*
X15046253Y-16859484D02*
X15027206Y-16849960D01*
X15027206Y-16849960D02*
X15017682Y-16840436D01*
X15303396Y-16726150D02*
X15303396Y-16859484D01*
X15255777Y-16649960D02*
X15208158Y-16792817D01*
X15208158Y-16792817D02*
X15331967Y-16792817D01*
X15398634Y-16659484D02*
X15398634Y-16697579D01*
X15474825Y-16659484D02*
X15474825Y-16697579D01*
X15770063Y-16935674D02*
X15760539Y-16926150D01*
X15760539Y-16926150D02*
X15741491Y-16897579D01*
X15741491Y-16897579D02*
X15731968Y-16878531D01*
X15731968Y-16878531D02*
X15722444Y-16849960D01*
X15722444Y-16849960D02*
X15712920Y-16802341D01*
X15712920Y-16802341D02*
X15712920Y-16764246D01*
X15712920Y-16764246D02*
X15722444Y-16716627D01*
X15722444Y-16716627D02*
X15731968Y-16688055D01*
X15731968Y-16688055D02*
X15741491Y-16669008D01*
X15741491Y-16669008D02*
X15760539Y-16640436D01*
X15760539Y-16640436D02*
X15770063Y-16630912D01*
X15836729Y-16678531D02*
X15846253Y-16669008D01*
X15846253Y-16669008D02*
X15865301Y-16659484D01*
X15865301Y-16659484D02*
X15912920Y-16659484D01*
X15912920Y-16659484D02*
X15931968Y-16669008D01*
X15931968Y-16669008D02*
X15941491Y-16678531D01*
X15941491Y-16678531D02*
X15951015Y-16697579D01*
X15951015Y-16697579D02*
X15951015Y-16716627D01*
X15951015Y-16716627D02*
X15941491Y-16745198D01*
X15941491Y-16745198D02*
X15827206Y-16859484D01*
X15827206Y-16859484D02*
X15951015Y-16859484D01*
X16189110Y-16859484D02*
X16189110Y-16659484D01*
X16274825Y-16859484D02*
X16274825Y-16754722D01*
X16274825Y-16754722D02*
X16265301Y-16735674D01*
X16265301Y-16735674D02*
X16246253Y-16726150D01*
X16246253Y-16726150D02*
X16217682Y-16726150D01*
X16217682Y-16726150D02*
X16198634Y-16735674D01*
X16198634Y-16735674D02*
X16189110Y-16745198D01*
X16398634Y-16859484D02*
X16379587Y-16849960D01*
X16379587Y-16849960D02*
X16370063Y-16840436D01*
X16370063Y-16840436D02*
X16360539Y-16821389D01*
X16360539Y-16821389D02*
X16360539Y-16764246D01*
X16360539Y-16764246D02*
X16370063Y-16745198D01*
X16370063Y-16745198D02*
X16379587Y-16735674D01*
X16379587Y-16735674D02*
X16398634Y-16726150D01*
X16398634Y-16726150D02*
X16427206Y-16726150D01*
X16427206Y-16726150D02*
X16446253Y-16735674D01*
X16446253Y-16735674D02*
X16455777Y-16745198D01*
X16455777Y-16745198D02*
X16465301Y-16764246D01*
X16465301Y-16764246D02*
X16465301Y-16821389D01*
X16465301Y-16821389D02*
X16455777Y-16840436D01*
X16455777Y-16840436D02*
X16446253Y-16849960D01*
X16446253Y-16849960D02*
X16427206Y-16859484D01*
X16427206Y-16859484D02*
X16398634Y-16859484D01*
X16579587Y-16859484D02*
X16560539Y-16849960D01*
X16560539Y-16849960D02*
X16551015Y-16830912D01*
X16551015Y-16830912D02*
X16551015Y-16659484D01*
X16731968Y-16849960D02*
X16712920Y-16859484D01*
X16712920Y-16859484D02*
X16674825Y-16859484D01*
X16674825Y-16859484D02*
X16655777Y-16849960D01*
X16655777Y-16849960D02*
X16646253Y-16830912D01*
X16646253Y-16830912D02*
X16646253Y-16754722D01*
X16646253Y-16754722D02*
X16655777Y-16735674D01*
X16655777Y-16735674D02*
X16674825Y-16726150D01*
X16674825Y-16726150D02*
X16712920Y-16726150D01*
X16712920Y-16726150D02*
X16731968Y-16735674D01*
X16731968Y-16735674D02*
X16741491Y-16754722D01*
X16741491Y-16754722D02*
X16741491Y-16773769D01*
X16741491Y-16773769D02*
X16646253Y-16792817D01*
X16817682Y-16849960D02*
X16836730Y-16859484D01*
X16836730Y-16859484D02*
X16874825Y-16859484D01*
X16874825Y-16859484D02*
X16893873Y-16849960D01*
X16893873Y-16849960D02*
X16903396Y-16830912D01*
X16903396Y-16830912D02*
X16903396Y-16821389D01*
X16903396Y-16821389D02*
X16893873Y-16802341D01*
X16893873Y-16802341D02*
X16874825Y-16792817D01*
X16874825Y-16792817D02*
X16846253Y-16792817D01*
X16846253Y-16792817D02*
X16827206Y-16783293D01*
X16827206Y-16783293D02*
X16817682Y-16764246D01*
X16817682Y-16764246D02*
X16817682Y-16754722D01*
X16817682Y-16754722D02*
X16827206Y-16735674D01*
X16827206Y-16735674D02*
X16846253Y-16726150D01*
X16846253Y-16726150D02*
X16874825Y-16726150D01*
X16874825Y-16726150D02*
X16893873Y-16735674D01*
X16970063Y-16935674D02*
X16979587Y-16926150D01*
X16979587Y-16926150D02*
X16998634Y-16897579D01*
X16998634Y-16897579D02*
X17008158Y-16878531D01*
X17008158Y-16878531D02*
X17017682Y-16849960D01*
X17017682Y-16849960D02*
X17027206Y-16802341D01*
X17027206Y-16802341D02*
X17027206Y-16764246D01*
X17027206Y-16764246D02*
X17017682Y-16716627D01*
X17017682Y-16716627D02*
X17008158Y-16688055D01*
X17008158Y-16688055D02*
X16998634Y-16669008D01*
X16998634Y-16669008D02*
X16979587Y-16640436D01*
X16979587Y-16640436D02*
X16970063Y-16630912D01*
D12*
X12181088Y-17065588D02*
X12181088Y-16998412D01*
X12113912Y-16998412D01*
X12113912Y-17065588D01*
X12181088Y-17065588D01*
D11*
X12493872Y-16923484D02*
X12512920Y-16923484D01*
X12512920Y-16923484D02*
X12531967Y-16933008D01*
X12531967Y-16933008D02*
X12541491Y-16942531D01*
X12541491Y-16942531D02*
X12551015Y-16961579D01*
X12551015Y-16961579D02*
X12560539Y-16999674D01*
X12560539Y-16999674D02*
X12560539Y-17047293D01*
X12560539Y-17047293D02*
X12551015Y-17085389D01*
X12551015Y-17085389D02*
X12541491Y-17104436D01*
X12541491Y-17104436D02*
X12531967Y-17113960D01*
X12531967Y-17113960D02*
X12512920Y-17123484D01*
X12512920Y-17123484D02*
X12493872Y-17123484D01*
X12493872Y-17123484D02*
X12474824Y-17113960D01*
X12474824Y-17113960D02*
X12465301Y-17104436D01*
X12465301Y-17104436D02*
X12455777Y-17085389D01*
X12455777Y-17085389D02*
X12446253Y-17047293D01*
X12446253Y-17047293D02*
X12446253Y-16999674D01*
X12446253Y-16999674D02*
X12455777Y-16961579D01*
X12455777Y-16961579D02*
X12465301Y-16942531D01*
X12465301Y-16942531D02*
X12474824Y-16933008D01*
X12474824Y-16933008D02*
X12493872Y-16923484D01*
X12646253Y-17104436D02*
X12655777Y-17113960D01*
X12655777Y-17113960D02*
X12646253Y-17123484D01*
X12646253Y-17123484D02*
X12636729Y-17113960D01*
X12636729Y-17113960D02*
X12646253Y-17104436D01*
X12646253Y-17104436D02*
X12646253Y-17123484D01*
X12751015Y-17123484D02*
X12789110Y-17123484D01*
X12789110Y-17123484D02*
X12808158Y-17113960D01*
X12808158Y-17113960D02*
X12817682Y-17104436D01*
X12817682Y-17104436D02*
X12836729Y-17075865D01*
X12836729Y-17075865D02*
X12846253Y-17037770D01*
X12846253Y-17037770D02*
X12846253Y-16961579D01*
X12846253Y-16961579D02*
X12836729Y-16942531D01*
X12836729Y-16942531D02*
X12827205Y-16933008D01*
X12827205Y-16933008D02*
X12808158Y-16923484D01*
X12808158Y-16923484D02*
X12770062Y-16923484D01*
X12770062Y-16923484D02*
X12751015Y-16933008D01*
X12751015Y-16933008D02*
X12741491Y-16942531D01*
X12741491Y-16942531D02*
X12731967Y-16961579D01*
X12731967Y-16961579D02*
X12731967Y-17009198D01*
X12731967Y-17009198D02*
X12741491Y-17028246D01*
X12741491Y-17028246D02*
X12751015Y-17037770D01*
X12751015Y-17037770D02*
X12770062Y-17047293D01*
X12770062Y-17047293D02*
X12808158Y-17047293D01*
X12808158Y-17047293D02*
X12827205Y-17037770D01*
X12827205Y-17037770D02*
X12836729Y-17028246D01*
X12836729Y-17028246D02*
X12846253Y-17009198D01*
X13027205Y-16923484D02*
X12931967Y-16923484D01*
X12931967Y-16923484D02*
X12922443Y-17018722D01*
X12922443Y-17018722D02*
X12931967Y-17009198D01*
X12931967Y-17009198D02*
X12951015Y-16999674D01*
X12951015Y-16999674D02*
X12998634Y-16999674D01*
X12998634Y-16999674D02*
X13017682Y-17009198D01*
X13017682Y-17009198D02*
X13027205Y-17018722D01*
X13027205Y-17018722D02*
X13036729Y-17037770D01*
X13036729Y-17037770D02*
X13036729Y-17085389D01*
X13036729Y-17085389D02*
X13027205Y-17104436D01*
X13027205Y-17104436D02*
X13017682Y-17113960D01*
X13017682Y-17113960D02*
X12998634Y-17123484D01*
X12998634Y-17123484D02*
X12951015Y-17123484D01*
X12951015Y-17123484D02*
X12931967Y-17113960D01*
X12931967Y-17113960D02*
X12922443Y-17104436D01*
X13160539Y-16923484D02*
X13179586Y-16923484D01*
X13179586Y-16923484D02*
X13198634Y-16933008D01*
X13198634Y-16933008D02*
X13208158Y-16942531D01*
X13208158Y-16942531D02*
X13217682Y-16961579D01*
X13217682Y-16961579D02*
X13227205Y-16999674D01*
X13227205Y-16999674D02*
X13227205Y-17047293D01*
X13227205Y-17047293D02*
X13217682Y-17085389D01*
X13217682Y-17085389D02*
X13208158Y-17104436D01*
X13208158Y-17104436D02*
X13198634Y-17113960D01*
X13198634Y-17113960D02*
X13179586Y-17123484D01*
X13179586Y-17123484D02*
X13160539Y-17123484D01*
X13160539Y-17123484D02*
X13141491Y-17113960D01*
X13141491Y-17113960D02*
X13131967Y-17104436D01*
X13131967Y-17104436D02*
X13122443Y-17085389D01*
X13122443Y-17085389D02*
X13112920Y-17047293D01*
X13112920Y-17047293D02*
X13112920Y-16999674D01*
X13112920Y-16999674D02*
X13122443Y-16961579D01*
X13122443Y-16961579D02*
X13131967Y-16942531D01*
X13131967Y-16942531D02*
X13141491Y-16933008D01*
X13141491Y-16933008D02*
X13160539Y-16923484D01*
X13312920Y-17123484D02*
X13312920Y-16990150D01*
X13312920Y-17009198D02*
X13322443Y-16999674D01*
X13322443Y-16999674D02*
X13341491Y-16990150D01*
X13341491Y-16990150D02*
X13370063Y-16990150D01*
X13370063Y-16990150D02*
X13389110Y-16999674D01*
X13389110Y-16999674D02*
X13398634Y-17018722D01*
X13398634Y-17018722D02*
X13398634Y-17123484D01*
X13398634Y-17018722D02*
X13408158Y-16999674D01*
X13408158Y-16999674D02*
X13427205Y-16990150D01*
X13427205Y-16990150D02*
X13455777Y-16990150D01*
X13455777Y-16990150D02*
X13474824Y-16999674D01*
X13474824Y-16999674D02*
X13484348Y-17018722D01*
X13484348Y-17018722D02*
X13484348Y-17123484D01*
X13579586Y-17123484D02*
X13579586Y-16990150D01*
X13579586Y-17009198D02*
X13589110Y-16999674D01*
X13589110Y-16999674D02*
X13608158Y-16990150D01*
X13608158Y-16990150D02*
X13636729Y-16990150D01*
X13636729Y-16990150D02*
X13655777Y-16999674D01*
X13655777Y-16999674D02*
X13665301Y-17018722D01*
X13665301Y-17018722D02*
X13665301Y-17123484D01*
X13665301Y-17018722D02*
X13674824Y-16999674D01*
X13674824Y-16999674D02*
X13693872Y-16990150D01*
X13693872Y-16990150D02*
X13722443Y-16990150D01*
X13722443Y-16990150D02*
X13741491Y-16999674D01*
X13741491Y-16999674D02*
X13751015Y-17018722D01*
X13751015Y-17018722D02*
X13751015Y-17123484D01*
X14141491Y-16913960D02*
X13970063Y-17171103D01*
X14398634Y-16923484D02*
X14417682Y-16923484D01*
X14417682Y-16923484D02*
X14436729Y-16933008D01*
X14436729Y-16933008D02*
X14446253Y-16942531D01*
X14446253Y-16942531D02*
X14455777Y-16961579D01*
X14455777Y-16961579D02*
X14465301Y-16999674D01*
X14465301Y-16999674D02*
X14465301Y-17047293D01*
X14465301Y-17047293D02*
X14455777Y-17085389D01*
X14455777Y-17085389D02*
X14446253Y-17104436D01*
X14446253Y-17104436D02*
X14436729Y-17113960D01*
X14436729Y-17113960D02*
X14417682Y-17123484D01*
X14417682Y-17123484D02*
X14398634Y-17123484D01*
X14398634Y-17123484D02*
X14379586Y-17113960D01*
X14379586Y-17113960D02*
X14370063Y-17104436D01*
X14370063Y-17104436D02*
X14360539Y-17085389D01*
X14360539Y-17085389D02*
X14351015Y-17047293D01*
X14351015Y-17047293D02*
X14351015Y-16999674D01*
X14351015Y-16999674D02*
X14360539Y-16961579D01*
X14360539Y-16961579D02*
X14370063Y-16942531D01*
X14370063Y-16942531D02*
X14379586Y-16933008D01*
X14379586Y-16933008D02*
X14398634Y-16923484D01*
X14551015Y-17104436D02*
X14560539Y-17113960D01*
X14560539Y-17113960D02*
X14551015Y-17123484D01*
X14551015Y-17123484D02*
X14541491Y-17113960D01*
X14541491Y-17113960D02*
X14551015Y-17104436D01*
X14551015Y-17104436D02*
X14551015Y-17123484D01*
X14684348Y-16923484D02*
X14703396Y-16923484D01*
X14703396Y-16923484D02*
X14722444Y-16933008D01*
X14722444Y-16933008D02*
X14731967Y-16942531D01*
X14731967Y-16942531D02*
X14741491Y-16961579D01*
X14741491Y-16961579D02*
X14751015Y-16999674D01*
X14751015Y-16999674D02*
X14751015Y-17047293D01*
X14751015Y-17047293D02*
X14741491Y-17085389D01*
X14741491Y-17085389D02*
X14731967Y-17104436D01*
X14731967Y-17104436D02*
X14722444Y-17113960D01*
X14722444Y-17113960D02*
X14703396Y-17123484D01*
X14703396Y-17123484D02*
X14684348Y-17123484D01*
X14684348Y-17123484D02*
X14665301Y-17113960D01*
X14665301Y-17113960D02*
X14655777Y-17104436D01*
X14655777Y-17104436D02*
X14646253Y-17085389D01*
X14646253Y-17085389D02*
X14636729Y-17047293D01*
X14636729Y-17047293D02*
X14636729Y-16999674D01*
X14636729Y-16999674D02*
X14646253Y-16961579D01*
X14646253Y-16961579D02*
X14655777Y-16942531D01*
X14655777Y-16942531D02*
X14665301Y-16933008D01*
X14665301Y-16933008D02*
X14684348Y-16923484D01*
X14817682Y-16923484D02*
X14941491Y-16923484D01*
X14941491Y-16923484D02*
X14874825Y-16999674D01*
X14874825Y-16999674D02*
X14903396Y-16999674D01*
X14903396Y-16999674D02*
X14922444Y-17009198D01*
X14922444Y-17009198D02*
X14931967Y-17018722D01*
X14931967Y-17018722D02*
X14941491Y-17037770D01*
X14941491Y-17037770D02*
X14941491Y-17085389D01*
X14941491Y-17085389D02*
X14931967Y-17104436D01*
X14931967Y-17104436D02*
X14922444Y-17113960D01*
X14922444Y-17113960D02*
X14903396Y-17123484D01*
X14903396Y-17123484D02*
X14846253Y-17123484D01*
X14846253Y-17123484D02*
X14827206Y-17113960D01*
X14827206Y-17113960D02*
X14817682Y-17104436D01*
X15008158Y-16923484D02*
X15141491Y-16923484D01*
X15141491Y-16923484D02*
X15055777Y-17123484D01*
X15303396Y-16990150D02*
X15303396Y-17123484D01*
X15255777Y-16913960D02*
X15208158Y-17056817D01*
X15208158Y-17056817D02*
X15331967Y-17056817D01*
X15398634Y-16923484D02*
X15398634Y-16961579D01*
X15474825Y-16923484D02*
X15474825Y-16961579D01*
X15770063Y-17199674D02*
X15760539Y-17190150D01*
X15760539Y-17190150D02*
X15741491Y-17161579D01*
X15741491Y-17161579D02*
X15731968Y-17142531D01*
X15731968Y-17142531D02*
X15722444Y-17113960D01*
X15722444Y-17113960D02*
X15712920Y-17066341D01*
X15712920Y-17066341D02*
X15712920Y-17028246D01*
X15712920Y-17028246D02*
X15722444Y-16980627D01*
X15722444Y-16980627D02*
X15731968Y-16952055D01*
X15731968Y-16952055D02*
X15741491Y-16933008D01*
X15741491Y-16933008D02*
X15760539Y-16904436D01*
X15760539Y-16904436D02*
X15770063Y-16894912D01*
X15836729Y-16942531D02*
X15846253Y-16933008D01*
X15846253Y-16933008D02*
X15865301Y-16923484D01*
X15865301Y-16923484D02*
X15912920Y-16923484D01*
X15912920Y-16923484D02*
X15931968Y-16933008D01*
X15931968Y-16933008D02*
X15941491Y-16942531D01*
X15941491Y-16942531D02*
X15951015Y-16961579D01*
X15951015Y-16961579D02*
X15951015Y-16980627D01*
X15951015Y-16980627D02*
X15941491Y-17009198D01*
X15941491Y-17009198D02*
X15827206Y-17123484D01*
X15827206Y-17123484D02*
X15951015Y-17123484D01*
X16189110Y-17123484D02*
X16189110Y-16923484D01*
X16274825Y-17123484D02*
X16274825Y-17018722D01*
X16274825Y-17018722D02*
X16265301Y-16999674D01*
X16265301Y-16999674D02*
X16246253Y-16990150D01*
X16246253Y-16990150D02*
X16217682Y-16990150D01*
X16217682Y-16990150D02*
X16198634Y-16999674D01*
X16198634Y-16999674D02*
X16189110Y-17009198D01*
X16398634Y-17123484D02*
X16379587Y-17113960D01*
X16379587Y-17113960D02*
X16370063Y-17104436D01*
X16370063Y-17104436D02*
X16360539Y-17085389D01*
X16360539Y-17085389D02*
X16360539Y-17028246D01*
X16360539Y-17028246D02*
X16370063Y-17009198D01*
X16370063Y-17009198D02*
X16379587Y-16999674D01*
X16379587Y-16999674D02*
X16398634Y-16990150D01*
X16398634Y-16990150D02*
X16427206Y-16990150D01*
X16427206Y-16990150D02*
X16446253Y-16999674D01*
X16446253Y-16999674D02*
X16455777Y-17009198D01*
X16455777Y-17009198D02*
X16465301Y-17028246D01*
X16465301Y-17028246D02*
X16465301Y-17085389D01*
X16465301Y-17085389D02*
X16455777Y-17104436D01*
X16455777Y-17104436D02*
X16446253Y-17113960D01*
X16446253Y-17113960D02*
X16427206Y-17123484D01*
X16427206Y-17123484D02*
X16398634Y-17123484D01*
X16579587Y-17123484D02*
X16560539Y-17113960D01*
X16560539Y-17113960D02*
X16551015Y-17094912D01*
X16551015Y-17094912D02*
X16551015Y-16923484D01*
X16731968Y-17113960D02*
X16712920Y-17123484D01*
X16712920Y-17123484D02*
X16674825Y-17123484D01*
X16674825Y-17123484D02*
X16655777Y-17113960D01*
X16655777Y-17113960D02*
X16646253Y-17094912D01*
X16646253Y-17094912D02*
X16646253Y-17018722D01*
X16646253Y-17018722D02*
X16655777Y-16999674D01*
X16655777Y-16999674D02*
X16674825Y-16990150D01*
X16674825Y-16990150D02*
X16712920Y-16990150D01*
X16712920Y-16990150D02*
X16731968Y-16999674D01*
X16731968Y-16999674D02*
X16741491Y-17018722D01*
X16741491Y-17018722D02*
X16741491Y-17037770D01*
X16741491Y-17037770D02*
X16646253Y-17056817D01*
X16817682Y-17113960D02*
X16836730Y-17123484D01*
X16836730Y-17123484D02*
X16874825Y-17123484D01*
X16874825Y-17123484D02*
X16893873Y-17113960D01*
X16893873Y-17113960D02*
X16903396Y-17094912D01*
X16903396Y-17094912D02*
X16903396Y-17085389D01*
X16903396Y-17085389D02*
X16893873Y-17066341D01*
X16893873Y-17066341D02*
X16874825Y-17056817D01*
X16874825Y-17056817D02*
X16846253Y-17056817D01*
X16846253Y-17056817D02*
X16827206Y-17047293D01*
X16827206Y-17047293D02*
X16817682Y-17028246D01*
X16817682Y-17028246D02*
X16817682Y-17018722D01*
X16817682Y-17018722D02*
X16827206Y-16999674D01*
X16827206Y-16999674D02*
X16846253Y-16990150D01*
X16846253Y-16990150D02*
X16874825Y-16990150D01*
X16874825Y-16990150D02*
X16893873Y-16999674D01*
X16970063Y-17199674D02*
X16979587Y-17190150D01*
X16979587Y-17190150D02*
X16998634Y-17161579D01*
X16998634Y-17161579D02*
X17008158Y-17142531D01*
X17008158Y-17142531D02*
X17017682Y-17113960D01*
X17017682Y-17113960D02*
X17027206Y-17066341D01*
X17027206Y-17066341D02*
X17027206Y-17028246D01*
X17027206Y-17028246D02*
X17017682Y-16980627D01*
X17017682Y-16980627D02*
X17008158Y-16952055D01*
X17008158Y-16952055D02*
X16998634Y-16933008D01*
X16998634Y-16933008D02*
X16979587Y-16904436D01*
X16979587Y-16904436D02*
X16970063Y-16894912D01*
D12*
X12145000Y-17346000D02*
X12195000Y-17296000D01*
X12145000Y-17246000D01*
X12095000Y-17296000D01*
X12145000Y-17346000D01*
D11*
X12560539Y-17387484D02*
X12446253Y-17387484D01*
X12503396Y-17387484D02*
X12503396Y-17187484D01*
X12503396Y-17187484D02*
X12484348Y-17216055D01*
X12484348Y-17216055D02*
X12465301Y-17235103D01*
X12465301Y-17235103D02*
X12446253Y-17244627D01*
X12646253Y-17368436D02*
X12655777Y-17377960D01*
X12655777Y-17377960D02*
X12646253Y-17387484D01*
X12646253Y-17387484D02*
X12636729Y-17377960D01*
X12636729Y-17377960D02*
X12646253Y-17368436D01*
X12646253Y-17368436D02*
X12646253Y-17387484D01*
X12779586Y-17187484D02*
X12798634Y-17187484D01*
X12798634Y-17187484D02*
X12817682Y-17197008D01*
X12817682Y-17197008D02*
X12827205Y-17206531D01*
X12827205Y-17206531D02*
X12836729Y-17225579D01*
X12836729Y-17225579D02*
X12846253Y-17263674D01*
X12846253Y-17263674D02*
X12846253Y-17311293D01*
X12846253Y-17311293D02*
X12836729Y-17349389D01*
X12836729Y-17349389D02*
X12827205Y-17368436D01*
X12827205Y-17368436D02*
X12817682Y-17377960D01*
X12817682Y-17377960D02*
X12798634Y-17387484D01*
X12798634Y-17387484D02*
X12779586Y-17387484D01*
X12779586Y-17387484D02*
X12760539Y-17377960D01*
X12760539Y-17377960D02*
X12751015Y-17368436D01*
X12751015Y-17368436D02*
X12741491Y-17349389D01*
X12741491Y-17349389D02*
X12731967Y-17311293D01*
X12731967Y-17311293D02*
X12731967Y-17263674D01*
X12731967Y-17263674D02*
X12741491Y-17225579D01*
X12741491Y-17225579D02*
X12751015Y-17206531D01*
X12751015Y-17206531D02*
X12760539Y-17197008D01*
X12760539Y-17197008D02*
X12779586Y-17187484D01*
X12970062Y-17187484D02*
X12989110Y-17187484D01*
X12989110Y-17187484D02*
X13008158Y-17197008D01*
X13008158Y-17197008D02*
X13017682Y-17206531D01*
X13017682Y-17206531D02*
X13027205Y-17225579D01*
X13027205Y-17225579D02*
X13036729Y-17263674D01*
X13036729Y-17263674D02*
X13036729Y-17311293D01*
X13036729Y-17311293D02*
X13027205Y-17349389D01*
X13027205Y-17349389D02*
X13017682Y-17368436D01*
X13017682Y-17368436D02*
X13008158Y-17377960D01*
X13008158Y-17377960D02*
X12989110Y-17387484D01*
X12989110Y-17387484D02*
X12970062Y-17387484D01*
X12970062Y-17387484D02*
X12951015Y-17377960D01*
X12951015Y-17377960D02*
X12941491Y-17368436D01*
X12941491Y-17368436D02*
X12931967Y-17349389D01*
X12931967Y-17349389D02*
X12922443Y-17311293D01*
X12922443Y-17311293D02*
X12922443Y-17263674D01*
X12922443Y-17263674D02*
X12931967Y-17225579D01*
X12931967Y-17225579D02*
X12941491Y-17206531D01*
X12941491Y-17206531D02*
X12951015Y-17197008D01*
X12951015Y-17197008D02*
X12970062Y-17187484D01*
X13160539Y-17187484D02*
X13179586Y-17187484D01*
X13179586Y-17187484D02*
X13198634Y-17197008D01*
X13198634Y-17197008D02*
X13208158Y-17206531D01*
X13208158Y-17206531D02*
X13217682Y-17225579D01*
X13217682Y-17225579D02*
X13227205Y-17263674D01*
X13227205Y-17263674D02*
X13227205Y-17311293D01*
X13227205Y-17311293D02*
X13217682Y-17349389D01*
X13217682Y-17349389D02*
X13208158Y-17368436D01*
X13208158Y-17368436D02*
X13198634Y-17377960D01*
X13198634Y-17377960D02*
X13179586Y-17387484D01*
X13179586Y-17387484D02*
X13160539Y-17387484D01*
X13160539Y-17387484D02*
X13141491Y-17377960D01*
X13141491Y-17377960D02*
X13131967Y-17368436D01*
X13131967Y-17368436D02*
X13122443Y-17349389D01*
X13122443Y-17349389D02*
X13112920Y-17311293D01*
X13112920Y-17311293D02*
X13112920Y-17263674D01*
X13112920Y-17263674D02*
X13122443Y-17225579D01*
X13122443Y-17225579D02*
X13131967Y-17206531D01*
X13131967Y-17206531D02*
X13141491Y-17197008D01*
X13141491Y-17197008D02*
X13160539Y-17187484D01*
X13312920Y-17387484D02*
X13312920Y-17254150D01*
X13312920Y-17273198D02*
X13322443Y-17263674D01*
X13322443Y-17263674D02*
X13341491Y-17254150D01*
X13341491Y-17254150D02*
X13370063Y-17254150D01*
X13370063Y-17254150D02*
X13389110Y-17263674D01*
X13389110Y-17263674D02*
X13398634Y-17282722D01*
X13398634Y-17282722D02*
X13398634Y-17387484D01*
X13398634Y-17282722D02*
X13408158Y-17263674D01*
X13408158Y-17263674D02*
X13427205Y-17254150D01*
X13427205Y-17254150D02*
X13455777Y-17254150D01*
X13455777Y-17254150D02*
X13474824Y-17263674D01*
X13474824Y-17263674D02*
X13484348Y-17282722D01*
X13484348Y-17282722D02*
X13484348Y-17387484D01*
X13579586Y-17387484D02*
X13579586Y-17254150D01*
X13579586Y-17273198D02*
X13589110Y-17263674D01*
X13589110Y-17263674D02*
X13608158Y-17254150D01*
X13608158Y-17254150D02*
X13636729Y-17254150D01*
X13636729Y-17254150D02*
X13655777Y-17263674D01*
X13655777Y-17263674D02*
X13665301Y-17282722D01*
X13665301Y-17282722D02*
X13665301Y-17387484D01*
X13665301Y-17282722D02*
X13674824Y-17263674D01*
X13674824Y-17263674D02*
X13693872Y-17254150D01*
X13693872Y-17254150D02*
X13722443Y-17254150D01*
X13722443Y-17254150D02*
X13741491Y-17263674D01*
X13741491Y-17263674D02*
X13751015Y-17282722D01*
X13751015Y-17282722D02*
X13751015Y-17387484D01*
X14141491Y-17177960D02*
X13970063Y-17435103D01*
X14398634Y-17187484D02*
X14417682Y-17187484D01*
X14417682Y-17187484D02*
X14436729Y-17197008D01*
X14436729Y-17197008D02*
X14446253Y-17206531D01*
X14446253Y-17206531D02*
X14455777Y-17225579D01*
X14455777Y-17225579D02*
X14465301Y-17263674D01*
X14465301Y-17263674D02*
X14465301Y-17311293D01*
X14465301Y-17311293D02*
X14455777Y-17349389D01*
X14455777Y-17349389D02*
X14446253Y-17368436D01*
X14446253Y-17368436D02*
X14436729Y-17377960D01*
X14436729Y-17377960D02*
X14417682Y-17387484D01*
X14417682Y-17387484D02*
X14398634Y-17387484D01*
X14398634Y-17387484D02*
X14379586Y-17377960D01*
X14379586Y-17377960D02*
X14370063Y-17368436D01*
X14370063Y-17368436D02*
X14360539Y-17349389D01*
X14360539Y-17349389D02*
X14351015Y-17311293D01*
X14351015Y-17311293D02*
X14351015Y-17263674D01*
X14351015Y-17263674D02*
X14360539Y-17225579D01*
X14360539Y-17225579D02*
X14370063Y-17206531D01*
X14370063Y-17206531D02*
X14379586Y-17197008D01*
X14379586Y-17197008D02*
X14398634Y-17187484D01*
X14551015Y-17368436D02*
X14560539Y-17377960D01*
X14560539Y-17377960D02*
X14551015Y-17387484D01*
X14551015Y-17387484D02*
X14541491Y-17377960D01*
X14541491Y-17377960D02*
X14551015Y-17368436D01*
X14551015Y-17368436D02*
X14551015Y-17387484D01*
X14684348Y-17187484D02*
X14703396Y-17187484D01*
X14703396Y-17187484D02*
X14722444Y-17197008D01*
X14722444Y-17197008D02*
X14731967Y-17206531D01*
X14731967Y-17206531D02*
X14741491Y-17225579D01*
X14741491Y-17225579D02*
X14751015Y-17263674D01*
X14751015Y-17263674D02*
X14751015Y-17311293D01*
X14751015Y-17311293D02*
X14741491Y-17349389D01*
X14741491Y-17349389D02*
X14731967Y-17368436D01*
X14731967Y-17368436D02*
X14722444Y-17377960D01*
X14722444Y-17377960D02*
X14703396Y-17387484D01*
X14703396Y-17387484D02*
X14684348Y-17387484D01*
X14684348Y-17387484D02*
X14665301Y-17377960D01*
X14665301Y-17377960D02*
X14655777Y-17368436D01*
X14655777Y-17368436D02*
X14646253Y-17349389D01*
X14646253Y-17349389D02*
X14636729Y-17311293D01*
X14636729Y-17311293D02*
X14636729Y-17263674D01*
X14636729Y-17263674D02*
X14646253Y-17225579D01*
X14646253Y-17225579D02*
X14655777Y-17206531D01*
X14655777Y-17206531D02*
X14665301Y-17197008D01*
X14665301Y-17197008D02*
X14684348Y-17187484D01*
X14817682Y-17187484D02*
X14941491Y-17187484D01*
X14941491Y-17187484D02*
X14874825Y-17263674D01*
X14874825Y-17263674D02*
X14903396Y-17263674D01*
X14903396Y-17263674D02*
X14922444Y-17273198D01*
X14922444Y-17273198D02*
X14931967Y-17282722D01*
X14931967Y-17282722D02*
X14941491Y-17301770D01*
X14941491Y-17301770D02*
X14941491Y-17349389D01*
X14941491Y-17349389D02*
X14931967Y-17368436D01*
X14931967Y-17368436D02*
X14922444Y-17377960D01*
X14922444Y-17377960D02*
X14903396Y-17387484D01*
X14903396Y-17387484D02*
X14846253Y-17387484D01*
X14846253Y-17387484D02*
X14827206Y-17377960D01*
X14827206Y-17377960D02*
X14817682Y-17368436D01*
X15036729Y-17387484D02*
X15074825Y-17387484D01*
X15074825Y-17387484D02*
X15093872Y-17377960D01*
X15093872Y-17377960D02*
X15103396Y-17368436D01*
X15103396Y-17368436D02*
X15122444Y-17339865D01*
X15122444Y-17339865D02*
X15131967Y-17301770D01*
X15131967Y-17301770D02*
X15131967Y-17225579D01*
X15131967Y-17225579D02*
X15122444Y-17206531D01*
X15122444Y-17206531D02*
X15112920Y-17197008D01*
X15112920Y-17197008D02*
X15093872Y-17187484D01*
X15093872Y-17187484D02*
X15055777Y-17187484D01*
X15055777Y-17187484D02*
X15036729Y-17197008D01*
X15036729Y-17197008D02*
X15027206Y-17206531D01*
X15027206Y-17206531D02*
X15017682Y-17225579D01*
X15017682Y-17225579D02*
X15017682Y-17273198D01*
X15017682Y-17273198D02*
X15027206Y-17292246D01*
X15027206Y-17292246D02*
X15036729Y-17301770D01*
X15036729Y-17301770D02*
X15055777Y-17311293D01*
X15055777Y-17311293D02*
X15093872Y-17311293D01*
X15093872Y-17311293D02*
X15112920Y-17301770D01*
X15112920Y-17301770D02*
X15122444Y-17292246D01*
X15122444Y-17292246D02*
X15131967Y-17273198D01*
X15303396Y-17254150D02*
X15303396Y-17387484D01*
X15255777Y-17177960D02*
X15208158Y-17320817D01*
X15208158Y-17320817D02*
X15331967Y-17320817D01*
X15398634Y-17187484D02*
X15398634Y-17225579D01*
X15474825Y-17187484D02*
X15474825Y-17225579D01*
X15770063Y-17463674D02*
X15760539Y-17454150D01*
X15760539Y-17454150D02*
X15741491Y-17425579D01*
X15741491Y-17425579D02*
X15731968Y-17406531D01*
X15731968Y-17406531D02*
X15722444Y-17377960D01*
X15722444Y-17377960D02*
X15712920Y-17330341D01*
X15712920Y-17330341D02*
X15712920Y-17292246D01*
X15712920Y-17292246D02*
X15722444Y-17244627D01*
X15722444Y-17244627D02*
X15731968Y-17216055D01*
X15731968Y-17216055D02*
X15741491Y-17197008D01*
X15741491Y-17197008D02*
X15760539Y-17168436D01*
X15760539Y-17168436D02*
X15770063Y-17158912D01*
X15836729Y-17206531D02*
X15846253Y-17197008D01*
X15846253Y-17197008D02*
X15865301Y-17187484D01*
X15865301Y-17187484D02*
X15912920Y-17187484D01*
X15912920Y-17187484D02*
X15931968Y-17197008D01*
X15931968Y-17197008D02*
X15941491Y-17206531D01*
X15941491Y-17206531D02*
X15951015Y-17225579D01*
X15951015Y-17225579D02*
X15951015Y-17244627D01*
X15951015Y-17244627D02*
X15941491Y-17273198D01*
X15941491Y-17273198D02*
X15827206Y-17387484D01*
X15827206Y-17387484D02*
X15951015Y-17387484D01*
X16189110Y-17387484D02*
X16189110Y-17187484D01*
X16274825Y-17387484D02*
X16274825Y-17282722D01*
X16274825Y-17282722D02*
X16265301Y-17263674D01*
X16265301Y-17263674D02*
X16246253Y-17254150D01*
X16246253Y-17254150D02*
X16217682Y-17254150D01*
X16217682Y-17254150D02*
X16198634Y-17263674D01*
X16198634Y-17263674D02*
X16189110Y-17273198D01*
X16398634Y-17387484D02*
X16379587Y-17377960D01*
X16379587Y-17377960D02*
X16370063Y-17368436D01*
X16370063Y-17368436D02*
X16360539Y-17349389D01*
X16360539Y-17349389D02*
X16360539Y-17292246D01*
X16360539Y-17292246D02*
X16370063Y-17273198D01*
X16370063Y-17273198D02*
X16379587Y-17263674D01*
X16379587Y-17263674D02*
X16398634Y-17254150D01*
X16398634Y-17254150D02*
X16427206Y-17254150D01*
X16427206Y-17254150D02*
X16446253Y-17263674D01*
X16446253Y-17263674D02*
X16455777Y-17273198D01*
X16455777Y-17273198D02*
X16465301Y-17292246D01*
X16465301Y-17292246D02*
X16465301Y-17349389D01*
X16465301Y-17349389D02*
X16455777Y-17368436D01*
X16455777Y-17368436D02*
X16446253Y-17377960D01*
X16446253Y-17377960D02*
X16427206Y-17387484D01*
X16427206Y-17387484D02*
X16398634Y-17387484D01*
X16579587Y-17387484D02*
X16560539Y-17377960D01*
X16560539Y-17377960D02*
X16551015Y-17358912D01*
X16551015Y-17358912D02*
X16551015Y-17187484D01*
X16731968Y-17377960D02*
X16712920Y-17387484D01*
X16712920Y-17387484D02*
X16674825Y-17387484D01*
X16674825Y-17387484D02*
X16655777Y-17377960D01*
X16655777Y-17377960D02*
X16646253Y-17358912D01*
X16646253Y-17358912D02*
X16646253Y-17282722D01*
X16646253Y-17282722D02*
X16655777Y-17263674D01*
X16655777Y-17263674D02*
X16674825Y-17254150D01*
X16674825Y-17254150D02*
X16712920Y-17254150D01*
X16712920Y-17254150D02*
X16731968Y-17263674D01*
X16731968Y-17263674D02*
X16741491Y-17282722D01*
X16741491Y-17282722D02*
X16741491Y-17301770D01*
X16741491Y-17301770D02*
X16646253Y-17320817D01*
X16817682Y-17377960D02*
X16836730Y-17387484D01*
X16836730Y-17387484D02*
X16874825Y-17387484D01*
X16874825Y-17387484D02*
X16893873Y-17377960D01*
X16893873Y-17377960D02*
X16903396Y-17358912D01*
X16903396Y-17358912D02*
X16903396Y-17349389D01*
X16903396Y-17349389D02*
X16893873Y-17330341D01*
X16893873Y-17330341D02*
X16874825Y-17320817D01*
X16874825Y-17320817D02*
X16846253Y-17320817D01*
X16846253Y-17320817D02*
X16827206Y-17311293D01*
X16827206Y-17311293D02*
X16817682Y-17292246D01*
X16817682Y-17292246D02*
X16817682Y-17282722D01*
X16817682Y-17282722D02*
X16827206Y-17263674D01*
X16827206Y-17263674D02*
X16846253Y-17254150D01*
X16846253Y-17254150D02*
X16874825Y-17254150D01*
X16874825Y-17254150D02*
X16893873Y-17263674D01*
X16970063Y-17463674D02*
X16979587Y-17454150D01*
X16979587Y-17454150D02*
X16998634Y-17425579D01*
X16998634Y-17425579D02*
X17008158Y-17406531D01*
X17008158Y-17406531D02*
X17017682Y-17377960D01*
X17017682Y-17377960D02*
X17027206Y-17330341D01*
X17027206Y-17330341D02*
X17027206Y-17292246D01*
X17027206Y-17292246D02*
X17017682Y-17244627D01*
X17017682Y-17244627D02*
X17008158Y-17216055D01*
X17008158Y-17216055D02*
X16998634Y-17197008D01*
X16998634Y-17197008D02*
X16979587Y-17168436D01*
X16979587Y-17168436D02*
X16970063Y-17158912D01*
D13*
X12065000Y-17495000D02*
X12195000Y-17625000D01*
X12195000Y-17495000D02*
X12065000Y-17625000D01*
X12195000Y-17560000D02*
G75*
G02*
X12065000Y-17560000I-65000J0D01*
G01*
X12065000Y-17560000D02*
G75*
G02*
X12195000Y-17560000I65000J0D01*
G01*
D11*
X12560539Y-17651484D02*
X12446253Y-17651484D01*
X12503396Y-17651484D02*
X12503396Y-17451484D01*
X12503396Y-17451484D02*
X12484348Y-17480055D01*
X12484348Y-17480055D02*
X12465301Y-17499103D01*
X12465301Y-17499103D02*
X12446253Y-17508627D01*
X12646253Y-17632436D02*
X12655777Y-17641960D01*
X12655777Y-17641960D02*
X12646253Y-17651484D01*
X12646253Y-17651484D02*
X12636729Y-17641960D01*
X12636729Y-17641960D02*
X12646253Y-17632436D01*
X12646253Y-17632436D02*
X12646253Y-17651484D01*
X12722443Y-17451484D02*
X12846253Y-17451484D01*
X12846253Y-17451484D02*
X12779586Y-17527674D01*
X12779586Y-17527674D02*
X12808158Y-17527674D01*
X12808158Y-17527674D02*
X12827205Y-17537198D01*
X12827205Y-17537198D02*
X12836729Y-17546722D01*
X12836729Y-17546722D02*
X12846253Y-17565770D01*
X12846253Y-17565770D02*
X12846253Y-17613389D01*
X12846253Y-17613389D02*
X12836729Y-17632436D01*
X12836729Y-17632436D02*
X12827205Y-17641960D01*
X12827205Y-17641960D02*
X12808158Y-17651484D01*
X12808158Y-17651484D02*
X12751015Y-17651484D01*
X12751015Y-17651484D02*
X12731967Y-17641960D01*
X12731967Y-17641960D02*
X12722443Y-17632436D01*
X12970062Y-17451484D02*
X12989110Y-17451484D01*
X12989110Y-17451484D02*
X13008158Y-17461008D01*
X13008158Y-17461008D02*
X13017682Y-17470531D01*
X13017682Y-17470531D02*
X13027205Y-17489579D01*
X13027205Y-17489579D02*
X13036729Y-17527674D01*
X13036729Y-17527674D02*
X13036729Y-17575293D01*
X13036729Y-17575293D02*
X13027205Y-17613389D01*
X13027205Y-17613389D02*
X13017682Y-17632436D01*
X13017682Y-17632436D02*
X13008158Y-17641960D01*
X13008158Y-17641960D02*
X12989110Y-17651484D01*
X12989110Y-17651484D02*
X12970062Y-17651484D01*
X12970062Y-17651484D02*
X12951015Y-17641960D01*
X12951015Y-17641960D02*
X12941491Y-17632436D01*
X12941491Y-17632436D02*
X12931967Y-17613389D01*
X12931967Y-17613389D02*
X12922443Y-17575293D01*
X12922443Y-17575293D02*
X12922443Y-17527674D01*
X12922443Y-17527674D02*
X12931967Y-17489579D01*
X12931967Y-17489579D02*
X12941491Y-17470531D01*
X12941491Y-17470531D02*
X12951015Y-17461008D01*
X12951015Y-17461008D02*
X12970062Y-17451484D01*
X13160539Y-17451484D02*
X13179586Y-17451484D01*
X13179586Y-17451484D02*
X13198634Y-17461008D01*
X13198634Y-17461008D02*
X13208158Y-17470531D01*
X13208158Y-17470531D02*
X13217682Y-17489579D01*
X13217682Y-17489579D02*
X13227205Y-17527674D01*
X13227205Y-17527674D02*
X13227205Y-17575293D01*
X13227205Y-17575293D02*
X13217682Y-17613389D01*
X13217682Y-17613389D02*
X13208158Y-17632436D01*
X13208158Y-17632436D02*
X13198634Y-17641960D01*
X13198634Y-17641960D02*
X13179586Y-17651484D01*
X13179586Y-17651484D02*
X13160539Y-17651484D01*
X13160539Y-17651484D02*
X13141491Y-17641960D01*
X13141491Y-17641960D02*
X13131967Y-17632436D01*
X13131967Y-17632436D02*
X13122443Y-17613389D01*
X13122443Y-17613389D02*
X13112920Y-17575293D01*
X13112920Y-17575293D02*
X13112920Y-17527674D01*
X13112920Y-17527674D02*
X13122443Y-17489579D01*
X13122443Y-17489579D02*
X13131967Y-17470531D01*
X13131967Y-17470531D02*
X13141491Y-17461008D01*
X13141491Y-17461008D02*
X13160539Y-17451484D01*
X13312920Y-17651484D02*
X13312920Y-17518150D01*
X13312920Y-17537198D02*
X13322443Y-17527674D01*
X13322443Y-17527674D02*
X13341491Y-17518150D01*
X13341491Y-17518150D02*
X13370063Y-17518150D01*
X13370063Y-17518150D02*
X13389110Y-17527674D01*
X13389110Y-17527674D02*
X13398634Y-17546722D01*
X13398634Y-17546722D02*
X13398634Y-17651484D01*
X13398634Y-17546722D02*
X13408158Y-17527674D01*
X13408158Y-17527674D02*
X13427205Y-17518150D01*
X13427205Y-17518150D02*
X13455777Y-17518150D01*
X13455777Y-17518150D02*
X13474824Y-17527674D01*
X13474824Y-17527674D02*
X13484348Y-17546722D01*
X13484348Y-17546722D02*
X13484348Y-17651484D01*
X13579586Y-17651484D02*
X13579586Y-17518150D01*
X13579586Y-17537198D02*
X13589110Y-17527674D01*
X13589110Y-17527674D02*
X13608158Y-17518150D01*
X13608158Y-17518150D02*
X13636729Y-17518150D01*
X13636729Y-17518150D02*
X13655777Y-17527674D01*
X13655777Y-17527674D02*
X13665301Y-17546722D01*
X13665301Y-17546722D02*
X13665301Y-17651484D01*
X13665301Y-17546722D02*
X13674824Y-17527674D01*
X13674824Y-17527674D02*
X13693872Y-17518150D01*
X13693872Y-17518150D02*
X13722443Y-17518150D01*
X13722443Y-17518150D02*
X13741491Y-17527674D01*
X13741491Y-17527674D02*
X13751015Y-17546722D01*
X13751015Y-17546722D02*
X13751015Y-17651484D01*
X14141491Y-17441960D02*
X13970063Y-17699103D01*
X14398634Y-17451484D02*
X14417682Y-17451484D01*
X14417682Y-17451484D02*
X14436729Y-17461008D01*
X14436729Y-17461008D02*
X14446253Y-17470531D01*
X14446253Y-17470531D02*
X14455777Y-17489579D01*
X14455777Y-17489579D02*
X14465301Y-17527674D01*
X14465301Y-17527674D02*
X14465301Y-17575293D01*
X14465301Y-17575293D02*
X14455777Y-17613389D01*
X14455777Y-17613389D02*
X14446253Y-17632436D01*
X14446253Y-17632436D02*
X14436729Y-17641960D01*
X14436729Y-17641960D02*
X14417682Y-17651484D01*
X14417682Y-17651484D02*
X14398634Y-17651484D01*
X14398634Y-17651484D02*
X14379586Y-17641960D01*
X14379586Y-17641960D02*
X14370063Y-17632436D01*
X14370063Y-17632436D02*
X14360539Y-17613389D01*
X14360539Y-17613389D02*
X14351015Y-17575293D01*
X14351015Y-17575293D02*
X14351015Y-17527674D01*
X14351015Y-17527674D02*
X14360539Y-17489579D01*
X14360539Y-17489579D02*
X14370063Y-17470531D01*
X14370063Y-17470531D02*
X14379586Y-17461008D01*
X14379586Y-17461008D02*
X14398634Y-17451484D01*
X14551015Y-17632436D02*
X14560539Y-17641960D01*
X14560539Y-17641960D02*
X14551015Y-17651484D01*
X14551015Y-17651484D02*
X14541491Y-17641960D01*
X14541491Y-17641960D02*
X14551015Y-17632436D01*
X14551015Y-17632436D02*
X14551015Y-17651484D01*
X14684348Y-17451484D02*
X14703396Y-17451484D01*
X14703396Y-17451484D02*
X14722444Y-17461008D01*
X14722444Y-17461008D02*
X14731967Y-17470531D01*
X14731967Y-17470531D02*
X14741491Y-17489579D01*
X14741491Y-17489579D02*
X14751015Y-17527674D01*
X14751015Y-17527674D02*
X14751015Y-17575293D01*
X14751015Y-17575293D02*
X14741491Y-17613389D01*
X14741491Y-17613389D02*
X14731967Y-17632436D01*
X14731967Y-17632436D02*
X14722444Y-17641960D01*
X14722444Y-17641960D02*
X14703396Y-17651484D01*
X14703396Y-17651484D02*
X14684348Y-17651484D01*
X14684348Y-17651484D02*
X14665301Y-17641960D01*
X14665301Y-17641960D02*
X14655777Y-17632436D01*
X14655777Y-17632436D02*
X14646253Y-17613389D01*
X14646253Y-17613389D02*
X14636729Y-17575293D01*
X14636729Y-17575293D02*
X14636729Y-17527674D01*
X14636729Y-17527674D02*
X14646253Y-17489579D01*
X14646253Y-17489579D02*
X14655777Y-17470531D01*
X14655777Y-17470531D02*
X14665301Y-17461008D01*
X14665301Y-17461008D02*
X14684348Y-17451484D01*
X14931967Y-17451484D02*
X14836729Y-17451484D01*
X14836729Y-17451484D02*
X14827206Y-17546722D01*
X14827206Y-17546722D02*
X14836729Y-17537198D01*
X14836729Y-17537198D02*
X14855777Y-17527674D01*
X14855777Y-17527674D02*
X14903396Y-17527674D01*
X14903396Y-17527674D02*
X14922444Y-17537198D01*
X14922444Y-17537198D02*
X14931967Y-17546722D01*
X14931967Y-17546722D02*
X14941491Y-17565770D01*
X14941491Y-17565770D02*
X14941491Y-17613389D01*
X14941491Y-17613389D02*
X14931967Y-17632436D01*
X14931967Y-17632436D02*
X14922444Y-17641960D01*
X14922444Y-17641960D02*
X14903396Y-17651484D01*
X14903396Y-17651484D02*
X14855777Y-17651484D01*
X14855777Y-17651484D02*
X14836729Y-17641960D01*
X14836729Y-17641960D02*
X14827206Y-17632436D01*
X15131967Y-17651484D02*
X15017682Y-17651484D01*
X15074825Y-17651484D02*
X15074825Y-17451484D01*
X15074825Y-17451484D02*
X15055777Y-17480055D01*
X15055777Y-17480055D02*
X15036729Y-17499103D01*
X15036729Y-17499103D02*
X15017682Y-17508627D01*
X15208158Y-17470531D02*
X15217682Y-17461008D01*
X15217682Y-17461008D02*
X15236729Y-17451484D01*
X15236729Y-17451484D02*
X15284348Y-17451484D01*
X15284348Y-17451484D02*
X15303396Y-17461008D01*
X15303396Y-17461008D02*
X15312920Y-17470531D01*
X15312920Y-17470531D02*
X15322444Y-17489579D01*
X15322444Y-17489579D02*
X15322444Y-17508627D01*
X15322444Y-17508627D02*
X15312920Y-17537198D01*
X15312920Y-17537198D02*
X15198634Y-17651484D01*
X15198634Y-17651484D02*
X15322444Y-17651484D01*
X15398634Y-17451484D02*
X15398634Y-17489579D01*
X15474825Y-17451484D02*
X15474825Y-17489579D01*
X15770063Y-17727674D02*
X15760539Y-17718150D01*
X15760539Y-17718150D02*
X15741491Y-17689579D01*
X15741491Y-17689579D02*
X15731968Y-17670531D01*
X15731968Y-17670531D02*
X15722444Y-17641960D01*
X15722444Y-17641960D02*
X15712920Y-17594341D01*
X15712920Y-17594341D02*
X15712920Y-17556246D01*
X15712920Y-17556246D02*
X15722444Y-17508627D01*
X15722444Y-17508627D02*
X15731968Y-17480055D01*
X15731968Y-17480055D02*
X15741491Y-17461008D01*
X15741491Y-17461008D02*
X15760539Y-17432436D01*
X15760539Y-17432436D02*
X15770063Y-17422912D01*
X15827206Y-17451484D02*
X15951015Y-17451484D01*
X15951015Y-17451484D02*
X15884348Y-17527674D01*
X15884348Y-17527674D02*
X15912920Y-17527674D01*
X15912920Y-17527674D02*
X15931968Y-17537198D01*
X15931968Y-17537198D02*
X15941491Y-17546722D01*
X15941491Y-17546722D02*
X15951015Y-17565770D01*
X15951015Y-17565770D02*
X15951015Y-17613389D01*
X15951015Y-17613389D02*
X15941491Y-17632436D01*
X15941491Y-17632436D02*
X15931968Y-17641960D01*
X15931968Y-17641960D02*
X15912920Y-17651484D01*
X15912920Y-17651484D02*
X15855777Y-17651484D01*
X15855777Y-17651484D02*
X15836729Y-17641960D01*
X15836729Y-17641960D02*
X15827206Y-17632436D01*
X16189110Y-17651484D02*
X16189110Y-17451484D01*
X16274825Y-17651484D02*
X16274825Y-17546722D01*
X16274825Y-17546722D02*
X16265301Y-17527674D01*
X16265301Y-17527674D02*
X16246253Y-17518150D01*
X16246253Y-17518150D02*
X16217682Y-17518150D01*
X16217682Y-17518150D02*
X16198634Y-17527674D01*
X16198634Y-17527674D02*
X16189110Y-17537198D01*
X16398634Y-17651484D02*
X16379587Y-17641960D01*
X16379587Y-17641960D02*
X16370063Y-17632436D01*
X16370063Y-17632436D02*
X16360539Y-17613389D01*
X16360539Y-17613389D02*
X16360539Y-17556246D01*
X16360539Y-17556246D02*
X16370063Y-17537198D01*
X16370063Y-17537198D02*
X16379587Y-17527674D01*
X16379587Y-17527674D02*
X16398634Y-17518150D01*
X16398634Y-17518150D02*
X16427206Y-17518150D01*
X16427206Y-17518150D02*
X16446253Y-17527674D01*
X16446253Y-17527674D02*
X16455777Y-17537198D01*
X16455777Y-17537198D02*
X16465301Y-17556246D01*
X16465301Y-17556246D02*
X16465301Y-17613389D01*
X16465301Y-17613389D02*
X16455777Y-17632436D01*
X16455777Y-17632436D02*
X16446253Y-17641960D01*
X16446253Y-17641960D02*
X16427206Y-17651484D01*
X16427206Y-17651484D02*
X16398634Y-17651484D01*
X16579587Y-17651484D02*
X16560539Y-17641960D01*
X16560539Y-17641960D02*
X16551015Y-17622912D01*
X16551015Y-17622912D02*
X16551015Y-17451484D01*
X16731968Y-17641960D02*
X16712920Y-17651484D01*
X16712920Y-17651484D02*
X16674825Y-17651484D01*
X16674825Y-17651484D02*
X16655777Y-17641960D01*
X16655777Y-17641960D02*
X16646253Y-17622912D01*
X16646253Y-17622912D02*
X16646253Y-17546722D01*
X16646253Y-17546722D02*
X16655777Y-17527674D01*
X16655777Y-17527674D02*
X16674825Y-17518150D01*
X16674825Y-17518150D02*
X16712920Y-17518150D01*
X16712920Y-17518150D02*
X16731968Y-17527674D01*
X16731968Y-17527674D02*
X16741491Y-17546722D01*
X16741491Y-17546722D02*
X16741491Y-17565770D01*
X16741491Y-17565770D02*
X16646253Y-17584817D01*
X16817682Y-17641960D02*
X16836730Y-17651484D01*
X16836730Y-17651484D02*
X16874825Y-17651484D01*
X16874825Y-17651484D02*
X16893873Y-17641960D01*
X16893873Y-17641960D02*
X16903396Y-17622912D01*
X16903396Y-17622912D02*
X16903396Y-17613389D01*
X16903396Y-17613389D02*
X16893873Y-17594341D01*
X16893873Y-17594341D02*
X16874825Y-17584817D01*
X16874825Y-17584817D02*
X16846253Y-17584817D01*
X16846253Y-17584817D02*
X16827206Y-17575293D01*
X16827206Y-17575293D02*
X16817682Y-17556246D01*
X16817682Y-17556246D02*
X16817682Y-17546722D01*
X16817682Y-17546722D02*
X16827206Y-17527674D01*
X16827206Y-17527674D02*
X16846253Y-17518150D01*
X16846253Y-17518150D02*
X16874825Y-17518150D01*
X16874825Y-17518150D02*
X16893873Y-17527674D01*
X16970063Y-17727674D02*
X16979587Y-17718150D01*
X16979587Y-17718150D02*
X16998634Y-17689579D01*
X16998634Y-17689579D02*
X17008158Y-17670531D01*
X17008158Y-17670531D02*
X17017682Y-17641960D01*
X17017682Y-17641960D02*
X17027206Y-17594341D01*
X17027206Y-17594341D02*
X17027206Y-17556246D01*
X17027206Y-17556246D02*
X17017682Y-17508627D01*
X17017682Y-17508627D02*
X17008158Y-17480055D01*
X17008158Y-17480055D02*
X16998634Y-17461008D01*
X16998634Y-17461008D02*
X16979587Y-17432436D01*
X16979587Y-17432436D02*
X16970063Y-17422912D01*
D14*
X12035000Y-17744000D02*
X12195000Y-17904000D01*
X12195000Y-17744000D02*
X12035000Y-17904000D01*
X12115000Y-17744000D02*
X12115000Y-17904000D01*
X12035000Y-17824000D02*
X12195000Y-17824000D01*
D11*
X12560539Y-17915484D02*
X12446253Y-17915484D01*
X12503396Y-17915484D02*
X12503396Y-17715484D01*
X12503396Y-17715484D02*
X12484348Y-17744055D01*
X12484348Y-17744055D02*
X12465301Y-17763103D01*
X12465301Y-17763103D02*
X12446253Y-17772627D01*
X12646253Y-17896436D02*
X12655777Y-17905960D01*
X12655777Y-17905960D02*
X12646253Y-17915484D01*
X12646253Y-17915484D02*
X12636729Y-17905960D01*
X12636729Y-17905960D02*
X12646253Y-17896436D01*
X12646253Y-17896436D02*
X12646253Y-17915484D01*
X12827205Y-17715484D02*
X12789110Y-17715484D01*
X12789110Y-17715484D02*
X12770062Y-17725008D01*
X12770062Y-17725008D02*
X12760539Y-17734531D01*
X12760539Y-17734531D02*
X12741491Y-17763103D01*
X12741491Y-17763103D02*
X12731967Y-17801198D01*
X12731967Y-17801198D02*
X12731967Y-17877389D01*
X12731967Y-17877389D02*
X12741491Y-17896436D01*
X12741491Y-17896436D02*
X12751015Y-17905960D01*
X12751015Y-17905960D02*
X12770062Y-17915484D01*
X12770062Y-17915484D02*
X12808158Y-17915484D01*
X12808158Y-17915484D02*
X12827205Y-17905960D01*
X12827205Y-17905960D02*
X12836729Y-17896436D01*
X12836729Y-17896436D02*
X12846253Y-17877389D01*
X12846253Y-17877389D02*
X12846253Y-17829770D01*
X12846253Y-17829770D02*
X12836729Y-17810722D01*
X12836729Y-17810722D02*
X12827205Y-17801198D01*
X12827205Y-17801198D02*
X12808158Y-17791674D01*
X12808158Y-17791674D02*
X12770062Y-17791674D01*
X12770062Y-17791674D02*
X12751015Y-17801198D01*
X12751015Y-17801198D02*
X12741491Y-17810722D01*
X12741491Y-17810722D02*
X12731967Y-17829770D01*
X12970062Y-17715484D02*
X12989110Y-17715484D01*
X12989110Y-17715484D02*
X13008158Y-17725008D01*
X13008158Y-17725008D02*
X13017682Y-17734531D01*
X13017682Y-17734531D02*
X13027205Y-17753579D01*
X13027205Y-17753579D02*
X13036729Y-17791674D01*
X13036729Y-17791674D02*
X13036729Y-17839293D01*
X13036729Y-17839293D02*
X13027205Y-17877389D01*
X13027205Y-17877389D02*
X13017682Y-17896436D01*
X13017682Y-17896436D02*
X13008158Y-17905960D01*
X13008158Y-17905960D02*
X12989110Y-17915484D01*
X12989110Y-17915484D02*
X12970062Y-17915484D01*
X12970062Y-17915484D02*
X12951015Y-17905960D01*
X12951015Y-17905960D02*
X12941491Y-17896436D01*
X12941491Y-17896436D02*
X12931967Y-17877389D01*
X12931967Y-17877389D02*
X12922443Y-17839293D01*
X12922443Y-17839293D02*
X12922443Y-17791674D01*
X12922443Y-17791674D02*
X12931967Y-17753579D01*
X12931967Y-17753579D02*
X12941491Y-17734531D01*
X12941491Y-17734531D02*
X12951015Y-17725008D01*
X12951015Y-17725008D02*
X12970062Y-17715484D01*
X13160539Y-17715484D02*
X13179586Y-17715484D01*
X13179586Y-17715484D02*
X13198634Y-17725008D01*
X13198634Y-17725008D02*
X13208158Y-17734531D01*
X13208158Y-17734531D02*
X13217682Y-17753579D01*
X13217682Y-17753579D02*
X13227205Y-17791674D01*
X13227205Y-17791674D02*
X13227205Y-17839293D01*
X13227205Y-17839293D02*
X13217682Y-17877389D01*
X13217682Y-17877389D02*
X13208158Y-17896436D01*
X13208158Y-17896436D02*
X13198634Y-17905960D01*
X13198634Y-17905960D02*
X13179586Y-17915484D01*
X13179586Y-17915484D02*
X13160539Y-17915484D01*
X13160539Y-17915484D02*
X13141491Y-17905960D01*
X13141491Y-17905960D02*
X13131967Y-17896436D01*
X13131967Y-17896436D02*
X13122443Y-17877389D01*
X13122443Y-17877389D02*
X13112920Y-17839293D01*
X13112920Y-17839293D02*
X13112920Y-17791674D01*
X13112920Y-17791674D02*
X13122443Y-17753579D01*
X13122443Y-17753579D02*
X13131967Y-17734531D01*
X13131967Y-17734531D02*
X13141491Y-17725008D01*
X13141491Y-17725008D02*
X13160539Y-17715484D01*
X13312920Y-17915484D02*
X13312920Y-17782150D01*
X13312920Y-17801198D02*
X13322443Y-17791674D01*
X13322443Y-17791674D02*
X13341491Y-17782150D01*
X13341491Y-17782150D02*
X13370063Y-17782150D01*
X13370063Y-17782150D02*
X13389110Y-17791674D01*
X13389110Y-17791674D02*
X13398634Y-17810722D01*
X13398634Y-17810722D02*
X13398634Y-17915484D01*
X13398634Y-17810722D02*
X13408158Y-17791674D01*
X13408158Y-17791674D02*
X13427205Y-17782150D01*
X13427205Y-17782150D02*
X13455777Y-17782150D01*
X13455777Y-17782150D02*
X13474824Y-17791674D01*
X13474824Y-17791674D02*
X13484348Y-17810722D01*
X13484348Y-17810722D02*
X13484348Y-17915484D01*
X13579586Y-17915484D02*
X13579586Y-17782150D01*
X13579586Y-17801198D02*
X13589110Y-17791674D01*
X13589110Y-17791674D02*
X13608158Y-17782150D01*
X13608158Y-17782150D02*
X13636729Y-17782150D01*
X13636729Y-17782150D02*
X13655777Y-17791674D01*
X13655777Y-17791674D02*
X13665301Y-17810722D01*
X13665301Y-17810722D02*
X13665301Y-17915484D01*
X13665301Y-17810722D02*
X13674824Y-17791674D01*
X13674824Y-17791674D02*
X13693872Y-17782150D01*
X13693872Y-17782150D02*
X13722443Y-17782150D01*
X13722443Y-17782150D02*
X13741491Y-17791674D01*
X13741491Y-17791674D02*
X13751015Y-17810722D01*
X13751015Y-17810722D02*
X13751015Y-17915484D01*
X14141491Y-17705960D02*
X13970063Y-17963103D01*
X14398634Y-17715484D02*
X14417682Y-17715484D01*
X14417682Y-17715484D02*
X14436729Y-17725008D01*
X14436729Y-17725008D02*
X14446253Y-17734531D01*
X14446253Y-17734531D02*
X14455777Y-17753579D01*
X14455777Y-17753579D02*
X14465301Y-17791674D01*
X14465301Y-17791674D02*
X14465301Y-17839293D01*
X14465301Y-17839293D02*
X14455777Y-17877389D01*
X14455777Y-17877389D02*
X14446253Y-17896436D01*
X14446253Y-17896436D02*
X14436729Y-17905960D01*
X14436729Y-17905960D02*
X14417682Y-17915484D01*
X14417682Y-17915484D02*
X14398634Y-17915484D01*
X14398634Y-17915484D02*
X14379586Y-17905960D01*
X14379586Y-17905960D02*
X14370063Y-17896436D01*
X14370063Y-17896436D02*
X14360539Y-17877389D01*
X14360539Y-17877389D02*
X14351015Y-17839293D01*
X14351015Y-17839293D02*
X14351015Y-17791674D01*
X14351015Y-17791674D02*
X14360539Y-17753579D01*
X14360539Y-17753579D02*
X14370063Y-17734531D01*
X14370063Y-17734531D02*
X14379586Y-17725008D01*
X14379586Y-17725008D02*
X14398634Y-17715484D01*
X14551015Y-17896436D02*
X14560539Y-17905960D01*
X14560539Y-17905960D02*
X14551015Y-17915484D01*
X14551015Y-17915484D02*
X14541491Y-17905960D01*
X14541491Y-17905960D02*
X14551015Y-17896436D01*
X14551015Y-17896436D02*
X14551015Y-17915484D01*
X14684348Y-17715484D02*
X14703396Y-17715484D01*
X14703396Y-17715484D02*
X14722444Y-17725008D01*
X14722444Y-17725008D02*
X14731967Y-17734531D01*
X14731967Y-17734531D02*
X14741491Y-17753579D01*
X14741491Y-17753579D02*
X14751015Y-17791674D01*
X14751015Y-17791674D02*
X14751015Y-17839293D01*
X14751015Y-17839293D02*
X14741491Y-17877389D01*
X14741491Y-17877389D02*
X14731967Y-17896436D01*
X14731967Y-17896436D02*
X14722444Y-17905960D01*
X14722444Y-17905960D02*
X14703396Y-17915484D01*
X14703396Y-17915484D02*
X14684348Y-17915484D01*
X14684348Y-17915484D02*
X14665301Y-17905960D01*
X14665301Y-17905960D02*
X14655777Y-17896436D01*
X14655777Y-17896436D02*
X14646253Y-17877389D01*
X14646253Y-17877389D02*
X14636729Y-17839293D01*
X14636729Y-17839293D02*
X14636729Y-17791674D01*
X14636729Y-17791674D02*
X14646253Y-17753579D01*
X14646253Y-17753579D02*
X14655777Y-17734531D01*
X14655777Y-17734531D02*
X14665301Y-17725008D01*
X14665301Y-17725008D02*
X14684348Y-17715484D01*
X14922444Y-17715484D02*
X14884348Y-17715484D01*
X14884348Y-17715484D02*
X14865301Y-17725008D01*
X14865301Y-17725008D02*
X14855777Y-17734531D01*
X14855777Y-17734531D02*
X14836729Y-17763103D01*
X14836729Y-17763103D02*
X14827206Y-17801198D01*
X14827206Y-17801198D02*
X14827206Y-17877389D01*
X14827206Y-17877389D02*
X14836729Y-17896436D01*
X14836729Y-17896436D02*
X14846253Y-17905960D01*
X14846253Y-17905960D02*
X14865301Y-17915484D01*
X14865301Y-17915484D02*
X14903396Y-17915484D01*
X14903396Y-17915484D02*
X14922444Y-17905960D01*
X14922444Y-17905960D02*
X14931967Y-17896436D01*
X14931967Y-17896436D02*
X14941491Y-17877389D01*
X14941491Y-17877389D02*
X14941491Y-17829770D01*
X14941491Y-17829770D02*
X14931967Y-17810722D01*
X14931967Y-17810722D02*
X14922444Y-17801198D01*
X14922444Y-17801198D02*
X14903396Y-17791674D01*
X14903396Y-17791674D02*
X14865301Y-17791674D01*
X14865301Y-17791674D02*
X14846253Y-17801198D01*
X14846253Y-17801198D02*
X14836729Y-17810722D01*
X14836729Y-17810722D02*
X14827206Y-17829770D01*
X15008158Y-17715484D02*
X15131967Y-17715484D01*
X15131967Y-17715484D02*
X15065301Y-17791674D01*
X15065301Y-17791674D02*
X15093872Y-17791674D01*
X15093872Y-17791674D02*
X15112920Y-17801198D01*
X15112920Y-17801198D02*
X15122444Y-17810722D01*
X15122444Y-17810722D02*
X15131967Y-17829770D01*
X15131967Y-17829770D02*
X15131967Y-17877389D01*
X15131967Y-17877389D02*
X15122444Y-17896436D01*
X15122444Y-17896436D02*
X15112920Y-17905960D01*
X15112920Y-17905960D02*
X15093872Y-17915484D01*
X15093872Y-17915484D02*
X15036729Y-17915484D01*
X15036729Y-17915484D02*
X15017682Y-17905960D01*
X15017682Y-17905960D02*
X15008158Y-17896436D01*
X15255777Y-17715484D02*
X15274825Y-17715484D01*
X15274825Y-17715484D02*
X15293872Y-17725008D01*
X15293872Y-17725008D02*
X15303396Y-17734531D01*
X15303396Y-17734531D02*
X15312920Y-17753579D01*
X15312920Y-17753579D02*
X15322444Y-17791674D01*
X15322444Y-17791674D02*
X15322444Y-17839293D01*
X15322444Y-17839293D02*
X15312920Y-17877389D01*
X15312920Y-17877389D02*
X15303396Y-17896436D01*
X15303396Y-17896436D02*
X15293872Y-17905960D01*
X15293872Y-17905960D02*
X15274825Y-17915484D01*
X15274825Y-17915484D02*
X15255777Y-17915484D01*
X15255777Y-17915484D02*
X15236729Y-17905960D01*
X15236729Y-17905960D02*
X15227206Y-17896436D01*
X15227206Y-17896436D02*
X15217682Y-17877389D01*
X15217682Y-17877389D02*
X15208158Y-17839293D01*
X15208158Y-17839293D02*
X15208158Y-17791674D01*
X15208158Y-17791674D02*
X15217682Y-17753579D01*
X15217682Y-17753579D02*
X15227206Y-17734531D01*
X15227206Y-17734531D02*
X15236729Y-17725008D01*
X15236729Y-17725008D02*
X15255777Y-17715484D01*
X15398634Y-17715484D02*
X15398634Y-17753579D01*
X15474825Y-17715484D02*
X15474825Y-17753579D01*
X15770063Y-17991674D02*
X15760539Y-17982150D01*
X15760539Y-17982150D02*
X15741491Y-17953579D01*
X15741491Y-17953579D02*
X15731968Y-17934531D01*
X15731968Y-17934531D02*
X15722444Y-17905960D01*
X15722444Y-17905960D02*
X15712920Y-17858341D01*
X15712920Y-17858341D02*
X15712920Y-17820246D01*
X15712920Y-17820246D02*
X15722444Y-17772627D01*
X15722444Y-17772627D02*
X15731968Y-17744055D01*
X15731968Y-17744055D02*
X15741491Y-17725008D01*
X15741491Y-17725008D02*
X15760539Y-17696436D01*
X15760539Y-17696436D02*
X15770063Y-17686912D01*
X15836729Y-17734531D02*
X15846253Y-17725008D01*
X15846253Y-17725008D02*
X15865301Y-17715484D01*
X15865301Y-17715484D02*
X15912920Y-17715484D01*
X15912920Y-17715484D02*
X15931968Y-17725008D01*
X15931968Y-17725008D02*
X15941491Y-17734531D01*
X15941491Y-17734531D02*
X15951015Y-17753579D01*
X15951015Y-17753579D02*
X15951015Y-17772627D01*
X15951015Y-17772627D02*
X15941491Y-17801198D01*
X15941491Y-17801198D02*
X15827206Y-17915484D01*
X15827206Y-17915484D02*
X15951015Y-17915484D01*
X16122444Y-17782150D02*
X16122444Y-17915484D01*
X16074825Y-17705960D02*
X16027206Y-17848817D01*
X16027206Y-17848817D02*
X16151015Y-17848817D01*
X16379587Y-17915484D02*
X16379587Y-17715484D01*
X16465301Y-17915484D02*
X16465301Y-17810722D01*
X16465301Y-17810722D02*
X16455777Y-17791674D01*
X16455777Y-17791674D02*
X16436730Y-17782150D01*
X16436730Y-17782150D02*
X16408158Y-17782150D01*
X16408158Y-17782150D02*
X16389110Y-17791674D01*
X16389110Y-17791674D02*
X16379587Y-17801198D01*
X16589110Y-17915484D02*
X16570063Y-17905960D01*
X16570063Y-17905960D02*
X16560539Y-17896436D01*
X16560539Y-17896436D02*
X16551015Y-17877389D01*
X16551015Y-17877389D02*
X16551015Y-17820246D01*
X16551015Y-17820246D02*
X16560539Y-17801198D01*
X16560539Y-17801198D02*
X16570063Y-17791674D01*
X16570063Y-17791674D02*
X16589110Y-17782150D01*
X16589110Y-17782150D02*
X16617682Y-17782150D01*
X16617682Y-17782150D02*
X16636730Y-17791674D01*
X16636730Y-17791674D02*
X16646253Y-17801198D01*
X16646253Y-17801198D02*
X16655777Y-17820246D01*
X16655777Y-17820246D02*
X16655777Y-17877389D01*
X16655777Y-17877389D02*
X16646253Y-17896436D01*
X16646253Y-17896436D02*
X16636730Y-17905960D01*
X16636730Y-17905960D02*
X16617682Y-17915484D01*
X16617682Y-17915484D02*
X16589110Y-17915484D01*
X16770063Y-17915484D02*
X16751015Y-17905960D01*
X16751015Y-17905960D02*
X16741491Y-17886912D01*
X16741491Y-17886912D02*
X16741491Y-17715484D01*
X16922444Y-17905960D02*
X16903396Y-17915484D01*
X16903396Y-17915484D02*
X16865301Y-17915484D01*
X16865301Y-17915484D02*
X16846253Y-17905960D01*
X16846253Y-17905960D02*
X16836730Y-17886912D01*
X16836730Y-17886912D02*
X16836730Y-17810722D01*
X16836730Y-17810722D02*
X16846253Y-17791674D01*
X16846253Y-17791674D02*
X16865301Y-17782150D01*
X16865301Y-17782150D02*
X16903396Y-17782150D01*
X16903396Y-17782150D02*
X16922444Y-17791674D01*
X16922444Y-17791674D02*
X16931968Y-17810722D01*
X16931968Y-17810722D02*
X16931968Y-17829770D01*
X16931968Y-17829770D02*
X16836730Y-17848817D01*
X17008158Y-17905960D02*
X17027206Y-17915484D01*
X17027206Y-17915484D02*
X17065301Y-17915484D01*
X17065301Y-17915484D02*
X17084349Y-17905960D01*
X17084349Y-17905960D02*
X17093873Y-17886912D01*
X17093873Y-17886912D02*
X17093873Y-17877389D01*
X17093873Y-17877389D02*
X17084349Y-17858341D01*
X17084349Y-17858341D02*
X17065301Y-17848817D01*
X17065301Y-17848817D02*
X17036730Y-17848817D01*
X17036730Y-17848817D02*
X17017682Y-17839293D01*
X17017682Y-17839293D02*
X17008158Y-17820246D01*
X17008158Y-17820246D02*
X17008158Y-17810722D01*
X17008158Y-17810722D02*
X17017682Y-17791674D01*
X17017682Y-17791674D02*
X17036730Y-17782150D01*
X17036730Y-17782150D02*
X17065301Y-17782150D01*
X17065301Y-17782150D02*
X17084349Y-17791674D01*
X17160539Y-17991674D02*
X17170063Y-17982150D01*
X17170063Y-17982150D02*
X17189111Y-17953579D01*
X17189111Y-17953579D02*
X17198634Y-17934531D01*
X17198634Y-17934531D02*
X17208158Y-17905960D01*
X17208158Y-17905960D02*
X17217682Y-17858341D01*
X17217682Y-17858341D02*
X17217682Y-17820246D01*
X17217682Y-17820246D02*
X17208158Y-17772627D01*
X17208158Y-17772627D02*
X17198634Y-17744055D01*
X17198634Y-17744055D02*
X17189111Y-17725008D01*
X17189111Y-17725008D02*
X17170063Y-17696436D01*
X17170063Y-17696436D02*
X17160539Y-17686912D01*
D15*
X12025000Y-18019000D02*
X12195000Y-18189000D01*
X12195000Y-18019000D02*
X12025000Y-18189000D01*
X12170105Y-18164105D02*
X12170105Y-18043895D01*
X12049895Y-18043895D01*
X12049895Y-18164105D01*
X12170105Y-18164105D01*
D11*
X12560539Y-18195484D02*
X12446253Y-18195484D01*
X12503396Y-18195484D02*
X12503396Y-17995484D01*
X12503396Y-17995484D02*
X12484348Y-18024055D01*
X12484348Y-18024055D02*
X12465301Y-18043103D01*
X12465301Y-18043103D02*
X12446253Y-18052627D01*
X12646253Y-18176436D02*
X12655777Y-18185960D01*
X12655777Y-18185960D02*
X12646253Y-18195484D01*
X12646253Y-18195484D02*
X12636729Y-18185960D01*
X12636729Y-18185960D02*
X12646253Y-18176436D01*
X12646253Y-18176436D02*
X12646253Y-18195484D01*
X12722443Y-17995484D02*
X12855777Y-17995484D01*
X12855777Y-17995484D02*
X12770062Y-18195484D01*
X12970062Y-17995484D02*
X12989110Y-17995484D01*
X12989110Y-17995484D02*
X13008158Y-18005008D01*
X13008158Y-18005008D02*
X13017682Y-18014531D01*
X13017682Y-18014531D02*
X13027205Y-18033579D01*
X13027205Y-18033579D02*
X13036729Y-18071674D01*
X13036729Y-18071674D02*
X13036729Y-18119293D01*
X13036729Y-18119293D02*
X13027205Y-18157389D01*
X13027205Y-18157389D02*
X13017682Y-18176436D01*
X13017682Y-18176436D02*
X13008158Y-18185960D01*
X13008158Y-18185960D02*
X12989110Y-18195484D01*
X12989110Y-18195484D02*
X12970062Y-18195484D01*
X12970062Y-18195484D02*
X12951015Y-18185960D01*
X12951015Y-18185960D02*
X12941491Y-18176436D01*
X12941491Y-18176436D02*
X12931967Y-18157389D01*
X12931967Y-18157389D02*
X12922443Y-18119293D01*
X12922443Y-18119293D02*
X12922443Y-18071674D01*
X12922443Y-18071674D02*
X12931967Y-18033579D01*
X12931967Y-18033579D02*
X12941491Y-18014531D01*
X12941491Y-18014531D02*
X12951015Y-18005008D01*
X12951015Y-18005008D02*
X12970062Y-17995484D01*
X13160539Y-17995484D02*
X13179586Y-17995484D01*
X13179586Y-17995484D02*
X13198634Y-18005008D01*
X13198634Y-18005008D02*
X13208158Y-18014531D01*
X13208158Y-18014531D02*
X13217682Y-18033579D01*
X13217682Y-18033579D02*
X13227205Y-18071674D01*
X13227205Y-18071674D02*
X13227205Y-18119293D01*
X13227205Y-18119293D02*
X13217682Y-18157389D01*
X13217682Y-18157389D02*
X13208158Y-18176436D01*
X13208158Y-18176436D02*
X13198634Y-18185960D01*
X13198634Y-18185960D02*
X13179586Y-18195484D01*
X13179586Y-18195484D02*
X13160539Y-18195484D01*
X13160539Y-18195484D02*
X13141491Y-18185960D01*
X13141491Y-18185960D02*
X13131967Y-18176436D01*
X13131967Y-18176436D02*
X13122443Y-18157389D01*
X13122443Y-18157389D02*
X13112920Y-18119293D01*
X13112920Y-18119293D02*
X13112920Y-18071674D01*
X13112920Y-18071674D02*
X13122443Y-18033579D01*
X13122443Y-18033579D02*
X13131967Y-18014531D01*
X13131967Y-18014531D02*
X13141491Y-18005008D01*
X13141491Y-18005008D02*
X13160539Y-17995484D01*
X13312920Y-18195484D02*
X13312920Y-18062150D01*
X13312920Y-18081198D02*
X13322443Y-18071674D01*
X13322443Y-18071674D02*
X13341491Y-18062150D01*
X13341491Y-18062150D02*
X13370063Y-18062150D01*
X13370063Y-18062150D02*
X13389110Y-18071674D01*
X13389110Y-18071674D02*
X13398634Y-18090722D01*
X13398634Y-18090722D02*
X13398634Y-18195484D01*
X13398634Y-18090722D02*
X13408158Y-18071674D01*
X13408158Y-18071674D02*
X13427205Y-18062150D01*
X13427205Y-18062150D02*
X13455777Y-18062150D01*
X13455777Y-18062150D02*
X13474824Y-18071674D01*
X13474824Y-18071674D02*
X13484348Y-18090722D01*
X13484348Y-18090722D02*
X13484348Y-18195484D01*
X13579586Y-18195484D02*
X13579586Y-18062150D01*
X13579586Y-18081198D02*
X13589110Y-18071674D01*
X13589110Y-18071674D02*
X13608158Y-18062150D01*
X13608158Y-18062150D02*
X13636729Y-18062150D01*
X13636729Y-18062150D02*
X13655777Y-18071674D01*
X13655777Y-18071674D02*
X13665301Y-18090722D01*
X13665301Y-18090722D02*
X13665301Y-18195484D01*
X13665301Y-18090722D02*
X13674824Y-18071674D01*
X13674824Y-18071674D02*
X13693872Y-18062150D01*
X13693872Y-18062150D02*
X13722443Y-18062150D01*
X13722443Y-18062150D02*
X13741491Y-18071674D01*
X13741491Y-18071674D02*
X13751015Y-18090722D01*
X13751015Y-18090722D02*
X13751015Y-18195484D01*
X14141491Y-17985960D02*
X13970063Y-18243103D01*
X14398634Y-17995484D02*
X14417682Y-17995484D01*
X14417682Y-17995484D02*
X14436729Y-18005008D01*
X14436729Y-18005008D02*
X14446253Y-18014531D01*
X14446253Y-18014531D02*
X14455777Y-18033579D01*
X14455777Y-18033579D02*
X14465301Y-18071674D01*
X14465301Y-18071674D02*
X14465301Y-18119293D01*
X14465301Y-18119293D02*
X14455777Y-18157389D01*
X14455777Y-18157389D02*
X14446253Y-18176436D01*
X14446253Y-18176436D02*
X14436729Y-18185960D01*
X14436729Y-18185960D02*
X14417682Y-18195484D01*
X14417682Y-18195484D02*
X14398634Y-18195484D01*
X14398634Y-18195484D02*
X14379586Y-18185960D01*
X14379586Y-18185960D02*
X14370063Y-18176436D01*
X14370063Y-18176436D02*
X14360539Y-18157389D01*
X14360539Y-18157389D02*
X14351015Y-18119293D01*
X14351015Y-18119293D02*
X14351015Y-18071674D01*
X14351015Y-18071674D02*
X14360539Y-18033579D01*
X14360539Y-18033579D02*
X14370063Y-18014531D01*
X14370063Y-18014531D02*
X14379586Y-18005008D01*
X14379586Y-18005008D02*
X14398634Y-17995484D01*
X14551015Y-18176436D02*
X14560539Y-18185960D01*
X14560539Y-18185960D02*
X14551015Y-18195484D01*
X14551015Y-18195484D02*
X14541491Y-18185960D01*
X14541491Y-18185960D02*
X14551015Y-18176436D01*
X14551015Y-18176436D02*
X14551015Y-18195484D01*
X14684348Y-17995484D02*
X14703396Y-17995484D01*
X14703396Y-17995484D02*
X14722444Y-18005008D01*
X14722444Y-18005008D02*
X14731967Y-18014531D01*
X14731967Y-18014531D02*
X14741491Y-18033579D01*
X14741491Y-18033579D02*
X14751015Y-18071674D01*
X14751015Y-18071674D02*
X14751015Y-18119293D01*
X14751015Y-18119293D02*
X14741491Y-18157389D01*
X14741491Y-18157389D02*
X14731967Y-18176436D01*
X14731967Y-18176436D02*
X14722444Y-18185960D01*
X14722444Y-18185960D02*
X14703396Y-18195484D01*
X14703396Y-18195484D02*
X14684348Y-18195484D01*
X14684348Y-18195484D02*
X14665301Y-18185960D01*
X14665301Y-18185960D02*
X14655777Y-18176436D01*
X14655777Y-18176436D02*
X14646253Y-18157389D01*
X14646253Y-18157389D02*
X14636729Y-18119293D01*
X14636729Y-18119293D02*
X14636729Y-18071674D01*
X14636729Y-18071674D02*
X14646253Y-18033579D01*
X14646253Y-18033579D02*
X14655777Y-18014531D01*
X14655777Y-18014531D02*
X14665301Y-18005008D01*
X14665301Y-18005008D02*
X14684348Y-17995484D01*
X14922444Y-17995484D02*
X14884348Y-17995484D01*
X14884348Y-17995484D02*
X14865301Y-18005008D01*
X14865301Y-18005008D02*
X14855777Y-18014531D01*
X14855777Y-18014531D02*
X14836729Y-18043103D01*
X14836729Y-18043103D02*
X14827206Y-18081198D01*
X14827206Y-18081198D02*
X14827206Y-18157389D01*
X14827206Y-18157389D02*
X14836729Y-18176436D01*
X14836729Y-18176436D02*
X14846253Y-18185960D01*
X14846253Y-18185960D02*
X14865301Y-18195484D01*
X14865301Y-18195484D02*
X14903396Y-18195484D01*
X14903396Y-18195484D02*
X14922444Y-18185960D01*
X14922444Y-18185960D02*
X14931967Y-18176436D01*
X14931967Y-18176436D02*
X14941491Y-18157389D01*
X14941491Y-18157389D02*
X14941491Y-18109770D01*
X14941491Y-18109770D02*
X14931967Y-18090722D01*
X14931967Y-18090722D02*
X14922444Y-18081198D01*
X14922444Y-18081198D02*
X14903396Y-18071674D01*
X14903396Y-18071674D02*
X14865301Y-18071674D01*
X14865301Y-18071674D02*
X14846253Y-18081198D01*
X14846253Y-18081198D02*
X14836729Y-18090722D01*
X14836729Y-18090722D02*
X14827206Y-18109770D01*
X15112920Y-17995484D02*
X15074825Y-17995484D01*
X15074825Y-17995484D02*
X15055777Y-18005008D01*
X15055777Y-18005008D02*
X15046253Y-18014531D01*
X15046253Y-18014531D02*
X15027206Y-18043103D01*
X15027206Y-18043103D02*
X15017682Y-18081198D01*
X15017682Y-18081198D02*
X15017682Y-18157389D01*
X15017682Y-18157389D02*
X15027206Y-18176436D01*
X15027206Y-18176436D02*
X15036729Y-18185960D01*
X15036729Y-18185960D02*
X15055777Y-18195484D01*
X15055777Y-18195484D02*
X15093872Y-18195484D01*
X15093872Y-18195484D02*
X15112920Y-18185960D01*
X15112920Y-18185960D02*
X15122444Y-18176436D01*
X15122444Y-18176436D02*
X15131967Y-18157389D01*
X15131967Y-18157389D02*
X15131967Y-18109770D01*
X15131967Y-18109770D02*
X15122444Y-18090722D01*
X15122444Y-18090722D02*
X15112920Y-18081198D01*
X15112920Y-18081198D02*
X15093872Y-18071674D01*
X15093872Y-18071674D02*
X15055777Y-18071674D01*
X15055777Y-18071674D02*
X15036729Y-18081198D01*
X15036729Y-18081198D02*
X15027206Y-18090722D01*
X15027206Y-18090722D02*
X15017682Y-18109770D01*
X15227206Y-18195484D02*
X15265301Y-18195484D01*
X15265301Y-18195484D02*
X15284348Y-18185960D01*
X15284348Y-18185960D02*
X15293872Y-18176436D01*
X15293872Y-18176436D02*
X15312920Y-18147865D01*
X15312920Y-18147865D02*
X15322444Y-18109770D01*
X15322444Y-18109770D02*
X15322444Y-18033579D01*
X15322444Y-18033579D02*
X15312920Y-18014531D01*
X15312920Y-18014531D02*
X15303396Y-18005008D01*
X15303396Y-18005008D02*
X15284348Y-17995484D01*
X15284348Y-17995484D02*
X15246253Y-17995484D01*
X15246253Y-17995484D02*
X15227206Y-18005008D01*
X15227206Y-18005008D02*
X15217682Y-18014531D01*
X15217682Y-18014531D02*
X15208158Y-18033579D01*
X15208158Y-18033579D02*
X15208158Y-18081198D01*
X15208158Y-18081198D02*
X15217682Y-18100246D01*
X15217682Y-18100246D02*
X15227206Y-18109770D01*
X15227206Y-18109770D02*
X15246253Y-18119293D01*
X15246253Y-18119293D02*
X15284348Y-18119293D01*
X15284348Y-18119293D02*
X15303396Y-18109770D01*
X15303396Y-18109770D02*
X15312920Y-18100246D01*
X15312920Y-18100246D02*
X15322444Y-18081198D01*
X15398634Y-17995484D02*
X15398634Y-18033579D01*
X15474825Y-17995484D02*
X15474825Y-18033579D01*
X15770063Y-18271674D02*
X15760539Y-18262150D01*
X15760539Y-18262150D02*
X15741491Y-18233579D01*
X15741491Y-18233579D02*
X15731968Y-18214531D01*
X15731968Y-18214531D02*
X15722444Y-18185960D01*
X15722444Y-18185960D02*
X15712920Y-18138341D01*
X15712920Y-18138341D02*
X15712920Y-18100246D01*
X15712920Y-18100246D02*
X15722444Y-18052627D01*
X15722444Y-18052627D02*
X15731968Y-18024055D01*
X15731968Y-18024055D02*
X15741491Y-18005008D01*
X15741491Y-18005008D02*
X15760539Y-17976436D01*
X15760539Y-17976436D02*
X15770063Y-17966912D01*
X15941491Y-17995484D02*
X15846253Y-17995484D01*
X15846253Y-17995484D02*
X15836729Y-18090722D01*
X15836729Y-18090722D02*
X15846253Y-18081198D01*
X15846253Y-18081198D02*
X15865301Y-18071674D01*
X15865301Y-18071674D02*
X15912920Y-18071674D01*
X15912920Y-18071674D02*
X15931968Y-18081198D01*
X15931968Y-18081198D02*
X15941491Y-18090722D01*
X15941491Y-18090722D02*
X15951015Y-18109770D01*
X15951015Y-18109770D02*
X15951015Y-18157389D01*
X15951015Y-18157389D02*
X15941491Y-18176436D01*
X15941491Y-18176436D02*
X15931968Y-18185960D01*
X15931968Y-18185960D02*
X15912920Y-18195484D01*
X15912920Y-18195484D02*
X15865301Y-18195484D01*
X15865301Y-18195484D02*
X15846253Y-18185960D01*
X15846253Y-18185960D02*
X15836729Y-18176436D01*
X16189110Y-18195484D02*
X16189110Y-17995484D01*
X16274825Y-18195484D02*
X16274825Y-18090722D01*
X16274825Y-18090722D02*
X16265301Y-18071674D01*
X16265301Y-18071674D02*
X16246253Y-18062150D01*
X16246253Y-18062150D02*
X16217682Y-18062150D01*
X16217682Y-18062150D02*
X16198634Y-18071674D01*
X16198634Y-18071674D02*
X16189110Y-18081198D01*
X16398634Y-18195484D02*
X16379587Y-18185960D01*
X16379587Y-18185960D02*
X16370063Y-18176436D01*
X16370063Y-18176436D02*
X16360539Y-18157389D01*
X16360539Y-18157389D02*
X16360539Y-18100246D01*
X16360539Y-18100246D02*
X16370063Y-18081198D01*
X16370063Y-18081198D02*
X16379587Y-18071674D01*
X16379587Y-18071674D02*
X16398634Y-18062150D01*
X16398634Y-18062150D02*
X16427206Y-18062150D01*
X16427206Y-18062150D02*
X16446253Y-18071674D01*
X16446253Y-18071674D02*
X16455777Y-18081198D01*
X16455777Y-18081198D02*
X16465301Y-18100246D01*
X16465301Y-18100246D02*
X16465301Y-18157389D01*
X16465301Y-18157389D02*
X16455777Y-18176436D01*
X16455777Y-18176436D02*
X16446253Y-18185960D01*
X16446253Y-18185960D02*
X16427206Y-18195484D01*
X16427206Y-18195484D02*
X16398634Y-18195484D01*
X16579587Y-18195484D02*
X16560539Y-18185960D01*
X16560539Y-18185960D02*
X16551015Y-18166912D01*
X16551015Y-18166912D02*
X16551015Y-17995484D01*
X16731968Y-18185960D02*
X16712920Y-18195484D01*
X16712920Y-18195484D02*
X16674825Y-18195484D01*
X16674825Y-18195484D02*
X16655777Y-18185960D01*
X16655777Y-18185960D02*
X16646253Y-18166912D01*
X16646253Y-18166912D02*
X16646253Y-18090722D01*
X16646253Y-18090722D02*
X16655777Y-18071674D01*
X16655777Y-18071674D02*
X16674825Y-18062150D01*
X16674825Y-18062150D02*
X16712920Y-18062150D01*
X16712920Y-18062150D02*
X16731968Y-18071674D01*
X16731968Y-18071674D02*
X16741491Y-18090722D01*
X16741491Y-18090722D02*
X16741491Y-18109770D01*
X16741491Y-18109770D02*
X16646253Y-18128817D01*
X16817682Y-18185960D02*
X16836730Y-18195484D01*
X16836730Y-18195484D02*
X16874825Y-18195484D01*
X16874825Y-18195484D02*
X16893873Y-18185960D01*
X16893873Y-18185960D02*
X16903396Y-18166912D01*
X16903396Y-18166912D02*
X16903396Y-18157389D01*
X16903396Y-18157389D02*
X16893873Y-18138341D01*
X16893873Y-18138341D02*
X16874825Y-18128817D01*
X16874825Y-18128817D02*
X16846253Y-18128817D01*
X16846253Y-18128817D02*
X16827206Y-18119293D01*
X16827206Y-18119293D02*
X16817682Y-18100246D01*
X16817682Y-18100246D02*
X16817682Y-18090722D01*
X16817682Y-18090722D02*
X16827206Y-18071674D01*
X16827206Y-18071674D02*
X16846253Y-18062150D01*
X16846253Y-18062150D02*
X16874825Y-18062150D01*
X16874825Y-18062150D02*
X16893873Y-18071674D01*
X16970063Y-18271674D02*
X16979587Y-18262150D01*
X16979587Y-18262150D02*
X16998634Y-18233579D01*
X16998634Y-18233579D02*
X17008158Y-18214531D01*
X17008158Y-18214531D02*
X17017682Y-18185960D01*
X17017682Y-18185960D02*
X17027206Y-18138341D01*
X17027206Y-18138341D02*
X17027206Y-18100246D01*
X17027206Y-18100246D02*
X17017682Y-18052627D01*
X17017682Y-18052627D02*
X17008158Y-18024055D01*
X17008158Y-18024055D02*
X16998634Y-18005008D01*
X16998634Y-18005008D02*
X16979587Y-17976436D01*
X16979587Y-17976436D02*
X16970063Y-17966912D01*
X11995000Y-18294000D02*
X12195000Y-18494000D01*
X12195000Y-18294000D02*
X11995000Y-18494000D01*
X12095000Y-18494000D02*
X12195000Y-18394000D01*
X12095000Y-18294000D01*
X11995000Y-18394000D01*
X12095000Y-18494000D01*
X12446253Y-18304531D02*
X12455777Y-18295008D01*
X12455777Y-18295008D02*
X12474824Y-18285484D01*
X12474824Y-18285484D02*
X12522443Y-18285484D01*
X12522443Y-18285484D02*
X12541491Y-18295008D01*
X12541491Y-18295008D02*
X12551015Y-18304531D01*
X12551015Y-18304531D02*
X12560539Y-18323579D01*
X12560539Y-18323579D02*
X12560539Y-18342627D01*
X12560539Y-18342627D02*
X12551015Y-18371198D01*
X12551015Y-18371198D02*
X12436729Y-18485484D01*
X12436729Y-18485484D02*
X12560539Y-18485484D01*
X12646253Y-18466436D02*
X12655777Y-18475960D01*
X12655777Y-18475960D02*
X12646253Y-18485484D01*
X12646253Y-18485484D02*
X12636729Y-18475960D01*
X12636729Y-18475960D02*
X12646253Y-18466436D01*
X12646253Y-18466436D02*
X12646253Y-18485484D01*
X12836729Y-18285484D02*
X12741491Y-18285484D01*
X12741491Y-18285484D02*
X12731967Y-18380722D01*
X12731967Y-18380722D02*
X12741491Y-18371198D01*
X12741491Y-18371198D02*
X12760539Y-18361674D01*
X12760539Y-18361674D02*
X12808158Y-18361674D01*
X12808158Y-18361674D02*
X12827205Y-18371198D01*
X12827205Y-18371198D02*
X12836729Y-18380722D01*
X12836729Y-18380722D02*
X12846253Y-18399770D01*
X12846253Y-18399770D02*
X12846253Y-18447389D01*
X12846253Y-18447389D02*
X12836729Y-18466436D01*
X12836729Y-18466436D02*
X12827205Y-18475960D01*
X12827205Y-18475960D02*
X12808158Y-18485484D01*
X12808158Y-18485484D02*
X12760539Y-18485484D01*
X12760539Y-18485484D02*
X12741491Y-18475960D01*
X12741491Y-18475960D02*
X12731967Y-18466436D01*
X12970062Y-18285484D02*
X12989110Y-18285484D01*
X12989110Y-18285484D02*
X13008158Y-18295008D01*
X13008158Y-18295008D02*
X13017682Y-18304531D01*
X13017682Y-18304531D02*
X13027205Y-18323579D01*
X13027205Y-18323579D02*
X13036729Y-18361674D01*
X13036729Y-18361674D02*
X13036729Y-18409293D01*
X13036729Y-18409293D02*
X13027205Y-18447389D01*
X13027205Y-18447389D02*
X13017682Y-18466436D01*
X13017682Y-18466436D02*
X13008158Y-18475960D01*
X13008158Y-18475960D02*
X12989110Y-18485484D01*
X12989110Y-18485484D02*
X12970062Y-18485484D01*
X12970062Y-18485484D02*
X12951015Y-18475960D01*
X12951015Y-18475960D02*
X12941491Y-18466436D01*
X12941491Y-18466436D02*
X12931967Y-18447389D01*
X12931967Y-18447389D02*
X12922443Y-18409293D01*
X12922443Y-18409293D02*
X12922443Y-18361674D01*
X12922443Y-18361674D02*
X12931967Y-18323579D01*
X12931967Y-18323579D02*
X12941491Y-18304531D01*
X12941491Y-18304531D02*
X12951015Y-18295008D01*
X12951015Y-18295008D02*
X12970062Y-18285484D01*
X13160539Y-18285484D02*
X13179586Y-18285484D01*
X13179586Y-18285484D02*
X13198634Y-18295008D01*
X13198634Y-18295008D02*
X13208158Y-18304531D01*
X13208158Y-18304531D02*
X13217682Y-18323579D01*
X13217682Y-18323579D02*
X13227205Y-18361674D01*
X13227205Y-18361674D02*
X13227205Y-18409293D01*
X13227205Y-18409293D02*
X13217682Y-18447389D01*
X13217682Y-18447389D02*
X13208158Y-18466436D01*
X13208158Y-18466436D02*
X13198634Y-18475960D01*
X13198634Y-18475960D02*
X13179586Y-18485484D01*
X13179586Y-18485484D02*
X13160539Y-18485484D01*
X13160539Y-18485484D02*
X13141491Y-18475960D01*
X13141491Y-18475960D02*
X13131967Y-18466436D01*
X13131967Y-18466436D02*
X13122443Y-18447389D01*
X13122443Y-18447389D02*
X13112920Y-18409293D01*
X13112920Y-18409293D02*
X13112920Y-18361674D01*
X13112920Y-18361674D02*
X13122443Y-18323579D01*
X13122443Y-18323579D02*
X13131967Y-18304531D01*
X13131967Y-18304531D02*
X13141491Y-18295008D01*
X13141491Y-18295008D02*
X13160539Y-18285484D01*
X13312920Y-18485484D02*
X13312920Y-18352150D01*
X13312920Y-18371198D02*
X13322443Y-18361674D01*
X13322443Y-18361674D02*
X13341491Y-18352150D01*
X13341491Y-18352150D02*
X13370063Y-18352150D01*
X13370063Y-18352150D02*
X13389110Y-18361674D01*
X13389110Y-18361674D02*
X13398634Y-18380722D01*
X13398634Y-18380722D02*
X13398634Y-18485484D01*
X13398634Y-18380722D02*
X13408158Y-18361674D01*
X13408158Y-18361674D02*
X13427205Y-18352150D01*
X13427205Y-18352150D02*
X13455777Y-18352150D01*
X13455777Y-18352150D02*
X13474824Y-18361674D01*
X13474824Y-18361674D02*
X13484348Y-18380722D01*
X13484348Y-18380722D02*
X13484348Y-18485484D01*
X13579586Y-18485484D02*
X13579586Y-18352150D01*
X13579586Y-18371198D02*
X13589110Y-18361674D01*
X13589110Y-18361674D02*
X13608158Y-18352150D01*
X13608158Y-18352150D02*
X13636729Y-18352150D01*
X13636729Y-18352150D02*
X13655777Y-18361674D01*
X13655777Y-18361674D02*
X13665301Y-18380722D01*
X13665301Y-18380722D02*
X13665301Y-18485484D01*
X13665301Y-18380722D02*
X13674824Y-18361674D01*
X13674824Y-18361674D02*
X13693872Y-18352150D01*
X13693872Y-18352150D02*
X13722443Y-18352150D01*
X13722443Y-18352150D02*
X13741491Y-18361674D01*
X13741491Y-18361674D02*
X13751015Y-18380722D01*
X13751015Y-18380722D02*
X13751015Y-18485484D01*
X14141491Y-18275960D02*
X13970063Y-18533103D01*
X14398634Y-18285484D02*
X14417682Y-18285484D01*
X14417682Y-18285484D02*
X14436729Y-18295008D01*
X14436729Y-18295008D02*
X14446253Y-18304531D01*
X14446253Y-18304531D02*
X14455777Y-18323579D01*
X14455777Y-18323579D02*
X14465301Y-18361674D01*
X14465301Y-18361674D02*
X14465301Y-18409293D01*
X14465301Y-18409293D02*
X14455777Y-18447389D01*
X14455777Y-18447389D02*
X14446253Y-18466436D01*
X14446253Y-18466436D02*
X14436729Y-18475960D01*
X14436729Y-18475960D02*
X14417682Y-18485484D01*
X14417682Y-18485484D02*
X14398634Y-18485484D01*
X14398634Y-18485484D02*
X14379586Y-18475960D01*
X14379586Y-18475960D02*
X14370063Y-18466436D01*
X14370063Y-18466436D02*
X14360539Y-18447389D01*
X14360539Y-18447389D02*
X14351015Y-18409293D01*
X14351015Y-18409293D02*
X14351015Y-18361674D01*
X14351015Y-18361674D02*
X14360539Y-18323579D01*
X14360539Y-18323579D02*
X14370063Y-18304531D01*
X14370063Y-18304531D02*
X14379586Y-18295008D01*
X14379586Y-18295008D02*
X14398634Y-18285484D01*
X14551015Y-18466436D02*
X14560539Y-18475960D01*
X14560539Y-18475960D02*
X14551015Y-18485484D01*
X14551015Y-18485484D02*
X14541491Y-18475960D01*
X14541491Y-18475960D02*
X14551015Y-18466436D01*
X14551015Y-18466436D02*
X14551015Y-18485484D01*
X14684348Y-18285484D02*
X14703396Y-18285484D01*
X14703396Y-18285484D02*
X14722444Y-18295008D01*
X14722444Y-18295008D02*
X14731967Y-18304531D01*
X14731967Y-18304531D02*
X14741491Y-18323579D01*
X14741491Y-18323579D02*
X14751015Y-18361674D01*
X14751015Y-18361674D02*
X14751015Y-18409293D01*
X14751015Y-18409293D02*
X14741491Y-18447389D01*
X14741491Y-18447389D02*
X14731967Y-18466436D01*
X14731967Y-18466436D02*
X14722444Y-18475960D01*
X14722444Y-18475960D02*
X14703396Y-18485484D01*
X14703396Y-18485484D02*
X14684348Y-18485484D01*
X14684348Y-18485484D02*
X14665301Y-18475960D01*
X14665301Y-18475960D02*
X14655777Y-18466436D01*
X14655777Y-18466436D02*
X14646253Y-18447389D01*
X14646253Y-18447389D02*
X14636729Y-18409293D01*
X14636729Y-18409293D02*
X14636729Y-18361674D01*
X14636729Y-18361674D02*
X14646253Y-18323579D01*
X14646253Y-18323579D02*
X14655777Y-18304531D01*
X14655777Y-18304531D02*
X14665301Y-18295008D01*
X14665301Y-18295008D02*
X14684348Y-18285484D01*
X14846253Y-18485484D02*
X14884348Y-18485484D01*
X14884348Y-18485484D02*
X14903396Y-18475960D01*
X14903396Y-18475960D02*
X14912920Y-18466436D01*
X14912920Y-18466436D02*
X14931967Y-18437865D01*
X14931967Y-18437865D02*
X14941491Y-18399770D01*
X14941491Y-18399770D02*
X14941491Y-18323579D01*
X14941491Y-18323579D02*
X14931967Y-18304531D01*
X14931967Y-18304531D02*
X14922444Y-18295008D01*
X14922444Y-18295008D02*
X14903396Y-18285484D01*
X14903396Y-18285484D02*
X14865301Y-18285484D01*
X14865301Y-18285484D02*
X14846253Y-18295008D01*
X14846253Y-18295008D02*
X14836729Y-18304531D01*
X14836729Y-18304531D02*
X14827206Y-18323579D01*
X14827206Y-18323579D02*
X14827206Y-18371198D01*
X14827206Y-18371198D02*
X14836729Y-18390246D01*
X14836729Y-18390246D02*
X14846253Y-18399770D01*
X14846253Y-18399770D02*
X14865301Y-18409293D01*
X14865301Y-18409293D02*
X14903396Y-18409293D01*
X14903396Y-18409293D02*
X14922444Y-18399770D01*
X14922444Y-18399770D02*
X14931967Y-18390246D01*
X14931967Y-18390246D02*
X14941491Y-18371198D01*
X15055777Y-18371198D02*
X15036729Y-18361674D01*
X15036729Y-18361674D02*
X15027206Y-18352150D01*
X15027206Y-18352150D02*
X15017682Y-18333103D01*
X15017682Y-18333103D02*
X15017682Y-18323579D01*
X15017682Y-18323579D02*
X15027206Y-18304531D01*
X15027206Y-18304531D02*
X15036729Y-18295008D01*
X15036729Y-18295008D02*
X15055777Y-18285484D01*
X15055777Y-18285484D02*
X15093872Y-18285484D01*
X15093872Y-18285484D02*
X15112920Y-18295008D01*
X15112920Y-18295008D02*
X15122444Y-18304531D01*
X15122444Y-18304531D02*
X15131967Y-18323579D01*
X15131967Y-18323579D02*
X15131967Y-18333103D01*
X15131967Y-18333103D02*
X15122444Y-18352150D01*
X15122444Y-18352150D02*
X15112920Y-18361674D01*
X15112920Y-18361674D02*
X15093872Y-18371198D01*
X15093872Y-18371198D02*
X15055777Y-18371198D01*
X15055777Y-18371198D02*
X15036729Y-18380722D01*
X15036729Y-18380722D02*
X15027206Y-18390246D01*
X15027206Y-18390246D02*
X15017682Y-18409293D01*
X15017682Y-18409293D02*
X15017682Y-18447389D01*
X15017682Y-18447389D02*
X15027206Y-18466436D01*
X15027206Y-18466436D02*
X15036729Y-18475960D01*
X15036729Y-18475960D02*
X15055777Y-18485484D01*
X15055777Y-18485484D02*
X15093872Y-18485484D01*
X15093872Y-18485484D02*
X15112920Y-18475960D01*
X15112920Y-18475960D02*
X15122444Y-18466436D01*
X15122444Y-18466436D02*
X15131967Y-18447389D01*
X15131967Y-18447389D02*
X15131967Y-18409293D01*
X15131967Y-18409293D02*
X15122444Y-18390246D01*
X15122444Y-18390246D02*
X15112920Y-18380722D01*
X15112920Y-18380722D02*
X15093872Y-18371198D01*
X15303396Y-18352150D02*
X15303396Y-18485484D01*
X15255777Y-18275960D02*
X15208158Y-18418817D01*
X15208158Y-18418817D02*
X15331967Y-18418817D01*
X15398634Y-18285484D02*
X15398634Y-18323579D01*
X15474825Y-18285484D02*
X15474825Y-18323579D01*
X15770063Y-18561674D02*
X15760539Y-18552150D01*
X15760539Y-18552150D02*
X15741491Y-18523579D01*
X15741491Y-18523579D02*
X15731968Y-18504531D01*
X15731968Y-18504531D02*
X15722444Y-18475960D01*
X15722444Y-18475960D02*
X15712920Y-18428341D01*
X15712920Y-18428341D02*
X15712920Y-18390246D01*
X15712920Y-18390246D02*
X15722444Y-18342627D01*
X15722444Y-18342627D02*
X15731968Y-18314055D01*
X15731968Y-18314055D02*
X15741491Y-18295008D01*
X15741491Y-18295008D02*
X15760539Y-18266436D01*
X15760539Y-18266436D02*
X15770063Y-18256912D01*
X15951015Y-18485484D02*
X15836729Y-18485484D01*
X15893872Y-18485484D02*
X15893872Y-18285484D01*
X15893872Y-18285484D02*
X15874825Y-18314055D01*
X15874825Y-18314055D02*
X15855777Y-18333103D01*
X15855777Y-18333103D02*
X15836729Y-18342627D01*
X16027206Y-18304531D02*
X16036729Y-18295008D01*
X16036729Y-18295008D02*
X16055777Y-18285484D01*
X16055777Y-18285484D02*
X16103396Y-18285484D01*
X16103396Y-18285484D02*
X16122444Y-18295008D01*
X16122444Y-18295008D02*
X16131968Y-18304531D01*
X16131968Y-18304531D02*
X16141491Y-18323579D01*
X16141491Y-18323579D02*
X16141491Y-18342627D01*
X16141491Y-18342627D02*
X16131968Y-18371198D01*
X16131968Y-18371198D02*
X16017682Y-18485484D01*
X16017682Y-18485484D02*
X16141491Y-18485484D01*
X16379587Y-18485484D02*
X16379587Y-18285484D01*
X16465301Y-18485484D02*
X16465301Y-18380722D01*
X16465301Y-18380722D02*
X16455777Y-18361674D01*
X16455777Y-18361674D02*
X16436730Y-18352150D01*
X16436730Y-18352150D02*
X16408158Y-18352150D01*
X16408158Y-18352150D02*
X16389110Y-18361674D01*
X16389110Y-18361674D02*
X16379587Y-18371198D01*
X16589110Y-18485484D02*
X16570063Y-18475960D01*
X16570063Y-18475960D02*
X16560539Y-18466436D01*
X16560539Y-18466436D02*
X16551015Y-18447389D01*
X16551015Y-18447389D02*
X16551015Y-18390246D01*
X16551015Y-18390246D02*
X16560539Y-18371198D01*
X16560539Y-18371198D02*
X16570063Y-18361674D01*
X16570063Y-18361674D02*
X16589110Y-18352150D01*
X16589110Y-18352150D02*
X16617682Y-18352150D01*
X16617682Y-18352150D02*
X16636730Y-18361674D01*
X16636730Y-18361674D02*
X16646253Y-18371198D01*
X16646253Y-18371198D02*
X16655777Y-18390246D01*
X16655777Y-18390246D02*
X16655777Y-18447389D01*
X16655777Y-18447389D02*
X16646253Y-18466436D01*
X16646253Y-18466436D02*
X16636730Y-18475960D01*
X16636730Y-18475960D02*
X16617682Y-18485484D01*
X16617682Y-18485484D02*
X16589110Y-18485484D01*
X16770063Y-18485484D02*
X16751015Y-18475960D01*
X16751015Y-18475960D02*
X16741491Y-18456912D01*
X16741491Y-18456912D02*
X16741491Y-18285484D01*
X16922444Y-18475960D02*
X16903396Y-18485484D01*
X16903396Y-18485484D02*
X16865301Y-18485484D01*
X16865301Y-18485484D02*
X16846253Y-18475960D01*
X16846253Y-18475960D02*
X16836730Y-18456912D01*
X16836730Y-18456912D02*
X16836730Y-18380722D01*
X16836730Y-18380722D02*
X16846253Y-18361674D01*
X16846253Y-18361674D02*
X16865301Y-18352150D01*
X16865301Y-18352150D02*
X16903396Y-18352150D01*
X16903396Y-18352150D02*
X16922444Y-18361674D01*
X16922444Y-18361674D02*
X16931968Y-18380722D01*
X16931968Y-18380722D02*
X16931968Y-18399770D01*
X16931968Y-18399770D02*
X16836730Y-18418817D01*
X17008158Y-18475960D02*
X17027206Y-18485484D01*
X17027206Y-18485484D02*
X17065301Y-18485484D01*
X17065301Y-18485484D02*
X17084349Y-18475960D01*
X17084349Y-18475960D02*
X17093873Y-18456912D01*
X17093873Y-18456912D02*
X17093873Y-18447389D01*
X17093873Y-18447389D02*
X17084349Y-18428341D01*
X17084349Y-18428341D02*
X17065301Y-18418817D01*
X17065301Y-18418817D02*
X17036730Y-18418817D01*
X17036730Y-18418817D02*
X17017682Y-18409293D01*
X17017682Y-18409293D02*
X17008158Y-18390246D01*
X17008158Y-18390246D02*
X17008158Y-18380722D01*
X17008158Y-18380722D02*
X17017682Y-18361674D01*
X17017682Y-18361674D02*
X17036730Y-18352150D01*
X17036730Y-18352150D02*
X17065301Y-18352150D01*
X17065301Y-18352150D02*
X17084349Y-18361674D01*
X17160539Y-18561674D02*
X17170063Y-18552150D01*
X17170063Y-18552150D02*
X17189111Y-18523579D01*
X17189111Y-18523579D02*
X17198634Y-18504531D01*
X17198634Y-18504531D02*
X17208158Y-18475960D01*
X17208158Y-18475960D02*
X17217682Y-18428341D01*
X17217682Y-18428341D02*
X17217682Y-18390246D01*
X17217682Y-18390246D02*
X17208158Y-18342627D01*
X17208158Y-18342627D02*
X17198634Y-18314055D01*
X17198634Y-18314055D02*
X17189111Y-18295008D01*
X17189111Y-18295008D02*
X17170063Y-18266436D01*
X17170063Y-18266436D02*
X17160539Y-18256912D01*
X12095000Y-18614000D02*
X12095000Y-18814000D01*
X11995000Y-18714000D02*
X12195000Y-18714000D01*
X12195000Y-18714000D02*
G75*
G02*
X11995000Y-18714000I-100000J0D01*
G01*
X11995000Y-18714000D02*
G75*
G02*
X12195000Y-18714000I100000J0D01*
G01*
X12436729Y-18605484D02*
X12560539Y-18605484D01*
X12560539Y-18605484D02*
X12493872Y-18681674D01*
X12493872Y-18681674D02*
X12522443Y-18681674D01*
X12522443Y-18681674D02*
X12541491Y-18691198D01*
X12541491Y-18691198D02*
X12551015Y-18700722D01*
X12551015Y-18700722D02*
X12560539Y-18719770D01*
X12560539Y-18719770D02*
X12560539Y-18767389D01*
X12560539Y-18767389D02*
X12551015Y-18786436D01*
X12551015Y-18786436D02*
X12541491Y-18795960D01*
X12541491Y-18795960D02*
X12522443Y-18805484D01*
X12522443Y-18805484D02*
X12465301Y-18805484D01*
X12465301Y-18805484D02*
X12446253Y-18795960D01*
X12446253Y-18795960D02*
X12436729Y-18786436D01*
X12646253Y-18786436D02*
X12655777Y-18795960D01*
X12655777Y-18795960D02*
X12646253Y-18805484D01*
X12646253Y-18805484D02*
X12636729Y-18795960D01*
X12636729Y-18795960D02*
X12646253Y-18786436D01*
X12646253Y-18786436D02*
X12646253Y-18805484D01*
X12722443Y-18605484D02*
X12855777Y-18605484D01*
X12855777Y-18605484D02*
X12770062Y-18805484D01*
X12970062Y-18605484D02*
X12989110Y-18605484D01*
X12989110Y-18605484D02*
X13008158Y-18615008D01*
X13008158Y-18615008D02*
X13017682Y-18624531D01*
X13017682Y-18624531D02*
X13027205Y-18643579D01*
X13027205Y-18643579D02*
X13036729Y-18681674D01*
X13036729Y-18681674D02*
X13036729Y-18729293D01*
X13036729Y-18729293D02*
X13027205Y-18767389D01*
X13027205Y-18767389D02*
X13017682Y-18786436D01*
X13017682Y-18786436D02*
X13008158Y-18795960D01*
X13008158Y-18795960D02*
X12989110Y-18805484D01*
X12989110Y-18805484D02*
X12970062Y-18805484D01*
X12970062Y-18805484D02*
X12951015Y-18795960D01*
X12951015Y-18795960D02*
X12941491Y-18786436D01*
X12941491Y-18786436D02*
X12931967Y-18767389D01*
X12931967Y-18767389D02*
X12922443Y-18729293D01*
X12922443Y-18729293D02*
X12922443Y-18681674D01*
X12922443Y-18681674D02*
X12931967Y-18643579D01*
X12931967Y-18643579D02*
X12941491Y-18624531D01*
X12941491Y-18624531D02*
X12951015Y-18615008D01*
X12951015Y-18615008D02*
X12970062Y-18605484D01*
X13160539Y-18605484D02*
X13179586Y-18605484D01*
X13179586Y-18605484D02*
X13198634Y-18615008D01*
X13198634Y-18615008D02*
X13208158Y-18624531D01*
X13208158Y-18624531D02*
X13217682Y-18643579D01*
X13217682Y-18643579D02*
X13227205Y-18681674D01*
X13227205Y-18681674D02*
X13227205Y-18729293D01*
X13227205Y-18729293D02*
X13217682Y-18767389D01*
X13217682Y-18767389D02*
X13208158Y-18786436D01*
X13208158Y-18786436D02*
X13198634Y-18795960D01*
X13198634Y-18795960D02*
X13179586Y-18805484D01*
X13179586Y-18805484D02*
X13160539Y-18805484D01*
X13160539Y-18805484D02*
X13141491Y-18795960D01*
X13141491Y-18795960D02*
X13131967Y-18786436D01*
X13131967Y-18786436D02*
X13122443Y-18767389D01*
X13122443Y-18767389D02*
X13112920Y-18729293D01*
X13112920Y-18729293D02*
X13112920Y-18681674D01*
X13112920Y-18681674D02*
X13122443Y-18643579D01*
X13122443Y-18643579D02*
X13131967Y-18624531D01*
X13131967Y-18624531D02*
X13141491Y-18615008D01*
X13141491Y-18615008D02*
X13160539Y-18605484D01*
X13312920Y-18805484D02*
X13312920Y-18672150D01*
X13312920Y-18691198D02*
X13322443Y-18681674D01*
X13322443Y-18681674D02*
X13341491Y-18672150D01*
X13341491Y-18672150D02*
X13370063Y-18672150D01*
X13370063Y-18672150D02*
X13389110Y-18681674D01*
X13389110Y-18681674D02*
X13398634Y-18700722D01*
X13398634Y-18700722D02*
X13398634Y-18805484D01*
X13398634Y-18700722D02*
X13408158Y-18681674D01*
X13408158Y-18681674D02*
X13427205Y-18672150D01*
X13427205Y-18672150D02*
X13455777Y-18672150D01*
X13455777Y-18672150D02*
X13474824Y-18681674D01*
X13474824Y-18681674D02*
X13484348Y-18700722D01*
X13484348Y-18700722D02*
X13484348Y-18805484D01*
X13579586Y-18805484D02*
X13579586Y-18672150D01*
X13579586Y-18691198D02*
X13589110Y-18681674D01*
X13589110Y-18681674D02*
X13608158Y-18672150D01*
X13608158Y-18672150D02*
X13636729Y-18672150D01*
X13636729Y-18672150D02*
X13655777Y-18681674D01*
X13655777Y-18681674D02*
X13665301Y-18700722D01*
X13665301Y-18700722D02*
X13665301Y-18805484D01*
X13665301Y-18700722D02*
X13674824Y-18681674D01*
X13674824Y-18681674D02*
X13693872Y-18672150D01*
X13693872Y-18672150D02*
X13722443Y-18672150D01*
X13722443Y-18672150D02*
X13741491Y-18681674D01*
X13741491Y-18681674D02*
X13751015Y-18700722D01*
X13751015Y-18700722D02*
X13751015Y-18805484D01*
X14141491Y-18595960D02*
X13970063Y-18853103D01*
X14398634Y-18605484D02*
X14417682Y-18605484D01*
X14417682Y-18605484D02*
X14436729Y-18615008D01*
X14436729Y-18615008D02*
X14446253Y-18624531D01*
X14446253Y-18624531D02*
X14455777Y-18643579D01*
X14455777Y-18643579D02*
X14465301Y-18681674D01*
X14465301Y-18681674D02*
X14465301Y-18729293D01*
X14465301Y-18729293D02*
X14455777Y-18767389D01*
X14455777Y-18767389D02*
X14446253Y-18786436D01*
X14446253Y-18786436D02*
X14436729Y-18795960D01*
X14436729Y-18795960D02*
X14417682Y-18805484D01*
X14417682Y-18805484D02*
X14398634Y-18805484D01*
X14398634Y-18805484D02*
X14379586Y-18795960D01*
X14379586Y-18795960D02*
X14370063Y-18786436D01*
X14370063Y-18786436D02*
X14360539Y-18767389D01*
X14360539Y-18767389D02*
X14351015Y-18729293D01*
X14351015Y-18729293D02*
X14351015Y-18681674D01*
X14351015Y-18681674D02*
X14360539Y-18643579D01*
X14360539Y-18643579D02*
X14370063Y-18624531D01*
X14370063Y-18624531D02*
X14379586Y-18615008D01*
X14379586Y-18615008D02*
X14398634Y-18605484D01*
X14551015Y-18786436D02*
X14560539Y-18795960D01*
X14560539Y-18795960D02*
X14551015Y-18805484D01*
X14551015Y-18805484D02*
X14541491Y-18795960D01*
X14541491Y-18795960D02*
X14551015Y-18786436D01*
X14551015Y-18786436D02*
X14551015Y-18805484D01*
X14751015Y-18805484D02*
X14636729Y-18805484D01*
X14693872Y-18805484D02*
X14693872Y-18605484D01*
X14693872Y-18605484D02*
X14674825Y-18634055D01*
X14674825Y-18634055D02*
X14655777Y-18653103D01*
X14655777Y-18653103D02*
X14636729Y-18662627D01*
X14922444Y-18672150D02*
X14922444Y-18805484D01*
X14874825Y-18595960D02*
X14827206Y-18738817D01*
X14827206Y-18738817D02*
X14951015Y-18738817D01*
X15122444Y-18605484D02*
X15027206Y-18605484D01*
X15027206Y-18605484D02*
X15017682Y-18700722D01*
X15017682Y-18700722D02*
X15027206Y-18691198D01*
X15027206Y-18691198D02*
X15046253Y-18681674D01*
X15046253Y-18681674D02*
X15093872Y-18681674D01*
X15093872Y-18681674D02*
X15112920Y-18691198D01*
X15112920Y-18691198D02*
X15122444Y-18700722D01*
X15122444Y-18700722D02*
X15131967Y-18719770D01*
X15131967Y-18719770D02*
X15131967Y-18767389D01*
X15131967Y-18767389D02*
X15122444Y-18786436D01*
X15122444Y-18786436D02*
X15112920Y-18795960D01*
X15112920Y-18795960D02*
X15093872Y-18805484D01*
X15093872Y-18805484D02*
X15046253Y-18805484D01*
X15046253Y-18805484D02*
X15027206Y-18795960D01*
X15027206Y-18795960D02*
X15017682Y-18786436D01*
X15198634Y-18605484D02*
X15331967Y-18605484D01*
X15331967Y-18605484D02*
X15246253Y-18805484D01*
X15398634Y-18605484D02*
X15398634Y-18643579D01*
X15474825Y-18605484D02*
X15474825Y-18643579D01*
X15770063Y-18881674D02*
X15760539Y-18872150D01*
X15760539Y-18872150D02*
X15741491Y-18843579D01*
X15741491Y-18843579D02*
X15731968Y-18824531D01*
X15731968Y-18824531D02*
X15722444Y-18795960D01*
X15722444Y-18795960D02*
X15712920Y-18748341D01*
X15712920Y-18748341D02*
X15712920Y-18710246D01*
X15712920Y-18710246D02*
X15722444Y-18662627D01*
X15722444Y-18662627D02*
X15731968Y-18634055D01*
X15731968Y-18634055D02*
X15741491Y-18615008D01*
X15741491Y-18615008D02*
X15760539Y-18586436D01*
X15760539Y-18586436D02*
X15770063Y-18576912D01*
X15931968Y-18672150D02*
X15931968Y-18805484D01*
X15884348Y-18595960D02*
X15836729Y-18738817D01*
X15836729Y-18738817D02*
X15960539Y-18738817D01*
X16189110Y-18805484D02*
X16189110Y-18605484D01*
X16274825Y-18805484D02*
X16274825Y-18700722D01*
X16274825Y-18700722D02*
X16265301Y-18681674D01*
X16265301Y-18681674D02*
X16246253Y-18672150D01*
X16246253Y-18672150D02*
X16217682Y-18672150D01*
X16217682Y-18672150D02*
X16198634Y-18681674D01*
X16198634Y-18681674D02*
X16189110Y-18691198D01*
X16398634Y-18805484D02*
X16379587Y-18795960D01*
X16379587Y-18795960D02*
X16370063Y-18786436D01*
X16370063Y-18786436D02*
X16360539Y-18767389D01*
X16360539Y-18767389D02*
X16360539Y-18710246D01*
X16360539Y-18710246D02*
X16370063Y-18691198D01*
X16370063Y-18691198D02*
X16379587Y-18681674D01*
X16379587Y-18681674D02*
X16398634Y-18672150D01*
X16398634Y-18672150D02*
X16427206Y-18672150D01*
X16427206Y-18672150D02*
X16446253Y-18681674D01*
X16446253Y-18681674D02*
X16455777Y-18691198D01*
X16455777Y-18691198D02*
X16465301Y-18710246D01*
X16465301Y-18710246D02*
X16465301Y-18767389D01*
X16465301Y-18767389D02*
X16455777Y-18786436D01*
X16455777Y-18786436D02*
X16446253Y-18795960D01*
X16446253Y-18795960D02*
X16427206Y-18805484D01*
X16427206Y-18805484D02*
X16398634Y-18805484D01*
X16579587Y-18805484D02*
X16560539Y-18795960D01*
X16560539Y-18795960D02*
X16551015Y-18776912D01*
X16551015Y-18776912D02*
X16551015Y-18605484D01*
X16731968Y-18795960D02*
X16712920Y-18805484D01*
X16712920Y-18805484D02*
X16674825Y-18805484D01*
X16674825Y-18805484D02*
X16655777Y-18795960D01*
X16655777Y-18795960D02*
X16646253Y-18776912D01*
X16646253Y-18776912D02*
X16646253Y-18700722D01*
X16646253Y-18700722D02*
X16655777Y-18681674D01*
X16655777Y-18681674D02*
X16674825Y-18672150D01*
X16674825Y-18672150D02*
X16712920Y-18672150D01*
X16712920Y-18672150D02*
X16731968Y-18681674D01*
X16731968Y-18681674D02*
X16741491Y-18700722D01*
X16741491Y-18700722D02*
X16741491Y-18719770D01*
X16741491Y-18719770D02*
X16646253Y-18738817D01*
X16817682Y-18795960D02*
X16836730Y-18805484D01*
X16836730Y-18805484D02*
X16874825Y-18805484D01*
X16874825Y-18805484D02*
X16893873Y-18795960D01*
X16893873Y-18795960D02*
X16903396Y-18776912D01*
X16903396Y-18776912D02*
X16903396Y-18767389D01*
X16903396Y-18767389D02*
X16893873Y-18748341D01*
X16893873Y-18748341D02*
X16874825Y-18738817D01*
X16874825Y-18738817D02*
X16846253Y-18738817D01*
X16846253Y-18738817D02*
X16827206Y-18729293D01*
X16827206Y-18729293D02*
X16817682Y-18710246D01*
X16817682Y-18710246D02*
X16817682Y-18700722D01*
X16817682Y-18700722D02*
X16827206Y-18681674D01*
X16827206Y-18681674D02*
X16846253Y-18672150D01*
X16846253Y-18672150D02*
X16874825Y-18672150D01*
X16874825Y-18672150D02*
X16893873Y-18681674D01*
X16970063Y-18881674D02*
X16979587Y-18872150D01*
X16979587Y-18872150D02*
X16998634Y-18843579D01*
X16998634Y-18843579D02*
X17008158Y-18824531D01*
X17008158Y-18824531D02*
X17017682Y-18795960D01*
X17017682Y-18795960D02*
X17027206Y-18748341D01*
X17027206Y-18748341D02*
X17027206Y-18710246D01*
X17027206Y-18710246D02*
X17017682Y-18662627D01*
X17017682Y-18662627D02*
X17008158Y-18634055D01*
X17008158Y-18634055D02*
X16998634Y-18615008D01*
X16998634Y-18615008D02*
X16979587Y-18586436D01*
X16979587Y-18586436D02*
X16970063Y-18576912D01*
M02*
